<?xml version="1.0" encoding="UTF-8" standalone="no"?>
<!-- Created with Inkscape (http://www.inkscape.org/) -->

<svg
   xmlns:dc="http://purl.org/dc/elements/1.1/"
   xmlns:cc="http://creativecommons.org/ns#"
   xmlns:rdf="http://www.w3.org/1999/02/22-rdf-syntax-ns#"
   xmlns:svg="http://www.w3.org/2000/svg"
   xmlns="http://www.w3.org/2000/svg"
   xmlns:sodipodi="http://sodipodi.sourceforge.net/DTD/sodipodi-0.dtd"
   xmlns:inkscape="http://www.inkscape.org/namespaces/inkscape"
   width="80"
   height="80"
   viewBox="0 0 21.166666 21.166667"
   version="1.1"
   id="svg8"
   inkscape:version="0.92.4 5da689c313, 2019-01-14"
   sodipodi:docname="hygrotemp_square.svg">
  <defs
     id="defs2">
    <inkscape:perspective
       sodipodi:type="inkscape:persp3d"
       inkscape:vp_x="0 : 10.583334 : 1"
       inkscape:vp_y="0 : 1000 : 0"
       inkscape:vp_z="21.166666 : 10.583334 : 1"
       inkscape:persp3d-origin="10.583333 : 7.0555557 : 1"
       id="perspective848" />
  </defs>
  <sodipodi:namedview
     id="base"
     pagecolor="#ffffff"
     bordercolor="#ff0101"
     borderopacity="1"
     inkscape:pageopacity="0.0"
     inkscape:pageshadow="2"
     inkscape:zoom="11.2"
     inkscape:cx="15.686379"
     inkscape:cy="43.91741"
     inkscape:document-units="mm"
     inkscape:current-layer="g860"
     showgrid="true"
     units="px"
     borderlayer="true"
     inkscape:window-width="1720"
     inkscape:window-height="1364"
     inkscape:window-x="1720"
     inkscape:window-y="0"
     inkscape:window-maximized="0"
     inkscape:snap-object-midpoints="true"
     inkscape:snap-bbox="false"
     inkscape:object-paths="true"
     inkscape:snap-intersection-paths="true"
     inkscape:bbox-nodes="true"
     inkscape:snap-bbox-edge-midpoints="true"
     inkscape:snap-smooth-nodes="true"
     inkscape:snap-midpoints="true"
     inkscape:snap-center="true"
     inkscape:snap-grids="true">
    <inkscape:grid
       type="xygrid"
       id="grid4518" />
  </sodipodi:namedview>
  <metadata
     id="metadata5">
    <rdf:RDF>
      <cc:Work
         rdf:about="">
        <dc:format>image/svg+xml</dc:format>
        <dc:type
           rdf:resource="http://purl.org/dc/dcmitype/StillImage" />
        <dc:title></dc:title>
        <cc:license
           rdf:resource="http://creativecommons.org/licenses/by-sa/4.0/" />
      </cc:Work>
      <cc:License
         rdf:about="http://creativecommons.org/licenses/by-sa/4.0/">
        <cc:permits
           rdf:resource="http://creativecommons.org/ns#Reproduction" />
        <cc:permits
           rdf:resource="http://creativecommons.org/ns#Distribution" />
        <cc:requires
           rdf:resource="http://creativecommons.org/ns#Notice" />
        <cc:requires
           rdf:resource="http://creativecommons.org/ns#Attribution" />
        <cc:permits
           rdf:resource="http://creativecommons.org/ns#DerivativeWorks" />
        <cc:requires
           rdf:resource="http://creativecommons.org/ns#ShareAlike" />
      </cc:License>
    </rdf:RDF>
  </metadata>
  <g
     inkscape:label="bg"
     inkscape:groupmode="layer"
     id="layer1"
     transform="translate(0,-275.83332)"
     style="display:inline">
    <path
       style="opacity:1;fill:#e2e2e2;fill-opacity:1;fill-rule:evenodd;stroke:none;stroke-width:1.11234546;stroke-miterlimit:4;stroke-dasharray:none;stroke-opacity:1"
       d="m 3.7916085,278.49297 c -0.6271025,0 -1.1319541,0.50486 -1.1319541,1.13196 v 13.58345 c 0,0.62709 0.5048516,1.13195 1.1319541,1.13195 H 17.375058 c 0.627102,0 1.131954,-0.50486 1.131954,-1.13195 v -13.58345 c 0,-0.6271 -0.504852,-1.13196 -1.131954,-1.13196 z m 2.0910199,2.26391 h 9.4014096 c 0.531443,0 0.959066,0.42763 0.959066,0.95907 v 9.40141 c 0,0.53144 -0.427623,0.95906 -0.959066,0.95906 H 5.8826284 c -0.5314427,0 -0.9590658,-0.42762 -0.9590658,-0.95906 v -9.40141 c 0,-0.53144 0.4276231,-0.95907 0.9590658,-0.95907 z"
       id="rect866"
       inkscape:connector-curvature="0" />
  </g>
  <g
     inkscape:groupmode="layer"
     id="layer2"
     inkscape:label="textes"
     style="display:none"
     sodipodi:insensitive="true">
    <text
       xml:space="preserve"
       style="font-style:normal;font-weight:normal;font-size:10.7079668px;line-height:1.25;font-family:sans-serif;letter-spacing:0px;word-spacing:0px;display:inline;fill:#495057;fill-opacity:1;stroke:none;stroke-width:0.36262819"
       x="4.8580894"
       y="10.399267"
       id="text4547-7"
       transform="scale(1.0011161,0.99888515)"><tspan
         sodipodi:role="line"
         id="tspan4545-5"
         x="4.8580894"
         y="10.399267"
         style="font-style:normal;font-variant:normal;font-weight:bold;font-stretch:normal;font-size:7.05555534px;font-family:'Open 24 Display St';-inkscape-font-specification:'Open 24 Display St Bold';fill:#495057;fill-opacity:1;stroke:none;stroke-width:0.36262819;stroke-opacity:1">22.8 </tspan></text>
    <text
       xml:space="preserve"
       style="font-style:normal;font-weight:normal;font-size:8.85094357px;line-height:1.25;font-family:sans-serif;letter-spacing:0px;word-spacing:0px;display:inline;fill:#495057;fill-opacity:1;stroke:none;stroke-width:0.26458332"
       x="11.274778"
       y="15.855597"
       id="text4557-3"><tspan
         sodipodi:role="line"
         id="tspan4555-5"
         x="11.274778"
         y="15.855597"
         style="font-style:normal;font-variant:normal;font-weight:600;font-stretch:normal;font-size:3.52777767px;font-family:'URW Gothic';-inkscape-font-specification:'URW Gothic Semi-Bold';fill:#495057;fill-opacity:1;stroke-width:0.26458332">36</tspan></text>
    <text
       xml:space="preserve"
       style="font-style:normal;font-weight:normal;font-size:8.85094357px;line-height:1.25;font-family:sans-serif;letter-spacing:0px;word-spacing:0px;display:inline;fill:#495057;fill-opacity:1;stroke:none;stroke-width:0.26458332"
       x="4.7222915"
       y="15.378994"
       id="text4557-3-1"><tspan
         sodipodi:role="line"
         id="tspan4555-5-0"
         x="4.7222915"
         y="15.378994"
         style="font-style:normal;font-variant:normal;font-weight:600;font-stretch:normal;font-size:2.82222223px;line-height:1;font-family:'URW Gothic';-inkscape-font-specification:'URW Gothic Semi-Bold';letter-spacing:-0.26458332px;fill:#495057;fill-opacity:1;stroke-width:0.26458332">(^_^)</tspan></text>
    <text
       xml:space="preserve"
       style="font-style:normal;font-weight:normal;font-size:10.58333302px;line-height:1.25;font-family:sans-serif;letter-spacing:0px;word-spacing:0px;fill:#000000;fill-opacity:1;stroke:none;stroke-width:0.26458332"
       x="3.7041667"
       y="2.6458333"
       id="text825"><tspan
         sodipodi:role="line"
         id="tspan823"
         x="3.7041667"
         y="2.6458333"
         style="stroke-width:0.26458332"> </tspan></text>
    <text
       xml:space="preserve"
       style="font-style:normal;font-weight:normal;font-size:10.58333302px;line-height:1.25;font-family:sans-serif;letter-spacing:0px;word-spacing:0px;fill:#000000;fill-opacity:1;stroke:none;stroke-width:0.26458332"
       x="15.038917"
       y="10.307108"
       id="text830"><tspan
         sodipodi:role="line"
         id="tspan828"
         x="15.038917"
         y="10.307108"
         style="font-style:normal;font-variant:normal;font-weight:600;font-stretch:normal;font-size:2.11666656px;font-family:'URW Gothic';-inkscape-font-specification:'URW Gothic Semi-Bold';fill:#495057;fill-opacity:1;stroke-width:0.26458332">C</tspan></text>
    <text
       xml:space="preserve"
       style="font-style:normal;font-weight:normal;font-size:10.58333302px;line-height:1.25;font-family:sans-serif;letter-spacing:0px;word-spacing:0px;fill:#495057;fill-opacity:1;stroke:none;stroke-width:0.26458332"
       x="15.535627"
       y="15.867239"
       id="text834"><tspan
         sodipodi:role="line"
         id="tspan832"
         x="15.535627"
         y="15.867239"
         style="font-style:normal;font-variant:normal;font-weight:600;font-stretch:normal;font-size:1.41111112px;font-family:'URW Gothic';-inkscape-font-specification:'URW Gothic Semi-Bold';fill:#495057;fill-opacity:1;stroke-width:0.26458332">%</tspan></text>
  </g>
  <g
     style="display:inline"
     inkscape:label="textes paths"
     id="g860"
     inkscape:groupmode="layer">
    <g
       aria-label="22.8 "
       transform="matrix(0.85660535,0,0,0.85469644,1.5277003,1.5277003)"
       style="font-style:normal;font-weight:normal;font-size:10.7079668px;line-height:1.25;font-family:sans-serif;letter-spacing:0px;word-spacing:0px;display:inline;fill:#b1b1b1;fill-opacity:1;stroke:none;stroke-width:0.36262819"
       id="text838">
      <path
         d="m 5.2577205,5.479671 h 1.9568142 q 0.017226,0 0.1378038,0.1378038 0,0.017226 -0.4134114,0.4134115 h -1.405599 q -0.017225,0 -0.4134114,-0.4134115 0,-0.017226 0.1378038,-0.1378038 z m 2.2324218,0.1515842 q 0.017226,0 0.1378038,0.1378038 v 1.9568142 q 0,0.017226 -0.1378038,0.1378038 -0.017225,0 -0.4134114,-0.4134115 V 6.0446666 q 0,-0.017225 0.4134114,-0.4134114 z M 5.4093047,7.6707517 h 1.626085 q 0.017226,0 0.2756077,0.2756076 v 0.01378 q 0,0.017225 -0.2756077,0.2756076 h -1.626085 q -0.017225,0 -0.2756076,-0.2756076 v -0.01378 q 0,-0.017226 0.2756076,-0.2756076 z M 4.9958933,8.0152612 q 0.017225,0 0.4134114,0.4134114 v 1.405599 q 0,0.017225 -0.4134114,0.4134114 -0.017225,0 -0.1378039,-0.137804 V 8.153065 q 0,-0.017226 0.1378039,-0.1378038 z m 0.5512152,1.8327907 h 1.4055989 q 0.017225,0 0.4134115,0.4134111 0,0.01723 -0.1378038,0.137804 H 5.2715009 q -0.017226,0 -0.1378038,-0.137804 0,-0.01722 0.4134114,-0.4134111 z"
         style="font-style:normal;font-variant:normal;font-weight:bold;font-stretch:normal;font-size:7.05555534px;font-family:'Open 24 Display St';-inkscape-font-specification:'Open 24 Display St Bold';fill:#b1b1b1;fill-opacity:1;stroke:none;stroke-width:0.36262819;stroke-opacity:1"
         id="path885"
         inkscape:connector-curvature="0" />
      <path
         d="m 8.3755317,5.479671 h 1.9568143 q 0.01722,0 0.137804,0.1378038 0,0.017226 -0.413412,0.4134115 H 8.6511393 q -0.017225,0 -0.4134114,-0.4134115 0,-0.017226 0.1378038,-0.1378038 z m 2.2324223,0.1515842 q 0.01722,0 0.137803,0.1378038 v 1.9568142 q 0,0.017226 -0.137803,0.1378038 -0.01723,0 -0.413412,-0.4134115 V 6.0446666 q 0,-0.017225 0.413412,-0.4134114 z M 8.5271159,7.6707517 h 1.6260851 q 0.01723,0 0.275608,0.2756076 v 0.01378 q 0,0.017225 -0.275608,0.2756076 H 8.5271159 q -0.017226,0 -0.2756076,-0.2756076 v -0.01378 q 0,-0.017226 0.2756076,-0.2756076 z M 8.1137045,8.0152612 q 0.017225,0 0.4134114,0.4134114 v 1.405599 q 0,0.017225 -0.4134114,0.4134114 -0.017226,0 -0.1378038,-0.137804 V 8.153065 q 0,-0.017226 0.1378038,-0.1378038 z m 0.5512152,1.8327907 h 1.4055993 q 0.01722,0 0.413411,0.4134111 0,0.01723 -0.137804,0.137804 H 8.3893121 q -0.017226,0 -0.1378038,-0.137804 0,-0.01722 0.4134114,-0.4134111 z"
         style="font-style:normal;font-variant:normal;font-weight:bold;font-stretch:normal;font-size:7.05555534px;font-family:'Open 24 Display St';-inkscape-font-specification:'Open 24 Display St Bold';fill:#b1b1b1;fill-opacity:1;stroke:none;stroke-width:0.36262819;stroke-opacity:1"
         id="path887"
         inkscape:connector-curvature="0" />
      <path
         d="m 11.114382,10.082318 v -0.02756 q 0,-0.02067 0.33073,-0.3307295 h 0.02756 q 0.02067,0 0.33073,0.3307295 v 0.02756 q 0,0.02067 -0.33073,0.33073 h -0.02756 q -0.02067,0 -0.33073,-0.33073 z"
         style="font-style:normal;font-variant:normal;font-weight:bold;font-stretch:normal;font-size:7.05555534px;font-family:'Open 24 Display St';-inkscape-font-specification:'Open 24 Display St Bold';fill:#b1b1b1;fill-opacity:1;stroke:none;stroke-width:0.36262819;stroke-opacity:1"
         id="path889"
         inkscape:connector-curvature="0" />
      <path
         d="m 12.523426,5.479671 h 1.956815 q 0.01722,0 0.137803,0.1378038 0,0.017226 -0.413411,0.4134115 h -1.405599 q -0.01722,0 -0.413411,-0.4134115 0,-0.017226 0.137803,-0.1378038 z m 2.218642,0.1378038 q 0.01722,0 0.137804,0.1378038 v 1.9568142 q 0,0.017226 -0.137804,0.1378038 -0.01723,0 -0.413412,-0.4134114 V 6.0308863 q 0,-0.017225 0.413412,-0.4134115 z m -2.494249,0.01378 q 0.01722,0 0.413411,0.4134114 v 1.4055989 q 0,0.017225 -0.413411,0.4134115 -0.01723,0 -0.137804,-0.1378038 V 5.769059 q 0,-0.017226 0.137804,-0.1378042 z m 0.413411,2.0119357 h 1.626085 q 0.01723,0 0.275608,0.2756076 v 0.01378 q 0,0.017225 -0.275608,0.2756076 H 12.66123 q -0.01722,0 -0.275607,-0.2756076 v -0.01378 q 0,-0.017226 0.275607,-0.2756076 z m -0.413411,0.3582899 q 0.01722,0 0.413411,0.4134115 v 1.4055989 q 0,0.017225 -0.413411,0.4134122 -0.01723,0 -0.137804,-0.137804 V 8.1392846 q 0,-0.017226 0.137804,-0.1378042 z m 2.494249,0.01378 q 0.01722,0 0.137804,0.1378038 v 1.9568138 q 0,0.01723 -0.137804,0.137804 -0.01723,0 -0.413412,-0.4134112 v -1.405599 q 0,-0.017225 0.413412,-0.4134114 z m -1.956814,1.8327907 h 1.405599 q 0.01722,0 0.413411,0.4134109 0,0.01723 -0.137804,0.137804 h -1.956814 q -0.01722,0 -0.137804,-0.137804 0,-0.01722 0.413412,-0.4134109 z"
         style="font-style:normal;font-variant:normal;font-weight:bold;font-stretch:normal;font-size:7.05555534px;font-family:'Open 24 Display St';-inkscape-font-specification:'Open 24 Display St Bold';fill:#b1b1b1;fill-opacity:1;stroke:none;stroke-width:0.36262819;stroke-opacity:1"
         id="path891"
         inkscape:connector-curvature="0" />
    </g>
    <g
       aria-label="36"
       style="font-style:normal;font-weight:normal;font-size:8.85094357px;line-height:1.25;font-family:sans-serif;letter-spacing:0px;word-spacing:0px;display:inline;fill:#b1b1b1;fill-opacity:1;stroke:none;stroke-width:0.26458332"
       id="text842"
       transform="matrix(0.85565036,0,0,0.85565036,1.5277003,1.5277003)">
      <path
         d="m 12.043834,14.599708 h 0.07761 c 0.313972,0 0.511528,0.172861 0.511528,0.437444 0,0.250472 -0.172861,0.433917 -0.409222,0.433917 -0.229306,0 -0.391584,-0.15875 -0.423334,-0.405695 h -0.472722 c 0.02822,0.490361 0.398639,0.836084 0.899583,0.836084 0.504473,0 0.874889,-0.370417 0.874889,-0.874889 0,-0.328084 -0.134055,-0.550334 -0.405694,-0.673806 0.151694,-0.109361 0.218722,-0.246944 0.218722,-0.448028 0,-0.402166 -0.299861,-0.702027 -0.702028,-0.702027 -0.204611,0 -0.391583,0.08114 -0.522111,0.22225 -0.109361,0.119944 -0.151694,0.232833 -0.169333,0.4445 h 0.47625 c 0.02117,-0.165806 0.08819,-0.236361 0.218722,-0.236361 0.134056,0 0.229306,0.102305 0.229306,0.246944 0,0.112889 -0.05292,0.194028 -0.151695,0.232833 -0.05997,0.02469 -0.123472,0.03175 -0.250472,0.03528 z"
         style="font-style:normal;font-variant:normal;font-weight:600;font-stretch:normal;font-size:3.52777767px;font-family:'URW Gothic';-inkscape-font-specification:'URW Gothic Semi-Bold';fill:#b1b1b1;fill-opacity:1;stroke-width:0.26458332"
         id="path880"
         inkscape:connector-curvature="0" />
      <path
         d="m 14.262804,13.248569 -0.680861,1.023055 c -0.1905,0.282223 -0.257528,0.47625 -0.257528,0.73025 0,0.515056 0.388056,0.899584 0.913695,0.899584 0.522111,0 0.892527,-0.388056 0.892527,-0.934861 0,-0.479778 -0.303388,-0.8255 -0.719666,-0.8255 -0.08467,0 -0.130528,0.0071 -0.211667,0.03528 l 0.624417,-0.927805 z m -0.03175,1.30175 c 0.246945,0 0.430389,0.194028 0.430389,0.462139 0,0.271639 -0.172861,0.458611 -0.419805,0.458611 -0.261056,0 -0.448028,-0.1905 -0.448028,-0.458611 0,-0.275167 0.176389,-0.462139 0.437444,-0.462139 z"
         style="font-style:normal;font-variant:normal;font-weight:600;font-stretch:normal;font-size:3.52777767px;font-family:'URW Gothic';-inkscape-font-specification:'URW Gothic Semi-Bold';fill:#b1b1b1;fill-opacity:1;stroke-width:0.26458332"
         id="path882"
         inkscape:connector-curvature="0" />
    </g>
    <g
       aria-label="(^_^)"
       style="font-style:normal;font-weight:normal;font-size:8.85094357px;line-height:1.25;font-family:sans-serif;letter-spacing:0px;word-spacing:0px;display:inline;fill:#b1b1b1;fill-opacity:1;stroke:none;stroke-width:0.26458332"
       id="text846"
       transform="matrix(0.85565036,0,0,0.85565036,1.5277003,1.5277003)">
      <path
         d="M 5.707247,15.356416 C 5.4758248,15.206838 5.3121359,14.862527 5.3121359,14.529505 c 0,-0.338667 0.1382889,-0.632178 0.3951111,-0.829733 v -0.4064 c -0.1495777,0.06209 -0.2314222,0.112889 -0.3414889,0.211666 -0.2709333,0.242712 -0.4346222,0.626534 -0.4346222,1.027289 0,0.352778 0.1326445,0.697089 0.3612445,0.953911 0.1354666,0.146756 0.2427111,0.220134 0.4148666,0.2794 z"
         style="font-style:normal;font-variant:normal;font-weight:600;font-stretch:normal;font-size:2.82222223px;line-height:1;font-family:'URW Gothic';-inkscape-font-specification:'URW Gothic Semi-Bold';letter-spacing:-0.26458332px;fill:#b1b1b1;fill-opacity:1;stroke-width:0.26458332"
         id="path869"
         inkscape:connector-curvature="0" />
      <path
         d="M 6.0014613,14.492816 6.3852835,13.716705 6.7691057,14.495638 7.0626168,14.354527 6.5574391,13.293372 H 6.213128 l -0.5051778,1.061155 z"
         style="font-style:normal;font-variant:normal;font-weight:600;font-stretch:normal;font-size:2.82222223px;line-height:1;font-family:'URW Gothic';-inkscape-font-specification:'URW Gothic Semi-Bold';letter-spacing:-0.26458332px;fill:#b1b1b1;fill-opacity:1;stroke-width:0.26458332"
         id="path871"
         inkscape:connector-curvature="0" />
      <path
         d="m 6.9588959,15.556794 v 0.254 H 8.370007 v -0.254 z"
         style="font-style:normal;font-variant:normal;font-weight:600;font-stretch:normal;font-size:2.82222223px;line-height:1;font-family:'URW Gothic';-inkscape-font-specification:'URW Gothic Semi-Bold';letter-spacing:-0.26458332px;fill:#b1b1b1;fill-opacity:1;stroke-width:0.26458332"
         id="path873"
         inkscape:connector-curvature="0" />
      <path
         d="M 8.5767293,14.492816 8.9605515,13.716705 9.3443738,14.495638 9.6378849,14.354527 9.1327071,13.293372 H 8.788396 l -0.5051778,1.061155 z"
         style="font-style:normal;font-variant:normal;font-weight:600;font-stretch:normal;font-size:2.82222223px;line-height:1;font-family:'URW Gothic';-inkscape-font-specification:'URW Gothic Semi-Bold';letter-spacing:-0.26458332px;fill:#b1b1b1;fill-opacity:1;stroke-width:0.26458332"
         id="path875"
         inkscape:connector-curvature="0" />
      <path
         d="m 9.6385862,13.702594 c 0.2314222,0.149578 0.3951108,0.493889 0.3951108,0.824089 0,0.341489 -0.1382886,0.635 -0.3951108,0.832555 v 0.4064 c 0.1495778,-0.06209 0.2342444,-0.115711 0.3414889,-0.211666 0.2709329,-0.242711 0.4346219,-0.629356 0.4346219,-1.027289 0,-0.352778 -0.132644,-0.697089 -0.361244,-0.953911 -0.1354668,-0.146756 -0.2427113,-0.220134 -0.4148668,-0.2794 z"
         style="font-style:normal;font-variant:normal;font-weight:600;font-stretch:normal;font-size:2.82222223px;line-height:1;font-family:'URW Gothic';-inkscape-font-specification:'URW Gothic Semi-Bold';letter-spacing:-0.26458332px;fill:#b1b1b1;fill-opacity:1;stroke-width:0.26458332"
         id="path877"
         inkscape:connector-curvature="0" />
    </g>
    <g
       aria-label=" "
       style="font-style:normal;font-weight:normal;font-size:10.58333302px;line-height:1.25;font-family:sans-serif;letter-spacing:0px;word-spacing:0px;fill:#000000;fill-opacity:1;stroke:none;stroke-width:0.26458332"
       id="text850" />
    <g
       aria-label="C"
       style="font-style:normal;font-weight:normal;font-size:10.58333302px;line-height:1.25;font-family:sans-serif;letter-spacing:0px;word-spacing:0px;fill:#b1b1b1;fill-opacity:1;stroke:none;stroke-width:0.26458332"
       id="text854"
       transform="matrix(0.85565036,0,0,0.85565036,1.5277003,1.5277003)">
      <path
         d="m 16.3068,9.8710746 c -0.129117,0.1333504 -0.237067,0.1841504 -0.38735,0.1841504 -0.289983,0 -0.524933,-0.2413004 -0.524933,-0.5334004 0,-0.127 0.04868,-0.2624666 0.129116,-0.3555999 0.09525,-0.1121834 0.230717,-0.17145 0.389467,-0.17145 0.182033,0 0.3048,0.059267 0.410633,0.19685 h 0.32385 C 16.5862,9.056158 16.531167,8.9820747 16.425333,8.8952913 16.2814,8.7788747 16.09725,8.7153747 15.90675,8.7153747 c -0.442383,0 -0.804333,0.36195 -0.804333,0.8043333 0,0.4529666 0.366183,0.814917 0.823383,0.814917 0.321733,0 0.599017,-0.1778 0.721783,-0.4635504 z"
         style="font-style:normal;font-variant:normal;font-weight:600;font-stretch:normal;font-size:2.11666656px;font-family:'URW Gothic';-inkscape-font-specification:'URW Gothic Semi-Bold';fill:#b1b1b1;fill-opacity:1;stroke-width:0.26458332"
         id="path865"
         inkscape:connector-curvature="0" />
    </g>
    <g
       aria-label="%"
       style="font-style:normal;font-weight:normal;font-size:10.58333302px;line-height:1.25;font-family:sans-serif;letter-spacing:0px;word-spacing:0px;fill:#b1b1b1;fill-opacity:1;stroke:none;stroke-width:0.26458332"
       id="text858"
       transform="matrix(0.85565036,0,0,0.85565036,1.5277003,1.5277003)">
      <path
         d="m 16.280694,14.824428 -0.430389,1.042811 h 0.143933 l 0.4318,-1.042811 z m 0.179211,0.551744 c -0.143933,0 -0.256822,0.111478 -0.256822,0.254 0,0.141111 0.1143,0.255411 0.255411,0.255411 0.141111,0 0.255411,-0.1143 0.255411,-0.255411 0,-0.138289 -0.115711,-0.254 -0.254,-0.254 z m -0.0014,0.149578 c 0.05644,0 0.104422,0.04798 0.104422,0.104422 0,0.05786 -0.04657,0.104423 -0.104422,0.104423 -0.05644,0 -0.103011,-0.04657 -0.103011,-0.104423 0,-0.05785 0.04516,-0.104422 0.103011,-0.104422 z m -0.636411,-0.719667 c -0.143933,0 -0.256822,0.111478 -0.256822,0.255412 0,0.1397 0.1143,0.254 0.255411,0.254 0.141111,0 0.255411,-0.1143 0.255411,-0.255412 0,-0.138288 -0.115711,-0.254 -0.254,-0.254 z m -0.0014,0.149578 c 0.05785,0 0.104422,0.04798 0.104422,0.104422 0,0.05786 -0.04657,0.104423 -0.104422,0.104423 -0.05645,0 -0.103011,-0.04657 -0.103011,-0.104423 0,-0.05785 0.04516,-0.104422 0.103011,-0.104422 z"
         style="font-style:normal;font-variant:normal;font-weight:600;font-stretch:normal;font-size:1.41111112px;font-family:'URW Gothic';-inkscape-font-specification:'URW Gothic Semi-Bold';fill:#b1b1b1;fill-opacity:1;stroke-width:0.26458332"
         id="path862"
         inkscape:connector-curvature="0" />
    </g>
  </g>
</svg>
