<?xml version="1.0" encoding="UTF-8" standalone="no"?>
<svg
   xmlns="http://www.w3.org/2000/svg"
   id="svg6"
   version="1.1"
   viewBox="0 0 24 24"
   height="24"
   width="24">
  <path
     d="m 8.66,13.03 c 0.15,0 0.29,-0.01 0.43,-0.03 0.47,1.15 1.6,1.96 2.91,1.96 1.31,0 2.44,-0.81 2.91,-1.96 0.14,0.02 0.29,0.03 0.43,0.03 1.73,0 3.14,-1.41 3.14,-3.14 0,-0.71 -0.25,-1.39 -0.67,-1.93 0.43,-0.54 0.67,-1.22 0.67,-1.93 0,-1.73 -1.41,-3.14 -3.14,-3.14 -0.15,0 -0.29,0.01 -0.43,0.03 C 14.44,1.77 13.31,0.96 12,0.96 10.69,0.96 9.56,1.77 9.09,2.92 8.95,2.9 8.8,2.89 8.66,2.89 6.93,2.89 5.52,4.3 5.52,6.03 5.52,6.74 5.77,7.42 6.19,7.96 5.76,8.5 5.51,9.18 5.51,9.89 c 0,1.73 1.41,3.14 3.15,3.14 z M 12,12.96 c -0.62,0 -1.12,-0.49 -1.14,-1.1 l 0.12,-1.09 c 0.32,0.12 0.66,0.19 1.02,0.19 0.36,0 0.71,-0.07 1.03,-0.19 l 0.11,1.09 c -0.02,0.61 -0.52,1.1 -1.14,1.1 z m 3.34,-1.93 c -0.24,0 -0.46,-0.07 -0.64,-0.2 l -0.81,-0.57 c 0.55,-0.45 0.94,-1.09 1.06,-1.83 l 0.88,0.42 c 0.4,0.19 0.66,0.59 0.66,1.03 0,0.64 -0.52,1.15 -1.15,1.15 z M 14.69,5.09 c 0.2,-0.13 0.42,-0.2 0.65,-0.2 0.63,0 1.14,0.51 1.14,1.14 0,0.44 -0.25,0.83 -0.66,1.03 L 14.94,7.48 C 14.82,6.74 14.43,6.1 13.87,5.65 Z M 12,2.96 c 0.62,0 1.12,0.49 1.14,1.1 L 13.03,5.15 C 12.71,5.03 12.36,4.96 12,4.96 c -0.36,0 -0.7,0.07 -1.02,0.19 L 10.86,4.06 C 10.88,3.45 11.38,2.96 12,2.96 Z M 8.66,4.89 c 0.24,0 0.46,0.07 0.64,0.2 l 0.81,0.56 C 9.56,6.1 9.17,6.74 9.05,7.48 L 8.17,7.06 C 7.77,6.86 7.51,6.47 7.51,6.03 7.51,5.4 8.03,4.89 8.66,4.89 Z M 8.17,8.86 9.05,8.44 c 0.12,0.74 0.51,1.38 1.07,1.83 l -0.81,0.55 c -0.2,0.13 -0.42,0.2 -0.65,0.2 C 8.03,11.02 7.52,10.51 7.52,9.88 7.51,9.45 7.77,9.06 8.17,8.86 Z"
     id="path4" />
  <path
     d="m 6.5111582,13.398874 1.5593028,7.470283 h 7.811744 l 1.563602,-7.470283 2.331678,-3.22e-4 -2.331678,9.44377 H 6.5111582 L 4.4983089,13.398874 Z"
     id="rect837" />
</svg>
