<?xml version="1.0" encoding="UTF-8" standalone="no"?>
<svg
   xmlns="http://www.w3.org/2000/svg"
   xmlns:sodipodi="http://sodipodi.sourceforge.net/DTD/sodipodi-0.dtd"
   xmlns:inkscape="http://www.inkscape.org/namespaces/inkscape"
   width="24"
   height="24"
   id="svg4216"
   version="1.1"
   inkscape:version="0.92.4 5da689c313, 2019-01-14"
   viewBox="0 0 24 24"
   sodipodi:docname="menu_logo_large.svg">
  <g
     id="layer1"
     inkscape:label="Layer 1"
     inkscape:groupmode="layer"
     transform="translate(0,-40)">
    <path
       style="color:#000000;font-style:normal;font-variant:normal;font-weight:normal;font-stretch:normal;font-size:medium;line-height:normal;font-family:sans-serif;text-indent:0;text-align:start;text-decoration:none;text-decoration-line:none;text-decoration-style:solid;text-decoration-color:#000000;letter-spacing:normal;word-spacing:normal;text-transform:none;writing-mode:lr-tb;direction:ltr;baseline-shift:baseline;text-anchor:start;white-space:normal;clip-rule:nonzero;display:inline;overflow:visible;visibility:visible;opacity:1;isolation:auto;mix-blend-mode:normal;color-interpolation:sRGB;color-interpolation-filters:linearRGB;solid-color:#000000;solid-opacity:1;fill:#e6e6e6;fill-opacity:1;fill-rule:evenodd;stroke:none;stroke-width:1.95459473;stroke-linecap:butt;stroke-linejoin:miter;stroke-miterlimit:4;stroke-dasharray:none;stroke-dashoffset:0;stroke-opacity:1;color-rendering:auto;image-rendering:auto;shape-rendering:auto;text-rendering:auto;enable-background:accumulate"
       d="m 12.049419,43.244471 -0.83293,0.876499 c 0,0 -1.142473,1.329996 -2.1604963,2.62694 C 7.5133964,46.163876 5.8447219,45.615122 5.8447219,45.615122 L 4.6837437,45.297326 4.4223315,46.471121 c 0,0 -0.3808324,2.325898 -0.5587048,4.474762 -0.4367149,0.07597 -1.1045951,0.18709 -1.1045951,0.18709 l -1.2122355,0.235781 0.3229211,1.194298 c 0,0 0.3864892,1.437676 1.0353977,3.013928 0.3244542,0.788127 0.7131621,1.616994 1.1840439,2.355275 0.470882,0.738279 0.9975117,1.421658 1.8324489,1.819633 1.5091196,0.719328 3.1017259,0.284114 4.3517453,-0.138397 0.999078,-0.337686 1.486233,-0.619925 1.776066,-0.773983 0.290816,0.15402 0.777422,0.437911 1.776065,0.773983 1.250691,0.420897 2.843443,0.851467 4.351748,0.130712 0.834555,-0.398799 1.362523,-1.080932 1.83245,-1.819634 0.469924,-0.738703 0.858132,-1.566937 1.181479,-2.355274 0.646697,-1.57667 1.030272,-3.019055 1.030272,-3.019055 l 0.320359,-1.189171 -1.209673,-0.235783 c 0,0 -0.672556,-0.110365 -1.114844,-0.18709 -0.182556,-2.156054 -0.568959,-4.487577 -0.568959,-4.487577 l -0.266535,-1.173792 -1.160979,0.320358 c 0,0 -1.656362,0.551434 -3.188205,1.135347 -1.012505,-1.287828 -2.150245,-2.611562 -2.150245,-2.611562 z"
       id="path4170-9"
       inkscape:connector-curvature="0"
       sodipodi:nodetypes="ccccccccccscccccccccccccccccc" />
  </g>
</svg>
