<?xml version="1.0" encoding="UTF-8" standalone="no"?>
<svg
   xmlns="http://www.w3.org/2000/svg"
   xmlns:sodipodi="http://sodipodi.sourceforge.net/DTD/sodipodi-0.dtd"
   xmlns:inkscape="http://www.inkscape.org/namespaces/inkscape"
   width="24"
   height="24"
   id="svg4216"
   version="1.1"
   inkscape:version="0.92.4 5da689c313, 2019-01-14"
   viewBox="0 0 24 24"
   sodipodi:docname="menu_logo.svg">
  <g
     id="layer1"
     inkscape:label="Layer 1"
     inkscape:groupmode="layer"
     transform="translate(0,-40)">
    <path
       style="color:#000000;font-style:normal;font-variant:normal;font-weight:normal;font-stretch:normal;font-size:medium;line-height:normal;font-family:sans-serif;text-indent:0;text-align:start;text-decoration:none;text-decoration-line:none;text-decoration-style:solid;text-decoration-color:#000000;letter-spacing:normal;word-spacing:normal;text-transform:none;writing-mode:lr-tb;direction:ltr;baseline-shift:baseline;text-anchor:start;white-space:normal;clip-rule:nonzero;display:inline;overflow:visible;visibility:visible;opacity:1;isolation:auto;mix-blend-mode:normal;color-interpolation:sRGB;color-interpolation-filters:linearRGB;solid-color:#000000;solid-opacity:1;fill:#e6e6e6;fill-opacity:1;fill-rule:evenodd;stroke:none;stroke-width:2.24260235;stroke-linecap:butt;stroke-linejoin:miter;stroke-miterlimit:4;stroke-dasharray:none;stroke-dashoffset:0;stroke-opacity:1;color-rendering:auto;image-rendering:auto;shape-rendering:auto;text-rendering:auto;enable-background:accumulate"
       d="m 12.050174,42 -0.955661,1.005651 c 0,0 -1.310816,1.525969 -2.4788436,3.014017 C 6.845773,45.349577 4.931221,44.719965 4.931221,44.719965 l -1.3320472,-0.364623 -0.299931,1.346752 c 0,0 -0.4369477,2.668617 -0.6410294,5.134114 -0.5010645,0.08717 -1.2673562,0.214657 -1.2673562,0.214657 L 0,51.321388 0.37050319,52.691665 c 0,0 0.4434381,1.649516 1.18796261,3.458028 0.3722622,0.904256 0.8182458,1.855256 1.3585116,2.702322 0.540266,0.847064 1.1444941,1.631138 2.1024585,2.087754 1.7314868,0.825321 3.5587621,0.325978 4.9929711,-0.158789 1.146291,-0.387444 1.705228,-0.711271 2.037767,-0.888029 0.333668,0.176715 0.891975,0.502437 2.037767,0.888029 1.434979,0.482915 3.262421,0.976929 4.992974,0.149972 0.957525,-0.457562 1.563289,-1.240206 2.102459,-2.087756 0.539167,-0.84755 0.984577,-1.797823 1.355569,-2.702321 0.741987,-1.808991 1.182082,-3.46391 1.182082,-3.46391 l 0.367563,-1.364394 -1.387917,-0.270525 c 0,0 -0.771657,-0.126627 -1.279115,-0.214658 -0.209456,-2.473746 -0.652795,-5.148817 -0.652795,-5.148817 l -0.305809,-1.346749 -1.332047,0.367563 c 0,0 -1.900426,0.632687 -3.657985,1.302639 -1.161696,-1.477589 -2.467081,-2.996373 -2.467081,-2.996373 z m -3.76e-4,3.784545 c 0.552365,0.616395 1.022717,1.077096 1.92015,2.334756 l 0.620446,0.867447 0.979187,-0.426372 c 1.401653,-0.610468 2.021031,-0.756186 2.816999,-1.002712 0.19608,1.006168 0.700485,2.459723 0.738389,4.434175 l 0.02352,1.117388 1.105628,0.161729 c 0.3557,0.05216 0.350739,0.05952 0.646913,0.108786 -0.185428,0.595164 -0.229375,0.847993 -0.602803,1.758419 -0.33373,0.813639 -0.733563,1.646709 -1.141325,2.287696 -0.407762,0.640987 -1.05284,1.150553 -1.211025,1.226143 -0.500872,0.239343 -1.84254,0.125238 -3.016954,-0.27 -1.699023,-0.591772 -2.87889,-1.632 -2.87889,-1.632 0,0 -1.633059,1.12504 -2.8815355,1.634 C 7.9948629,58.780691 6.6554648,58.899795 6.1544832,58.661 5.9962003,58.585565 5.3485028,58.075475 4.9398063,57.434694 4.5311101,56.793911 4.1310267,55.960146 3.7961228,55.146639 3.4214046,54.236415 3.3766767,53.983344 3.1903796,53.388217 c 0.293993,-0.04909 0.2889502,-0.05669 0.6410293,-0.108798 l 1.1056285,-0.164666 0.020583,-1.117392 c 0.033754,-1.970893 0.4325045,-3.417054 0.6257993,-4.422053 0.7995455,0.244885 1.530314,0.391852 2.9407183,1.002709 l 0.9791868,0.423438 0.6175042,-0.870387 c 0.900503,-1.263883 1.374702,-1.727806 1.928969,-2.346518 z"
       id="path4170-9"
       inkscape:connector-curvature="0"
       sodipodi:nodetypes="ccccccccccsccccccccccccccccccccccccccccsccccccccccccccccc" />
  </g>
</svg>
