<?xml version="1.0" encoding="UTF-8" standalone="no"?>
<svg
   xmlns="http://www.w3.org/2000/svg"
   xmlns:sodipodi="http://sodipodi.sourceforge.net/DTD/sodipodi-0.dtd"
   xmlns:inkscape="http://www.inkscape.org/namespaces/inkscape"
   width="24"
   height="24"
   viewBox="0 0 24 24"
   version="1.1"
   id="svg6"
   sodipodi:docname="menu_infos.svg"
   inkscape:version="1.0.2 (e86c870879, 2021-01-15, custom)">
  <path
     fill="none"
     d="M0 0h24v24H0V0z"
     id="path2" />
  <path
     d="m 10.8,6.8 h 2.4 v 2.4 h -2.4 z m 0.1,4.2 h 2.3 l 0,6.4 H 10.9 Z M 12,2 C 6.48,2 2,6.48 2,12 2,17.52 6.48,22 12,22 17.52,22 22,17.52 22,12 22,6.48 17.52,2 12,2 Z m 0,17.5 C 7.59,19.5 4.5,16.41 4.5,12 4.5,7.59 7.59,4.5 12,4.5 c 4.41,0 7.5,3.09 7.5,7.5 0,4.41 -3.09,7.5 -7.5,7.5 z"
     id="path4"
     inkscape:connector-curvature="0"
     sodipodi:nodetypes="ccccccccccssssssssss"
     style="fill:#e6e6e6;fill-opacity:1" />
</svg>
