<svg xmlns="http://www.w3.org/2000/svg" id="svg4" viewBox="0 0 128 128" width="128" height="128">
<path style="fill:#848e98;fill-opacity:1;stroke-width:0.2" d="M 127.222,90.029998 C 122.888,73.769999 116.014,58.199997 106.82,43.825998 102.39599,36.911999 99.605997,31.2 90.809995,31.2 c -7.737999,0 -14.01,5.883998 -14.01,13.141999 v 12.021999 l -6.575999,-4.383999 c -0.889815,-0.593501 -1.42417,-1.592416 -1.424,-2.662002 V 23.2 c 0,-1.768 -1.432,-3.2 -3.2,-3.2 h -3.199999 c -1.768,0 -3.200001,1.432 -3.200001,3.2 v 26.117997 c 0,1.070001 -0.533999,2.068001 -1.424,2.662002 l -6.575999,4.383999 V 44.341999 C 51.199997,37.083998 44.927998,31.2 37.189998,31.2 c -8.796,0 -11.585999,5.711999 -16.009999,12.625998 C 11.986,58.199997 5.1119997,73.769999 0.77799996,90.029998 0.25999998,91.967996 0,93.957996 0,95.955997 0,108.202 12.496,117.04399 25.047998,113.68 l 11.9,-3.19 c 8.436,-2.26 14.251999,-9.494 14.251999,-17.724004 v -17.498 l -17.167998,11.446 c -0.734965,0.490511 -1.728483,0.291629 -2.218001,-0.443998 l -1.776,-2.662 c -0.490511,-0.734966 -0.291628,-1.728485 0.444,-2.218002 L 63.999996,59.045997 97.517995,81.389996 c 0.735429,0.489651 0.934276,1.482989 0.444,2.218002 l -1.776,2.662 c -0.489651,0.735428 -1.482989,0.934274 -2.218001,0.443998 l -17.167999,-11.446 v 17.498 c 0,8.230004 5.816,15.462004 14.252,17.724004 l 11.899995,3.19 C 115.504,117.04399 128,108.202 128,95.955997 c 0,-1.998001 -0.26,-3.988001 -0.778,-5.925999 z" fill="currentColor" />
</svg>
