<svg xmlns="http://www.w3.org/2000/svg" width="640" height="640" viewBox="0 0 640 640">
<path d="M 416,224 H 32 C 14.326888,224 0,238.32689 0,256 v 288 c 0,17.67311 14.326888,32 32,32 h 384 c 17.67311,0 32,-14.32689 32,-32 V 256 c 0,-17.67311 -14.32689,-32 -32,-32 z M 96,288 c 12.94278,0 24.61122,7.79659 29.56392,19.75395 4.9527,11.95732 2.21423,25.72043 -6.93765,34.87232 -9.15189,9.15188 -22.914995,11.89035 -34.872324,6.93765 C 71.796593,344.61122 64,332.94278 64,320 64,302.32689 78.326888,288 96,288 Z M 384,512 H 64 v -32 l 64,-64 32,32 128,-128 96,96 z" />
<path d="M 608,63.999999 H 160 c -17.67311,0 -32,14.326888 -32,32 V 192 h 160 v -64 h 192 v 320 h 128 c 17.67311,0 32,-14.32689 32,-32 V 95.999999 c 0,-17.673112 -14.32689,-32 -32,-32 z M 232,167 c 0,4.97056 -4.02944,9 -9,9 h -30 c -4.97056,0 -9,-4.02944 -9,-9 v -30 c 0,-4.97056 4.02944,-9 9,-9 h 30 c 4.97056,0 9,4.02944 9,9 z m 352,208 c 0,4.97056 -4.02944,9 -9,9 h -30 c -4.97056,0 -9,-4.02944 -9,-9 v -30 c 0,-4.97056 4.02944,-9 9,-9 h 30 c 4.97056,0 9,4.02944 9,9 z m 0,-104 c 0,4.97056 -4.02944,9 -9,9 h -30 c -4.97056,0 -9,-4.02944 -9,-9 v -30 c 0,-4.97056 4.02944,-9 9,-9 h 30 c 4.97056,0 9,4.02944 9,9 z m 0,-104 c 0,4.97056 -4.02944,9 -9,9 h -30 c -4.97056,0 -9,-4.02944 -9,-9 v -30 c 0,-4.97056 4.02944,-9 9,-9 h 30 c 4.97056,0 9,4.02944 9,9 z" style="opacity:0.66" />
</svg>
