<svg width="48" height="48" viewBox="0 -960 960 960" xmlns="http://www.w3.org/2000/svg">
<path d="m 319.48676,-357.67053 42.42641,42.42641 117.37972,-117.37973 118.08684,118.08684 42.4264,-42.42641 -118.08683,-118.08683 123.03658,-123.03658 -42.42641,-42.42641 -123.03658,123.03658 -122.32947,-122.32947 -42.42641,42.4264 122.32948,122.32948 z M 197.34538,-196.9692 Q 138.84361,-255.47097 109.66414,-329.19817 80.484669,-402.92536 80.484669,-480 q 0,-77.07464 29.232501,-150.85487 29.23179,-73.77952 87.79367,-132.3414 58.56188,-58.56187 132.3414,-87.79367 73.78023,-29.2325 150.50131,-28.87894 76.72109,0.35355 150.50132,29.58605 73.77952,29.23179 132.3414,87.79367 58.56187,58.56188 87.79367,132.3414 29.2325,73.78023 29.2325,150.14776 0,76.36753 -29.34493,150.26019 -29.34493,73.89266 -87.84671,132.39443 -58.50177,58.50177 -132.22897,87.68124 -73.72719,29.179471 -150.31817,29.402917 -76.59098,0.223446 -150.61374,-28.991377 -74.02277,-29.21482 -132.52454,-87.7166 z" />
</svg>
