<svg xmlns="http://www.w3.org/2000/svg" width="48" height="48" viewBox="0 -960 960 960"><path d="M483.522-247q16.478 0 28.195-11.717 11.718-11.718 11.718-28.349 0-16.632-11.718-28.196-11.717-11.564-28.315-11.564t-28.196 11.545q-11.597 11.545-11.597 28.334 0 16.512 11.629 28.23Q466.866-247 483.522-247Zm-36.913-146h62.587q0-25.522 6.5-47.022t39.782-49.021Q586-514.087 598.88-539.376q12.881-25.289 12.881-55.696 0-53.689-34.093-86.048-34.093-32.358-91.19-32.358-49.717 0-88.054 25.456-38.337 25.457-55.815 69.449l56.826 21.399q11.239-28.239 32.877-43.619 21.638-15.381 50.21-15.381 31.728 0 51.831 17.58 20.103 17.579 20.103 45.475 0 21.119-12.641 40.38-12.641 19.261-36.445 39.065-29.522 25.522-44.142 51.756-14.619 26.234-14.619 68.918Zm33.424 318.978q-83.468 0-157.541-31.878-74.073-31.879-129.393-87.199-55.32-55.32-87.199-129.36-31.878-74.04-31.878-157.508 0-84.468 31.878-158.541 31.879-74.073 87.161-128.906 55.283-54.832 129.341-86.818 74.057-31.986 157.545-31.986 84.488 0 158.589 31.968 74.102 31.967 128.916 86.768 54.815 54.801 86.79 128.883Q886.218-564.516 886.218-480q0 83.501-31.986 157.57-31.986 74.069-86.818 129.36-54.833 55.291-128.873 87.17-74.04 31.878-158.508 31.878Zm-.033-68.13q141.043 0 239.446-98.752Q817.848-339.656 817.848-480q0-141.043-98.402-239.446-98.403-98.402-239.566-98.402-140.163 0-238.945 98.402-98.783 98.403-98.783 239.566 0 140.163 98.752 238.945Q339.656-142.152 480-142.152ZM480-480Z"/></svg>