<svg xmlns="http://www.w3.org/2000/svg" width="48" height="48" viewBox="0 -960 960 960"><path d="M450.37-277.37h65.26V-520h-65.26v242.63Zm29.633-313.043q15.551 0 26.068-10.231 10.516-10.232 10.516-25.356 0-16.244-10.514-26.915-10.513-10.672-26.055-10.672-15.812 0-26.208 10.672-10.397 10.671-10.397 26.795 0 15.274 10.52 25.491 10.519 10.216 26.07 10.216Zm.296 516.391q-84.202 0-158.041-31.878-73.839-31.879-129.159-87.199-55.32-55.32-87.199-129.201-31.878-73.88-31.878-158.167t31.878-158.2q31.879-73.914 87.161-128.747 55.283-54.832 129.181-86.818 73.899-31.986 158.205-31.986 84.307 0 158.249 31.968 73.942 31.967 128.756 86.768 54.815 54.801 86.79 128.883 31.976 74.083 31.976 158.333 0 84.235-31.986 158.07t-86.818 128.942q-54.833 55.107-128.873 87.169-74.04 32.063-158.242 32.063Z"/></svg>