<svg width="48" height="48" viewBox="0 -960 960 960" xmlns="http://www.w3.org/2000/svg">
<path d="m 678,-446 v -60 H 282 v 60 z M 479.588,-80 C 424.52933,-80 372.66667,-90.5 324,-111.5 275.33333,-132.5 233,-161 197,-197 161,-233 132.5,-275.33333 111.5,-324 90.5,-372.66667 80,-424.66667 80,-480 c 0,-55.33333 10.5,-107.33333 31.5,-156 21,-48.66667 49.5,-91 85.5,-127 36,-36 78.33333,-64.5 127,-85.5 48.66667,-21 100.66667,-31.5 156,-31.5 55.33333,0 107.33333,10.5 156,31.5 48.66667,21 91,49.5 127,85.5 36,36 64.5,78.33333 85.5,127 21,48.66667 31.5,100.66667 31.5,156 v 318 c 0,22.55 -8.02933,41.854 -24.088,57.912 C 839.854,-88.029333 820.55,-80 798,-80 Z M 480,-140 c 94.91667,0 175.31267,-32.93733 241.188,-98.812 C 787.06267,-304.68733 820,-385.08333 820,-480 820,-574.91667 787.06267,-655.31267 721.188,-721.188 655.31267,-787.06267 574.91667,-820 480,-820 c -94.91667,0 -175.31267,32.93733 -241.188,98.812 C 172.93733,-655.31267 140,-574.91667 140,-480 c 0,94.91667 32.93733,175.31267 98.812,241.188 C 304.68733,-172.93733 385.08333,-140 480,-140 Z" />
</svg>
