<svg xmlns="http://www.w3.org/2000/svg" width="48" height="48" viewBox="0 -960 960 960"><path d="M480.606-126Q456-126 438.5-143.373T421-185.142q0-23.458 17.3-41.658 17.3-18.2 41.594-18.2Q505-245 522-226.783t17 42Q539-161 522.106-143.5t-41.5 17.5Zm0-295Q456-421 438.5-438.3T421-479.894Q421-505 438.3-522t41.594-17Q505-539 522-522.106t17 41.5Q539-456 522.106-438.5t-41.5 17.5Zm0-294Q456-715 438.5-732.677t-17.5-42.5Q421-800 438.3-817.5t41.594-17.5Q505-835 522-817.358q17 17.641 17 42.464t-16.894 42.359Q505.212-715 480.606-715Z"/></svg>