<svg width="48" height="48" viewBox="0 -960 960 960" xmlns="http://www.w3.org/2000/svg">
<path d="m 680,-446 v -60 H 280 v 60 z M 480.266,-80 c -55.156,0 -106.98933,-10.5 -155.5,-31.5 -48.51067,-21 -90.93267,-49.66667 -127.266,-86 -36.33333,-36.33333 -65,-78.78033 -86,-127.341 C 90.5,-373.401 80,-425.28733 80,-480.5 c 0,-55.21267 10.5,-107.099 31.5,-155.659 21,-48.56067 49.66667,-90.841 86,-126.841 36.33333,-36 78.78033,-64.5 127.341,-85.5 48.56,-21 100.44633,-31.5 155.659,-31.5 55.21267,0 107.099,10.5 155.659,31.5 48.56067,21 90.841,49.5 126.841,85.5 36,36 64.5,78.33333 85.5,127 21,48.66667 31.5,100.578 31.5,155.734 0,55.156 -10.5,106.98933 -31.5,155.5 -21,48.51067 -49.5,90.87133 -85.5,127.082 -36,36.21067 -78.33333,64.87733 -127,86 C 587.33333,-90.561333 535.422,-80 480.266,-80 Z m 0.234,-60 c 94.33333,0 174.5,-33.16667 240.5,-99.5 66,-66.33333 99,-146.66667 99,-241 0,-94.33333 -32.93733,-174.5 -98.812,-240.5 -65.87533,-66 -146.27133,-99 -241.188,-99 -94,0 -174.16667,32.93733 -240.5,98.812 -66.33333,65.87533 -99.5,146.27133 -99.5,241.188 0,94 33.16667,174.16667 99.5,240.5 66.33333,66.33333 146.66667,99.5 241,99.5 z" />
</svg>
