<?xml version="1.0" encoding="UTF-8" standalone="no"?>
<svg
   width="48"
   height="48"
   viewBox="0 -960 960 960"
   version="1.1"
   id="svg1"
   sodipodi:docname="highlight_keyboard_focus-fill.svg"
   inkscape:version="1.3.2 (091e20ef0f, 2023-11-25, custom)"
   xmlns:inkscape="http://www.inkscape.org/namespaces/inkscape"
   xmlns:sodipodi="http://sodipodi.sourceforge.net/DTD/sodipodi-0.dtd"
   xmlns="http://www.w3.org/2000/svg"
   xmlns:svg="http://www.w3.org/2000/svg">
  <defs
     id="defs1" />
  <sodipodi:namedview
     id="namedview1"
     pagecolor="#ffffff"
     bordercolor="#666666"
     borderopacity="1.0"
     inkscape:showpageshadow="2"
     inkscape:pageopacity="0.0"
     inkscape:pagecheckerboard="0"
     inkscape:deskcolor="#d1d1d1"
     inkscape:zoom="17.1875"
     inkscape:cx="24"
     inkscape:cy="24"
     inkscape:current-layer="svg1" />
  <path
     d="m 280,-507 v 60 h 406 v -60 z m -200,27 q 0,-82 31.5,-155 31.5,-73 86,-127.5 54.5,-54.5 127.5,-86 73,-31.5 155,-31.5 83,0 156,31.5 73,31.5 127,86 54,54.5 85.5,127.5 31.5,73 31.5,155 0,83 -31.5,156 -31.5,73 -85.5,127 -54,54 -127,85.5 Q 563,-80 480,-80 398,-80 325,-111.5 252,-143 197.5,-197 143,-251 111.5,-324 80,-397 80,-480 Z"
     id="path1" />
</svg>
