<?xml version="1.0" encoding="UTF-8" standalone="no"?>
<svg
   width="640"
   height="128"
   viewBox="0 0 640 128"
   version="1.1"
   id="svg6542"
   inkscape:version="1.4.2 (ebf0e940d0, 2025-05-08)"
   sodipodi:docname="welcome-limits.svg"
   xmlns:inkscape="http://www.inkscape.org/namespaces/inkscape"
   xmlns:sodipodi="http://sodipodi.sourceforge.net/DTD/sodipodi-0.dtd"
   xmlns="http://www.w3.org/2000/svg"
   xmlns:svg="http://www.w3.org/2000/svg"
   xmlns:rdf="http://www.w3.org/1999/02/22-rdf-syntax-ns#"
   xmlns:cc="http://creativecommons.org/ns#"
   xmlns:dc="http://purl.org/dc/elements/1.1/">
  <defs
     id="defs6536">
    <marker
       inkscape:stockid="DotM"
       orient="auto"
       refY="0"
       refX="0"
       id="marker3269-8"
       style="overflow:visible"
       inkscape:isstock="true">
      <path
         inkscape:connector-curvature="0"
         id="path3267-5"
         d="m -2.5,-1 c 0,2.76 -2.24,5 -5,5 -2.76,0 -5,-2.24 -5,-5 0,-2.76 2.24,-5 5,-5 2.76,0 5,2.24 5,5 z"
         style="fill:#ffffff;fill-opacity:1;fill-rule:evenodd;stroke:#ffffff;stroke-width:1pt;stroke-opacity:1"
         transform="matrix(0.4,0,0,0.4,2.96,0.4)" />
    </marker>
    <marker
       inkscape:stockid="DotM"
       orient="auto"
       refY="0"
       refX="0"
       id="marker3315-2"
       style="overflow:visible"
       inkscape:isstock="true">
      <path
         inkscape:connector-curvature="0"
         id="path3313-1"
         d="m -2.5,-1 c 0,2.76 -2.24,5 -5,5 -2.76,0 -5,-2.24 -5,-5 0,-2.76 2.24,-5 5,-5 2.76,0 5,2.24 5,5 z"
         style="fill:#ffffff;fill-opacity:1;fill-rule:evenodd;stroke:#ffffff;stroke-width:1pt;stroke-opacity:1"
         transform="matrix(0.4,0,0,0.4,2.96,0.4)" />
    </marker>
    <marker
       inkscape:stockid="DotM"
       orient="auto"
       refY="0"
       refX="0"
       id="marker4387-8"
       style="overflow:visible"
       inkscape:isstock="true">
      <path
         inkscape:connector-curvature="0"
         id="path4385-7"
         d="m -2.5,-1 c 0,2.76 -2.24,5 -5,5 -2.76,0 -5,-2.24 -5,-5 0,-2.76 2.24,-5 5,-5 2.76,0 5,2.24 5,5 z"
         style="fill:#ffffff;fill-opacity:1;fill-rule:evenodd;stroke:#ffffff;stroke-width:1pt;stroke-opacity:1"
         transform="matrix(0.4,0,0,0.4,2.96,0.4)" />
    </marker>
    <marker
       inkscape:stockid="DotM"
       orient="auto"
       refY="0"
       refX="0"
       id="marker4451-0"
       style="overflow:visible"
       inkscape:isstock="true">
      <path
         inkscape:connector-curvature="0"
         id="path4449-0"
         d="m -2.5,-1 c 0,2.76 -2.24,5 -5,5 -2.76,0 -5,-2.24 -5,-5 0,-2.76 2.24,-5 5,-5 2.76,0 5,2.24 5,5 z"
         style="fill:#ffffff;fill-opacity:1;fill-rule:evenodd;stroke:#ffffff;stroke-width:1pt;stroke-opacity:1"
         transform="matrix(0.4,0,0,0.4,2.96,0.4)" />
    </marker>
    <marker
       inkscape:stockid="DotM"
       orient="auto"
       refY="0"
       refX="0"
       id="marker4387-4"
       style="overflow:visible"
       inkscape:isstock="true">
      <path
         inkscape:connector-curvature="0"
         id="path4385-4"
         d="m -2.5,-1 c 0,2.76 -2.24,5 -5,5 -2.76,0 -5,-2.24 -5,-5 0,-2.76 2.24,-5 5,-5 2.76,0 5,2.24 5,5 z"
         style="fill:#ffffff;fill-opacity:1;fill-rule:evenodd;stroke:#ffffff;stroke-width:1pt;stroke-opacity:1"
         transform="matrix(0.4,0,0,0.4,2.96,0.4)" />
    </marker>
    <marker
       inkscape:stockid="DotM"
       orient="auto"
       refY="0"
       refX="0"
       id="marker4451-7"
       style="overflow:visible"
       inkscape:isstock="true">
      <path
         inkscape:connector-curvature="0"
         id="path4449-1"
         d="m -2.5,-1 c 0,2.76 -2.24,5 -5,5 -2.76,0 -5,-2.24 -5,-5 0,-2.76 2.24,-5 5,-5 2.76,0 5,2.24 5,5 z"
         style="fill:#ffffff;fill-opacity:1;fill-rule:evenodd;stroke:#ffffff;stroke-width:1pt;stroke-opacity:1"
         transform="matrix(0.4,0,0,0.4,2.96,0.4)" />
    </marker>
    <clipPath
       clipPathUnits="userSpaceOnUse"
       id="clipPath4138">
      <rect
         style="opacity:1;fill:#0000ff;fill-opacity:1;fill-rule:evenodd;stroke:none;stroke-width:5;stroke-linecap:square;stroke-linejoin:miter;stroke-miterlimit:4;stroke-dasharray:none;stroke-dashoffset:19;stroke-opacity:1"
         id="rect4140"
         width="120"
         height="180"
         x="-5040.5"
         y="1380"
         transform="scale(-1,1)" />
    </clipPath>
    <clipPath
       clipPathUnits="userSpaceOnUse"
       id="clipPath4268">
      <rect
         style="opacity:1;fill:#ffffff;fill-opacity:1;fill-rule:evenodd;stroke:none;stroke-width:5;stroke-linecap:square;stroke-linejoin:miter;stroke-miterlimit:4;stroke-dasharray:none;stroke-dashoffset:19;stroke-opacity:1"
         id="rect4270"
         width="149.99989"
         height="180"
         x="8630"
         y="1030" />
    </clipPath>
    <marker
       inkscape:stockid="DotM"
       orient="auto"
       refY="0"
       refX="0"
       id="marker3373"
       style="overflow:visible"
       inkscape:isstock="true">
      <path
         id="path3371"
         d="m -2.5,-1 c 0,2.76 -2.24,5 -5,5 -2.76,0 -5,-2.24 -5,-5 0,-2.76 2.24,-5 5,-5 2.76,0 5,2.24 5,5 z"
         style="fill:#ffffff;fill-opacity:1;fill-rule:evenodd;stroke:#ffffff;stroke-width:1pt;stroke-opacity:1"
         transform="matrix(0.4,0,0,0.4,2.96,0.4)"
         inkscape:connector-curvature="0" />
    </marker>
    <marker
       inkscape:stockid="DotM"
       orient="auto"
       refY="0"
       refX="0"
       id="marker11565"
       style="overflow:visible"
       inkscape:isstock="true">
      <path
         id="path11563"
         d="m -2.5,-1 c 0,2.76 -2.24,5 -5,5 -2.76,0 -5,-2.24 -5,-5 0,-2.76 2.24,-5 5,-5 2.76,0 5,2.24 5,5 z"
         style="fill:#ffffff;fill-opacity:1;fill-rule:evenodd;stroke:#ffffff;stroke-width:1pt;stroke-opacity:1"
         transform="matrix(0.4,0,0,0.4,2.96,0.4)"
         inkscape:connector-curvature="0" />
    </marker>
    <marker
       inkscape:stockid="DotM"
       orient="auto"
       refY="0"
       refX="0"
       id="marker3373-9"
       style="overflow:visible"
       inkscape:isstock="true">
      <path
         id="path3371-1"
         d="m -2.5,-1 c 0,2.76 -2.24,5 -5,5 -2.76,0 -5,-2.24 -5,-5 0,-2.76 2.24,-5 5,-5 2.76,0 5,2.24 5,5 z"
         style="fill:#ffffff;fill-opacity:1;fill-rule:evenodd;stroke:none;stroke-width:1pt;stroke-opacity:1"
         transform="matrix(0.4,0,0,0.4,2.96,0.4)"
         inkscape:connector-curvature="0" />
    </marker>
    <marker
       inkscape:stockid="DotM"
       orient="auto"
       refY="0"
       refX="0"
       id="marker11571"
       style="overflow:visible"
       inkscape:isstock="true">
      <path
         id="path11569"
         d="m -2.5,-1 c 0,2.76 -2.24,5 -5,5 -2.76,0 -5,-2.24 -5,-5 0,-2.76 2.24,-5 5,-5 2.76,0 5,2.24 5,5 z"
         style="fill:#ffffff;fill-opacity:1;fill-rule:evenodd;stroke:#ffffff;stroke-width:1pt;stroke-opacity:1"
         transform="matrix(0.4,0,0,0.4,2.96,0.4)"
         inkscape:connector-curvature="0" />
    </marker>
  </defs>
  <sodipodi:namedview
     id="base"
     pagecolor="#ffffff"
     bordercolor="#666666"
     borderopacity="1.0"
     inkscape:pageopacity="0"
     inkscape:pageshadow="2"
     inkscape:zoom="8.6532197"
     inkscape:cx="203.62363"
     inkscape:cy="67.893804"
     inkscape:document-units="px"
     inkscape:current-layer="g11547"
     showgrid="false"
     fit-margin-top="0"
     fit-margin-left="0"
     fit-margin-right="0"
     fit-margin-bottom="0"
     inkscape:window-width="3440"
     inkscape:window-height="1355"
     inkscape:window-x="0"
     inkscape:window-y="0"
     inkscape:window-maximized="1"
     showguides="true"
     inkscape:guide-bbox="true"
     inkscape:snap-bbox="true"
     inkscape:document-rotation="0"
     units="px"
     inkscape:bbox-paths="true"
     inkscape:snap-page="true"
     inkscape:snap-nodes="true"
     inkscape:snap-others="false"
     inkscape:bbox-nodes="true"
     inkscape:pagecheckerboard="false"
     inkscape:snap-bbox-edge-midpoints="true"
     inkscape:showpageshadow="2"
     inkscape:deskcolor="#cccccc">
    <inkscape:grid
       type="xygrid"
       id="grid11412"
       originx="0"
       originy="0"
       spacingy="1"
       spacingx="1"
       units="px"
       empspacing="8" />
  </sodipodi:namedview>
  <metadata
     id="metadata6539">
    <rdf:RDF>
      <cc:Work
         rdf:about="">
        <dc:format>image/svg+xml</dc:format>
        <dc:type
           rdf:resource="http://purl.org/dc/dcmitype/StillImage" />
        <dc:creator>
          <cc:Agent>
            <dc:title>Chris D</dc:title>
          </cc:Agent>
        </dc:creator>
        <dc:description>https://dribbble.com/chrisdiaz</dc:description>
      </cc:Work>
    </rdf:RDF>
  </metadata>
  <g
     inkscape:label="Capa 1"
     inkscape:groupmode="layer"
     id="layer1"
     transform="translate(10.864796,-160.07498)">
    <g
       transform="matrix(0.26458333,0,0,0.26458333,-672.11418,-84.82966)"
       id="g11547">
      <g
         id="path1075-36"
         style="opacity:0.8;stroke:none"
         transform="matrix(3.7795388,0,0,3.8656144,-6946.6521,-2621.2814)">
        <path
           style="baseline-shift:baseline;display:inline;overflow:visible;opacity:0.8;vector-effect:none;stroke:none;stroke-width:0.980253;stroke-linecap:square;enable-background:accumulate;stop-color:#000000;stop-opacity:1"
           d="m 2611.21,975.23887 v 4.88865 h 399.9988 v -4.88865 z"
           id="path2"
           sodipodi:nodetypes="ccccc" />
        <path
           style="baseline-shift:baseline;display:inline;overflow:visible;opacity:0.6;vector-effect:none;stroke:none;stroke-width:0.989769;stroke-linecap:square;enable-background:accumulate;stop-color:#000000;stop-opacity:1"
           d="m 2499.2103,975.23887 v 4.88865 h 639.9981 v -4.88865 z"
           id="path1075"
           sodipodi:nodetypes="ccccc" />
      </g>
      <path
         style="baseline-shift:baseline;display:inline;overflow:visible;opacity:1;vector-effect:none;stroke:none;stroke-width:6.71621;stroke-dashoffset:15;paint-order:stroke fill markers;enable-background:accumulate;stop-color:#000000;stop-opacity:1"
         d="m 3202.2024,1205.3089 41.5746,71.811 41.5746,71.811 41.5754,-71.811 41.5746,-71.811 h -83.15 z m 35.7947,20.6185 h 47.3545 47.3547 l -23.6706,40.8961 -23.6841,40.8968 -23.6704,-40.8968 z"
         id="path1079-7" />
      <path
         style="baseline-shift:baseline;display:inline;overflow:visible;vector-effect:none;stroke:none;stroke-width:6.71621;stroke-dashoffset:15;paint-order:stroke fill markers;enable-background:accumulate;stop-color:#000000"
         d="m 2839.3678,963.41912 41.5746,71.81118 41.5746,71.811 41.5754,-71.811 41.5746,-71.81118 h -83.15 z m 35.7947,20.6185 h 47.3545 47.3547 l -23.6706,40.89628 -23.6841,40.8968 -23.6704,-40.8968 z"
         id="path1079-7-6" />
      <g
         id="path1075-36-7"
         style="opacity:0.8;stroke:none"
         transform="matrix(3.7795276,0,0,3.7854329,-6946.6239,-2530.7515)">
        <path
           style="baseline-shift:baseline;display:inline;overflow:visible;opacity:0.6;vector-effect:none;stroke:none;stroke-linecap:square;enable-background:accumulate;stop-color:#000000;stop-opacity:1"
           d="m 2499.2103,1035.8808 v 4.9922 h 640 v -4.9922 z"
           id="path1075-6"
           sodipodi:nodetypes="ccccc" />
        <path
           style="baseline-shift:baseline;display:inline;overflow:visible;vector-effect:none;stroke:none;stroke-width:1.01254;stroke-linecap:square;enable-background:accumulate;stop-color:#000000;stop-opacity:1"
           d="m 2707.2103,1035.8808 v 4.9922 h 148 v -4.9922 z"
           id="path4"
           sodipodi:nodetypes="ccccc" />
      </g>
      <path
         style="baseline-shift:baseline;display:inline;overflow:visible;vector-effect:none;stroke:none;stroke-width:6.71621;stroke-dashoffset:15;paint-order:stroke fill markers;enable-background:accumulate;stop-color:#000000"
         d="m 3761.5725,1205.3089 41.5746,71.811 41.5746,71.811 41.5754,-71.811 41.5746,-71.811 h -83.15 z m 35.7947,20.6185 h 47.3545 47.3547 l -23.6706,40.8961 -23.6841,40.8968 -23.6704,-40.8968 z"
         id="path1079-7-5" />
      <path
         style="baseline-shift:baseline;display:inline;overflow:visible;vector-effect:none;stroke:none;stroke-width:6.71621;stroke-dashoffset:15;paint-order:stroke fill markers;enable-background:accumulate;stop-color:#000000"
         d="m 4351.1788,963.41912 41.5746,71.81108 41.5746,71.8109 41.5754,-71.8109 41.5746,-71.81108 h -83.15 z m 35.7947,20.6185 h 47.3545 47.3547 l -23.6706,40.89618 -23.6841,40.8967 -23.6704,-40.8967 z"
         id="path1079-7-56" />
    </g>
  </g>
</svg>
