<?xml version="1.0" encoding="UTF-8" standalone="no"?>
<svg
   height="48"
   width="240"
   version="1.1"
   id="svg4"
   sodipodi:docname="welcome-plants.svg"
   xml:space="preserve"
   inkscape:version="1.4.2 (ebf0e940d0, 2025-05-08)"
   xmlns:inkscape="http://www.inkscape.org/namespaces/inkscape"
   xmlns:sodipodi="http://sodipodi.sourceforge.net/DTD/sodipodi-0.dtd"
   xmlns="http://www.w3.org/2000/svg"
   xmlns:svg="http://www.w3.org/2000/svg"
   xmlns:rdf="http://www.w3.org/1999/02/22-rdf-syntax-ns#"
   xmlns:cc="http://creativecommons.org/ns#"><defs
     id="defs8" /><sodipodi:namedview
     id="namedview6"
     pagecolor="#ffffff"
     bordercolor="#666666"
     borderopacity="1"
     inkscape:showpageshadow="2"
     inkscape:pageopacity="0.0"
     inkscape:pagecheckerboard="false"
     inkscape:deskcolor="#cccccc"
     showgrid="true"
     showguides="true"
     inkscape:zoom="17.256016"
     inkscape:cx="26.831222"
     inkscape:cy="15.443889"
     inkscape:current-layer="svg4"><sodipodi:guide
       position="24,4"
       orientation="0,-1"
       id="guide309"
       inkscape:locked="false" /><sodipodi:guide
       position="70.19935,25"
       orientation="0,-1"
       id="guide311"
       inkscape:locked="false" /><inkscape:grid
       id="grid1"
       units="px"
       originx="0"
       originy="0"
       spacingx="1"
       spacingy="1"
       empcolor="#3f3fff"
       empopacity="0.25098039"
       color="#3f3fff"
       opacity="0.1254902"
       empspacing="4"
       enabled="true"
       visible="true" /></sodipodi:namedview><path
     d="m 24,44 c 0,-2.333333 0.5,-4.583333 1.5,-6.75 1,-2.166667 2.333333,-4.083333 4,-5.75 1.666667,-1.666667 3.583333,-3 5.75,-4 2.166667,-1 4.416667,-1.5 6.75,-1.5 0,2.333333 -0.5,4.583333 -1.5,6.75 -1,2.166667 -2.333333,4.083333 -4,5.75 -1.666667,1.666667 -3.583333,3 -5.75,4 -2.166667,1 -4.416667,1.5 -6.75,1.5 z m 3.75,-3.75 c 2.666667,-0.866667 4.883333,-2.183333 6.65,-3.95 1.766667,-1.766667 3.083333,-3.983333 3.95,-6.65 -2.666667,0.866667 -4.883333,2.191667 -6.65,3.975 -1.766667,1.783333 -3.083333,3.991667 -3.95,6.625 z M 24,44 c 0,-2.333333 -0.5,-4.583333 -1.5,-6.75 -1,-2.166667 -2.333333,-4.083333 -4,-5.75 -1.666667,-1.666667 -3.583333,-3 -5.75,-4 C 10.583333,26.5 8.3333333,26 6,26 c 0,2.333333 0.5,4.583333 1.5,6.75 1,2.166667 2.3333333,4.083333 4,5.75 1.666667,1.666667 3.583333,3 5.75,4 2.166667,1 4.416667,1.5 6.75,1.5 z M 20.25,40.25 C 17.583333,39.383333 15.366667,38.066667 13.6,36.3 11.833333,34.533333 10.516667,32.316667 9.65,29.65 c 2.666667,0.866667 4.883333,2.191667 6.65,3.975 1.766667,1.783333 3.083333,3.991667 3.95,6.625 z M 30.7,22.15 c 0.766667,0 1.425,-0.275 1.975,-0.825 0.55,-0.55 0.825,-1.208333 0.825,-1.975 0,-0.566667 -0.15,-1.058333 -0.45,-1.475 -0.3,-0.416667 -0.7,-0.758333 -1.2,-1.025 L 29.5,15.7 c -0.166667,0.966667 -0.441667,1.808333 -0.825,2.525 -0.383333,0.716667 -0.941667,1.358333 -1.675,1.925 l 2.1,1.5 c 0.233333,0.166667 0.483333,0.291667 0.75,0.375 0.266667,0.08333 0.55,0.125 0.85,0.125 z m -1.2,-6.85 2.35,-1.15 c 0.5,-0.266667 0.891667,-0.616667 1.175,-1.05 0.283333,-0.433333 0.425,-0.916667 0.425,-1.45 0,-0.766667 -0.266667,-1.425 -0.8,-1.975 C 32.116667,9.125 31.466667,8.85 30.7,8.85 c -0.3,0 -0.575,0.041667 -0.825,0.125 -0.25,0.083333 -0.508333,0.2083333 -0.775,0.375 l -2.2,1.5 c 0.766667,0.566667 1.35,1.2 1.75,1.9 0.4,0.7 0.683333,1.55 0.85,2.55 z m -7.95,-4.7 c 0.466667,-0.2 0.908333,-0.35 1.325,-0.45 C 23.291667,10.05 23.666667,10 24,10 c 0.333333,0 0.708333,0.05 1.125,0.15 0.416667,0.1 0.858333,0.25 1.325,0.45 L 26.8,7.5 C 26.866667,6.8 26.6,6.2083333 26,5.725 25.4,5.2416667 24.75,5 24.05,5 23.316667,5 22.641667,5.25 22.025,5.75 21.408333,6.25 21.133333,6.8333333 21.2,7.5 Z m 2.5,15.4 c 0.7,0 1.35,-0.241667 1.95,-0.725 0.6,-0.483333 0.866667,-1.075 0.8,-1.775 l -0.35,-3.1 c -0.466667,0.2 -0.908333,0.35 -1.325,0.45 C 24.708333,20.95 24.333333,21 24,21 23.666667,21 23.291667,20.95 22.875,20.85 22.458333,20.75 22.016667,20.6 21.55,20.4 l -0.35,3.1 c -0.06667,0.666667 0.208333,1.25 0.825,1.75 0.616667,0.5 1.291667,0.75 2.025,0.75 z M 18.5,15.3 c 0.166667,-1 0.441667,-1.85 0.825,-2.55 0.383333,-0.7 0.941667,-1.333333 1.675,-1.9 L 18.9,9.35 C 18.666667,9.1833333 18.416667,9.0583333 18.15,8.975 17.883333,8.8916667 17.6,8.85 17.3,8.85 c -0.766667,0 -1.425,0.275 -1.975,0.825 -0.55,0.55 -0.825,1.208333 -0.825,1.975 0,0.533333 0.15,1.016667 0.45,1.45 0.3,0.433333 0.7,0.783333 1.2,1.05 z m -1.2,6.8 c 0.3,0 0.575,-0.04167 0.825,-0.125 0.25,-0.08333 0.508333,-0.208333 0.775,-0.375 l 2.2,-1.45 C 20.333333,19.583333 19.75,18.941667 19.35,18.225 18.95,17.508333 18.666667,16.666667 18.5,15.7 l -2.35,1.15 c -0.5,0.266667 -0.891667,0.616667 -1.175,1.05 -0.283333,0.433333 -0.425,0.916667 -0.425,1.45 0.03333,0.766667 0.308333,1.416667 0.825,1.95 0.516667,0.533333 1.158333,0.8 1.925,0.8 z M 24,29 c -1.2,0 -2.291667,-0.358333 -3.275,-1.075 -0.983333,-0.716667 -1.708333,-1.658333 -2.175,-2.825 -0.2,0 -0.408333,0.0083 -0.625,0.025 -0.216667,0.01667 -0.425,0.025 -0.625,0.025 -1.6,0 -2.966667,-0.566667 -4.1,-1.7 -1.133333,-1.133333 -1.7,-2.5 -1.7,-4.1 0,-0.666667 0.133333,-1.325 0.4,-1.975 0.266667,-0.65 0.65,-1.275 1.15,-1.875 -0.466667,-0.6 -0.833333,-1.225 -1.1,-1.875 -0.266667,-0.65 -0.4,-1.308333 -0.4,-1.975 0,-1.6 0.558333,-2.9666667 1.675,-4.1 1.116667,-1.1333333 2.475,-1.7 4.075,-1.7 0.2,0 0.408333,0.00833 0.625,0.025 C 18.141667,5.8916667 18.35,5.9 18.55,5.9 19.016667,4.7333333 19.741667,3.7916667 20.725,3.075 21.708333,2.3583333 22.8,2 24,2 c 1.2,0 2.291667,0.3583333 3.275,1.075 0.983333,0.7166667 1.708333,1.6583333 2.175,2.825 0.2,0 0.408333,-0.00833 0.625,-0.025 C 30.291667,5.8583333 30.5,5.85 30.7,5.85 c 1.6,0 2.958333,0.5666667 4.075,1.7 1.116667,1.1333333 1.675,2.5 1.675,4.1 0,0.666667 -0.125,1.325 -0.375,1.975 -0.25,0.65 -0.625,1.275 -1.125,1.875 0.466667,0.6 0.833333,1.225 1.1,1.875 0.266667,0.65 0.4,1.308333 0.4,1.975 0,1.6 -0.558333,2.966667 -1.675,4.1 -1.116667,1.133333 -2.475,1.7 -4.075,1.7 -0.2,0 -0.408333,-0.0083 -0.625,-0.025 C 29.858333,25.108333 29.65,25.1 29.45,25.1 28.983333,26.266667 28.258333,27.208333 27.275,27.925 26.291667,28.641667 25.2,29 24,29 Z"
     id="path2"
     style="fill-opacity:1"
     sodipodi:nodetypes="cssscsssccscsccssscsssccscscssssccscsssccsssssccsccsssccsssccssccsssccsscscssssssccssccsccscsssscssssscssssscssscssssscssssscss" /><path
     d="m 99.35942,44 v -3 h 12 q -1,-4.55 -4.375,-7.975 -3.375,-3.425 -7.625,-4.525 1,-0.25 1.975,-0.375 0.975,-0.125 2.025,-0.125 6.7,0 11.35,4.65 4.65,4.65 4.65,11.35 z m 23,0 q 0,-2.1 -0.4,-3.675 -0.4,-1.575 -1,-3.125 2,-4.4 6,-6.8 4,-2.4 8.4,-2.4 1.05,0 2.025,0.125 0.975,0.125 1.975,0.375 -4.25,1.1 -7.7,4.575 -3.45,3.475 -4.3,7.925 h 12 v 3 z m -2.9,-9.65 q -0.45,-3.8 0.65,-7.1 1.1,-3.3 3.225,-5.75 2.125,-2.45 5.125,-3.9 3,-1.45 6.35,-1.55 -2.8,1.75 -5.275,4.775 -2.475,3.025 -3.125,6.475 -2.2,1.05 -4,2.925 -1.8,1.875 -2.95,4.125 z m -3.05,-3.8 q -0.8,-0.75 -1.75,-1.5 -0.95,-0.75 -1.6,-1.15 0.15,-0.6 0.225,-1.325 0.075,-0.725 0.075,-1.175 0,-3.8 -1.2,-7.2 -1.2,-3.400001 -3.4,-6.200001 3.5,1.4 6.2,4.425001 2.7,3.025 3.8,6.925 -0.9,1.6 -1.525,3.475 -0.625,1.875 -0.825,3.725 z"
     id="path237"
     style="fill-opacity:1" /><path
     d="m 70.67971,43.858954 q -3.6,-0.4 -7.175,-2.075 -3.575,-1.675 -6.425,-4.65 -2.85,-2.975 -4.625,-7.35 -1.775,-4.375 -1.775,-10.175 v -1.9 h 1.9 q 2.65,0 5.65,1.025 3,1.025 5.3,2.625 0.4,-4.5 2.4,-9.275 2,-4.775 4.75,-8.1749999 2.75,3.3999999 4.75,8.1749999 2,4.775 2.4,9.275 2.3,-1.5 5.3,-2.575 3,-1.075 5.65,-1.075 h 1.9 v 1.9 q 0,5.8 -1.775,10.175 -1.775,4.375 -4.625,7.35 -2.85,2.975 -6.425,4.65 -3.575,1.675 -7.175,2.075 z m 0.4,-3.05 q -0.55,-9.3 -5.375,-14.1 -4.825,-4.8 -11.975,-5.95 0.65,9.65 5.625,14.4 4.975,4.75 11.725,5.65 z m -0.45,-12.25 q 0.7,-1.3 1.925,-2.8 1.225,-1.5 2.375,-2.5 0.25,-3.4 -1,-6.9 -1.25,-3.5 -3.25,-7.25 -2,3.75 -3.25,7.25 -1.25,3.5 -1,6.9 1.15,1 2.325,2.5 1.175,1.5 1.875,2.8 z m 3.45,11.4 q 2.35,-0.85 4.675,-2.25 2.325,-1.4 4.2,-3.65 1.875,-2.25 3.15,-5.525 1.275,-3.275 1.525,-7.775 -5.3,0.85 -9.35,3.775 -4.05,2.925 -5.95,7.225 0.6,1.9 1.05,3.825 0.45,1.925 0.7,4.375 z m -3.45,-11.4 z m 3.45,11.4 z m -3,0.85 z m 1.25,-9.05 z m -1.65,12.1 z"
     id="path300"
     style="fill-opacity:1;opacity:0.66" /><path
     d="m 160.6287,41 h 16.3 l 2.4,-9.5 h -21.1 z m 0,3 c -0.66667,0 -1.275,-0.208333 -1.825,-0.625 -0.55,-0.416667 -0.90833,-0.958333 -1.075,-1.625 l -2.6,-10.25 h 27.3 l -2.6,10.25 c -0.16667,0.666667 -0.525,1.208333 -1.075,1.625 -0.55,0.416667 -1.15833,0.625 -1.825,0.625 z m -6.85,-15.5 h 30 v -5 h -30 z m 15,-12.55 c 0.16667,-2.9 1.46667,-5.575 3.9,-8.0249999 2.43333,-2.4500001 5.11667,-3.7583335 8.05,-3.9250002 -0.1,2.7000001 -1.21667,5.2083335 -3.35,7.5250001 -2.13333,2.316667 -4.5,3.725 -7.1,4.225 v 4.75 h 16.5 v 8 c 0,0.833333 -0.29167,1.541667 -0.875,2.125 -0.58333,0.583333 -1.29167,0.875 -2.125,0.875 h -30 c -0.83333,0 -1.54167,-0.291667 -2.125,-0.875 -0.58333,-0.583333 -0.875,-1.291667 -0.875,-2.125 v -8 h 16.5 v -4.75 c -2.6,-0.5 -4.95833,-1.908333 -7.075,-4.225 -2.11667,-2.3166666 -3.24167,-4.825 -3.375,-7.5250001 2.93333,0.1666667 5.625,1.4666667 8.075,3.9000002 2.45,2.4333329 3.74167,5.1166669 3.875,8.0499999 z"
     id="path313"
     style="opacity:0.66;fill-opacity:1"
     sodipodi:nodetypes="cccccssccccsssccccccscscccsssssscccscsc" /><path
     d="m 219.09798,44 h -5.75 v -7.45 h -15.15 l 9.45,-13.7 h -4.75 l 13.3,-18.85 13.3,18.85 h -4.7 l 9.4,13.7 h -15.1 z m -15.1,-10.45 h 9.45 -4.5 14.5 -4.45 9.45 z m 0,0 h 24.45 l -9.45,-13.7 h 4.45 l -7.25,-10.3000001 -7.25,10.3000001 h 4.5 z"
     id="path322"
     style="fill-opacity:1" /><metadata
     id="metadata366"><rdf:RDF><cc:Work
         rdf:about=""><cc:license
           rdf:resource="http://creativecommons.org/licenses/by-sa/4.0/" /></cc:Work><cc:License
         rdf:about="http://creativecommons.org/licenses/by-sa/4.0/"><cc:permits
           rdf:resource="http://creativecommons.org/ns#Reproduction" /><cc:permits
           rdf:resource="http://creativecommons.org/ns#Distribution" /><cc:requires
           rdf:resource="http://creativecommons.org/ns#Notice" /><cc:requires
           rdf:resource="http://creativecommons.org/ns#Attribution" /><cc:permits
           rdf:resource="http://creativecommons.org/ns#DerivativeWorks" /><cc:requires
           rdf:resource="http://creativecommons.org/ns#ShareAlike" /></cc:License></rdf:RDF></metadata></svg>
