<?xml version="1.0" encoding="UTF-8" standalone="no"?>
<svg
   height="48"
   width="240"
   version="1.1"
   id="svg4"
   sodipodi:docname="welcome-plants.svg"
   xml:space="preserve"
   inkscape:version="1.2.1 (9c6d41e410, 2022-07-14, custom)"
   xmlns:inkscape="http://www.inkscape.org/namespaces/inkscape"
   xmlns:sodipodi="http://sodipodi.sourceforge.net/DTD/sodipodi-0.dtd"
   xmlns="http://www.w3.org/2000/svg"
   xmlns:svg="http://www.w3.org/2000/svg"
   xmlns:rdf="http://www.w3.org/1999/02/22-rdf-syntax-ns#"
   xmlns:cc="http://creativecommons.org/ns#"><defs
     id="defs8" /><sodipodi:namedview
     id="namedview6"
     pagecolor="#ffffff"
     bordercolor="#666666"
     borderopacity="1.0"
     inkscape:showpageshadow="2"
     inkscape:pageopacity="0.0"
     inkscape:pagecheckerboard="true"
     inkscape:deskcolor="#d1d1d1"
     showgrid="false"
     showguides="true"
     inkscape:zoom="4.7311253"
     inkscape:cx="122.06398"
     inkscape:cy="22.193452"
     inkscape:current-layer="svg4"><sodipodi:guide
       position="24,4"
       orientation="0,-1"
       id="guide309"
       inkscape:locked="false" /><sodipodi:guide
       position="70.19935,25"
       orientation="0,-1"
       id="guide311"
       inkscape:locked="false" /></sodipodi:namedview><path
     d="M 24,44 Q 24,40.5 25.5,37.25 27,34 29.5,31.5 32,29 35.25,27.5 38.5,26 42,26 42,29.5 40.5,32.75 39,36 36.5,38.5 34,41 30.75,42.5 27.5,44 24,44 Z m 3.75,-3.75 q 4,-1.3 6.65,-3.95 2.65,-2.65 3.95,-6.65 -4,1.3 -6.65,3.975 -2.65,2.675 -3.95,6.625 z M 24,44 Q 24,40.5 22.5,37.25 21,34 18.5,31.5 16,29 12.75,27.5 9.5,26 6,26 6,29.5 7.5,32.75 9,36 11.5,38.5 14,41 17.25,42.5 20.5,44 24,44 Z m -3.75,-3.75 q -4,-1.3 -6.65,-3.95 -2.65,-2.65 -3.95,-6.65 4,1.3 6.65,3.975 2.65,2.675 3.95,6.625 z M 30.7,22.15 q 1.15,0 1.975,-0.825 Q 33.5,20.5 33.5,19.35 33.5,18.5 33.05,17.875 32.6,17.25 31.85,16.85 L 29.5,15.7 Q 29.25,17.15 28.675,18.225 28.1,19.3 27,20.15 l 2.1,1.5 q 0.35,0.25 0.75,0.375 0.4,0.125 0.85,0.125 z m -1.2,-6.85 2.35,-1.15 q 0.75,-0.4 1.175,-1.05 0.425,-0.65 0.425,-1.45 0,-1.15 -0.8,-1.975 Q 31.85,8.85 30.7,8.85 30.25,8.85 29.875,8.975 29.5,9.1 29.1,9.35 l -2.2,1.5 q 1.15,0.85 1.75,1.9 0.6,1.05 0.85,2.55 z m -7.95,-4.7 q 0.7,-0.3 1.325,-0.45 Q 23.5,10 24,10 q 0.5,0 1.125,0.15 0.625,0.15 1.325,0.45 L 26.8,7.5 Q 26.9,6.45 26,5.725 25.1,5 24.05,5 22.95,5 22.025,5.75 21.1,6.5 21.2,7.5 Z m 2.5,7.4 q 1,0 1.725,-0.75 0.725,-0.75 0.725,-1.8 0,-1 -0.725,-1.725 Q 25.05,13 24,13 23,13 22.25,13.725 21.5,14.45 21.5,15.5 q 0,1 0.75,1.75 Q 23,18 24.05,18 Z m 0,8 Q 25.1,26 26,25.275 26.9,24.55 26.8,23.5 l -0.35,-3.1 q -0.7,0.3 -1.325,0.45 Q 24.5,21 24,21 23.5,21 22.875,20.85 22.25,20.7 21.55,20.4 l -0.35,3.1 q -0.1,1 0.825,1.75 Q 22.95,26 24.05,26 Z M 18.5,15.3 Q 18.75,13.8 19.325,12.75 19.9,11.7 21,10.85 L 18.9,9.35 Q 18.55,9.1 18.15,8.975 17.75,8.85 17.3,8.85 16.15,8.85 15.325,9.675 14.5,10.5 14.5,11.65 q 0,0.8 0.45,1.45 0.45,0.65 1.2,1.05 z m -1.2,6.8 q 0.45,0 0.825,-0.125 Q 18.5,21.85 18.9,21.6 l 2.2,-1.45 Q 19.95,19.3 19.35,18.225 18.75,17.15 18.5,15.7 l -2.35,1.15 q -0.75,0.4 -1.175,1.05 -0.425,0.65 -0.425,1.45 0.05,1.15 0.825,1.95 0.775,0.8 1.925,0.8 z M 24,29 Q 22.2,29 20.725,27.925 19.25,26.85 18.55,25.1 q -0.3,0 -0.625,0.025 -0.325,0.025 -0.625,0.025 -2.4,0 -4.1,-1.7 -1.7,-1.7 -1.7,-4.1 0,-1 0.4,-1.975 0.4,-0.975 1.15,-1.875 -0.7,-0.9 -1.1,-1.875 -0.4,-0.975 -0.4,-1.975 0,-2.4 1.675,-4.1 1.675,-1.7 4.075,-1.7 0.3,0 0.625,0.025 Q 18.25,5.9 18.55,5.9 19.25,4.15 20.725,3.075 22.2,2 24,2 25.8,2 27.275,3.075 28.75,4.15 29.45,5.9 29.75,5.9 30.075,5.875 30.4,5.85 30.7,5.85 q 2.4,0 4.075,1.7 1.675,1.7 1.675,4.1 0,1 -0.375,1.975 Q 35.7,14.6 34.95,15.5 q 0.7,0.9 1.1,1.875 0.4,0.975 0.4,1.975 0,2.4 -1.675,4.1 -1.675,1.7 -4.075,1.7 -0.3,0 -0.625,-0.025 Q 29.75,25.1 29.45,25.1 28.75,26.85 27.275,27.925 25.8,29 24,29 Z m 0,-19 z m 2.9,0.85 z m 0.1,9.3 z M 24,21 Z M 21.1,20.15 Z M 21,10.85 Z m -0.75,29.4 z m 7.5,0 z"
     id="path2"
     style="fill:#ffffff;fill-opacity:1" /><path
     d="m 99.35942,44 v -3 h 12 q -1,-4.55 -4.375,-7.975 -3.375,-3.425 -7.625,-4.525 1,-0.25 1.975,-0.375 0.975,-0.125 2.025,-0.125 6.7,0 11.35,4.65 4.65,4.65 4.65,11.35 z m 23,0 q 0,-2.1 -0.4,-3.675 -0.4,-1.575 -1,-3.125 2,-4.4 6,-6.8 4,-2.4 8.4,-2.4 1.05,0 2.025,0.125 0.975,0.125 1.975,0.375 -4.25,1.1 -7.7,4.575 -3.45,3.475 -4.3,7.925 h 12 v 3 z m -2.9,-9.65 q -0.45,-3.8 0.65,-7.1 1.1,-3.3 3.225,-5.75 2.125,-2.45 5.125,-3.9 3,-1.45 6.35,-1.55 -2.8,1.75 -5.275,4.775 -2.475,3.025 -3.125,6.475 -2.2,1.05 -4,2.925 -1.8,1.875 -2.95,4.125 z m -3.05,-3.8 q -0.8,-0.75 -1.75,-1.5 -0.95,-0.75 -1.6,-1.15 0.15,-0.6 0.225,-1.325 0.075,-0.725 0.075,-1.175 0,-3.8 -1.2,-7.2 -1.2,-3.400001 -3.4,-6.200001 3.5,1.4 6.2,4.425001 2.7,3.025 3.8,6.925 -0.9,1.6 -1.525,3.475 -0.625,1.875 -0.825,3.725 z"
     id="path237"
     style="fill:#ffffff;fill-opacity:1" /><path
     d="m 70.67971,43.858954 q -3.6,-0.4 -7.175,-2.075 -3.575,-1.675 -6.425,-4.65 -2.85,-2.975 -4.625,-7.35 -1.775,-4.375 -1.775,-10.175 v -1.9 h 1.9 q 2.65,0 5.65,1.025 3,1.025 5.3,2.625 0.4,-4.5 2.4,-9.275 2,-4.775 4.75,-8.1749999 2.75,3.3999999 4.75,8.1749999 2,4.775 2.4,9.275 2.3,-1.5 5.3,-2.575 3,-1.075 5.65,-1.075 h 1.9 v 1.9 q 0,5.8 -1.775,10.175 -1.775,4.375 -4.625,7.35 -2.85,2.975 -6.425,4.65 -3.575,1.675 -7.175,2.075 z m 0.4,-3.05 q -0.55,-9.3 -5.375,-14.1 -4.825,-4.8 -11.975,-5.95 0.65,9.65 5.625,14.4 4.975,4.75 11.725,5.65 z m -0.45,-12.25 q 0.7,-1.3 1.925,-2.8 1.225,-1.5 2.375,-2.5 0.25,-3.4 -1,-6.9 -1.25,-3.5 -3.25,-7.25 -2,3.75 -3.25,7.25 -1.25,3.5 -1,6.9 1.15,1 2.325,2.5 1.175,1.5 1.875,2.8 z m 3.45,11.4 q 2.35,-0.85 4.675,-2.25 2.325,-1.4 4.2,-3.65 1.875,-2.25 3.15,-5.525 1.275,-3.275 1.525,-7.775 -5.3,0.85 -9.35,3.775 -4.05,2.925 -5.95,7.225 0.6,1.9 1.05,3.825 0.45,1.925 0.7,4.375 z m -3.45,-11.4 z m 3.45,11.4 z m -3,0.85 z m 1.25,-9.05 z m -1.65,12.1 z"
     id="path300"
     style="fill:#ffffff;fill-opacity:1;opacity:0.66" /><path
     d="m 160.6287,41 h 16.3 l 2.4,-9.5 h -21.1 z m 0,3 q -1,0 -1.825,-0.625 -0.825,-0.625 -1.075,-1.625 l -2.6,-10.25 h 27.3 l -2.6,10.25 q -0.25,1 -1.075,1.625 -0.825,0.625 -1.825,0.625 z m -6.85,-15.5 h 30 v -5 h -30 z m 15,-12.55 q 0.25,-4.35 3.9,-8.0249999 3.65,-3.6750002 8.05,-3.9250002 -0.15,4.0500002 -3.35,7.5250001 -3.2,3.475 -7.1,4.225 v 4.75 h 16.5 v 8 q 0,1.25 -0.875,2.125 -0.875,0.875 -2.125,0.875 h -30 q -1.25,0 -2.125,-0.875 -0.875,-0.875 -0.875,-2.125 v -8 h 16.5 v -4.75 q -3.9,-0.75 -7.075,-4.225 -3.175,-3.4749999 -3.375,-7.5250001 4.4,0.25 8.075,3.9000002 3.675,3.6499999 3.875,8.0499999 z"
     id="path313"
     style="fill:#ffffff;fill-opacity:1;opacity:0.66" /><path
     d="m 219.09798,44 h -5.75 v -7.45 h -15.15 l 9.45,-13.7 h -4.75 l 13.3,-18.85 13.3,18.85 h -4.7 l 9.4,13.7 h -15.1 z m -15.1,-10.45 h 9.45 -4.5 14.5 -4.45 9.45 z m 0,0 h 24.45 l -9.45,-13.7 h 4.45 l -7.25,-10.3000001 -7.25,10.3000001 h 4.5 z"
     id="path322"
     style="fill:#ffffff;fill-opacity:1" /><metadata
     id="metadata366"><rdf:RDF><cc:License
         rdf:about="http://creativecommons.org/licenses/by-sa/4.0/"><cc:permits
           rdf:resource="http://creativecommons.org/ns#Reproduction" /><cc:permits
           rdf:resource="http://creativecommons.org/ns#Distribution" /><cc:requires
           rdf:resource="http://creativecommons.org/ns#Notice" /><cc:requires
           rdf:resource="http://creativecommons.org/ns#Attribution" /><cc:permits
           rdf:resource="http://creativecommons.org/ns#DerivativeWorks" /><cc:requires
           rdf:resource="http://creativecommons.org/ns#ShareAlike" /></cc:License><cc:Work
         rdf:about=""><cc:license
           rdf:resource="http://creativecommons.org/licenses/by-sa/4.0/" /></cc:Work></rdf:RDF></metadata></svg>
