<svg xmlns="http://www.w3.org/2000/svg" width="24" height="24" viewBox="0 0 24 24">
<path d="m 11,3 2,2.08 c 3.39,0.49 6,3.39 6,6.92 0,3.87 -3.13,7 -7,7 C 8.13,19 5,15.87 5,12 5,10.32 5.59,8.78 6.58,7.58 L 6.61,4.79 V 4.81 C 4.42,6.45 3,9.05 3,12 c 0,4.97 4.02,9 9,9 4.97,0 9,-4.03 9,-9 0,-4.97 -4.03,-9 -9,-9 z" style="opacity:0.66" />
<path d="m 11,3 v 4 h 2 V 5.08 Z" />
<path d="m 11,17 c 0,0.55 0.45,1 1,1 0.55,0 1,-0.45 1,-1 0,-0.55 -0.45,-1 -1,-1 -0.55,0 -1,0.45 -1,1 z M 6.58,7.58 12,13 13.41,11.59 6.61,4.79 V 4.81 Z M 18,12 c 0,-0.55 -0.45,-1 -1,-1 -0.55,0 -1,0.45 -1,1 0,0.55 0.45,1 1,1 0.55,0 1,-0.45 1,-1 z M 6,12 c 0,0.55 0.45,1 1,1 0.55,0 1,-0.45 1,-1 0,-0.55 -0.45,-1 -1,-1 -0.55,0 -1,0.45 -1,1 z" />
</svg>
