<svg xmlns="http://www.w3.org/2000/svg" width="24" height="24" viewBox="0 0 24 24">
<path d="M 9.0485745,2.1619175 C 9.5333505,2.0050807 10.021689,1.8945801 10.513593,1.8304159 11.005499,1.7662553 11.500967,1.7341769 12,1.7341769 c 1.340261,0 2.605666,0.2388216 3.796215,0.7164686 1.190553,0.4776432 2.245652,1.1406466 3.165298,1.9890024 0.919645,0.8483564 1.671758,1.8464236 2.256343,2.9941992 0.584582,1.1477756 0.933904,2.3846651 1.047967,3.7106679 H 20.554854 C 20.455048,10.117932 20.184144,9.1590751 19.742143,8.2679452 19.300143,7.3768157 18.733384,6.59262 18.041867,5.9153593 17.350349,5.2381014 16.555461,4.6855987 15.657199,4.2578579 14.75894,3.8301138 13.796517,3.5734679 12.769938,3.4879205 L 14.09594,4.8139236 12.898259,6.0116017 Z M 14.951426,21.838082 c -0.484776,0.156837 -0.973115,0.267337 -1.465019,0.331502 -0.491906,0.06416 -0.987374,0.09624 -1.486407,0.09624 -1.340261,0 -2.6056659,-0.238821 -3.7962152,-0.716468 C 7.0132318,21.071711 5.9581327,20.408708 5.0384871,19.560352 4.1188416,18.711995 3.3667284,17.713929 2.7821436,16.566153 2.1975622,15.418377 1.8482401,14.181489 1.7341769,12.855485 h 1.7109698 c 0.1140632,1.026583 0.3885335,1.985439 0.8234031,2.876569 0.4348731,0.891131 0.9980673,1.675326 1.6895829,2.352586 0.6915192,0.677258 1.4864062,1.229762 2.3846685,1.657503 0.8982587,0.427743 1.8606778,0.684389 2.8872608,0.769937 L 9.9040595,19.186076 11.101741,17.988399 Z" style="stroke-width:0.0213871" />
<path d="m 8.5780603,16.277429 c -0.4705181,0 -0.8733093,-0.167536 -1.2083736,-0.5026 C 7.0346186,15.439765 6.8670865,15.036973 6.8670865,14.566455 V 9.4335451 c 0,-0.4705178 0.1675321,-0.8733092 0.5026002,-1.2083735 C 7.704751,7.8901074 8.1075422,7.7225714 8.5780603,7.7225714 H 9.4335452 L 10.28903,6.8670865 h 3.42194 l 0.855485,0.8554849 h 0.855486 c 0.470517,0 0.873308,0.167536 1.208373,0.5026002 0.335067,0.3350643 0.502599,0.7378557 0.502599,1.2083735 v 5.1329099 c 0,0.470518 -0.167532,0.87331 -0.502599,1.208374 -0.335065,0.335064 -0.737856,0.5026 -1.208373,0.5026 z m 0,-1.710974 H 15.421941 V 9.4335451 H 8.5780603 Z M 12,13.71097 c 0.470518,0 0.87331,-0.167532 1.208374,-0.502596 C 13.543438,12.87331 13.71097,12.470518 13.71097,12 c 0,-0.470518 -0.167532,-0.87331 -0.502596,-1.208374 C 12.87331,10.456562 12.470518,10.28903 12,10.28903 c -0.470518,0 -0.87331,0.167532 -1.208374,0.502596 C 10.456562,11.12669 10.28903,11.529482 10.28903,12 c 0,0.470518 0.167532,0.87331 0.502596,1.208374 C 11.12669,13.543438 11.529482,13.71097 12,13.71097 Z" style="opacity:0.66;stroke-width:0.0213871" />
</svg>
