<svg xmlns="http://www.w3.org/2000/svg" width="24" height="24" viewBox="0 0 24 24">
<path d="M 14.17,2.24 C 13.47,2.09 12.75,2 12,2 9.6,2 7.4,2.85 5.68,4.25 L 9.34,10.6 Z M 21.54,9 C 20.62,6.08 18.39,3.74 15.54,2.66 L 11.88,9 Z m 0.26,1 h -7.49 l 5.05,8.75 C 21,16.97 22,14.61 22,12 22,11.31 21.93,10.65 21.8,10 Z M 4.64,5.25 C 3.01,7.03 2,9.39 2,12 c 0,0.69 0.07,1.35 0.2,2 H 9.69 Z M 2.46,15 c 0.92,2.92 3.15,5.26 6,6.34 L 12.12,15 Z m 7.37,6.76 c 0.7,0.15 1.42,0.24 2.17,0.24 2.4,0 4.6,-0.85 6.32,-2.25 L 14.66,13.4 Z" style="opacity:0.66" />
<path d="M 21.54,9 C 20.62,6.08 18.39,3.74 15.54,2.66 L 11.88,9 Z M 4.64,5.25 C 3.01,7.03 2,9.39 2,12 c 0,0.69 0.07,1.35 0.2,2 h 7.49 z m 5.19,16.51 c 0.7,0.15 1.42,0.24 2.17,0.24 2.4,0 4.6,-0.85 6.32,-2.25 L 14.66,13.4 Z" />
</svg>
