<svg xmlns="http://www.w3.org/2000/svg" width="24" height="24" viewBox="0 0 24 24">
<path d="m 13,2 v 8 h 8 C 21,5.58 17.42,2 13,2 Z" style="opacity:0.66" />
<path d="M 19.32,15.89 C 20.37,14.54 21,12.84 21,11 H 6.44 L 5.49,9 H 1.9999998 v 2 H 4.22 c 0,0 1.89,4.07 2.12,4.42 -1.1,0.59 -1.84,1.75 -1.84,3.08 0,1.93 1.57,3.5 3.5,3.5 1.76,0 3.22,-1.3 3.46,-3 h 2.08 c 0.24,1.7 1.7,3 3.46,3 1.93,0 3.5,-1.57 3.5,-3.5 0,-1.04 -0.46,-1.97 -1.18,-2.61 z M 8,20 C 7.17,20 6.5,19.33 6.5,18.5 6.5,17.67 7.17,17 8,17 8.83,17 9.5,17.67 9.5,18.5 9.5,19.33 8.83,20 8,20 Z m 9,0 c -0.83,0 -1.5,-0.67 -1.5,-1.5 0,-0.83 0.67,-1.5 1.5,-1.5 0.83,0 1.5,0.67 1.5,1.5 0,0.83 -0.67,1.5 -1.5,1.5 z" />
</svg>
