<svg xmlns="http://www.w3.org/2000/svg" width="24" height="24" viewBox="0 0 24 24">
<g style="opacity:0.66" transform="matrix(0.93932807,0,0,0.94298691,0.72806317,1.0967747)">
<path d="M 16.56,8.94 7.62,0 6.21,1.41 8.59,3.79 3.44,8.94 c -0.59,0.59 -0.59,1.54 0,2.12 l 5.5,5.5 C 9.23,16.85 9.62,17 10,17 c 0.38,0 0.77,-0.15 1.06,-0.44 l 5.5,-5.5 c 0.59,-0.58 0.59,-1.53 0,-2.12 z M 5.21,10 10,5.21 14.79,10 Z M 19,11.5 c 0,0 -2,2.17 -2,3.5 0,1.1 0.9,2 2,2 1.1,0 2,-0.9 2,-2 0,-1.33 -2,-3.5 -2,-3.5 z" />
</g>
<g transform="matrix(0.97064391,0,0,0.97442474,0.35227304,0.7427845)">
<path d="M 2.3226296,19.718022 H 21.67737 V 22.15674 H 2.3226296 Z" style="stroke-width:0.768121" />
</g>
</svg>
