<svg xmlns="http://www.w3.org/2000/svg" width="24" height="24" viewBox="0 0 24 24">
<path d="M 8,2.29 C 7.8,2.1 7.55,2 7.29,2 7.04,2 6.78,2.1 6.59,2.29 L 2.25,6.63 c -0.39,0.39 -0.39,1.02 0,1.41 l 13.71,13.71 c 0.2,0.2 0.45,0.29 0.71,0.29 0.26,0 0.51,-0.1 0.71,-0.29 l 4.34,-4.34 c 0.39,-0.39 0.39,-1.02 0,-1.41 z m 8.66,18.05 -13,-13 3.63,-3.63 12.99,13 z" style="opacity:0.66" />
<path d="m 21.71,8.04 c 0.39,-0.39 0.39,-1.02 0,-1.41 L 17.37,2.29 C 16.98,1.9 16.35,1.9 15.96,2.29 L 2.2499999,16 c -0.39,0.39 -0.39,1.02 0,1.41 l 4.34,4.34 c 0.39,0.39 1.02,0.39 1.41,0 z M 12,9 c 0.55,0 1,0.45 1,1 0,0.55 -0.45,1 -1,1 -0.55,0 -1,-0.45 -1,-1 0,-0.55 0.45,-1 1,-1 z m -2.0000001,4 c -0.55,0 -1,-0.45 -1,-1 0,-0.55 0.45,-1 1,-1 C 10.55,11 11,11.45 11,12 c 0,0.55 -0.45,1 -1.0000001,1 z M 12,15 c -0.55,0 -1,-0.45 -1,-1 0,-0.55 0.45,-1 1,-1 0.55,0 1,0.45 1,1 0,0.55 -0.45,1 -1,1 z m 2,-4 c 0.55,0 1,0.45 1,1 0,0.55 -0.45,1 -1,1 -0.55,0 -1,-0.45 -1,-1 0,-0.55 0.45,-1 1,-1 z" />
</svg>
