<svg xmlns="http://www.w3.org/2000/svg" width="24" height="24" viewBox="0 0 24 24">
<path d="M 7.64,2.64 6.22,1.22 C 4.23,3.21 3,5.96 3,9 c 0,3.04 1.23,5.79 3.22,7.78 L 7.63,15.37 C 6.01,13.74 5,11.49 5,9 5,6.51 6.01,4.26 7.64,2.64 Z M 11.5,9 c 0,1.38 1.12,2.5 2.5,2.5 1.38,0 2.5,-1.12 2.5,-2.5 0,-1.38 -1.12,-2.5 -2.5,-2.5 -1.38,0 -2.5,1.12 -2.5,2.5 z" />
<path d="m 17,20 c -0.29,0 -0.56,-0.06 -0.76,-0.15 -0.71,-0.37 -1.21,-0.88 -1.71,-2.38 -0.51,-1.56 -1.47,-2.29 -2.39,-3 -0.79,-0.61 -1.61,-1.24 -2.3200002,-2.53 -0.53,-0.96 -0.82,-2.0099996 -0.82,-2.9399996 0,-2.8 2.2000002,-5 5.0000002,-5 2.8,0 5,2.2 5,5 h 2 c 0,-3.93 -3.07,-7 -7,-7 -3.93,0 -7.0000002,3.07 -7.0000002,7 0,1.2599996 0.38,2.6499996 1.07,3.8999996 0.91,1.65 1.9800002,2.48 2.8500002,3.15 0.81,0.62 1.39,1.07 1.71,2.05 0.6,1.82 1.37,2.84 2.73,3.55 0.51,0.23 1.07,0.35 1.64,0.35 2.21,0 4,-1.79 4,-4 h -2 c 0,1.1 -0.9,2 -2,2 z" style="opacity:0.66" />
</svg>
