<svg xmlns="http://www.w3.org/2000/svg" width="24" height="24" viewBox="0 0 24 24">
<path d="M 22.847207,10.794755 V 8.3842645 H 20.436716 V 5.9737741 c 0,-1.3257697 -1.08472,-2.4104903 -2.41049,-2.4104903 h -2.41049 V 1.1527934 h -2.410491 v 2.4104904 h -2.41049 V 1.1527934 H 8.3842645 V 3.5632838 H 5.9737741 c -1.3257697,0 -2.4104903,1.0847206 -2.4104903,2.4104903 V 8.3842645 H 1.1527934 v 2.4104905 h 2.4104904 v 2.41049 H 1.1527934 v 2.410491 h 2.4104904 v 2.41049 c 0,1.32577 1.0847206,2.41049 2.4104903,2.41049 h 2.4104904 v 2.410491 h 2.4104905 v -2.410491 h 2.41049 v 2.410491 h 2.410491 v -2.410491 h 2.41049 c 1.32577,0 2.41049,-1.08472 2.41049,-2.41049 v -2.41049 h 2.410491 v -2.410491 h -2.410491 v -2.41049 z m -4.820981,7.231471 H 5.9737741 V 5.9737741 H 18.026226 Z" style="stroke-width:1.20525" />
<path d="M 15.615736,8.3842645 H 8.3842639 v 7.2314715 h 7.2314721 z m -2.410491,4.8209805 h -2.41049 v -2.41049 h 2.41049 z" style="opacity:0.66;stroke-width:1.20525" />
</svg>
