<svg xmlns="http://www.w3.org/2000/svg" width="24" height="24" viewBox="0 0 24 24">
<path d="M 11.68,15 H 6.35 c 0.57,1.62 1.82,2.92 3.41,3.56 L 9.65,18.5 Z m 5.97,-4 C 17.08,9.4 15.87,8.11 14.31,7.46 L 12.26,11 Z m -7.04,7.83 C 11.06,18.94 11.52,19 12,19 c 1.34,0 2.57,-0.45 3.57,-1.19 l -2.11,-3.9 z M 7.55,8.99 C 6.59,10.05 6,11.46 6,13 c 0,0.34 0.04,0.67 0.09,1 h 4.72 z m 8.79,8.14 C 17.37,16.06 18,14.6 18,13 18,12.66 17.96,12.33 17.91,12 H 13.57 Z M 13.33,7.15 C 12.9,7.06 12.46,7 12,7 10.6,7 9.31,7.49 8.29,8.29 l 2.32,3.56 z" style="opacity:0.66" />
<path d="M 15,1 H 9 v 2 h 6 z m 4.03,6.39 1.42,-1.42 C 20.02,5.46 19.55,4.98 19.04,4.56 L 17.62,5.98 C 16.07,4.74 14.12,4 12,4 7.03,4 3,8.03 3,13 c 0,4.97 4.02,9 9,9 4.98,0 9,-4.03 9,-9 0,-2.12 -0.74,-4.07 -1.97,-5.61 z M 12,20 C 8.13,20 5,16.87 5,13 5,9.13 8.13,6 12,6 c 3.87,0 7,3.13 7,7 0,3.87 -3.13,7 -7,7 z" />
</svg>
