<svg xmlns="http://www.w3.org/2000/svg" width="24" height="24" viewBox="0 0 24 24">
<path d="M 17,2 H 7 C 5.9,2 5,2.9 5,4 v 16 c 0,1.1 0.9,1.99 2,1.99 L 17,22 c 1.1,0 2,-0.9 2,-2 V 4 C 19,2.9 18.1,2 17,2 Z m -5,2 c 1.1,0 2,0.9 2,2 0,1.1 -0.9,2 -2,2 -1.11,0 -2,-0.9 -2,-2 0,-1.1 0.89,-2 2,-2 z m 0,16 c -2.76,0 -5,-2.24 -5,-5 0,-2.76 2.24,-5 5,-5 2.76,0 5,2.24 5,5 0,2.76 -2.24,5 -5,5 z" />
<path d="m 12,12 c -1.66,0 -3,1.34 -3,3 0,1.66 1.34,3 3,3 1.66,0 3,-1.34 3,-3 0,-1.66 -1.34,-3 -3,-3 z" style="opacity:0.66" />
</svg>
