<svg xmlns="http://www.w3.org/2000/svg" width="24" height="24" viewBox="0 0 24 24">
<path d="m 10.59,15.41 c 0.781228,0.782098 2.048772,0.782098 2.83,0 l 5.66,-8.49 -8.49,5.66 c -0.7820978,0.781228 -0.7820978,2.048772 0,2.83 z" />
<path d="m 20.38,8.57 -1.23,1.85 c 1.2049,2.403143 1.122251,5.250785 -0.22,7.58 H 5.0700003 C 1.1088809,11.128287 8.4863963,3.3015218 15.58,6.85 L 17.43,5.62 C 8.6278122,-0.02429981 -1.8384962,9.9216668 3.3500003,19 c 0.3551046,0.615089 1.0097779,0.995713 1.72,1 H 18.92 c 0.71737,0.0028 1.381318,-0.378732 1.74,-1 1.878644,-3.25433 1.774347,-7.287127 -0.27,-10.44 z" style="opacity:0.66" />
</svg>
