<svg xmlns="http://www.w3.org/2000/svg" width="24" height="24" viewBox="0 0 24 24">
<path style="opacity:0.66;fill-opacity:1;stroke:none;stroke-width:1.05823" d="M 12,0 A 11.999247,11.999247 0 0 0 0,12 11.999247,11.999247 0 0 0 12,24 11.999247,11.999247 0 0 0 24,12 11.999247,11.999247 0 0 0 12,0 Z m 0,2.2554104 A 9.7455801,9.7455801 0 0 1 21.74459,12 9.7455801,9.7455801 0 0 1 12,21.74459 9.7455801,9.7455801 0 0 1 2.2554104,12 9.7455801,9.7455801 0 0 1 12,2.2554104 Z" />
<path style="opacity:1;fill-opacity:1;stroke:none;stroke-width:1.19789" d="M 12,2.2554104 C 9.3087625,2.2546658 7.1268092,6.6175249 7.1265353,12 7.1268091,17.382476 9.3087624,21.745335 12,21.74459 14.691237,21.745334 16.873192,17.382475 16.873464,12 16.873189,6.6175253 14.691237,2.2546665 12,2.2554104 Z m 0,1.2718831 C 14.220084,3.528357 15.659618,7.1229328 15.659567,12 15.659618,16.877068 14.220084,20.471643 12,20.472707 9.7799165,20.471643 8.3403829,16.877068 8.3404329,12 8.340383,7.1229331 9.7799165,3.5283572 12,3.5272935 Z" />
<path style="opacity:1;fill-opacity:1;stroke:none;stroke-width:1.19789" d="M 21.74459,12 C 21.745334,9.3087627 17.382475,7.1268098 12,7.1265361 6.6175251,7.1268097 2.254666,9.3087626 2.2554097,12 2.2546657,14.691237 6.617525,16.873192 12,16.873464 17.382475,16.873192 21.745334,14.691237 21.74459,12 Z m -1.271883,0 C 20.471643,14.220084 16.877068,15.659618 12,15.659567 7.1229327,15.659618 3.528357,14.220084 3.5272935,12 3.5283573,9.7799165 7.1229329,8.3403829 12,8.3404329 16.877068,8.3403829 20.471643,9.7799165 20.472707,12 Z" />
</svg>
