<svg xmlns="http://www.w3.org/2000/svg" width="24" height="24" viewBox="0 0 24 24">
<path style="opacity:0.66;fill-opacity:1;stroke:none;stroke-width:0.88340807" d="M 12 1.9824219 A 10.016949 10.016949 0 0 0 1.9824219 12 A 10.016949 10.016949 0 0 0 12 22.017578 A 10.016949 10.016949 0 0 0 22.017578 12 A 10.016949 10.016949 0 0 0 12 1.9824219 z M 12 3.8652344 A 8.1355925 8.1355925 0 0 1 20.134766 12 A 8.1355925 8.1355925 0 0 1 12 20.134766 A 8.1355925 8.1355925 0 0 1 3.8652344 12 A 8.1355925 8.1355925 0 0 1 12 3.8652344 z " />
<path style="opacity:1;fill-opacity:1;stroke:none" d="M 12,3.8652344 C 9.7533598,3.8646128 7.9318692,7.5067196 7.9316406,12 7.9318691,16.493281 9.7533597,20.135388 12,20.134766 14.24664,20.135387 16.068131,16.49328 16.068359,12 16.06813,7.5067199 14.24664,3.8646133 12,3.8652344 Z M 12,4.927 c 1.853322,8.879e-4 3.055042,3.0016332 3.055,7.073 4.2e-5,4.071367 -1.201678,7.072112 -3.055,7.073 C 10.146678,19.072112 8.9449583,16.071367 8.945,12 8.9449584,7.9286334 10.146678,4.927888 12,4.927 Z" />
<path style="opacity:1;fill-opacity:1;stroke:none" d="M 20.134766,12 C 20.135387,9.75336 16.49328,7.9318697 12,7.9316412 7.5067198,7.9318696 3.8646129,9.7533599 3.8652338,12 3.8646127,14.24664 7.5067197,16.068131 12,16.068359 16.49328,16.068131 20.135387,14.24664 20.134766,12 Z M 19.073,12 C 19.072112,13.853322 16.071367,15.055042 12,15.055 7.9286331,15.055042 4.9278879,13.853322 4.927,12 4.9278881,10.146678 7.9286333,8.9449583 12,8.945 c 4.071367,-4.17e-5 7.072112,1.201678 7.073,3.055 z" />
</svg>
