<svg xmlns="http://www.w3.org/2000/svg" viewBox="0 0 24 24" height="24" width="24">
<path d="m 12,6.0194885 c -3.2842518,0 -5.9533266,2.6812624 -5.9533266,5.9805125 0,3.299248 2.6690748,5.98051 5.9533266,5.98051 3.284252,0 5.953327,-2.681262 5.953327,-5.98051 0,-3.2992501 -2.669075,-5.9805125 -5.953327,-5.9805125 z" style="opacity:0.6" />
<path d="M 6.8007615,5.3616326 5.0147632,3.5774468 3.6157313,4.9828669 5.3918072,6.7670527 Z M 4.0622308,11.003248 H 1.0855673 v 1.993504 H 4.0622308 Z M 12.992221,1.0855673 h -1.984442 v 2.9404178 h 1.984442 z m 7.392048,3.8972996 -1.399032,-1.4054201 -1.776076,1.7841858 1.399032,1.4054201 z m -3.18503,13.6555001 1.776076,1.794154 1.399032,-1.40542 -1.785999,-1.784187 z m 2.73853,-7.635119 v 1.993504 h 2.976664 v -1.993504 z m -8.92999,11.911185 h 1.984442 v -2.940418 h -1.984442 z m -7.3920477,-3.8973 1.3990319,1.40542 1.776076,-1.794153 -1.399032,-1.40542 z" />
</svg>
