<svg xmlns="http://www.w3.org/2000/svg" height="24" viewBox="0 0 24 24" width="24">
<path d="M 5.5,22 V 14.5 H 4 V 9 C 4,7.9 4.9,7 6,7 h 3 c 1.1,0 2,0.9 2,2 v 5.5 H 9.5 V 22 Z" style="opacity:0.66" />
<path d="m 16.5,5.9999998 c 1.11,0 2,-0.89 2,-2 0,-1.11 -0.89,-2 -2,-2 -1.11,0 -2,0.89 -2,2 0,1.11 0.89,2 2,2 z" style="opacity:0.66" />
<path d="m 7.5,5.9999998 c 1.11,0 2,-0.89 2,-2 0,-1.11 -0.89,-2 -2,-2 -1.11,0 -2,0.89 -2,2 0,1.11 0.89,2 2,2 z" style="opacity:1" />
<path d="m 18,22 v -6 h 3 L 18.46,8.3700003 c -0.28,-0.82 -1.04,-1.37 -1.9,-1.37 h -0.12 c -0.86,0 -1.63,0.55 -1.9,1.37 L 12,16 h 3 v 6 z" />
</svg>
