<svg xmlns="http://www.w3.org/2000/svg" height="24" width="24">
<path d="M 5.1,20.25 C 4.15,19.333333 3.396,18.254 2.838,17.012 2.2793333,15.770667 2,14.433333 2,13 2,11.616667 2.2626667,10.316667 2.788,9.1 3.3126667,7.8833333 4.025,6.825 4.925,5.925 5.825,5.025 6.8833333,4.3123333 8.1,3.787 9.3166667,3.2623333 10.616667,3 12,3 c 1.383333,0 2.683333,0.2623333 3.9,0.787 1.216667,0.5253333 2.275,1.238 3.175,2.138 0.9,0.9 1.612333,1.9583333 2.137,3.175 0.525333,1.216667 0.788,2.516667 0.788,3.9 0,1.433333 -0.279,2.775 -0.837,4.025 -0.558667,1.25 -1.313,2.325 -2.263,3.225 l -1.4,-1.4 c 0.766667,-0.733333 1.375,-1.604 1.825,-2.612 C 19.775,15.229333 20,14.15 20,13 20,10.766667 19.225,8.875 17.675,7.325 16.125,5.775 14.233333,5 12,5 9.7666667,5 7.875,5.775 6.325,7.325 4.775,8.875 4,10.766667 4,13 c 0,1.15 0.225,2.225 0.675,3.225 0.45,1 1.0666667,1.866667 1.85,2.6 z" style="opacity:0.66" />
<path d="m 7.9250002,17.425 c -0.5833333,-0.55 -1.05,-1.204 -1.4,-1.962 -0.35,-0.758667 -0.525,-1.579667 -0.525,-2.463 0,-1.666667 0.5833333,-3.0833333 1.75,-4.2499998 C 8.9166667,7.5833335 10.333333,7.0000001 12,7.0000001 c 1.666667,0 3.083333,0.5833334 4.25,1.7500001 C 17.416667,9.9166667 18,11.333333 18,13 c 0,0.883333 -0.175,1.708333 -0.525,2.475 -0.35,0.766667 -0.816667,1.416667 -1.4,1.95 L 14.65,16 c 0.416667,-0.383333 0.745667,-0.833333 0.987,-1.35 C 15.879,14.133333 16,13.583333 16,13 16,11.9 15.608333,10.958333 14.825,10.175 14.041667,9.3916668 13.1,9.0000002 12,9.0000002 10.9,9.0000002 9.9583333,9.3916668 9.1749999,10.175 8.3916668,10.958333 8.0000002,11.9 8.0000002,13 c 0,0.6 0.121,1.154 0.363,1.662 0.2413333,0.508667 0.5703332,0.954667 0.9869997,1.338 z" style="opacity:0.84" />
<path d="M 12,15 C 11.45,15 10.979333,14.804 10.588,14.412 10.195999,14.020667 9.9999992,13.55 9.9999992,13 c 0,-0.55 0.1959998,-1.021 0.5880008,-1.413 C 10.979333,11.195667 11.45,11 12,11 c 0.55,0 1.021,0.195667 1.413,0.587 C 13.804333,11.979 14,12.45 14,13 14,13.55 13.804333,14.020667 13.413,14.412 13.021,14.804 12.55,15 12,15 Z" />
</svg>
