<?xml version="1.0" encoding="UTF-8" standalone="no"?>
<svg
   xmlns="http://www.w3.org/2000/svg"
   width="192"
   height="192"
   viewBox="0 0 50.799999 50.800001"
   version="1.1">
  <g
     id="layer1"
     transform="translate(0,-246.19999)">
    <path
       style="fill:#ffffff;stroke:none;stroke-width:0.99999994px;stroke-linecap:butt;stroke-linejoin:miter;stroke-opacity:1"
       d="m 96,31.900391 c 0,0 -14.224768,14.972558 -25.710938,32.412109 C 51.677298,54.997783 32,49.171875 32,49.171875 c 0,0 -5.76256,23.929246 -6.310547,46.664063 -10.250393,0.244188 -17.7773436,1.017578 -17.7773436,1.017578 0,0 11.8332796,51.579874 29.8476566,62.990234 17.610213,11.15436 56.190077,0.62192 57.923828,0.14063 0.02437,0.005 0.277344,0.0605 0.277344,0.0605 0,0 0.04632,-0.1448 0.04883,-0.15234 4e-5,-4e-5 0.0097,-0.01 0.0098,-0.01 0.605449,0.16996 40.255859,11.23933 58.132809,-0.084 C 172.16672,148.38847 184,96.808594 184,96.808594 c 0,0 -7.52987,-0.773543 -17.7832,-1.017578 C 165.71539,73.05189 160,49.103516 160,49.103516 c 0,0 -19.72443,5.797609 -38.36914,15.089843 C 110.1586,46.805232 96,31.900391 96,31.900391 Z"
       transform="matrix(0.26458333,0,0,0.26458333,0,246.19999)"
       id="path856-9" />
  </g>
</svg>
