<?xml version="1.0" encoding="UTF-8" standalone="no"?>
<svg
   xmlns="http://www.w3.org/2000/svg"
   width="24"
   height="24"
   viewBox="0 0 24 24"
   version="1.1"
   id="svg6">
  <path
     d="M 17.5,3.5 C 15.55,3.5 13.45,3.9 12,5 10.55,3.9 8.4499999,3.5 6.4999999,3.5 c -1.95,0 -4.05,0.4 -5.50000003,1.5 v 14.65 c 0,0.25 0.25000003,0.5 0.50000003,0.5 0.1,0 0.15,-0.05 0.25,-0.05 1.35,-0.65 3.3,-1.1 4.75,-1.1 1.95,0 4.0500001,0.4 5.5000001,1.5 1.35,-0.85 3.8,-1.5 5.5,-1.5 1.65,0 3.35,0.3 4.75,1.05 0.1,0.05 0.15,0.05 0.25,0.05 0.25,0 0.5,-0.25 0.5,-0.5 V 5 C 21.367096,3.8775357 19.325004,3.5090164 17.5,3.5 Z m 3.5,14 C 19.9,17.15 18.7,17 17.5,17 15.8,17 13.35,17.65 12,18.5 V 7 c 1.35,-0.85 3.8,-1.5 5.5,-1.5 1.2,0 2.4,0.15 3.5,0.5 z"
     id="path20" />
</svg>
