<?xml version="1.0" encoding="UTF-8" standalone="no"?>
<svg
   xmlns:dc="http://purl.org/dc/elements/1.1/"
   xmlns:cc="http://creativecommons.org/ns#"
   xmlns:rdf="http://www.w3.org/1999/02/22-rdf-syntax-ns#"
   xmlns:svg="http://www.w3.org/2000/svg"
   xmlns="http://www.w3.org/2000/svg"
   xmlns:sodipodi="http://sodipodi.sourceforge.net/DTD/sodipodi-0.dtd"
   xmlns:inkscape="http://www.inkscape.org/namespaces/inkscape"
   width="24"
   height="24"
   viewBox="0 0 24 24"
   version="1.1"
   id="svg6"
   sodipodi:docname="baseline-import_contacts-24px.svg"
   inkscape:version="0.92.4 5da689c313, 2019-01-14">
  <metadata
     id="metadata12">
    <rdf:RDF>
      <cc:Work
         rdf:about="">
        <dc:format>image/svg+xml</dc:format>
        <dc:type
           rdf:resource="http://purl.org/dc/dcmitype/StillImage" />
      </cc:Work>
    </rdf:RDF>
  </metadata>
  <defs
     id="defs10">
    <path
       d="M0 0h24v24H0V0z"
       id="a" />
  </defs>
  <sodipodi:namedview
     pagecolor="#ffffff"
     bordercolor="#666666"
     borderopacity="1"
     objecttolerance="10"
     gridtolerance="10"
     guidetolerance="10"
     inkscape:pageopacity="0"
     inkscape:pageshadow="2"
     inkscape:window-width="640"
     inkscape:window-height="480"
     id="namedview8"
     showgrid="false"
     inkscape:zoom="27.812867"
     inkscape:cx="10.796231"
     inkscape:cy="16.865093"
     inkscape:current-layer="svg6" />
  <path
     id="path20"
     d="M 17.5,3.5 C 15.55,3.5 13.45,3.9 12,5 10.55,3.9 8.4499999,3.5 6.4999999,3.5 c -1.95,0 -4.05,0.4 -5.50000003,1.5 v 14.65 c 0,0.25 0.25000003,0.5 0.50000003,0.5 0.1,0 0.15,-0.05 0.25,-0.05 1.35,-0.65 3.3,-1.1 4.75,-1.1 1.95,0 4.0500001,0.4 5.5000001,1.5 1.35,-0.85 3.8,-1.5 5.5,-1.5 1.65,0 3.35,0.3 4.75,1.05 0.1,0.05 0.15,0.05 0.25,0.05 0.25,0 0.5,-0.25 0.5,-0.5 V 5 C 21.367096,3.8775357 19.325004,3.5090164 17.5,3.5 Z m 3.5,14 C 19.9,17.15 18.7,17 17.5,17 15.8,17 13.35,17.65 12,18.5 V 7 c 1.35,-0.85 3.8,-1.5 5.5,-1.5 1.2,0 2.4,0.15 3.5,0.5 z"
     clip-path="url(#b)"
     inkscape:connector-curvature="0"
     sodipodi:nodetypes="ccscsscscscsscccsccscc" />
</svg>
