<?xml version="1.0" encoding="UTF-8" standalone="no"?>
<svg
   height="24"
   viewBox="0 0 24 24"
   width="24"
   xmlns="http://www.w3.org/2000/svg">
  <path
     d="M 22,12 C 22,6.48 17.52,2 12,2 6.48,2 2,6.48 2,12 2,17.52 6.48,22 12,22 17.52,22 22,17.52 22,12 Z M 4.07,11 C 4.56,7.06 7.92,4 12,4 c 4.08,0 7.44,3.05 7.93,7 z m 15.86,2 C 19.8,14.03 19.48,15 19,15.87 V 13 Z M 17,13 v 5.24 c -0.31,0.25 -0.65,0.48 -1,0.68 V 13 Z m -3,0 v 6.74 c -0.33,0.08 -0.66,0.15 -1,0.19 V 13 Z M 4.07,13 H 5 v 2.87 C 4.52,15 4.2,14.03 4.07,13 Z M 7,18.24 V 13 h 1 v 5.92 C 7.65,18.72 7.31,18.49 7,18.24 Z m 3,1.5 V 13 h 1 v 6.93 c -0.34,-0.04 -0.67,-0.11 -1,-0.19 z" />
</svg>
