<?xml version="1.0" encoding="UTF-8" standalone="no"?>
<svg
   xmlns="http://www.w3.org/2000/svg"
   width="24"
   height="24"
   viewBox="0 0 24 24"
   version="1.1"
   id="svg6">
  <path
     d="M 22.03,15.95 17.07,3.98 C 16.76,3.23 16.03,2.77 15.26,2.75 15,2.75 14.73,2.79 14.47,2.9 L 7.1,5.95 C 6.35,6.26 5.89,6.98 5.87,7.75 5.86,8.02 5.91,8.29 6.02,8.55 l 4.96,11.97 c 0.31,0.76 1.05,1.22 1.83,1.23 0.26,0 0.52,-0.05 0.77,-0.15 l 7.36,-3.05 c 1.02,-0.42 1.51,-1.59 1.09,-2.6 z M 7.88,8.75 c -0.55,0 -1,-0.45 -1,-1 0,-0.55 0.45,-1 1,-1 0.55,0 1,0.45 1,1 0,0.55 -0.45,1 -1,1 z"
     id="path2" />
  <path
     d="m 2.5300004,19.65 1.34,0.56 v -9.03 l -2.4299999,5.86 c -0.41,1.02 0.08,2.19 1.0899999,2.61 z m 3.35,0.1 c 0,1.1 0.9,2 2,2 h 1.45 l -3.45,-8.34 z"
     id="path2-3"
     style="opacity:0.66" />
</svg>
