<?xml version="1.0" encoding="UTF-8" standalone="no"?>
<svg
   xmlns="http://www.w3.org/2000/svg"
   xmlns:sodipodi="http://sodipodi.sourceforge.net/DTD/sodipodi-0.dtd"
   xmlns:inkscape="http://www.inkscape.org/namespaces/inkscape"
   height="24"
   viewBox="0 0 24 24"
   width="24"
   version="1.1"
   id="svg6"
   sodipodi:docname="mic-24px.svg"
   inkscape:version="1.0.2 (e86c870879, 2021-01-15)">
  <path
     d="M0 0h24v24H0z"
     fill="none"
     id="path2" />
  <path
     d="m 17.3,11 c 0,3 -2.54,5.1 -5.3,5.1 C 9.24,16.1 6.7,14 6.7,11 H 5 c 0,3.41 2.72,6.23 6,6.72 V 21 h 2 v -3.28 c 3.28,-0.48 6,-3.3 6,-6.72 z"
     id="path4"
     sodipodi:nodetypes="cscccccccc"
     style="opacity:0.66" />
  <path
     d="m 12,14 c 1.66,0 2.99,-1.34 2.99,-3 L 15,4.9999999 c 0,-1.66 -1.34,-3 -3,-3 -1.66,0 -3,1.34 -3,3 V 11 c 0,1.66 1.34,3 3,3 z"
     id="path4-3"
     sodipodi:nodetypes="sccssss" />
</svg>
