<?xml version="1.0" encoding="UTF-8" standalone="no"?>
<svg
   width="24"
   height="24"
   viewBox="0 0 24 24"
   version="1.1"
   id="svg6"
   sodipodi:docname="duotone-memory-24px.svg"
   inkscape:version="1.1.1 (3bf5ae0d25, 2021-09-20, custom)"
   xmlns:inkscape="http://www.inkscape.org/namespaces/inkscape"
   xmlns:sodipodi="http://sodipodi.sourceforge.net/DTD/sodipodi-0.dtd"
   xmlns="http://www.w3.org/2000/svg"
   xmlns:svg="http://www.w3.org/2000/svg">
  <defs
     id="defs10" />
  <sodipodi:namedview
     id="namedview8"
     pagecolor="#ffffff"
     bordercolor="#666666"
     borderopacity="1.0"
     inkscape:pageshadow="2"
     inkscape:pageopacity="0.0"
     inkscape:pagecheckerboard="0"
     showgrid="false"
     inkscape:zoom="36.375"
     inkscape:cx="11.986254"
     inkscape:cy="12"
     inkscape:current-layer="svg6" />
  <path
     d="M 22.847207,10.794755 V 8.3842645 H 20.436716 V 5.9737741 c 0,-1.3257697 -1.08472,-2.4104903 -2.41049,-2.4104903 h -2.41049 V 1.1527934 h -2.410491 v 2.4104904 h -2.41049 V 1.1527934 H 8.3842645 V 3.5632838 H 5.9737741 c -1.3257697,0 -2.4104903,1.0847206 -2.4104903,2.4104903 V 8.3842645 H 1.1527934 v 2.4104905 h 2.4104904 v 2.41049 H 1.1527934 v 2.410491 h 2.4104904 v 2.41049 c 0,1.32577 1.0847206,2.41049 2.4104903,2.41049 h 2.4104904 v 2.410491 h 2.4104905 v -2.410491 h 2.41049 v 2.410491 h 2.410491 v -2.410491 h 2.41049 c 1.32577,0 2.41049,-1.08472 2.41049,-2.41049 v -2.41049 h 2.410491 v -2.410491 h -2.410491 v -2.41049 z m -4.820981,7.231471 H 5.9737741 V 5.9737741 H 18.026226 Z"
     id="path4"
     sodipodi:nodetypes="cccssccccccccssccccccccssccccccccssccccccccccc"
     style="stroke-width:1.20525" />
  <path
     d="M 15.615736,8.3842645 H 8.3842639 v 7.2314715 h 7.2314721 z m -2.410491,4.8209805 h -2.41049 v -2.41049 h 2.41049 z"
     id="path4-3"
     sodipodi:nodetypes="cccccccccc"
     style="opacity:0.66;stroke-width:1.20525" />
</svg>
