<?xml version="1.0" encoding="UTF-8" standalone="no"?>
<svg
   xmlns:dc="http://purl.org/dc/elements/1.1/"
   xmlns:cc="http://creativecommons.org/ns#"
   xmlns:rdf="http://www.w3.org/1999/02/22-rdf-syntax-ns#"
   xmlns:svg="http://www.w3.org/2000/svg"
   xmlns="http://www.w3.org/2000/svg"
   xmlns:sodipodi="http://sodipodi.sourceforge.net/DTD/sodipodi-0.dtd"
   xmlns:inkscape="http://www.inkscape.org/namespaces/inkscape"
   inkscape:version="1.0.2 (e86c870879, 2021-01-15)"
   sodipodi:docname="duotone-wb_sunny-24px.svg"
   id="svg6"
   version="1.1"
   viewBox="0 0 24 24"
   height="24"
   width="24">
  <metadata
     id="metadata12">
    <rdf:RDF>
      <cc:Work
         rdf:about="">
        <dc:format>image/svg+xml</dc:format>
        <dc:type
           rdf:resource="http://purl.org/dc/dcmitype/StillImage" />
      </cc:Work>
    </rdf:RDF>
  </metadata>
  <defs
     id="defs10" />
  <sodipodi:namedview
     inkscape:snap-page="true"
     inkscape:bbox-nodes="true"
     inkscape:snap-bbox="true"
     inkscape:document-rotation="0"
     inkscape:current-layer="svg6"
     inkscape:window-maximized="0"
     inkscape:window-y="0"
     inkscape:window-x="0"
     inkscape:cy="15.047415"
     inkscape:cx="5.7013373"
     inkscape:zoom="42.415952"
     showgrid="false"
     id="namedview8"
     inkscape:window-height="1355"
     inkscape:window-width="2693"
     inkscape:pageshadow="2"
     inkscape:pageopacity="0"
     guidetolerance="10"
     gridtolerance="10"
     objecttolerance="10"
     borderopacity="1"
     bordercolor="#666666"
     pagecolor="#ffffff" />
  <path
     style="opacity:0.6;stroke-width:0.994487"
     sodipodi:nodetypes="sssss"
     inkscape:connector-curvature="0"
     id="path4"
     d="m 12,6.0194885 c -3.2842518,0 -5.9533266,2.6812624 -5.9533266,5.9805125 0,3.299248 2.6690748,5.98051 5.9533266,5.98051 3.284252,0 5.953327,-2.681262 5.953327,-5.98051 0,-3.2992501 -2.669075,-5.9805125 -5.953327,-5.9805125 z" />
  <path
     style="stroke-width:0.994487"
     sodipodi:nodetypes="cccccccccccccccccccccccccccccccccccccccc"
     id="path4-3"
     d="M 6.8007615,5.3616326 5.0147632,3.5774468 3.6157313,4.9828669 5.3918072,6.7670527 Z M 4.0622308,11.003248 H 1.0855673 v 1.993504 H 4.0622308 Z M 12.992221,1.0855673 h -1.984442 v 2.9404178 h 1.984442 z m 7.392048,3.8972996 -1.399032,-1.4054201 -1.776076,1.7841858 1.399032,1.4054201 z m -3.18503,13.6555001 1.776076,1.794154 1.399032,-1.40542 -1.785999,-1.784187 z m 2.73853,-7.635119 v 1.993504 h 2.976664 v -1.993504 z m -8.92999,11.911185 h 1.984442 v -2.940418 h -1.984442 z m -7.3920477,-3.8973 1.3990319,1.40542 1.776076,-1.794153 -1.399032,-1.40542 z"
     inkscape:connector-curvature="0" />
</svg>
