<?xml version="1.0" encoding="UTF-8" standalone="no"?>
<svg
   xmlns:dc="http://purl.org/dc/elements/1.1/"
   xmlns:cc="http://creativecommons.org/ns#"
   xmlns:rdf="http://www.w3.org/1999/02/22-rdf-syntax-ns#"
   xmlns:svg="http://www.w3.org/2000/svg"
   xmlns="http://www.w3.org/2000/svg"
   xmlns:sodipodi="http://sodipodi.sourceforge.net/DTD/sodipodi-0.dtd"
   xmlns:inkscape="http://www.inkscape.org/namespaces/inkscape"
   inkscape:version="1.0 (4035a4fb49, 2020-05-01)"
   sodipodi:docname="duotone-translate-24px.svg"
   id="svg6"
   version="1.1"
   width="24"
   viewBox="0 0 24 24"
   height="24">
  <metadata
     id="metadata12">
    <rdf:RDF>
      <cc:Work
         rdf:about="">
        <dc:format>image/svg+xml</dc:format>
        <dc:type
           rdf:resource="http://purl.org/dc/dcmitype/StillImage" />
      </cc:Work>
    </rdf:RDF>
  </metadata>
  <defs
     id="defs10" />
  <sodipodi:namedview
     inkscape:current-layer="svg6"
     inkscape:window-maximized="0"
     inkscape:window-y="177"
     inkscape:window-x="918"
     inkscape:cy="10.896778"
     inkscape:cx="8.9636161"
     inkscape:zoom="22.423472"
     showgrid="false"
     id="namedview8"
     inkscape:window-height="955"
     inkscape:window-width="1476"
     inkscape:pageshadow="2"
     inkscape:pageopacity="0"
     guidetolerance="10"
     gridtolerance="10"
     objecttolerance="10"
     borderopacity="1"
     bordercolor="#666666"
     pagecolor="#ffffff" />
  <path
     id="path2"
     fill="none"
     d="M0 0h24v24H0z" />
  <path
     style="opacity:0.66"
     sodipodi:nodetypes="ccccccccccccc"
     id="path4"
     d="m 18.5,10 h -2 L 12,22 h 2 l 1.12,-3 h 4.75 L 21,22 h 2 z m -2.62,7 1.62,-4.33 1.62,4.33 z" />
  <path
     sodipodi:nodetypes="cccccccccccccccccccccc"
     d="m 12.87,15.07 -2.54,-2.51 0.03,-0.03 C 12.1,10.59 13.34,8.36 14.07,5.9999996 H 17 v -2 h -7 v -2 H 8 v 2 H 1 v 1.99 H 12.17 C 11.5,7.92 10.44,9.75 9,11.35 8.07,10.32 7.3,9.19 6.69,8 h -2 c 0.73,1.63 1.73,3.17 2.98,4.56 L 2.58,17.58 4,19 l 5,-5 3.11,3.11 z"
     id="path4-3" />
</svg>
