<?xml version="1.0" encoding="UTF-8" standalone="no"?>
<svg
   height="24"
   viewBox="0 0 24 24"
   width="24"
   version="1.1"
   id="svg14"
   xmlns="http://www.w3.org/2000/svg">
  <path
     d="M 18.84,15.87 14.3,13.61 C 14.13,13.54 13.95,13.5 13.76,13.5 H 13 v -6 C 13,6.67 12.33,6 11.5,6 10.67,6 10,6.67 10,7.5 V 18.24 C 6.4,17.48 6.46,17.49 6.33,17.49 c -0.31,0 -0.59,0.13 -0.79,0.33 l -0.79,0.8 4.94,4.94 C 9.96,23.83 10.34,24 10.75,24 h 6.79 c 0.75,0 1.33,-0.55 1.44,-1.28 l 0.75,-5.27 c 0.01,-0.07 0.02,-0.14 0.02,-0.2 0,-0.62 -0.38,-1.16 -0.91,-1.38 z"
     id="path6"
     style="opacity:0.66" />
  <path
     d="M 9,11.24 V 7.5 C 9,6.12 10.12,5 11.5,5 12.88,5 14,6.12 14,7.5 v 3.74 C 15.21,10.43 16,9.06 16,7.5 16,5.01 13.99,3 11.5,3 9.01,3 7,5.01 7,7.5 c 0,1.56 0.79,2.93 2,3.74 z"
     id="path6-5" />
</svg>
