<?xml version="1.0" encoding="UTF-8" standalone="no"?>
<svg
   xmlns="http://www.w3.org/2000/svg"
   xmlns:sodipodi="http://sodipodi.sourceforge.net/DTD/sodipodi-0.dtd"
   xmlns:inkscape="http://www.inkscape.org/namespaces/inkscape"
   width="24"
   height="24"
   viewBox="0 0 24 24"
   version="1.1"
   id="svg6"
   sodipodi:docname="duotone-bluetooth_searching-24px.svg"
   inkscape:version="0.92.4 5da689c313, 2019-01-14">
  <g
     id="g816"
     transform="translate(1.9999998)">
    <path
       sodipodi:nodetypes="ccsccccscccc"
       inkscape:connector-curvature="0"
       style="opacity:0.66000001"
       id="path4"
       d="m 14.24,12.01 2.32,2.32 C 16.84,13.61 17,12.82 17,12 17,11.18 16.84,10.41 16.57,9.69 Z m 5.29,-5.3 -1.26,1.26 c 0.63,1.21 0.98,2.57 0.98,4.02 0,1.45 -0.36,2.82 -0.98,4.02 l 1.2,1.2 C 20.44,15.67 21.01,13.85 21.01,11.9 21,10.01 20.46,8.23 19.53,6.71 Z" />
    <path
       sodipodi:nodetypes="ccccccccccccccccccccccc"
       id="path4-3"
       d="M 15.71,7.71 10,2.0000001 H 9.0000002 V 9.59 l -4.59,-4.5899999 -1.41,1.41 5.59,5.5899999 -5.59,5.59 1.41,1.41 4.59,-4.59 V 22 H 10 L 15.71,16.29 11.41,12 Z M 11,5.8300001 12.88,7.71 11,9.59 Z M 12.88,16.29 11,18.17 v -3.76 z"
       inkscape:connector-curvature="0" />
  </g>
  <path
     d="M0 0h24v24H0z"
     fill="none"
     id="path2" />
  <path
     inkscape:connector-curvature="0"
     style="fill:none"
     d="M 2e-7,0 H 24 V 24 H 2e-7 Z"
     id="path2-3" />
</svg>
