<?xml version="1.0" encoding="UTF-8" standalone="no"?>
<svg
   xmlns="http://www.w3.org/2000/svg"
   xmlns:sodipodi="http://sodipodi.sourceforge.net/DTD/sodipodi-0.dtd"
   xmlns:inkscape="http://www.inkscape.org/namespaces/inkscape"
   width="24"
   height="24"
   viewBox="0 0 24 24"
   version="1.1"
   id="svg6"
   sodipodi:docname="duotone-exit_to_app-24px.svg"
   inkscape:version="0.92.4 5da689c313, 2019-01-14">
  <path
     d="M0 0h24v24H0z"
     fill="none"
     id="path2" />
  <path
     d="M 19,3 H 5 C 3.89,3 3,3.9 3,5 V 9 H 5 V 5 H 19 V 19 H 5 V 15 H 3 v 4 c 0,1.1 0.89,2 2,2 h 14 c 1.1,0 2,-0.9 2,-2 V 5 C 21,3.9 20.1,3 19,3 Z"
     id="path4"
     inkscape:connector-curvature="0"
     sodipodi:nodetypes="sssccccccccssssss"
     style="opacity:0.66" />
  <path
     inkscape:connector-curvature="0"
     d="m 10.09,15.59 1.41,1.41 5,-5 -5,-5 -1.41,1.41 2.58,2.59 H 3.0000003 v 2 H 12.67 Z"
     id="path4-3"
     sodipodi:nodetypes="cccccccccc"
     style="opacity:1" />
</svg>
