<?xml version="1.0" encoding="UTF-8" standalone="no"?>
<svg
   xmlns:dc="http://purl.org/dc/elements/1.1/"
   xmlns:cc="http://creativecommons.org/ns#"
   xmlns:rdf="http://www.w3.org/1999/02/22-rdf-syntax-ns#"
   xmlns:svg="http://www.w3.org/2000/svg"
   xmlns="http://www.w3.org/2000/svg"
   xmlns:sodipodi="http://sodipodi.sourceforge.net/DTD/sodipodi-0.dtd"
   xmlns:inkscape="http://www.inkscape.org/namespaces/inkscape"
   width="24"
   height="24"
   viewBox="0 0 24 24"
   version="1.1"
   id="svg6"
   sodipodi:docname="duotone-date_range-24px.svg"
   inkscape:version="0.92.4 5da689c313, 2019-01-14">
  <metadata
     id="metadata12">
    <rdf:RDF>
      <cc:Work
         rdf:about="">
        <dc:format>image/svg+xml</dc:format>
        <dc:type
           rdf:resource="http://purl.org/dc/dcmitype/StillImage" />
      </cc:Work>
    </rdf:RDF>
  </metadata>
  <defs
     id="defs10" />
  <sodipodi:namedview
     pagecolor="#ffffff"
     bordercolor="#666666"
     borderopacity="1"
     objecttolerance="10"
     gridtolerance="10"
     guidetolerance="10"
     inkscape:pageopacity="0"
     inkscape:pageshadow="2"
     inkscape:window-width="1853"
     inkscape:window-height="1045"
     id="namedview8"
     showgrid="false"
     inkscape:zoom="27.812867"
     inkscape:cx="-5.2086984"
     inkscape:cy="12.469934"
     inkscape:window-x="0"
     inkscape:window-y="0"
     inkscape:window-maximized="0"
     inkscape:current-layer="svg6" />
  <path
     d="M 19,4 H 18 V 2 H 16 V 4 H 8 V 2 H 6 V 4 H 5 C 3.89,4 3.01,4.9 3.01,6 L 3,20 c 0,1.1 0.89,2 2,2 h 14 c 1.1,0 2,-0.9 2,-2 V 6 C 21,4.9 20.1,4 19,4 Z m 0,16 H 5 V 9 h 14 z"
     id="path2"
     inkscape:connector-curvature="0"
     sodipodi:nodetypes="sccccccccsccsssssccccc" />
  <path
     fill="none"
     d="M0 0h24v24H0z"
     id="path4" />
  <path
     inkscape:connector-curvature="0"
     d="M 9,11 H 7 v 2 h 2 z m 4,0 h -2 v 2 h 2 z m 4,0 h -2 v 2 h 2 z"
     id="path2-3"
     sodipodi:nodetypes="ccccccccccccccc"
     style="opacity:0.66" />
</svg>
