<?xml version="1.0" encoding="UTF-8" standalone="no"?>
<svg
   height="24px"
   viewBox="0 0 24 24"
   width="24px"
   version="1.1"
   id="svg8"
   xmlns="http://www.w3.org/2000/svg">
  <path
     d="m 15.5,13.5 c 0,2 -2.5,3.5 -2.5,5 H 11 C 11,17 8.5,15.5 8.5,13.5 8.5,11.57 10.07,10 12,10 v 0 c 1.93,0 3.5,1.57 3.5,3.5 z m -2.5,6 H 11 V 21 h 2 z"
     id="path4"
     style="opacity:0.66" />
  <path
     d="m 19,13 c 0,1.68 -0.59,3.21 -1.58,4.42 l 1.42,1.42 C 20.18,17.27 21,15.23 21,13 21,10.26 19.77,7.81 17.84,6.16 L 16.42,7.58 C 17.99,8.86 19,10.82 19,13 Z M 16,5 12,1 v 3 0 c -4.9699998,0 -8.9999998,4.03 -8.9999998,9 0,2.23 0.82,4.27 2.16,5.84 l 1.42,-1.42 c -0.99,-1.21 -1.58,-2.74 -1.58,-4.42 0,-3.86 3.14,-7 6.9999998,-7 v 0 3 z"
     id="path4-3" />
</svg>
