<?xml version="1.0" encoding="UTF-8" standalone="no"?>
<svg
   width="24"
   height="24"
   viewBox="0 0 24 24"
   version="1.1"
   id="svg6"
   sodipodi:docname="duotone-autorenew-24px.svg"
   inkscape:version="1.1.1 (3bf5ae0d25, 2021-09-20)"
   xmlns:inkscape="http://www.inkscape.org/namespaces/inkscape"
   xmlns:sodipodi="http://sodipodi.sourceforge.net/DTD/sodipodi-0.dtd"
   xmlns="http://www.w3.org/2000/svg"
   xmlns:svg="http://www.w3.org/2000/svg">
  <defs
     id="defs10" />
  <sodipodi:namedview
     id="namedview8"
     pagecolor="#ffffff"
     bordercolor="#666666"
     borderopacity="1.0"
     inkscape:pageshadow="2"
     inkscape:pageopacity="0.0"
     inkscape:pagecheckerboard="0"
     showgrid="false"
     inkscape:zoom="36.375"
     inkscape:cx="11.986254"
     inkscape:cy="12"
     inkscape:current-layer="svg6" />
  <path
     d="m 8.7893053,17.561086 1.6053457,-2.780543 -5.8478523,1.566928 1.5669279,5.847854 1.6053476,-2.780543 c 4.0966668,2.36521 9.3304958,0.962812 11.6957078,-3.133856 0.840132,-1.455149 1.195048,-3.054503 1.130302,-4.611914 l -2.134467,0.571928 c -0.02707,1.010086 -0.309064,2.033638 -0.849531,2.969755 -1.771233,3.067866 -5.703915,4.121625 -8.7717807,2.350391 z M 3.4549168,12.330988 5.5893832,11.75906 C 5.6310673,10.745057 5.8984467,9.7254219 6.4389139,8.7893055 8.2101471,5.7214397 12.142829,4.6676807 15.210695,6.4389139 L 13.605349,9.2194572 19.4532,7.6525291 17.886273,1.8046755 16.280926,4.5852185 C 12.184259,2.2200069 6.95043,3.6224072 4.5852184,7.7190744 3.7450864,9.1742256 3.3901677,10.773576 3.4549168,12.330988 Z"
     id="path2"
     style="opacity:0.66;stroke-width:1.07023" />
  <path
     d="M 12.508893,8.1337801 V 12.38378 l 3.5,2.08 -0.72,1.21 -4.28,-2.54 V 8.1337801 Z"
     id="path6-5" />
</svg>
