<?xml version="1.0" encoding="UTF-8" standalone="no"?>
<svg
   xmlns:dc="http://purl.org/dc/elements/1.1/"
   xmlns:cc="http://creativecommons.org/ns#"
   xmlns:rdf="http://www.w3.org/1999/02/22-rdf-syntax-ns#"
   xmlns:svg="http://www.w3.org/2000/svg"
   xmlns="http://www.w3.org/2000/svg"
   xmlns:sodipodi="http://sodipodi.sourceforge.net/DTD/sodipodi-0.dtd"
   xmlns:inkscape="http://www.inkscape.org/namespaces/inkscape"
   width="24"
   height="24"
   viewBox="0 0 24 24"
   version="1.1"
   id="svg6"
   sodipodi:docname="duotone-date_clear-24px.svg"
   inkscape:version="1.0.2 (e86c870879, 2021-01-15, custom)">
  <metadata
     id="metadata12">
    <rdf:RDF>
      <cc:Work
         rdf:about="">
        <dc:format>image/svg+xml</dc:format>
        <dc:type
           rdf:resource="http://purl.org/dc/dcmitype/StillImage" />
      </cc:Work>
    </rdf:RDF>
  </metadata>
  <defs
     id="defs10" />
  <sodipodi:namedview
     pagecolor="#ffffff"
     bordercolor="#666666"
     borderopacity="1"
     objecttolerance="10"
     gridtolerance="10"
     guidetolerance="10"
     inkscape:pageopacity="0"
     inkscape:pageshadow="2"
     inkscape:window-width="1853"
     inkscape:window-height="1045"
     id="namedview8"
     showgrid="false"
     inkscape:zoom="22.252285"
     inkscape:cx="-10.480889"
     inkscape:cy="14.660544"
     inkscape:window-x="0"
     inkscape:window-y="0"
     inkscape:window-maximized="0"
     inkscape:current-layer="svg6"
     inkscape:document-rotation="0" />
  <path
     d="M 19,4 H 18 V 2 H 16 V 4 H 8 V 2 H 6 V 4 H 5 C 3.89,4 3.01,4.9 3.01,6 L 3,20 c 0,1.1 0.89,2 2,2 h 14 c 1.1,0 2,-0.9 2,-2 V 6 C 21,4.9 20.1,4 19,4 Z m 0,16 H 5 V 9 h 14 z"
     id="path2"
     inkscape:connector-curvature="0"
     sodipodi:nodetypes="sccccccccsccsssssccccc"
     style="opacity:1" />
  <path
     fill="none"
     d="M0 0h24v24H0z"
     id="path4" />
  <path
     d="m 9.4562162,18 2.4399998,-2.44 2.44,2.44 1.06,-1.06 -2.44,-2.44 2.44,-2.44 -1.06,-1.06 -2.44,2.44 -2.4399998,-2.44 -1.06,1.06 2.4399998,2.44 -2.4399998,2.44 z"
     id="path4-3"
     sodipodi:nodetypes="ccccccccccccc"
     style="opacity:0.66" />
</svg>
