<?xml version="1.0" encoding="UTF-8" standalone="no"?>
<svg
   xmlns:dc="http://purl.org/dc/elements/1.1/"
   xmlns:cc="http://creativecommons.org/ns#"
   xmlns:rdf="http://www.w3.org/1999/02/22-rdf-syntax-ns#"
   xmlns:svg="http://www.w3.org/2000/svg"
   xmlns="http://www.w3.org/2000/svg"
   xmlns:sodipodi="http://sodipodi.sourceforge.net/DTD/sodipodi-0.dtd"
   xmlns:inkscape="http://www.inkscape.org/namespaces/inkscape"
   width="24"
   height="24"
   viewBox="0 0 24 24"
   version="1.1"
   id="svg6"
   sodipodi:docname="duotone-water_full-24px.svg"
   inkscape:version="0.92.4 5da689c313, 2019-01-14">
  <metadata
     id="metadata12">
    <rdf:RDF>
      <cc:Work
         rdf:about="">
        <dc:format>image/svg+xml</dc:format>
        <dc:type
           rdf:resource="http://purl.org/dc/dcmitype/StillImage" />
        <dc:title />
      </cc:Work>
    </rdf:RDF>
  </metadata>
  <defs
     id="defs10" />
  <sodipodi:namedview
     pagecolor="#ffffff"
     bordercolor="#666666"
     borderopacity="1"
     objecttolerance="10"
     gridtolerance="10"
     guidetolerance="10"
     inkscape:pageopacity="0"
     inkscape:pageshadow="2"
     inkscape:window-width="1930"
     inkscape:window-height="1024"
     id="namedview8"
     showgrid="false"
     inkscape:zoom="39.333333"
     inkscape:cx="4.9228116"
     inkscape:cy="12.977561"
     inkscape:current-layer="svg6"
     showguides="true"
     inkscape:guide-bbox="true"
     inkscape:window-x="0"
     inkscape:window-y="0"
     inkscape:window-maximized="0">
    <sodipodi:guide
       position="16.496241,6.27447"
       orientation="0,1"
       id="guide9"
       inkscape:locked="false" />
    <sodipodi:guide
       position="12,18.73"
       orientation="1,0"
       id="guide11"
       inkscape:locked="false" />
  </sodipodi:namedview>
  <path
     fill="none"
     d="M24 0H0v24h24V0zm0 0H0v24h24V0zM0 24h24V0H0v24z"
     id="path2" />
  <path
     d="M 17.66,8 12,2.35 6.34,8 C 4.78,9.56 4,11.64 4,13.64 c 0,2 0.78,4.11 2.34,5.67 1.56,1.56 3.61,2.35 5.66,2.35 2.05,0 4.1,-0.79 5.66,-2.35 C 19.22,17.75 20,15.64 20,13.64 20,11.64 19.22,9.56 17.66,8 Z M 6.0381356,13.682203 C 6.0481356,11.682203 6.62,10.73 7.76,9.6 L 12,5.27 16.24,9.65 c 1.14,1.12 1.813559,2.057627 1.823559,4.057627 0.007,2.184472 -0.51463,2.831206 -1.567318,4.017903 -1.087749,1.007169 -2.257048,1.723022 -4.514218,1.831924 -1.839743,-0.07369 -3.0345607,-0.44773 -4.3204446,-1.81625 -1.2378501,-1.3174 -1.6815031,-2.332437 -1.6234428,-4.059001 z"
     id="path4"
     inkscape:connector-curvature="0"
     sodipodi:nodetypes="cccsssssccccccccsc" />
  <path
     d="M 6.038135,13.682203 C 6.048135,11.682203 6.62,10.73 7.76,9.6 L 12,5.27 16.24,9.65 c 1.14,1.12 1.813559,2.057627 1.823559,4.057627 0.007,2.184472 -0.51463,2.831206 -1.567318,4.017903 -1.087749,1.007169 -2.257048,1.723022 -4.514218,1.831924 -1.839743,-0.07369 -3.034561,-0.44773 -4.320445,-1.81625 -1.23785,-1.3174 -1.681503,-2.332437 -1.623443,-4.059001 z"
     id="path4-3"
     inkscape:connector-curvature="0"
     sodipodi:nodetypes="cccccccsc"
     style="opacity:0.4" />
</svg>
