<?xml version="1.0" encoding="UTF-8" standalone="no"?>
<svg
   xmlns="http://www.w3.org/2000/svg"
   width="24"
   height="24"
   viewBox="0 0 24 24"
   version="1.1"
   id="svg6">
  <path
     d="M 19,4 H 18 V 2 H 16 V 4 H 8 V 2 H 6 V 4 H 5 C 3.89,4 3.01,4.9 3.01,6 L 3,20 c 0,1.1 0.89,2 2,2 h 14 c 1.1,0 2,-0.9 2,-2 V 6 C 21,4.9 20.1,4 19,4 Z m 0,16 H 5 V 9 h 14 z"
     id="path2" />
  <path
     d="M 9,11 H 7 v 2 h 2 z m 4,0 h -2 v 2 h 2 z m 4,0 h -2 v 2 h 2 z"
     id="path2-3"
     style="opacity:0.66" />
</svg>
