<?xml version="1.0" encoding="UTF-8" standalone="no"?>
<svg
   height="24px"
   viewBox="0 0 24 24"
   width="24px"
   version="1.1"
   id="svg14"
   xmlns="http://www.w3.org/2000/svg">
  <path
     d="M 21,10.12 H 14.22 L 16.96,7.3 C 14.23,4.6 9.81,4.5 7.08,7.2 c -2.73,2.71 -2.73,7.08 0,9.79 2.73,2.71 7.15,2.71 9.88,0 C 18.32,15.65 19,14.08 19,12.1 h 2 c 0,1.98 -0.88,4.55 -2.64,6.29 -3.51,3.48 -9.21,3.48 -12.72,0 C 2.14,14.92 2.11,9.28 5.62,5.81 9.13,2.34 14.76,2.34 18.27,5.81 L 21,3 Z"
     id="path6"
     style="opacity:0.66" />
  <path
     d="m 12.5,8 v 4.25 L 16,14.33 15.28,15.54 11,13 V 8 Z"
     id="path6-5" />
</svg>
