<?xml version="1.0" encoding="UTF-8" standalone="no"?>
<svg
   width="24"
   height="24"
   viewBox="0 0 24 24"
   version="1.1"
   id="svg6"
   xmlns="http://www.w3.org/2000/svg">
  <path
     d="m 11.986254,7.7637458 v 4.2500002 l 3.5,2.08 -0.72,1.21 -4.28,-2.54 V 7.7637458 Z"
     id="path6-5-3" />
  <path
     d="m 11.986254,6.0078963 v 3 l 4,-4 -4,-4 v 3 c -4.42,0 -8,3.58 -8,7.9999997 0,1.57 0.46,3.03 1.24,4.26 l 1.46,-1.46 c -0.45,-0.83 -0.7,-1.79 -0.7,-2.8 0,-3.3099997 2.69,-5.9999997 6,-5.9999997 z m 6.76,1.74 -1.46,1.46 c 0.44,0.8399997 0.7,1.7899997 0.7,2.7999997 0,3.31 -2.69,6 -6,6 v -3 l -4,4 4,4 v -3 c 4.42,0 8,-3.58 8,-8 0,-1.57 -0.46,-3.0299997 -1.24,-4.2599997 z"
     id="path2-3"
     style="opacity:0.66" />
</svg>
