<?xml version="1.0" encoding="UTF-8" standalone="no"?>
<svg
   xmlns="http://www.w3.org/2000/svg"
   width="24"
   height="24"
   viewBox="0 0 24 24"
   version="1.1"
   id="svg6">
  <path
     d="M 15,1 H 9 v 2 h 6 z m -4,13 h 2 V 8 h -2 z"
     id="path4" />
  <path
     d="m 19.03,7.3900002 1.42,-1.42 c -0.43,-0.51 -0.9,-0.99 -1.41,-1.41 l -1.42,1.42 c -1.55,-1.24 -3.5,-1.98 -5.62,-1.98 -4.97,0 -8.9999996,4.03 -8.9999996,8.9999998 0,4.97 4.0199996,9 8.9999996,9 4.98,0 9,-4.03 9,-9 0,-2.12 -0.74,-4.0699998 -1.97,-5.6099998 z M 12,20 C 8.13,20 5,16.87 5,13 5,9.1300002 8.13,6.0000002 12,6.0000002 c 3.87,0 7,3.13 7,6.9999998 0,3.87 -3.13,7 -7,7 z"
     id="path4-3"
     style="opacity:0.66" />
</svg>
