<?xml version="1.0" encoding="UTF-8" standalone="no"?>
<svg
   xmlns:dc="http://purl.org/dc/elements/1.1/"
   xmlns:cc="http://creativecommons.org/ns#"
   xmlns:rdf="http://www.w3.org/1999/02/22-rdf-syntax-ns#"
   xmlns:svg="http://www.w3.org/2000/svg"
   xmlns="http://www.w3.org/2000/svg"
   xmlns:sodipodi="http://sodipodi.sourceforge.net/DTD/sodipodi-0.dtd"
   xmlns:inkscape="http://www.inkscape.org/namespaces/inkscape"
   width="24"
   height="24"
   viewBox="0 0 24 24"
   version="1.1"
   id="svg6"
   sodipodi:docname="duotone-wb_sunny-24px.svg"
   inkscape:version="0.92.4 5da689c313, 2019-01-14">
  <metadata
     id="metadata12">
    <rdf:RDF>
      <cc:Work
         rdf:about="">
        <dc:format>image/svg+xml</dc:format>
        <dc:type
           rdf:resource="http://purl.org/dc/dcmitype/StillImage" />
      </cc:Work>
    </rdf:RDF>
  </metadata>
  <defs
     id="defs10" />
  <sodipodi:namedview
     pagecolor="#ffffff"
     bordercolor="#666666"
     borderopacity="1"
     objecttolerance="10"
     gridtolerance="10"
     guidetolerance="10"
     inkscape:pageopacity="0"
     inkscape:pageshadow="2"
     inkscape:window-width="1413"
     inkscape:window-height="712"
     id="namedview8"
     showgrid="false"
     inkscape:zoom="13.906433"
     inkscape:cx="2.3193376"
     inkscape:cy="16.226113"
     inkscape:window-x="0"
     inkscape:window-y="0"
     inkscape:window-maximized="0"
     inkscape:current-layer="svg6" />
  <path
     d="M0 0h24v24H0z"
     fill="none"
     id="path2" />
  <path
     d="m 12,5.5 c -3.31,0 -6,2.69 -6,6 0,3.31 2.69,6 6,6 3.31,0 6,-2.69 6,-6 0,-3.31 -2.69,-6 -6,-6 z"
     id="path4"
     inkscape:connector-curvature="0"
     sodipodi:nodetypes="sssss"
     style="opacity:0.66" />
  <path
     inkscape:connector-curvature="0"
     d="m 6.76,4.8400004 -1.8000002,-1.79 -1.41,1.41 1.79,1.79 z M 3.9999998,10.5 h -3 v 2 h 3 z M 13,0.5500004 h -2 v 2.95 h 2 z m 7.45,3.91 -1.41,-1.41 -1.79,1.79 1.41,1.41 z M 17.24,18.16 l 1.79,1.8 1.41,-1.41 -1.8,-1.79 z M 20,10.5 v 2 h 3 v -2 z m -9,11.95 h 2 V 19.5 h -2 z m -7.4500002,-3.91 1.41,1.41 L 6.75,18.15 5.3399998,16.74 Z"
     id="path4-3"
     sodipodi:nodetypes="cccccccccccccccccccccccccccccccccccccccc" />
</svg>
