<?xml version="1.0" encoding="UTF-8" standalone="no"?>
<svg
   xmlns="http://www.w3.org/2000/svg"
   xmlns:sodipodi="http://sodipodi.sourceforge.net/DTD/sodipodi-0.dtd"
   xmlns:inkscape="http://www.inkscape.org/namespaces/inkscape"
   height="24"
   viewBox="0 0 24 24"
   width="24"
   version="1.1"
   id="svg6"
   sodipodi:docname="duotone-local_drink-24px.svg"
   inkscape:version="1.0.1 (3bc2e813f5, 2020-09-07)">
  <path
     d="M 3,2 5.01,20.23 C 5.13,21.23 5.97,22 7,22 h 10 c 1.03,0 1.87,-0.77 1.99,-1.77 L 21,2 Z M 16.974479,20.239157 H 6.9874634 L 5.23,4 h 13.53 z"
     id="path4"
     sodipodi:nodetypes="ccsscccccccc" />
  <path
     id="path4-6"
     style="opacity:0.66"
     d="M 5.5839844 8 L 6.9882812 20.238281 L 16.974609 20.238281 L 18.5 8 L 5.5839844 8 z M 12 10.599609 C 12 10.599609 15 14 15 16 C 15 17.66 13.66 19 12 19 C 10.34 19 9 17.66 9 16 C 9 14 12 10.599609 12 10.599609 z " />
</svg>
