<?xml version="1.0" encoding="UTF-8" standalone="no"?>
<svg
   xmlns="http://www.w3.org/2000/svg"
   xmlns:sodipodi="http://sodipodi.sourceforge.net/DTD/sodipodi-0.dtd"
   xmlns:inkscape="http://www.inkscape.org/namespaces/inkscape"
   width="24"
   height="24"
   viewBox="0 0 24 24"
   version="1.1"
   id="svg6"
   sodipodi:docname="duotone-pin_drop-24px.svg"
   inkscape:version="0.92.4 5da689c313, 2019-01-14">
  <path
     d="m 5,20 v 2 h 14 v -2 z"
     id="path2"
     inkscape:connector-curvature="0"
     sodipodi:nodetypes="ccccc"
     style="opacity:0.66" />
  <path
     d="M0 0h24v24H0z"
     fill="none"
     id="path4" />
  <path
     inkscape:connector-curvature="0"
     d="M 18,8 C 18,4.69 15.31,2 12,2 8.6899999,2 5.9999999,4.69 5.9999999,8 5.9999999,12.5 12,19 12,19 12,19 18,12.5 18,8 Z M 9.9999999,8 C 9.9999999,6.9 10.9,6 12,6 c 1.1,0 2,0.9 2,2 0,1.1 -0.89,2 -2,2 C 10.9,10 9.9999999,9.1 9.9999999,8 Z"
     id="path2-3"
     sodipodi:nodetypes="ssscssssss" />
</svg>
