<?xml version="1.0" encoding="UTF-8" standalone="no"?>
<svg
   width="24"
   height="24"
   viewBox="0 0 24 24"
   version="1.1"
   id="svg6"
   xmlns="http://www.w3.org/2000/svg">
  <path
     d="M 7.34,6.41 0.86,12.9 7.35,19.38 13.84,12.9 Z M 3.69,12.9 7.35,9.24 11,12.9 7.34,16.56 Z"
     id="path2"
     style="opacity:0.66" />
  <path
     d="M 19.36,6.64 C 17.61,4.88 15.3,4 13,4 V 0.76 L 8.7599998,5 13,9.24 V 6 c 1.79,0 3.58,0.68 4.95,2.05 2.73,2.73 2.73,7.17 0,9.9 C 16.58,19.32 14.79,20 13,20 12.03,20 11.06,19.79 10.16,19.39 L 8.6699998,20.88 C 10.02,21.62 11.51,22 13,22 c 2.3,0 4.61,-0.88 6.36,-2.64 3.52,-3.51 3.52,-9.21 0,-12.72 z"
     id="path2-3" />
</svg>
