<?xml version="1.0" encoding="UTF-8" standalone="no"?>
<svg
   width="24"
   height="24"
   viewBox="0 0 24 24"
   version="1.1"
   id="svg6"
   xmlns="http://www.w3.org/2000/svg"
   xmlns:svg="http://www.w3.org/2000/svg">
  <path
     d="m 11,7 h 2 v 2 h -2 z m 0,4 h 2 v 6 h -2 z"
     id="path4" />
  <path
     d="M 12,2 C 6.48,2 1.9999999,6.48 1.9999999,12 1.9999999,17.52 6.48,22 12,22 17.52,22 22,17.52 22,12 22,6.48 17.52,2 12,2 Z m 0,18 C 7.59,20 4,16.41 4,12 4,7.59 7.59,4 12,4 c 4.41,0 8,3.59 8,8 0,4.41 -3.59,8 -8,8 z"
     id="path4-3"
     style="opacity:0.66" />
</svg>
