<?xml version="1.0" encoding="UTF-8" standalone="no"?>
<svg
   xmlns:dc="http://purl.org/dc/elements/1.1/"
   xmlns:cc="http://creativecommons.org/ns#"
   xmlns:rdf="http://www.w3.org/1999/02/22-rdf-syntax-ns#"
   xmlns:svg="http://www.w3.org/2000/svg"
   xmlns="http://www.w3.org/2000/svg"
   xmlns:sodipodi="http://sodipodi.sourceforge.net/DTD/sodipodi-0.dtd"
   xmlns:inkscape="http://www.inkscape.org/namespaces/inkscape"
   width="24"
   height="24"
   viewBox="0 0 24 24"
   version="1.1"
   id="svg6"
   sodipodi:docname="duotone-timer-24px.svg"
   inkscape:version="0.92.4 5da689c313, 2019-01-14">
  <metadata
     id="metadata12">
    <rdf:RDF>
      <cc:Work
         rdf:about="">
        <dc:format>image/svg+xml</dc:format>
        <dc:type
           rdf:resource="http://purl.org/dc/dcmitype/StillImage" />
      </cc:Work>
    </rdf:RDF>
  </metadata>
  <defs
     id="defs10" />
  <sodipodi:namedview
     pagecolor="#ffffff"
     bordercolor="#666666"
     borderopacity="1"
     objecttolerance="10"
     gridtolerance="10"
     guidetolerance="10"
     inkscape:pageopacity="0"
     inkscape:pageshadow="2"
     inkscape:window-width="1911"
     inkscape:window-height="1102"
     id="namedview8"
     showgrid="false"
     inkscape:zoom="27.812867"
     inkscape:cx="0.37015847"
     inkscape:cy="12.94008"
     inkscape:window-x="1316"
     inkscape:window-y="83"
     inkscape:window-maximized="0"
     inkscape:current-layer="svg6" />
  <path
     d="M0 0h24v24H0z"
     fill="none"
     id="path2" />
  <path
     d="M 15,1 H 9 v 2 h 6 z m -4,13 h 2 V 8 h -2 z"
     id="path4"
     inkscape:connector-curvature="0"
     sodipodi:nodetypes="cccccccccc" />
  <path
     inkscape:connector-curvature="0"
     d="m 19.03,7.3900002 1.42,-1.42 c -0.43,-0.51 -0.9,-0.99 -1.41,-1.41 l -1.42,1.42 c -1.55,-1.24 -3.5,-1.98 -5.62,-1.98 -4.97,0 -8.9999996,4.03 -8.9999996,8.9999998 0,4.97 4.0199996,9 8.9999996,9 4.98,0 9,-4.03 9,-9 0,-2.12 -0.74,-4.0699998 -1.97,-5.6099998 z M 12,20 C 8.13,20 5,16.87 5,13 5,9.1300002 8.13,6.0000002 12,6.0000002 c 3.87,0 7,3.13 7,6.9999998 0,3.87 -3.13,7 -7,7 z"
     id="path4-3"
     sodipodi:nodetypes="ccccsssscsssss"
     style="opacity:0.66" />
</svg>
