<?xml version="1.0" encoding="UTF-8" standalone="no"?>
<svg
   xmlns:dc="http://purl.org/dc/elements/1.1/"
   xmlns:cc="http://creativecommons.org/ns#"
   xmlns:rdf="http://www.w3.org/1999/02/22-rdf-syntax-ns#"
   xmlns:svg="http://www.w3.org/2000/svg"
   xmlns="http://www.w3.org/2000/svg"
   xmlns:sodipodi="http://sodipodi.sourceforge.net/DTD/sodipodi-0.dtd"
   xmlns:inkscape="http://www.inkscape.org/namespaces/inkscape"
   viewBox="0 0 32 32"
   version="1.1"
   id="svg4"
   sodipodi:docname="hw.svg"
   inkscape:version="0.92.2 2405546, 2018-03-11"
   width="32"
   height="32">
  <metadata
     id="metadata10">
    <rdf:RDF>
      <cc:Work
         rdf:about="">
        <dc:format>image/svg+xml</dc:format>
        <dc:type
           rdf:resource="http://purl.org/dc/dcmitype/StillImage" />
        <dc:title></dc:title>
      </cc:Work>
    </rdf:RDF>
  </metadata>
  <defs
     id="defs8" />
  <sodipodi:namedview
     pagecolor="#ffffff"
     bordercolor="#666666"
     borderopacity="1"
     objecttolerance="10"
     gridtolerance="10"
     guidetolerance="10"
     inkscape:pageopacity="0"
     inkscape:pageshadow="2"
     inkscape:window-width="1920"
     inkscape:window-height="1056"
     id="namedview6"
     showgrid="true"
     inkscape:zoom="21.454546"
     inkscape:cx="8.0545545"
     inkscape:cy="17.089695"
     inkscape:window-x="0"
     inkscape:window-y="0"
     inkscape:window-maximized="1"
     inkscape:current-layer="svg4"
     inkscape:snap-bbox="true"
     inkscape:bbox-nodes="true"
     inkscape:snap-page="true"
     showguides="false">
    <inkscape:grid
       type="xygrid"
       id="grid812" />
  </sodipodi:namedview>
  <path
     d="M 15.960759,-4.530647e-6 C 15.745038,7.7534624e-4 15.526556,0.08559659 15.363375,0.24999701 L 11.997854,3.6445595 c -0.163401,0.1646008 -0.246762,0.380601 -0.245982,0.5976425 7.8e-4,0.2170615 0.0856,0.434383 0.249882,0.5976638 0.328782,0.3265029 0.868285,0.3246229 1.194728,-0.004 l 2.772057,-2.7929973 2.791618,2.773457 c 0.328763,0.3265829 0.868326,0.3247429 1.194748,-0.004 0.326563,-0.3289016 0.324603,-0.8687847 -0.004,-1.1953263 L 16.558043,0.24589696 C 16.393642,0.08269589 16.176541,-9.8454348e-4 15.960679,-2.0453327e-4 Z M 9.0500745,8.1133274 c -0.5225634,0 -0.9448661,0.4186028 -0.9448661,0.941407 V 22.898584 c 0,0.522803 0.4223027,0.941405 0.9448661,0.941405 H 22.883145 c 0.522544,0 0.944867,-0.418602 0.944867,-0.941405 V 9.0547344 c 0,-0.5228042 -0.422323,-0.941407 -0.944867,-0.941407 z M 4.2399232,11.761791 c -0.2169413,-7.8e-4 -0.4369427,0.079 -0.6012638,0.242182 L 0.24967739,15.375094 C 0.08527631,15.538295 5.757681e-4,15.756937 -2.0423698e-4,15.972758 -9.8424205e-4,16.18874 0.07879627,16.406021 0.24187734,16.570422 l 3.36944176,3.394542 c 0.3263622,0.328683 0.8659857,0.330643 1.1947278,0.004 0.3284822,-0.326582 0.3303222,-0.866405 0.004,-1.195328 l -2.772078,-2.796898 2.7915982,-2.773457 c 0.3283622,-0.326602 0.3302422,-0.866366 0.004,-1.195308 C 4.670366,11.843572 4.4570845,11.762651 4.2401231,11.761871 Z m 23.5197328,0 c -0.216941,7.8e-4 -0.430243,0.0816 -0.593443,0.246102 -0.326342,0.328942 -0.324462,0.868706 0.004,1.195308 l 2.791598,2.773457 -2.772058,2.796898 c -0.326422,0.328923 -0.324582,0.868746 0.004,1.195328 0.328742,0.326723 0.868366,0.324763 1.194748,-0.004 l 3.369421,-3.394542 c 0.163201,-0.164401 0.242862,-0.381682 0.242082,-0.597664 -7.8e-4,-0.215821 -0.0856,-0.434403 -0.249862,-0.597664 L 28.36116,12.003893 C 28.196759,11.840692 27.976818,11.760931 27.759876,11.761711 Z M 12.599118,26.91813 c -0.216902,-7.4e-4 -0.432983,0.079 -0.597364,0.242202 -0.164401,0.1632 -0.249102,0.380602 -0.249882,0.597663 -7.8e-4,0.217042 0.0826,0.433243 0.245982,0.597644 l 3.365521,3.394562 c 0.163201,0.164201 0.381663,0.249222 0.597384,0.250002 0.215862,7.8e-4 0.433043,-0.083 0.597364,-0.246102 L 19.950985,28.383 c 0.328523,-0.326543 0.330483,-0.866426 0.004,-1.195328 -0.326422,-0.328643 -0.865985,-0.330483 -1.194748,-0.004 L 15.968619,29.95713 13.196562,27.164132 C 13.03336,26.999931 12.816099,26.91879 12.599198,26.91803 Z"
     id="path2"
     inkscape:connector-curvature="0"
     style="fill:#4d4d4d;stroke-width:0.99999988"
     sodipodi:nodetypes="cccscccccccccsssssssssccccccccccccccccccccccccccccsccccccccccc" />
  <path
     style="fill:none;stroke:#4d4d4d;stroke-width:1.5;stroke-linecap:butt;stroke-linejoin:miter;stroke-miterlimit:4;stroke-dasharray:none;stroke-opacity:1"
     d="M 1,8 V 1 h 7"
     id="path816"
     inkscape:connector-curvature="0"
     sodipodi:nodetypes="ccc" />
  <path
     style="fill:none;stroke:#4d4d4d;stroke-width:1.5;stroke-linecap:butt;stroke-linejoin:miter;stroke-miterlimit:4;stroke-dasharray:none;stroke-opacity:1"
     d="M 31,8 V 1 h -7"
     id="path816-5"
     inkscape:connector-curvature="0"
     sodipodi:nodetypes="ccc" />
  <path
     style="fill:none;stroke:#4d4d4d;stroke-width:1.5;stroke-linecap:butt;stroke-linejoin:miter;stroke-miterlimit:4;stroke-dasharray:none;stroke-opacity:1"
     d="m 31,24 v 7 h -7"
     id="path816-5-3"
     inkscape:connector-curvature="0"
     sodipodi:nodetypes="ccc" />
  <path
     style="fill:none;stroke:#4d4d4d;stroke-width:1.5;stroke-linecap:butt;stroke-linejoin:miter;stroke-miterlimit:4;stroke-dasharray:none;stroke-opacity:1"
     d="m 1,24 v 7 h 7"
     id="path816-5-3-5"
     inkscape:connector-curvature="0"
     sodipodi:nodetypes="ccc" />
</svg>
