<?xml version="1.0" encoding="UTF-8" standalone="no"?>
<!-- Created with Inkscape (http://www.inkscape.org/) -->

<svg
   xmlns:dc="http://purl.org/dc/elements/1.1/"
   xmlns:cc="http://creativecommons.org/ns#"
   xmlns:rdf="http://www.w3.org/1999/02/22-rdf-syntax-ns#"
   xmlns:svg="http://www.w3.org/2000/svg"
   xmlns="http://www.w3.org/2000/svg"
   xmlns:sodipodi="http://sodipodi.sourceforge.net/DTD/sodipodi-0.dtd"
   xmlns:inkscape="http://www.inkscape.org/namespaces/inkscape"
   id="svg7384"
   height="48"
   sodipodi:docname="hygro.svg"
   width="48"
   version="1.1"
   inkscape:version="0.92.2 2405546, 2018-03-11">
  <metadata
     id="metadata90">
    <rdf:RDF>
      <cc:Work
         rdf:about="">
        <dc:format>image/svg+xml</dc:format>
        <dc:type
           rdf:resource="http://purl.org/dc/dcmitype/StillImage" />
        <dc:title>Gnome Symbolic Icon Theme</dc:title>
      </cc:Work>
    </rdf:RDF>
  </metadata>
  <sodipodi:namedview
     inkscape:snap-nodes="true"
     inkscape:cx="25.462029"
     inkscape:cy="24.764385"
     inkscape:snap-to-guides="true"
     inkscape:window-x="1920"
     inkscape:window-y="0"
     inkscape:bbox-paths="false"
     bordercolor="#666666"
     borderopacity="1"
     objecttolerance="10"
     id="namedview88"
     inkscape:snap-bbox-midpoints="false"
     inkscape:guide-bbox="true"
     inkscape:pageshadow="2"
     inkscape:snap-bbox="true"
     inkscape:window-width="1920"
     inkscape:window-maximized="1"
     showgrid="false"
     inkscape:current-layer="layer9"
     pagecolor="#ffffff"
     inkscape:pageopacity="1"
     inkscape:window-height="1016"
     inkscape:snap-global="false"
     inkscape:object-nodes="false"
     inkscape:snap-grids="true"
     gridtolerance="10"
     showguides="true"
     inkscape:zoom="22.627416"
     guidetolerance="10"
     inkscape:snap-others="true"
     showborder="true"
     inkscape:object-paths="false"
     inkscape:pagecheckerboard="true"
     inkscape:snap-object-midpoints="true"
     inkscape:snap-center="true">
    <inkscape:grid
       id="grid4866"
       type="xygrid"
       visible="true"
       snapvisiblegridlinesonly="true"
       empspacing="2"
       enabled="true"
       spacingx="1"
       spacingy="1"
       originx="0"
       originy="0" />
  </sodipodi:namedview>
  <title
     id="title9167">Gnome Symbolic Icon Theme</title>
  <defs
     id="defs7386" />
  <g
     id="layer9"
     transform="translate(-201,-245)"
     style="display:inline"
     inkscape:label="status"
     inkscape:groupmode="layer">
    <path
       id="path5927-5-0-8-7-0-4-3-5"
       d="m 226.78594,251.89761 -0.77547,0.84598 -3.24292,3.17241 c -2.19303,2.19305 -2.19303,5.77325 0,7.96629 2.19304,2.19305 5.84375,2.19306 8.0368,0 2.19303,-2.19304 2.19303,-5.77324 0,-7.96629 l -3.24292,-3.17241 z m 0,3.17241 2.39695,2.46744 c 1.37911,1.37911 1.33095,3.46291 0,4.79387 -1.33091,1.33094 -3.46292,1.33096 -4.79387,0 -1.23189,-1.24471 -1.48412,-3.42046 0,-4.79379 z"
       style="color:#000000;font-style:normal;font-variant:normal;font-weight:normal;font-stretch:normal;font-size:medium;line-height:normal;font-family:Sans;-inkscape-font-specification:Sans;text-indent:0;text-align:start;text-decoration:none;text-decoration-line:none;letter-spacing:normal;word-spacing:normal;text-transform:none;writing-mode:lr-tb;direction:ltr;baseline-shift:baseline;text-anchor:start;display:inline;overflow:visible;visibility:visible;fill:#f0f0f0;fill-opacity:1;stroke:none;stroke-width:2.92816043;marker:none;enable-background:accumulate"
       inkscape:connector-curvature="0"
       sodipodi:nodetypes="cccscccccccccc" />
    <path
       id="path5927-5-0-8-7-0-4-3"
       d="m 226.78593,249.11566 -1.05682,1.15293 -4.41955,4.32345 c -2.98873,2.98875 -2.98873,7.86795 0,10.85669 2.98874,2.98875 7.96402,2.98877 10.95277,0 2.98873,-2.98874 2.98873,-7.86794 0,-10.85669 l -4.41953,-4.32345 z m 0,4.32346 3.26663,3.36269 c 1.87949,1.8795 1.81386,4.71936 0,6.53323 -1.8138,1.81383 -4.71936,1.81387 -6.53323,0 -1.67885,-1.69633 -2.02259,-4.6615 0,-6.53312 z"
       style="color:#000000;font-style:normal;font-variant:normal;font-weight:normal;font-stretch:normal;font-size:medium;line-height:normal;font-family:Sans;-inkscape-font-specification:Sans;text-indent:0;text-align:start;text-decoration:none;text-decoration-line:none;letter-spacing:normal;word-spacing:normal;text-transform:none;writing-mode:lr-tb;direction:ltr;baseline-shift:baseline;text-anchor:start;display:inline;overflow:visible;visibility:visible;fill:#bebebe;fill-opacity:1;stroke:none;stroke-width:2.92816043;marker:none;enable-background:accumulate"
       inkscape:connector-curvature="0"
       sodipodi:nodetypes="cccscccccccccc" />
    <path
       id="path5927-5-0-8-7-0-4-3-5-6"
       d="m 214.92115,267.09337 -0.77547,0.84598 -3.24292,3.17241 c -2.19303,2.19305 -2.19303,5.77325 0,7.96629 2.19304,2.19305 5.84375,2.19306 8.0368,0 2.19303,-2.19304 2.19303,-5.77324 0,-7.96629 l -3.24292,-3.17241 z m 0,3.17241 2.39695,2.46744 c 1.37911,1.37911 1.33095,3.46291 0,4.79387 -1.33091,1.33094 -3.46292,1.33096 -4.79387,0 -1.23189,-1.24471 -1.48412,-3.42046 0,-4.79379 z"
       style="color:#000000;font-style:normal;font-variant:normal;font-weight:normal;font-stretch:normal;font-size:medium;line-height:normal;font-family:Sans;-inkscape-font-specification:Sans;text-indent:0;text-align:start;text-decoration:none;text-decoration-line:none;letter-spacing:normal;word-spacing:normal;text-transform:none;writing-mode:lr-tb;direction:ltr;baseline-shift:baseline;text-anchor:start;display:inline;overflow:visible;visibility:visible;fill:#f0f0f0;fill-opacity:1;stroke:none;stroke-width:2.92816043;marker:none;enable-background:accumulate"
       inkscape:connector-curvature="0"
       sodipodi:nodetypes="cccscccccccccc" />
    <path
       id="path5927-5-0-8-7-0-4-3-2"
       d="m 214.92114,264.22303 -1.06688,1.1639 -4.46161,4.3646 c -3.01717,3.01719 -3.01717,7.94283 0,10.96001 3.01718,3.0172 8.03982,3.01722 11.05701,0 3.01718,-3.01718 3.01718,-7.94282 0,-10.96001 l -4.4616,-4.3646 z m 0,4.3646 3.29772,3.3947 c 1.89737,1.89739 1.83112,4.76427 0,6.59541 -1.83107,1.83109 -4.76428,1.83113 -6.59541,0 -1.69482,-1.71248 -2.04184,-4.70587 0,-6.5953 z"
       style="color:#000000;font-style:normal;font-variant:normal;font-weight:normal;font-stretch:normal;font-size:medium;line-height:normal;font-family:Sans;-inkscape-font-specification:Sans;text-indent:0;text-align:start;text-decoration:none;text-decoration-line:none;letter-spacing:normal;word-spacing:normal;text-transform:none;writing-mode:lr-tb;direction:ltr;baseline-shift:baseline;text-anchor:start;display:inline;overflow:visible;visibility:visible;fill:#bebebe;fill-opacity:1;stroke:none;stroke-width:2.92816019;marker:none;enable-background:accumulate"
       inkscape:connector-curvature="0"
       sodipodi:nodetypes="cccscccccccccc" />
    <path
       id="path5927-5-0-8-7-0-4-3-5-9"
       d="m 232.20108,271.86635 -0.77547,0.84598 -3.24292,3.17241 c -2.19303,2.19305 -2.19303,5.77325 0,7.96629 2.19304,2.19305 5.84375,2.19306 8.0368,0 2.19303,-2.19304 2.19303,-5.77324 0,-7.96629 l -3.24292,-3.17241 z m 0,3.17241 2.39695,2.46744 c 1.37911,1.37911 1.33095,3.46291 0,4.79387 -1.33091,1.33094 -3.46292,1.33096 -4.79387,0 -1.23189,-1.24471 -1.48412,-3.42046 0,-4.79379 z"
       style="color:#000000;font-style:normal;font-variant:normal;font-weight:normal;font-stretch:normal;font-size:medium;line-height:normal;font-family:Sans;-inkscape-font-specification:Sans;text-indent:0;text-align:start;text-decoration:none;text-decoration-line:none;letter-spacing:normal;word-spacing:normal;text-transform:none;writing-mode:lr-tb;direction:ltr;baseline-shift:baseline;text-anchor:start;display:inline;overflow:visible;visibility:visible;fill:#f0f0f0;fill-opacity:1;stroke:none;stroke-width:2.92816043;marker:none;enable-background:accumulate"
       inkscape:connector-curvature="0"
       sodipodi:nodetypes="cccscccccccccc" />
    <path
       id="path5927-5-0-8-7-0-4-3-1"
       d="m 232.20108,269.1286 -1.05181,1.14743 -4.39851,4.30288 c -2.97451,2.97453 -2.97451,7.83051 0,10.80503 2.97452,2.97453 7.92612,2.97455 10.90065,0 2.97451,-2.97452 2.97451,-7.8305 0,-10.80503 l -4.3985,-4.30288 z m 0,4.30288 3.25107,3.34669 c 1.87055,1.87055 1.80524,4.6969 0,6.50214 -1.80516,1.8052 -4.6969,1.80524 -6.50213,0 -1.67086,-1.68826 -2.01297,-4.63932 0,-6.50203 z"
       style="color:#000000;font-style:normal;font-variant:normal;font-weight:normal;font-stretch:normal;font-size:medium;line-height:normal;font-family:Sans;-inkscape-font-specification:Sans;text-indent:0;text-align:start;text-decoration:none;text-decoration-line:none;letter-spacing:normal;word-spacing:normal;text-transform:none;writing-mode:lr-tb;direction:ltr;baseline-shift:baseline;text-anchor:start;display:inline;overflow:visible;visibility:visible;fill:#bebebe;fill-opacity:1;stroke:none;stroke-width:2.92816043;marker:none;enable-background:accumulate"
       inkscape:connector-curvature="0"
       sodipodi:nodetypes="cccscccccccccc" />
  </g>
  <g
     id="layer10"
     transform="translate(-201,-245)"
     inkscape:label="devices"
     inkscape:groupmode="layer" />
  <g
     id="layer11"
     transform="translate(-201,-245)"
     inkscape:label="apps"
     inkscape:groupmode="layer" />
  <g
     id="layer13"
     transform="translate(-201,-245)"
     inkscape:label="places"
     inkscape:groupmode="layer" />
  <g
     id="layer14"
     transform="translate(-201,-245)"
     inkscape:label="mimetypes"
     inkscape:groupmode="layer" />
  <g
     id="layer15"
     transform="translate(-201,-245)"
     style="display:inline"
     inkscape:label="emblems"
     inkscape:groupmode="layer" />
  <g
     id="g71291"
     transform="translate(-201,-245)"
     style="display:inline"
     inkscape:label="emotes"
     inkscape:groupmode="layer" />
  <g
     id="g4953"
     transform="translate(-201,-245)"
     style="display:inline"
     inkscape:label="categories"
     inkscape:groupmode="layer" />
  <g
     id="layer12"
     transform="translate(-201,-245)"
     style="display:inline"
     inkscape:label="actions"
     inkscape:groupmode="layer" />
</svg>
