<?xml version="1.0" encoding="UTF-8" standalone="no"?>
<svg
   xmlns:dc="http://purl.org/dc/elements/1.1/"
   xmlns:cc="http://creativecommons.org/ns#"
   xmlns:rdf="http://www.w3.org/1999/02/22-rdf-syntax-ns#"
   xmlns:svg="http://www.w3.org/2000/svg"
   xmlns="http://www.w3.org/2000/svg"
   xmlns:sodipodi="http://sodipodi.sourceforge.net/DTD/sodipodi-0.dtd"
   xmlns:inkscape="http://www.inkscape.org/namespaces/inkscape"
   height="32"
   viewBox="0 0 32 32"
   width="32"
   version="1.1"
   id="svg4"
   sodipodi:docname="limits.svg"
   inkscape:version="0.92.2 2405546, 2018-03-11">
  <metadata
     id="metadata10">
    <rdf:RDF>
      <cc:Work
         rdf:about="">
        <dc:format>image/svg+xml</dc:format>
        <dc:type
           rdf:resource="http://purl.org/dc/dcmitype/StillImage" />
        <dc:title></dc:title>
      </cc:Work>
    </rdf:RDF>
  </metadata>
  <defs
     id="defs8" />
  <sodipodi:namedview
     pagecolor="#ffffff"
     bordercolor="#666666"
     borderopacity="1"
     objecttolerance="10"
     gridtolerance="10"
     guidetolerance="10"
     inkscape:pageopacity="0"
     inkscape:pageshadow="2"
     inkscape:window-width="1920"
     inkscape:window-height="1056"
     id="namedview6"
     showgrid="false"
     inkscape:snap-bbox="true"
     inkscape:bbox-nodes="true"
     inkscape:snap-page="true"
     inkscape:zoom="15.170655"
     inkscape:cx="4.9071184"
     inkscape:cy="11.0561"
     inkscape:window-x="0"
     inkscape:window-y="0"
     inkscape:window-maximized="1"
     inkscape:current-layer="svg4" />
  <path
     d="m 16,23.018897 a 4.8,4.8 0 0 1 -4.8,-4.8 c 0,-1.792001 0.976,-3.360001 2.4,-4.176 L 29.136001,5.050899 20.287999,20.378897 c -0.799999,1.568 -2.415999,2.64 -4.287999,2.64 M 16,2.218899 c 2.896,0 5.599999,0.8000001 7.951999,2.1120001 l -3.36,1.9359999 C 19.2,5.722899 17.6,5.418899 16,5.418899 A 12.8,12.8 0 0 0 3.1999998,18.218897 c 0,3.536 1.424,6.736 3.744,9.04 h 0.016 c 0.624,0.624 0.624,1.632 0,2.256 -0.624,0.624001 -1.6479999,0.624001 -2.2720001,0.01601 C 1.7920001,26.634905 0,22.634905 0,18.218904 A 16.000001,16.000001 0 0 1 16,2.218899 m 15.999999,15.999998 c 0,4.416 -1.792,8.416 -4.688,11.312 -0.623998,0.608001 -1.631998,0.608001 -2.256,-0.01601 -0.624,-0.623999 -0.624,-1.631999 0,-2.256 2.32,-2.32 3.744002,-5.503999 3.744002,-9.04 0,-1.599999 -0.304002,-3.2 -0.864002,-4.64 l 1.936,-3.359992 c 1.328,2.4 2.128,5.087997 2.128,7.999997 z"
     id="path2"
     inkscape:connector-curvature="0"
     style="fill:#4d4d4d;stroke-width:1" />
</svg>
