<?xml version="1.0" encoding="UTF-8" standalone="no"?>
<svg
   xmlns:dc="http://purl.org/dc/elements/1.1/"
   xmlns:cc="http://creativecommons.org/ns#"
   xmlns:rdf="http://www.w3.org/1999/02/22-rdf-syntax-ns#"
   xmlns:svg="http://www.w3.org/2000/svg"
   xmlns="http://www.w3.org/2000/svg"
   xmlns:sodipodi="http://sodipodi.sourceforge.net/DTD/sodipodi-0.dtd"
   xmlns:inkscape="http://www.inkscape.org/namespaces/inkscape"
   width="48"
   height="48"
   viewBox="0 0 48 48"
   version="1.1"
   id="svg4"
   sodipodi:docname="refresh_button.svg"
   inkscape:version="0.92.2 2405546, 2018-03-11">
  <metadata
     id="metadata10">
    <rdf:RDF>
      <cc:Work
         rdf:about="">
        <dc:format>image/svg+xml</dc:format>
        <dc:type
           rdf:resource="http://purl.org/dc/dcmitype/StillImage" />
      </cc:Work>
    </rdf:RDF>
  </metadata>
  <defs
     id="defs8" />
  <sodipodi:namedview
     pagecolor="#ffffff"
     bordercolor="#666666"
     borderopacity="1"
     objecttolerance="10"
     gridtolerance="10"
     guidetolerance="10"
     inkscape:pageopacity="0"
     inkscape:pageshadow="2"
     inkscape:window-width="1503"
     inkscape:window-height="833"
     id="namedview6"
     showgrid="true"
     inkscape:zoom="4.9166667"
     inkscape:cx="-25.830509"
     inkscape:cy="16.067797"
     inkscape:window-x="0"
     inkscape:window-y="0"
     inkscape:window-maximized="0"
     inkscape:current-layer="svg4">
    <inkscape:grid
       type="xygrid"
       id="grid812" />
  </sodipodi:namedview>
  <path
     d="m 24,13.525424 v 5.237288 L 30.98305,11.779661 24,4.7966102 v 5.2372878 c -7.716272,0 -13.966102,6.24983 -13.966102,13.966102 0,2.740848 0.803051,5.280932 2.164746,7.43695 l 2.548814,-2.548814 C 13.970594,27.430424 13.525424,25.77195 13.525424,24 13.525424,18.212796 18.212796,13.525424 24,13.525424 Z m 11.801356,3.037626 -2.548814,2.548814 C 34.029406,20.569576 34.474576,22.22805 34.474576,24 34.474576,29.787204 29.787204,34.474576 24,34.474576 V 29.237288 L 17.01695,36.220339 24,43.20339 v -5.237288 c 7.716272,0 13.966102,-6.24983 13.966102,-13.966102 0,-2.740848 -0.803052,-5.280932 -2.164746,-7.43695 z"
     id="path2"
     style="fill:#e6e6e6;fill-opacity:0.90196079;stroke:none;stroke-width:0.87288141"
     inkscape:connector-curvature="0" />
</svg>
