<?xml version="1.0" encoding="UTF-8" standalone="no"?>
<!-- Created with Inkscape (http://www.inkscape.org/) -->

<svg
   xmlns:dc="http://purl.org/dc/elements/1.1/"
   xmlns:cc="http://creativecommons.org/ns#"
   xmlns:rdf="http://www.w3.org/1999/02/22-rdf-syntax-ns#"
   xmlns:svg="http://www.w3.org/2000/svg"
   xmlns="http://www.w3.org/2000/svg"
   xmlns:sodipodi="http://sodipodi.sourceforge.net/DTD/sodipodi-0.dtd"
   xmlns:inkscape="http://www.inkscape.org/namespaces/inkscape"
   width="32"
   height="32"
   id="svg2"
   sodipodi:version="0.32"
   inkscape:version="0.92.2 2405546, 2018-03-11"
   version="1.0"
   sodipodi:docname="menu_settings.svg"
   inkscape:output_extension="org.inkscape.output.svg.inkscape">
  <defs
     id="defs4" />
  <sodipodi:namedview
     id="base"
     pagecolor="#ffffff"
     bordercolor="#e73535"
     borderopacity="1"
     inkscape:pageopacity="1"
     inkscape:pageshadow="2"
     inkscape:zoom="17.473966"
     inkscape:cx="11.324845"
     inkscape:cy="11.7986"
     inkscape:document-units="px"
     inkscape:current-layer="layer1"
     showgrid="true"
     inkscape:showpageshadow="true"
     showguides="true"
     inkscape:guide-bbox="true"
     inkscape:window-width="1920"
     inkscape:window-height="1056"
     inkscape:window-x="0"
     inkscape:window-y="0"
     inkscape:window-maximized="1"
     inkscape:pagecheckerboard="true"
     borderlayer="true"
     inkscape:snap-nodes="true"
     inkscape:snap-center="true"
     inkscape:snap-object-midpoints="true">
    <inkscape:grid
       type="xygrid"
       id="grid3672"
       visible="true"
       enabled="true" />
  </sodipodi:namedview>
  <metadata
     id="metadata7">
    <rdf:RDF>
      <cc:Work
         rdf:about="">
        <dc:format>image/svg+xml</dc:format>
        <dc:type
           rdf:resource="http://purl.org/dc/dcmitype/StillImage" />
        <dc:title />
      </cc:Work>
    </rdf:RDF>
  </metadata>
  <g
     inkscape:label="Calque 1"
     inkscape:groupmode="layer"
     id="layer1"
     transform="translate(0,16)">
    <path
       inkscape:connector-curvature="0"
       d="m 12.161989,-15.352038 -0.338402,4.043617 A 12.062315,12.062315 0 0 0 8.2982764,-9.2694719 L 4.6230411,-10.999998 0.7850332,-4.3520388 4.1218636,-2.0346486 A 12.062315,12.062315 0 0 0 3.937639,1.1947239e-6 12.062315,12.062315 0 0 0 4.1133104,2.0432253 L 0.7850332,4.3520412 4.6230411,11 8.289723,9.2737729 a 12.062315,12.062315 0 0 0 3.533864,2.0260741 l 0.338402,4.052193 h 7.67602 l 0.338403,-4.043618 a 12.062315,12.062315 0 0 0 3.52531,-2.0389474 L 27.376957,11 31.214967,4.3520412 27.878135,2.0346501 A 12.062315,12.062315 0 0 0 28.06236,1.1947239e-6 12.062315,12.062315 0 0 0 27.886688,-2.0432239 l 3.328279,-2.3088158 -3.83801,-6.6479593 -3.666682,1.726227 a 12.062315,12.062315 0 0 0 -3.533863,-2.026074 l -0.338403,-4.052194 z m 3.838009,10.9657419 A 4.3862968,4.3862968 0 0 1 20.386296,1.1947239e-6 4.3862968,4.3862968 0 0 1 15.999998,4.3862972 4.3862968,4.3862968 0 0 1 11.613703,1.1947239e-6 4.3862968,4.3862968 0 0 1 15.999998,-4.3862961 Z"
       id="path10500"
       style="display:inline;opacity:1;fill:#f0f0f0;fill-opacity:1;stroke:none;stroke-width:0.99999994;stroke-opacity:1;enable-background:new" />
  </g>
</svg>
