<?xml version="1.0" encoding="UTF-8" standalone="no"?>
<svg
   xmlns:dc="http://purl.org/dc/elements/1.1/"
   xmlns:cc="http://creativecommons.org/ns#"
   xmlns:rdf="http://www.w3.org/1999/02/22-rdf-syntax-ns#"
   xmlns:svg="http://www.w3.org/2000/svg"
   xmlns="http://www.w3.org/2000/svg"
   xmlns:sodipodi="http://sodipodi.sourceforge.net/DTD/sodipodi-0.dtd"
   xmlns:inkscape="http://www.inkscape.org/namespaces/inkscape"
   viewBox="0 0 22 22"
   version="1.1"
   id="svg4"
   sodipodi:docname="stats.svg"
   width="22"
   height="22"
   inkscape:version="0.92.2 2405546, 2018-03-11">
  <metadata
     id="metadata10">
    <rdf:RDF>
      <cc:Work
         rdf:about="">
        <dc:format>image/svg+xml</dc:format>
        <dc:type
           rdf:resource="http://purl.org/dc/dcmitype/StillImage" />
        <dc:title></dc:title>
      </cc:Work>
    </rdf:RDF>
  </metadata>
  <defs
     id="defs8" />
  <sodipodi:namedview
     pagecolor="#ffffff"
     bordercolor="#666666"
     borderopacity="1"
     objecttolerance="10"
     gridtolerance="10"
     guidetolerance="10"
     inkscape:pageopacity="0"
     inkscape:pageshadow="2"
     inkscape:window-width="1920"
     inkscape:window-height="1056"
     id="namedview6"
     showgrid="false"
     inkscape:snap-bbox="true"
     inkscape:bbox-nodes="true"
     inkscape:snap-page="true"
     inkscape:zoom="10.727273"
     inkscape:cx="-16.68644"
     inkscape:cy="21.906779"
     inkscape:window-x="0"
     inkscape:window-y="0"
     inkscape:window-maximized="1"
     inkscape:current-layer="svg4" />
  <path
     d="M 1.375,-4.8333333e-8 C 0.6132225,-4.8333333e-8 0,0.61322245 0,1.375 v 19.25 C 0,21.386777 0.6132225,22 1.375,22 h 19.25 C 21.386778,22 22,21.386777 22,20.625 V 1.375 C 22,0.61322245 21.386778,-4.8333333e-8 20.625,-4.8333333e-8 Z M 4.031005,4.1249999 H 6.82935 c 0.3010557,1.237e-4 0.5426707,0.1782412 0.5424782,0.3974575 l -0.011,12.9577656 C 7.3606225,17.69944 7.1167107,17.875123 6.815655,17.875 H 4.01731 C 3.7162675,17.874875 3.4746388,17.696758 3.4748313,17.477542 l 0.011,-12.9577659 c 2.062e-4,-0.2192162 0.2441175,-0.3949 0.5451737,-0.3947762 z m 5.6799325,3.5422337 h 2.7983455 c 0.301042,9.63e-5 0.54274,0.17556 0.542477,0.3947763 l -0.011,9.3886781 c -2.75e-4,0.219217 -0.244117,0.39754 -0.545172,0.397457 l -2.7983308,-0.0027 C 9.3962,17.8453 9.1545025,17.669837 9.1547775,17.45062 l 0.011,-9.3886784 c 2.475e-4,-0.219148 0.24409,-0.3947905 0.5451472,-0.394708 z m 5.4731475,3.5932614 2.79833,0.0027 c 0.301055,6.8e-5 0.542905,0.17556 0.542493,0.394776 l -0.011,5.819591 c -4.13e-4,0.219203 -0.244118,0.394831 -0.545173,0.394763 h -2.798347 c -0.301041,-5.5e-5 -0.54289,-0.178242 -0.542478,-0.397458 l 0.011,-5.816896 c 4.13e-4,-0.219216 0.244118,-0.397513 0.545175,-0.397458 z"
     id="path2"
     inkscape:connector-curvature="0"
     style="fill:#b9b9b9;fill-opacity:1;stroke-width:1" />
</svg>
