<?xml version="1.0" encoding="UTF-8" standalone="no"?>
<!-- Created with Inkscape (http://www.inkscape.org/) -->

<svg
   xmlns:dc="http://purl.org/dc/elements/1.1/"
   xmlns:cc="http://creativecommons.org/ns#"
   xmlns:rdf="http://www.w3.org/1999/02/22-rdf-syntax-ns#"
   xmlns:svg="http://www.w3.org/2000/svg"
   xmlns="http://www.w3.org/2000/svg"
   xmlns:sodipodi="http://sodipodi.sourceforge.net/DTD/sodipodi-0.dtd"
   xmlns:inkscape="http://www.inkscape.org/namespaces/inkscape"
   width="24"
   height="24"
   id="svg4216"
   version="1.1"
   inkscape:version="0.92.4 5da689c313, 2019-01-14"
   viewBox="0 0 24 24"
   sodipodi:docname="watchflower_small.svg">
  <defs
     id="defs4218" />
  <sodipodi:namedview
     id="base"
     pagecolor="#242424"
     bordercolor="#666666"
     borderopacity="1.0"
     inkscape:pageopacity="0"
     inkscape:pageshadow="2"
     inkscape:zoom="22"
     inkscape:cx="4.5995144"
     inkscape:cy="9.0399693"
     inkscape:current-layer="layer1"
     showgrid="false"
     inkscape:document-units="px"
     inkscape:grid-bbox="true"
     showguides="true"
     inkscape:guide-bbox="true"
     objecttolerance="10000"
     guidetolerance="10000"
     inkscape:snap-path-clip="true"
     inkscape:snap-perpendicular="true"
     inkscape:snap-tangential="true"
     inkscape:window-width="1920"
     inkscape:window-height="1056"
     inkscape:window-x="0"
     inkscape:window-y="0"
     inkscape:window-maximized="1"
     inkscape:snap-grids="false"
     inkscape:snap-to-guides="false"
     inkscape:snap-page="false"
     inkscape:snap-center="true"
     inkscape:snap-object-midpoints="true"
     inkscape:snap-bbox="true"
     inkscape:snap-bbox-midpoints="false"
     inkscape:bbox-nodes="true">
    <inkscape:grid
       type="xygrid"
       id="grid4764" />
    <sodipodi:guide
       position="40,48"
       orientation="0,1"
       id="guide4150"
       inkscape:locked="false" />
    <sodipodi:guide
       position="7,45"
       orientation="0,1"
       id="guide4156"
       inkscape:locked="false" />
  </sodipodi:namedview>
  <metadata
     id="metadata4221">
    <rdf:RDF>
      <cc:Work
         rdf:about="">
        <dc:format>image/svg+xml</dc:format>
        <dc:type
           rdf:resource="http://purl.org/dc/dcmitype/StillImage" />
        <dc:title />
        <dc:creator>
          <cc:Agent>
            <dc:title>Chris D</dc:title>
          </cc:Agent>
        </dc:creator>
        <dc:description>diazchris.deviantart.com</dc:description>
      </cc:Work>
    </rdf:RDF>
  </metadata>
  <g
     id="layer1"
     inkscape:label="Layer 1"
     inkscape:groupmode="layer"
     transform="translate(0,-40)">
    <path
       style="color:#000000;font-style:normal;font-variant:normal;font-weight:normal;font-stretch:normal;font-size:medium;line-height:normal;font-family:sans-serif;text-indent:0;text-align:start;text-decoration:none;text-decoration-line:none;text-decoration-style:solid;text-decoration-color:#000000;letter-spacing:normal;word-spacing:normal;text-transform:none;writing-mode:lr-tb;direction:ltr;baseline-shift:baseline;text-anchor:start;white-space:normal;clip-rule:nonzero;display:inline;overflow:visible;visibility:visible;opacity:1;isolation:auto;mix-blend-mode:normal;color-interpolation:sRGB;color-interpolation-filters:linearRGB;solid-color:#000000;solid-opacity:1;fill:#e6e6e6;fill-opacity:1;fill-rule:evenodd;stroke:none;stroke-width:2.24260259;stroke-linecap:butt;stroke-linejoin:miter;stroke-miterlimit:4;stroke-dasharray:none;stroke-dashoffset:0;stroke-opacity:1;color-rendering:auto;image-rendering:auto;shape-rendering:auto;text-rendering:auto;enable-background:accumulate"
       d="m 12.049448,43.198655 -0.837449,0.881255 c 0,0 -1.148672,1.337209 -2.1722173,2.64119 C 7.4888169,46.133897 5.8110901,45.582168 5.8110901,45.582168 L 4.6438136,45.262648 4.3809834,46.44281 c 0,0 -0.3828985,2.338515 -0.5617357,4.499037 C 3.3801635,51.01823 2.70866,51.129951 2.70866,51.129951 l -1.2188117,0.23706 0.3246729,1.200777 c 0,0 0.388586,1.445477 1.0410147,3.03028 0.3262143,0.7924 0.7170309,1.625764 1.1904672,2.368051 0.4734367,0.742284 1.0029232,1.42937 1.8423898,1.829504 1.5173065,0.723232 3.1185526,0.285656 4.3753521,-0.139148 1.004498,-0.339516 1.494299,-0.623287 1.785703,-0.778181 0.292393,0.154858 0.781639,0.440286 1.7857,0.778181 1.257475,0.42318 2.858868,0.856087 4.375355,0.131422 0.839082,-0.400964 1.369916,-1.086796 1.84239,-1.829505 0.472475,-0.742712 0.862789,-1.575438 1.187888,-2.368051 0.650207,-1.585224 1.035864,-3.035434 1.035864,-3.035434 l 0.322096,-1.195623 -1.216236,-0.23706 c 0,0 -0.676206,-0.110964 -1.120891,-0.188107 -0.183548,-2.167749 -0.572047,-4.511922 -0.572047,-4.511922 l -0.267982,-1.180158 -1.167274,0.322096 c 0,0 -1.665349,0.554424 -3.205504,1.141507 C 14.03081,45.410823 12.8869,44.07991 12.8869,44.07991 Z m 0,3.491526 c 0.484038,0.540149 0.896209,0.943862 1.682632,2.045952 l 0.543697,0.760146 0.858065,-0.373631 c 1.228272,-0.534954 1.771035,-0.662646 2.468543,-0.878678 0.171826,0.881708 0.438334,1.98033 0.471549,3.710546 l 0.0206,0.979171 0.968865,0.141724 c 0.311699,0.04571 0.307354,0.05216 0.566891,0.09532 -0.162491,0.521545 -0.201004,0.743099 -0.528238,1.540907 -0.292448,0.712994 -0.642464,1.443027 -0.999787,2.004726 -0.357323,0.561699 -0.74779,0.920666 -0.886409,0.986905 -0.438914,0.209738 -1.614622,0.109283 -2.643764,-0.237065 -0.69474,-0.233799 -0.93137,-0.382012 -1.247156,-0.54112 l 0.0025,-0.662231 -0.507626,-0.01026 -0.278291,-0.502472 -0.49216,0.286022 -0.494741,-0.286022 -0.278293,0.505049 -0.507624,0.01027 0.0027,0.659654 c -0.314989,0.159394 -0.551725,0.308701 -1.2469918,0.5437 -1.028459,0.347623 -2.202177,0.451473 -2.6411884,0.242216 C 6.7443789,57.644908 6.3522273,57.285637 5.9940853,56.724118 5.6359438,56.162599 5.2851997,55.432271 4.9917223,54.719393 4.6633559,53.921761 4.6241607,53.699994 4.4609079,53.178481 c 0.2576267,-0.04301 0.2532077,-0.04967 0.5617357,-0.09533 l 0.9688652,-0.144297 0.018038,-0.979174 c 0.02958,-1.727098 0.2918571,-2.819555 0.4612417,-3.70024 0.7006438,0.214594 1.2532182,0.343381 2.4891592,0.878678 l 0.8580639,0.371059 0.5411194,-0.762722 c 0.789113,-1.107545 1.204655,-1.514079 1.690362,-2.056259 z"
       id="path4170-9"
       inkscape:connector-curvature="0" />
  </g>
</svg>
