<?xml version="1.0" encoding="UTF-8" standalone="no"?>
<svg
   width="24"
   height="24"
   viewBox="0 0 24 24"
   version="1.1"
   id="svg6"
   sodipodi:docname="droplet4-24px.svg"
   inkscape:version="1.2.2 (b0a8486541, 2022-12-01)"
   xml:space="preserve"
   xmlns:inkscape="http://www.inkscape.org/namespaces/inkscape"
   xmlns:sodipodi="http://sodipodi.sourceforge.net/DTD/sodipodi-0.dtd"
   xmlns="http://www.w3.org/2000/svg"
   xmlns:svg="http://www.w3.org/2000/svg"><defs
     id="defs7" /><sodipodi:namedview
     id="namedview5"
     pagecolor="#ffffff"
     bordercolor="#666666"
     borderopacity="1.0"
     inkscape:pageshadow="2"
     inkscape:pageopacity="0.0"
     inkscape:pagecheckerboard="true"
     showgrid="false"
     inkscape:snap-page="true"
     inkscape:snap-bbox="true"
     inkscape:snap-bbox-edge-midpoints="true"
     inkscape:zoom="27.509299"
     inkscape:cx="6.9067554"
     inkscape:cy="8.978782"
     inkscape:current-layer="svg6"
     inkscape:showpageshadow="2"
     inkscape:deskcolor="#d1d1d1"
     showguides="true" /><path
     id="path4"
     style="opacity:1;stroke-width:1.24227"
     d="M 12.054688 0.01171875 L 5.0234375 7.03125 C 3.0854983 8.9691893 2.1171875 11.552571 2.1171875 14.037109 C 2.1171875 16.521646 3.0854983 19.142138 5.0234375 21.080078 C 6.8675533 22.924193 9.2635474 23.899864 11.685547 23.990234 C 9.8359192 23.901124 8.0123517 23.145165 6.6035156 21.736328 C 5.1007561 20.23357 4.3496094 18.200051 4.3496094 16.273438 C 4.3496094 14.346822 5.1007561 12.344554 6.6035156 10.841797 L 12.054688 5.3984375 L 17.507812 10.841797 C 19.010571 12.344554 19.761719 14.346822 19.761719 16.273438 C 19.761719 18.200051 19.010571 20.23357 17.507812 21.736328 C 16.098975 23.145165 14.275408 23.901124 12.425781 23.990234 C 14.847632 23.899762 17.241933 22.924081 19.085938 21.080078 C 21.023878 19.142138 21.994141 16.521646 21.994141 14.037109 C 21.994141 11.552571 21.023878 8.9691893 19.085938 7.03125 L 12.054688 0.01171875 z " /></svg>
