<?xml version="1.0" encoding="UTF-8" standalone="no"?>
<svg
   width="24"
   height="24"
   viewBox="0 0 24 24"
   version="1.1"
   id="svg6"
   sodipodi:docname="droplet3-24px.svg"
   inkscape:version="1.2.2 (b0a8486541, 2022-12-01)"
   xml:space="preserve"
   xmlns:inkscape="http://www.inkscape.org/namespaces/inkscape"
   xmlns:sodipodi="http://sodipodi.sourceforge.net/DTD/sodipodi-0.dtd"
   xmlns="http://www.w3.org/2000/svg"
   xmlns:svg="http://www.w3.org/2000/svg"><defs
     id="defs7" /><sodipodi:namedview
     id="namedview5"
     pagecolor="#ffffff"
     bordercolor="#666666"
     borderopacity="1.0"
     inkscape:pageshadow="2"
     inkscape:pageopacity="0.0"
     inkscape:pagecheckerboard="true"
     showgrid="false"
     inkscape:snap-page="true"
     inkscape:snap-bbox="true"
     inkscape:snap-bbox-edge-midpoints="true"
     inkscape:zoom="34.304497"
     inkscape:cx="8.657757"
     inkscape:cy="8.657757"
     inkscape:current-layer="svg6"
     inkscape:showpageshadow="2"
     inkscape:deskcolor="#d1d1d1"
     showguides="true" /><path
     id="path4-3"
     style="opacity:1;stroke-width:0.963307"
     d="M 12.054688 5.3984375 L 6.6035156 10.841797 C 5.1007561 12.344554 4.3496094 14.346822 4.3496094 16.273438 C 4.3496094 18.200051 5.1007561 20.23357 6.6035156 21.736328 C 8.0332219 23.166035 9.8898575 23.921839 11.767578 23.992188 C 10.452557 23.923232 9.1561018 23.382664 8.1542969 22.380859 C 7.0793769 21.305938 6.5429688 19.852711 6.5429688 18.474609 C 6.5429688 17.096507 7.0793769 15.662811 8.1542969 14.587891 L 12.054688 10.695312 L 15.955078 14.587891 C 17.029997 15.662811 17.568359 17.096507 17.568359 18.474609 C 17.568359 19.852711 17.029997 21.305938 15.955078 22.380859 C 14.953315 23.38262 13.658711 23.923194 12.34375 23.992188 C 14.221322 23.921739 16.078215 23.165926 17.507812 21.736328 C 19.010571 20.23357 19.761719 18.200051 19.761719 16.273438 C 19.761719 14.346822 19.010571 12.344554 17.507812 10.841797 L 12.054688 5.3984375 z " /></svg>
