<?xml version="1.0" encoding="UTF-8" standalone="no"?>
<svg
   width="24"
   height="24"
   viewBox="0 0 24 24"
   version="1.1"
   id="svg6"
   sodipodi:docname="droplet2-24px.svg"
   inkscape:version="1.2.2 (b0a8486541, 2022-12-01)"
   xml:space="preserve"
   xmlns:inkscape="http://www.inkscape.org/namespaces/inkscape"
   xmlns:sodipodi="http://sodipodi.sourceforge.net/DTD/sodipodi-0.dtd"
   xmlns="http://www.w3.org/2000/svg"
   xmlns:svg="http://www.w3.org/2000/svg"><defs
     id="defs7" /><sodipodi:namedview
     id="namedview5"
     pagecolor="#ffffff"
     bordercolor="#666666"
     borderopacity="1.0"
     inkscape:pageshadow="2"
     inkscape:pageopacity="0.0"
     inkscape:pagecheckerboard="true"
     showgrid="false"
     inkscape:snap-page="true"
     inkscape:snap-bbox="true"
     inkscape:snap-bbox-edge-midpoints="true"
     inkscape:zoom="27.509299"
     inkscape:cx="6.9067554"
     inkscape:cy="8.978782"
     inkscape:current-layer="svg6"
     inkscape:showpageshadow="2"
     inkscape:deskcolor="#d1d1d1"
     showguides="true" /><path
     id="path4-3-6"
     style="opacity:1;stroke-width:0.689051"
     d="M 12.054688 10.695312 L 8.1542969 14.587891 C 7.0793769 15.662811 6.5429688 17.096507 6.5429688 18.474609 C 6.5429688 19.852711 7.0793769 21.305938 8.1542969 22.380859 C 9.1894021 23.415964 10.538646 23.957281 11.898438 23.996094 C 11.023935 23.953962 10.162189 23.595785 9.4960938 22.929688 C 8.7855905 22.219183 8.4296875 21.258556 8.4296875 20.347656 C 8.4296875 19.436755 8.7855905 18.4898 9.4960938 17.779297 L 12.074219 15.205078 L 14.652344 17.779297 C 15.362845 18.4898 15.71875 19.436755 15.71875 20.347656 C 15.71875 21.258556 15.362845 22.219183 14.652344 22.929688 C 13.988229 23.593802 13.129635 23.952213 12.257812 23.996094 C 13.602127 23.94658 14.931528 23.404407 15.955078 22.380859 C 17.029997 21.305938 17.568359 19.852711 17.568359 18.474609 C 17.568359 17.096507 17.029997 15.662811 15.955078 14.587891 L 12.054688 10.695312 z " /></svg>
