<?xml version="1.0" encoding="UTF-8" standalone="no"?>
<svg
   width="24"
   height="24"
   viewBox="0 0 24 24"
   version="1.1"
   id="svg6"
   sodipodi:docname="droplet_borders-24px.svg"
   inkscape:version="1.2.2 (b0a8486541, 2022-12-01)"
   xml:space="preserve"
   xmlns:inkscape="http://www.inkscape.org/namespaces/inkscape"
   xmlns:sodipodi="http://sodipodi.sourceforge.net/DTD/sodipodi-0.dtd"
   xmlns="http://www.w3.org/2000/svg"
   xmlns:svg="http://www.w3.org/2000/svg"><defs
     id="defs7" /><sodipodi:namedview
     id="namedview5"
     pagecolor="#ffffff"
     bordercolor="#666666"
     borderopacity="1.0"
     inkscape:pageshadow="2"
     inkscape:pageopacity="0.0"
     inkscape:pagecheckerboard="true"
     showgrid="false"
     inkscape:snap-page="true"
     inkscape:snap-bbox="true"
     inkscape:snap-bbox-edge-midpoints="true"
     inkscape:zoom="184.93736"
     inkscape:cx="11.766146"
     inkscape:cy="10.527889"
     inkscape:current-layer="svg6"
     inkscape:showpageshadow="2"
     inkscape:deskcolor="#d1d1d1"
     showguides="true" /><path
     d="M 18.981967,7.1302282 12.055137,0.21563427 5.1283077,7.1302282 c -1.9091621,1.90916 -2.8637422,4.4547078 -2.8637422,6.9023518 0,2.447641 0.9545801,5.029907 2.8637422,6.939068 1.90916,1.909162 4.4179961,2.875981 6.9268293,2.875981 2.508835,0 5.017669,-0.966819 6.92683,-2.875981 1.909162,-1.909161 2.863742,-4.491427 2.863742,-6.939068 0,-2.447644 -0.95458,-4.9931918 -2.863742,-6.9023518 z"
     id="path4-3-6-9"
     sodipodi:nodetypes="cccsssssc"
     style="opacity:1;fill:none;fill-opacity:1;stroke:#ffffff;stroke-width:0.304745;stroke-dasharray:none;stroke-opacity:1" /><path
     d="M 17.412148,10.929586 12.055179,5.5820796 6.6982104,10.929586 c -1.4764795,1.476478 -2.2147187,3.445117 -2.2147187,5.33804 0,1.89292 0.7382392,3.889956 2.2147187,5.366432 1.4764781,1.47648 3.4167256,2.224185 5.3569686,2.224185 1.940245,0 3.880491,-0.747705 5.356969,-2.224185 1.47648,-1.476476 2.214719,-3.473512 2.214719,-5.366432 0,-1.892923 -0.738239,-3.861562 -2.214719,-5.33804 z"
     id="path4-3-6-9-0"
     sodipodi:nodetypes="cccsssssc"
     style="fill:none;fill-opacity:1;stroke:#ffffff;stroke-width:0.284;stroke-dasharray:none;stroke-opacity:1" /><path
     d="m 15.878794,14.640628 -3.82362,-3.816865 -3.8236179,3.816865 c -1.0538603,1.053858 -1.5807893,2.459004 -1.5807893,3.810108 0,1.3511 0.526929,2.776514 1.5807893,3.830372 1.0538588,1.053861 2.4387389,1.587545 3.8236179,1.587545 1.38488,0 2.76976,-0.533684 3.82362,-1.587545 1.053857,-1.053858 1.580788,-2.479272 1.580788,-3.830372 0,-1.351104 -0.526931,-2.75625 -1.580788,-3.810108 z"
     id="path4-3-6-9-0-9"
     sodipodi:nodetypes="cccsssssc"
     style="fill:none;fill-opacity:1;stroke:#ffffff;stroke-width:0.262696;stroke-dasharray:none;stroke-opacity:1" /><path
     d="m 14.56616,17.854841 -2.493994,-2.489588 -2.4939942,2.489588 c -0.6873909,0.687389 -1.031086,1.603912 -1.031086,2.485184 0,0.881267 0.3436951,1.811008 1.031086,2.498398 0.6873902,0.687392 1.5906922,1.035492 2.4939942,1.035492 0.903302,0 1.806605,-0.3481 2.493994,-1.035492 0.68739,-0.68739 1.031084,-1.617131 1.031084,-2.498398 0,-0.881272 -0.343694,-1.797795 -1.031084,-2.485184 z"
     id="path4-3-6-9-0-9-3"
     sodipodi:nodetypes="cccsssssc"
     style="fill:none;fill-opacity:1;stroke:#ffffff;stroke-width:0.252168;stroke-dasharray:none;stroke-opacity:1" /></svg>
