<?xml version="1.0" encoding="UTF-8" standalone="no"?>
<svg
   width="24"
   height="24"
   viewBox="0 0 24 24"
   version="1.1"
   id="svg6"
   sodipodi:docname="dropletborder-24px.svg"
   inkscape:version="1.1.2 (0a00cf5339, 2022-02-04, custom)"
   xmlns:inkscape="http://www.inkscape.org/namespaces/inkscape"
   xmlns:sodipodi="http://sodipodi.sourceforge.net/DTD/sodipodi-0.dtd"
   xmlns="http://www.w3.org/2000/svg"
   xmlns:svg="http://www.w3.org/2000/svg">
  <defs
     id="defs7" />
  <sodipodi:namedview
     id="namedview5"
     pagecolor="#ffffff"
     bordercolor="#666666"
     borderopacity="1.0"
     inkscape:pageshadow="2"
     inkscape:pageopacity="0.0"
     inkscape:pagecheckerboard="0"
     showgrid="false"
     inkscape:snap-page="true"
     inkscape:snap-bbox="true"
     inkscape:snap-bbox-edge-midpoints="true"
     inkscape:zoom="36.375"
     inkscape:cx="12.041237"
     inkscape:cy="12"
     inkscape:current-layer="svg6"
     inkscape:snap-global="false" />
  <path
     id="path4"
     style="opacity:1;stroke-width:1.24288"
     d="M 12.054688 0 L 5.0214844 7.0214844 C 3.0825927 8.9603761 2.1113281 11.545491 2.1113281 14.03125 C 2.1113281 16.517008 3.0825927 19.141186 5.0214844 21.080078 C 6.9603762 23.018969 9.5067849 24 12.054688 24 C 14.60259 24 17.150952 23.018969 19.089844 21.080078 C 21.028736 19.141186 21.998047 16.517008 21.998047 14.03125 C 21.998047 11.545491 21.028736 8.9603761 19.089844 7.0214844 L 12.054688 0 z M 12.054688 0.5078125 L 18.792969 7.2753906 C 20.649776 9.1439836 21.578125 11.635617 21.578125 14.03125 C 21.578125 16.42688 20.649776 18.953671 18.792969 20.822266 C 16.936164 22.690857 14.494722 23.638672 12.054688 23.638672 C 9.6146537 23.638672 7.1751651 22.690857 5.3183594 20.822266 C 3.4615535 18.953671 2.5332031 16.42688 2.5332031 14.03125 C 2.5332031 11.635617 3.4615535 9.1439836 5.3183594 7.2753906 L 12.054688 0.5078125 z " />
</svg>
