<?xml version="1.0" encoding="UTF-8" standalone="no"?>
<svg
   xmlns:dc="http://purl.org/dc/elements/1.1/"
   xmlns:cc="http://creativecommons.org/ns#"
   xmlns:rdf="http://www.w3.org/1999/02/22-rdf-syntax-ns#"
   xmlns:svg="http://www.w3.org/2000/svg"
   xmlns="http://www.w3.org/2000/svg"
   xmlns:sodipodi="http://sodipodi.sourceforge.net/DTD/sodipodi-0.dtd"
   xmlns:inkscape="http://www.inkscape.org/namespaces/inkscape"
   inkscape:version="1.0.1 (3bc2e813f5, 2020-09-07, custom)"
   sodipodi:docname="outline-local_florist_pot-24px (copie).svg"
   id="svg6"
   version="1.1"
   viewBox="0 0 24 24"
   height="24"
   width="24">
  <metadata
     id="metadata12">
    <rdf:RDF>
      <cc:Work
         rdf:about="">
        <dc:format>image/svg+xml</dc:format>
        <dc:type
           rdf:resource="http://purl.org/dc/dcmitype/StillImage" />
      </cc:Work>
    </rdf:RDF>
  </metadata>
  <defs
     id="defs10" />
  <sodipodi:namedview
     inkscape:current-layer="svg6"
     inkscape:window-maximized="0"
     inkscape:window-y="0"
     inkscape:window-x="1720"
     inkscape:cy="13.865478"
     inkscape:cx="12.928251"
     inkscape:zoom="35.512159"
     inkscape:guide-bbox="true"
     showguides="true"
     showgrid="false"
     id="namedview8"
     inkscape:window-height="1355"
     inkscape:window-width="1720"
     inkscape:pageshadow="2"
     inkscape:pageopacity="0"
     guidetolerance="10"
     gridtolerance="10"
     objecttolerance="10"
     borderopacity="1"
     bordercolor="#666666"
     pagecolor="#ffffff"
     inkscape:document-rotation="0">
    <sodipodi:guide
       id="guide840"
       orientation="1,0"
       position="14.927177,7.6401055" />
    <sodipodi:guide
       id="guide842"
       orientation="1,0"
       position="9.05,15.52" />
    <sodipodi:guide
       id="guide844"
       orientation="0,-1"
       position="5.7784744,10.601126" />
    <sodipodi:guide
       position="6.19,16.04"
       orientation="1,0"
       id="guide835" />
    <sodipodi:guide
       position="17.81,16.04"
       orientation="1,0"
       id="guide837" />
  </sodipodi:namedview>
  <path
     id="path2"
     d="m 0,1.1 h 24 v 24 H 0 Z"
     fill="none" />
  <path
     sodipodi:nodetypes="ccccccccc"
     d="m 6.5111582,13.398874 1.5593028,7.470283 h 7.811744 l 1.563602,-7.470283 2.331678,-3.22e-4 -2.331678,9.44377 H 6.5111582 L 4.4983089,13.398874 Z"
     style="opacity:1;fill:#000000;fill-opacity:1;fill-rule:evenodd;stroke:#ffffff;stroke-width:0"
     id="rect837" />
  <path
     d="m 7.1059862,6.1012459 1.41,1.41 c 0.91,-0.9 2.1599998,-1.46 3.5399998,-1.46 1.38,0 2.63,0.56 3.54,1.46 l 1.41,-1.41 c -1.27,-1.27 -3.02,-2.05 -4.95,-2.05 -1.93,0 -3.6799998,0.78 -4.9499998,2.05 z M 12.055986,0.05124601 c -3.0399998,0 -5.7899998,1.22999989 -7.7799998,3.21999989 l 1.41,1.41 c 1.63,-1.62 3.88,-2.63 6.3699998,-2.63 2.49,0 4.74,1.01 6.36,2.64 l 1.41,-1.41 c -1.98,-2 -4.73,-3.22999989 -7.77,-3.22999989 z"
     id="path8" />
</svg>
