<?xml version="1.0" encoding="UTF-8" standalone="no"?>
<svg
   xmlns="http://www.w3.org/2000/svg"
   id="svg6"
   version="1.1"
   viewBox="0 0 24 24"
   height="24"
   width="24">
  <path
     d="m 6.5111582,13.398874 1.5593028,7.470283 h 7.811744 l 1.563602,-7.470283 2.331678,-3.22e-4 -2.331678,9.44377 H 6.5111582 L 4.4983089,13.398874 Z"
     id="rect837" />
  <path
     d="m 7.1059862,6.1012459 1.41,1.41 c 0.91,-0.9 2.1599998,-1.46 3.5399998,-1.46 1.38,0 2.63,0.56 3.54,1.46 l 1.41,-1.41 c -1.27,-1.27 -3.02,-2.05 -4.95,-2.05 -1.93,0 -3.6799998,0.78 -4.9499998,2.05 z M 12.055986,0.05124601 c -3.0399998,0 -5.7899998,1.22999989 -7.7799998,3.21999989 l 1.41,1.41 c 1.63,-1.62 3.88,-2.63 6.3699998,-2.63 2.49,0 4.74,1.01 6.36,2.64 l 1.41,-1.41 c -1.98,-2 -4.73,-3.22999989 -7.77,-3.22999989 z"
     id="path8" />
</svg>
