<?xml version="1.0" encoding="UTF-8" standalone="no"?>
<svg
  xmlns="http://www.w3.org/2000/svg"
  width="24"
  height="24"
  viewBox="0 0 24 24"
  version="1.1"
  id="svg6">
  <path
     d="M 11.060615,0 C 9.380491,0 7.8240001,1.3563678 7.8240001,3.0364922 V 14.891016 C 6.5993312,15.812048 5.799754,17.289747 5.799754,18.939508 5.799754,21.732967 8.2671556,24 11.060615,24 c 2.79346,0 5.260693,-2.267156 5.260693,-5.060615 0,-1.649761 -0.799578,-3.12746 -2.024247,-4.048492 V 3.0363691 C 14.297061,1.3562449 12.74074,0 11.060615,0 Z m 0,2.0242462 c 0.556668,0 1.2122,0.4554554 1.2122,1.012123 h -1.012123 v 1.012123 h 1.012123 v 2.024246 h -1.012123 v 1.0121231 h 1.012123 V 9.1091075 H 11.260692 V 10.12123 h 1.012123 v 2.024246 H 11.260692 V 13.1576 h 1.012123 v 2.033381 l -1.012123,-0.0091 v 1.012123 l 1.012123,0.0035 v 0 c 1.148267,0.423795 1.911075,1.517915 1.911569,2.741874 -7.1e-5,1.61468 -1.509088,2.923621 -3.123769,2.923692 -1.6146802,-7.1e-5 -3.1238662,-1.308889 -3.1239372,-2.923569 4.935e-4,-1.223959 0.7633015,-2.318079 1.9115682,-2.741825 V 3.036492 c 0,-0.5566675 0.655702,-1.0122459 1.212369,-1.0122458 z"
     id="path4" />
</svg>
