<?xml version="1.0" encoding="UTF-8" standalone="no"?>
<svg
   width="24"
   height="24"
   viewBox="0 0 24 24"
   version="1.1"
   id="svg6"
   sodipodi:docname="thermometer_big-24px.svg"
   inkscape:version="1.2 (dc2aedaf03, 2022-05-15)"
   xmlns:inkscape="http://www.inkscape.org/namespaces/inkscape"
   xmlns:sodipodi="http://sodipodi.sourceforge.net/DTD/sodipodi-0.dtd"
   xmlns="http://www.w3.org/2000/svg"
   xmlns:svg="http://www.w3.org/2000/svg">
  <defs
     id="defs6" />
  <sodipodi:namedview
     id="namedview4"
     pagecolor="#ffffff"
     bordercolor="#666666"
     borderopacity="1.0"
     inkscape:showpageshadow="2"
     inkscape:pageopacity="0.0"
     inkscape:pagecheckerboard="0"
     inkscape:deskcolor="#d1d1d1"
     showgrid="false"
     showguides="true"
     inkscape:zoom="45.666667"
     inkscape:cx="11.956204"
     inkscape:cy="9.3065693"
     inkscape:current-layer="svg6">
    <sodipodi:guide
       position="12.014258,31.417398"
       orientation="1,0"
       id="guide235"
       inkscape:locked="false" />
  </sodipodi:namedview>
  <path
     d="M 12.013861,0 C 10.333737,0 8.777246,1.3563678 8.777246,3.0364922 V 14.891016 C 7.5525772,15.812048 6.753,17.289747 6.753,18.939508 6.753,21.732967 9.220402,24 12.013861,24 c 2.79346,0 5.260693,-2.267156 5.260693,-5.060615 0,-1.649761 -0.799578,-3.12746 -2.024247,-4.048492 V 3.0363691 C 15.250307,1.3562449 13.693986,0 12.013861,0 Z m 0,2.0242462 c 0.556668,0 1.2122,0.4554554 1.2122,1.012123 h -1.012123 v 1.012123 h 1.012123 v 2.024246 h -1.012123 v 1.0121231 h 1.012123 V 9.1091075 H 12.213938 V 10.12123 h 1.012123 v 2.024246 H 12.213938 V 13.1576 h 1.012123 v 2.033381 l -1.012123,-0.0091 v 1.012123 l 1.012123,0.0035 v 0 c 1.148267,0.423795 1.911075,1.517915 1.911569,2.741874 -7.1e-5,1.61468 -1.509088,2.923621 -3.123769,2.923692 -1.61468,-7.1e-5 -3.123866,-1.308889 -3.123937,-2.923569 4.93e-4,-1.223959 0.763301,-2.318079 1.911568,-2.741825 V 3.036492 c 0,-0.5566675 0.655702,-1.0122459 1.212369,-1.0122458 z"
     id="path4" />
</svg>
