<svg xmlns="http://www.w3.org/2000/svg" width="48" height="48" viewBox="0 -960 960 960"><path d="M550.026-275Q569-275 587-282.5q18-7.5 32-21.5l35-35-35-35-35 35q-6.789 7.091-15.842 10.045Q559.105-326 550.053-326q-9.053 0-18.144-2.955Q522.818-331.909 516-339l-37.269-37.269Q465-390 446.974-397q-18.025-7-37-7Q391-404 373-397q-18 7-32 21l-35 35 35 35 35-35q6.789-7.091 15.842-10.045Q400.895-354 409.947-354q9.053 0 18.144 2.955Q437.182-348.091 444-341l37.269 37.269Q495-290 513.026-282.5q18.025 7.5 37 7.5Zm0-120Q569-395 587-402.5q18-7.5 32-21.5l35-35-35-35-35 35q-6.789 7.091-15.842 10.045Q559.105-446 550.053-446q-9.053 0-18.144-2.955Q522.818-451.909 516-459l-37.269-37.269Q465-510 446.974-517q-18.025-7-37-7Q391-524 373-517q-18 7-32 21l-35 35 35 35 35-35q6.789-7.091 15.842-10.045Q400.895-474 409.947-474q9.053 0 18.144 2.955Q437.182-468.091 444-461l37.269 37.269Q495-410 513.026-402.5q18.025 7.5 37 7.5Zm0-120Q569-515 587-522.5q18-7.5 32-21.5l35-35-35-35-35 35q-6.789 7.091-15.842 10.045Q559.105-566 550.053-566q-9.053 0-18.144-2.955Q522.818-571.909 516-579l-37.269-37.269Q465-630 446.974-637q-18.025-7-37-7Q391-644 373-637q-18 7-32 21l-35 35 35 35 35-35q7-6 16-9.5t18-3.5q9 0 18.091 2.955Q437.182-588.091 444-581l37.269 37.269Q495-530 513.026-522.5q18.025 7.5 37 7.5ZM160-160v-480l320-240 320 240v480H160Zm60-60h520v-394L480-803 220-614v394Zm260-292Z"/></svg>