<svg xmlns="http://www.w3.org/2000/svg" width="48" height="48" viewBox="0 -960 960 960"><path d="M199.825-210Q187-210 178.5-218.675q-8.5-8.676-8.5-21.5 0-12.825 8.675-21.325 8.676-8.5 21.5-8.5 12.825 0 21.325 8.675 8.5 8.676 8.5 21.5 0 12.825-8.675 21.325-8.676 8.5-21.5 8.5Zm180 0Q367-210 358.5-218.675q-8.5-8.676-8.5-21.5 0-12.825 8.675-21.325 8.676-8.5 21.5-8.5 12.825 0 21.325 8.675 8.5 8.676 8.5 21.5 0 12.825-8.675 21.325-8.676 8.5-21.5 8.5Zm180 0Q547-210 538.5-218.675q-8.5-8.676-8.5-21.5 0-12.825 8.675-21.325 8.676-8.5 21.5-8.5 12.825 0 21.325 8.675 8.5 8.676 8.5 21.5 0 12.825-8.675 21.325-8.676 8.5-21.5 8.5Zm180 0Q727-210 718.5-218.675q-8.5-8.676-8.5-21.5 0-12.825 8.675-21.325 8.676-8.5 21.5-8.5 12.825 0 21.325 8.675 8.5 8.676 8.5 21.5 0 12.825-8.675 21.325-8.676 8.5-21.5 8.5Zm-620-160Q107-370 98.5-378.675q-8.5-8.676-8.5-21.5Q90-413 98.675-421.5q8.676-8.5 21.5-8.5 12.825 0 21.325 8.675 8.5 8.676 8.5 21.5 0 12.825-8.675 21.325-8.676 8.5-21.5 8.5Zm180 0Q287-370 278.5-378.675q-8.5-8.676-8.5-21.5 0-12.825 8.675-21.325 8.676-8.5 21.5-8.5 12.825 0 21.325 8.675 8.5 8.676 8.5 21.5 0 12.825-8.675 21.325-8.676 8.5-21.5 8.5Zm180 0Q467-370 458.5-378.675q-8.5-8.676-8.5-21.5 0-12.825 8.675-21.325 8.676-8.5 21.5-8.5 12.825 0 21.325 8.675 8.5 8.676 8.5 21.5 0 12.825-8.675 21.325-8.676 8.5-21.5 8.5Zm180 0Q647-370 638.5-378.675q-8.5-8.676-8.5-21.5 0-12.825 8.675-21.325 8.676-8.5 21.5-8.5 12.825 0 21.325 8.675 8.5 8.676 8.5 21.5 0 12.825-8.675 21.325-8.676 8.5-21.5 8.5Zm180 0Q827-370 818.5-378.675q-8.5-8.676-8.5-21.5 0-12.825 8.675-21.325 8.676-8.5 21.5-8.5 12.825 0 21.325 8.675 8.5 8.676 8.5 21.5 0 12.825-8.675 21.325-8.676 8.5-21.5 8.5Zm-640-160Q187-530 178.5-538.675q-8.5-8.676-8.5-21.5 0-12.825 8.675-21.325 8.676-8.5 21.5-8.5 12.825 0 21.325 8.675 8.5 8.676 8.5 21.5 0 12.825-8.675 21.325-8.676 8.5-21.5 8.5Zm180 0Q367-530 358.5-538.675q-8.5-8.676-8.5-21.5 0-12.825 8.675-21.325 8.676-8.5 21.5-8.5 12.825 0 21.325 8.675 8.5 8.676 8.5 21.5 0 12.825-8.675 21.325-8.676 8.5-21.5 8.5Zm180 0Q547-530 538.5-538.675q-8.5-8.676-8.5-21.5 0-12.825 8.675-21.325 8.676-8.5 21.5-8.5 12.825 0 21.325 8.675 8.5 8.676 8.5 21.5 0 12.825-8.675 21.325-8.676 8.5-21.5 8.5Zm180 0Q727-530 718.5-538.675q-8.5-8.676-8.5-21.5 0-12.825 8.675-21.325 8.676-8.5 21.5-8.5 12.825 0 21.325 8.675 8.5 8.676 8.5 21.5 0 12.825-8.675 21.325-8.676 8.5-21.5 8.5Zm-620-160Q107-690 98.5-698.675q-8.5-8.676-8.5-21.5Q90-733 98.675-741.5q8.676-8.5 21.5-8.5 12.825 0 21.325 8.675 8.5 8.676 8.5 21.5 0 12.825-8.675 21.325-8.676 8.5-21.5 8.5Zm180 0Q287-690 278.5-698.675q-8.5-8.676-8.5-21.5 0-12.825 8.675-21.325 8.676-8.5 21.5-8.5 12.825 0 21.325 8.675 8.5 8.676 8.5 21.5 0 12.825-8.675 21.325-8.676 8.5-21.5 8.5Zm180 0Q467-690 458.5-698.675q-8.5-8.676-8.5-21.5 0-12.825 8.675-21.325 8.676-8.5 21.5-8.5 12.825 0 21.325 8.675 8.5 8.676 8.5 21.5 0 12.825-8.675 21.325-8.676 8.5-21.5 8.5Zm180 0Q647-690 638.5-698.675q-8.5-8.676-8.5-21.5 0-12.825 8.675-21.325 8.676-8.5 21.5-8.5 12.825 0 21.325 8.675 8.5 8.676 8.5 21.5 0 12.825-8.675 21.325-8.676 8.5-21.5 8.5Zm180 0Q827-690 818.5-698.675q-8.5-8.676-8.5-21.5 0-12.825 8.675-21.325 8.676-8.5 21.5-8.5 12.825 0 21.325 8.675 8.5 8.676 8.5 21.5 0 12.825-8.675 21.325-8.676 8.5-21.5 8.5Z"/></svg>