<?xml version="1.0" encoding="UTF-8" standalone="no"?>
<svg
   xmlns="http://www.w3.org/2000/svg"
   width="24"
   height="24"
   version="1.1"
   viewBox="0 0 24 24">
  <g
     id="layer1"
     transform="translate(0,-40)">
    <path
       style="color:#000000;font-style:normal;font-variant:normal;font-weight:normal;font-stretch:normal;font-size:medium;line-height:normal;font-family:sans-serif;text-indent:0;text-align:start;text-decoration:none;text-decoration-line:none;text-decoration-style:solid;text-decoration-color:#000000;letter-spacing:normal;word-spacing:normal;text-transform:none;writing-mode:lr-tb;direction:ltr;baseline-shift:baseline;text-anchor:start;white-space:normal;clip-rule:nonzero;display:inline;overflow:visible;visibility:visible;opacity:1;isolation:auto;mix-blend-mode:normal;color-interpolation:sRGB;color-interpolation-filters:linearRGB;solid-color:#000000;solid-opacity:1;fill:#e6e6e6;fill-opacity:1;fill-rule:evenodd;stroke:none;stroke-width:2.24260235;stroke-linecap:butt;stroke-linejoin:miter;stroke-miterlimit:4;stroke-dasharray:none;stroke-dashoffset:0;stroke-opacity:1;color-rendering:auto;image-rendering:auto;shape-rendering:auto;text-rendering:auto;enable-background:accumulate"
       d="m 12.049555,43.705558 -0.855108,0.899838 c 0,0 -1.172894,1.365409 -2.2180237,2.696887 -1.5836707,-0.599585 -3.2967768,-1.16295 -3.2967768,-1.16295 L 4.4877551,45.813075 4.2193823,47.018124 c 0,0 -0.3909727,2.387829 -0.5735814,4.593911 -0.4483432,0.078 -1.1340069,0.192071 -1.1340069,0.192071 l -1.2445136,0.242059 0.3315194,1.226099 c 0,0 0.3967803,1.475956 1.0629672,3.09418 0.3330933,0.809112 0.7321513,1.660049 1.2155713,2.417988 0.4834201,0.757938 1.0240723,1.459512 1.8812413,1.868084 1.5493025,0.738482 3.184315,0.29168 4.4676184,-0.142081 1.025681,-0.346678 1.525808,-0.636433 1.823357,-0.794593 0.298561,0.158122 0.798122,0.449571 1.823357,0.794593 1.283992,0.432103 2.919155,0.874138 4.467621,0.134192 0.856776,-0.409419 1.398802,-1.109715 1.881241,-1.868086 0.482438,-0.758372 0.880983,-1.60866 1.212939,-2.417987 0.663917,-1.618653 1.057705,-3.099443 1.057705,-3.099443 l 0.328889,-1.220835 -1.241883,-0.242061 c 0,0 -0.690464,-0.113303 -1.144529,-0.192072 -0.187416,-2.213462 -0.584108,-4.607068 -0.584108,-4.607068 l -0.273633,-1.205045 -1.191891,0.328888 c 0,0 -1.700465,0.566117 -3.273098,1.165578 -1.039464,-1.32212 -2.207498,-2.6811 -2.207498,-2.6811 z m 0,3.565153 c 0.494246,0.55154 0.915108,0.963767 1.718115,2.089097 l 0.555163,0.776176 0.876159,-0.38151 c 1.254174,-0.546235 1.808382,-0.676621 2.520599,-0.897208 0.175449,0.900301 0.447577,2.022091 0.481492,3.788795 l 0.02104,0.999818 0.989296,0.144712 c 0.318273,0.04667 0.313835,0.05325 0.578845,0.09734 -0.165917,0.532541 -0.205242,0.758769 -0.539378,1.5734 -0.298615,0.728031 -0.656011,1.473458 -1.020869,2.047001 -0.364859,0.573543 -0.76356,0.940079 -0.9051,1.007716 -0.448171,0.214161 -1.648671,0.111588 -2.699516,-0.242064 -1.253353,-0.491506 -2.575982,-1.460261 -2.575982,-1.460261 0,0 -1.454152,0.994534 -2.5783353,1.4629 C 8.420937,58.631575 7.2224681,58.737616 6.7741991,58.523947 6.6325705,58.456449 6.2321492,58.089599 5.8664551,57.516239 5.5007612,56.942878 5.1426204,56.19715 4.8429545,55.469238 4.5076635,54.654787 4.4676418,54.428344 4.3009466,53.895834 c 0.2630595,-0.04392 0.2585473,-0.05072 0.5735813,-0.09735 L 5.863824,53.651143 5.882242,52.651322 c 0.030203,-1.763519 0.2980116,-2.879014 0.4709682,-3.778269 0.7154186,0.219119 1.2796454,0.350622 2.5416493,0.897206 l 0.876158,0.378885 0.5525325,-0.778807 c 0.805752,-1.1309 1.230057,-1.546009 1.726005,-2.099621 z"
       id="path4170-9" />
  </g>
</svg>
