<?xml version="1.0" encoding="UTF-8" standalone="no"?>
<!-- Created with Inkscape (http://www.inkscape.org/) -->

<svg
   xmlns:dc="http://purl.org/dc/elements/1.1/"
   xmlns:cc="http://creativecommons.org/ns#"
   xmlns:rdf="http://www.w3.org/1999/02/22-rdf-syntax-ns#"
   xmlns:svg="http://www.w3.org/2000/svg"
   xmlns="http://www.w3.org/2000/svg"
   xmlns:sodipodi="http://sodipodi.sourceforge.net/DTD/sodipodi-0.dtd"
   xmlns:inkscape="http://www.inkscape.org/namespaces/inkscape"
   width="16"
   height="16"
   id="svg4216"
   version="1.1"
   inkscape:version="0.92.2 2405546, 2018-03-11"
   viewBox="0 0 16 16"
   sodipodi:docname="icon_tray.svg">
  <defs
     id="defs4218" />
  <sodipodi:namedview
     id="base"
     pagecolor="#242424"
     bordercolor="#666666"
     borderopacity="1.0"
     inkscape:pageopacity="0"
     inkscape:pageshadow="2"
     inkscape:zoom="43.999999"
     inkscape:cx="5.1592597"
     inkscape:cy="9.1501182"
     inkscape:current-layer="layer1"
     showgrid="false"
     inkscape:document-units="px"
     inkscape:grid-bbox="true"
     showguides="false"
     inkscape:guide-bbox="true"
     objecttolerance="10000"
     guidetolerance="10000"
     inkscape:snap-path-clip="true"
     inkscape:snap-perpendicular="true"
     inkscape:snap-tangential="true"
     inkscape:window-width="1920"
     inkscape:window-height="1056"
     inkscape:window-x="0"
     inkscape:window-y="0"
     inkscape:window-maximized="1">
    <inkscape:grid
       type="xygrid"
       id="grid4764" />
    <sodipodi:guide
       position="0,57"
       orientation="1,0"
       id="guide4768"
       inkscape:locked="false" />
    <sodipodi:guide
       position="17,0"
       orientation="0,1"
       id="guide4772"
       inkscape:locked="false" />
    <sodipodi:guide
       position="40,48"
       orientation="0,1"
       id="guide4150"
       inkscape:locked="false" />
    <sodipodi:guide
       position="3,41"
       orientation="1,0"
       id="guide4154"
       inkscape:locked="false" />
    <sodipodi:guide
       position="7,45"
       orientation="0,1"
       id="guide4156"
       inkscape:locked="false" />
    <sodipodi:guide
       position="24,3"
       orientation="0,1"
       id="guide4160"
       inkscape:locked="false" />
  </sodipodi:namedview>
  <metadata
     id="metadata4221">
    <rdf:RDF>
      <cc:Work
         rdf:about="">
        <dc:format>image/svg+xml</dc:format>
        <dc:type
           rdf:resource="http://purl.org/dc/dcmitype/StillImage" />
        <dc:title />
        <dc:creator>
          <cc:Agent>
            <dc:title>Chris D</dc:title>
          </cc:Agent>
        </dc:creator>
        <dc:description>diazchris.deviantart.com</dc:description>
      </cc:Work>
    </rdf:RDF>
  </metadata>
  <g
     id="layer1"
     inkscape:label="Layer 1"
     inkscape:groupmode="layer"
     transform="translate(0,-48)">
    <path
       style="color:#000000;font-style:normal;font-variant:normal;font-weight:normal;font-stretch:normal;font-size:medium;line-height:normal;font-family:sans-serif;text-indent:0;text-align:start;text-decoration:none;text-decoration-line:none;text-decoration-style:solid;text-decoration-color:#000000;letter-spacing:normal;word-spacing:normal;text-transform:none;writing-mode:lr-tb;direction:ltr;baseline-shift:baseline;text-anchor:start;white-space:normal;clip-rule:nonzero;display:inline;overflow:visible;visibility:visible;opacity:1;isolation:auto;mix-blend-mode:normal;color-interpolation:sRGB;color-interpolation-filters:linearRGB;solid-color:#000000;solid-opacity:1;fill:#c8c8c8;fill-opacity:1;fill-rule:evenodd;stroke:none;stroke-width:1.63881683;stroke-linecap:butt;stroke-linejoin:miter;stroke-miterlimit:4;stroke-dasharray:none;stroke-dashoffset:0;stroke-opacity:1;color-rendering:auto;image-rendering:auto;shape-rendering:auto;text-rendering:auto;enable-background:accumulate"
       d="m 8.0036551,49.89063 -0.5939613,0.62503 c 0,0 -0.8146945,0.948416 -1.5406444,1.873263 C 4.7690278,51.97245 3.5791,51.581136 3.5791,51.581136 l -0.8278907,-0.22662 -0.1864125,0.83703 c 0,0 -0.2715705,1.658593 -0.398411,3.190942 -0.3114204,0.05418 -0.7876841,0.133413 -0.7876841,0.133413 l -0.86444222,0.168136 0.23027425,0.85165 c 0,0 0.27560457,1.025203 0.73833957,2.149227 0.2313676,0.56201 0.5085542,1.153073 0.844339,1.679539 0.3357847,0.526466 0.7113231,1.013781 1.3067149,1.297577 1.0761493,0.512951 2.2118332,0.202601 3.1032196,-0.09869 0.7124401,-0.240805 1.0598296,-0.442069 1.2665083,-0.551927 0.2073794,0.109832 0.5543773,0.312274 1.2665084,0.551927 0.8918635,0.300139 2.0276515,0.607178 3.1032195,0.09321 0.59512,-0.284384 0.971612,-0.770811 1.306715,-1.297578 0.335103,-0.526767 0.611933,-1.117379 0.842511,-1.67954 0.461158,-1.12432 0.734684,-2.152881 0.734684,-2.152881 l 0.228448,-0.847994 -0.862615,-0.168137 c 0,0 -0.479599,-0.0787 -0.794994,-0.133413 -0.13018,-1.537477 -0.405722,-3.200081 -0.405722,-3.200081 l -0.190067,-0.837028 -0.827891,0.228447 c 0,0 -1.181146,0.393227 -2.273501,0.809614 C 9.4089359,51.459611 8.5976165,50.51566 8.5976165,50.51566 Z m 0,2.476363 c 0.3433035,0.383102 0.6356357,0.669436 1.1934055,1.451093 l 0.3856179,0.539134 0.6085825,-0.264998 c 0.871153,-0.379417 1.256107,-0.469983 1.750815,-0.623203 0.121867,0.625351 0.310889,1.404549 0.334445,2.631706 l 0.01462,0.694477 0.687167,0.100517 c 0.221074,0.03242 0.217991,0.03698 0.402067,0.06762 -0.115245,0.369905 -0.142562,0.527044 -0.374653,1.092889 -0.207418,0.505692 -0.455667,1.023468 -0.709098,1.421852 -0.253433,0.398384 -0.530371,0.65298 -0.628685,0.699961 -0.3113,0.148757 -1.145171,0.07751 -1.8750908,-0.168138 C 9.3001041,59.844081 9.1322736,59.73896 8.9083039,59.626114 l 0.00182,-0.469687 -0.3600319,-0.0073 -0.197378,-0.356377 -0.3490665,0.202861 -0.3508941,-0.202861 -0.1973778,0.358205 -0.360032,0.0073 0.00182,0.467858 C 6.8736558,59.739161 6.7057502,59.845057 6.2126333,60.011731 5.4831987,60.258282 4.6507393,60.331938 4.3393705,60.183523 4.2410034,60.136636 3.9628697,59.88182 3.7088577,59.483563 3.4548458,59.085306 3.2060803,58.567321 2.9979317,58.061711 2.7650377,57.495992 2.7372385,57.338703 2.6214516,56.968822 c 0.1827218,-0.03051 0.1795876,-0.03523 0.398411,-0.06762 l 0.6871676,-0.102344 0.012793,-0.694478 c 0.020979,-1.224944 0.2069995,-1.999769 0.3271357,-2.624395 0.4969315,0.1522 0.8888448,0.243544 1.7654359,0.623202 L 6.4209765,54.366362 6.8047669,53.8254 C 7.3644444,53.039874 7.6591671,52.751539 8.003655,52.366998 Z"
       id="path4170-9"
       inkscape:connector-curvature="0" />
  </g>
</svg>
