<?xml version="1.0" encoding="UTF-8" standalone="no"?>
<!-- Created with Inkscape (http://www.inkscape.org/) -->

<svg
   xmlns:dc="http://purl.org/dc/elements/1.1/"
   xmlns:cc="http://creativecommons.org/ns#"
   xmlns:rdf="http://www.w3.org/1999/02/22-rdf-syntax-ns#"
   xmlns:svg="http://www.w3.org/2000/svg"
   xmlns="http://www.w3.org/2000/svg"
   xmlns:sodipodi="http://sodipodi.sourceforge.net/DTD/sodipodi-0.dtd"
   xmlns:inkscape="http://www.inkscape.org/namespaces/inkscape"
   width="24"
   height="24"
   id="svg4216"
   version="1.1"
   inkscape:version="0.92.2 2405546, 2018-03-11"
   viewBox="0 0 24 24"
   sodipodi:docname="icon_tray.svg">
  <defs
     id="defs4218" />
  <sodipodi:namedview
     id="base"
     pagecolor="#242424"
     bordercolor="#666666"
     borderopacity="1.0"
     inkscape:pageopacity="0"
     inkscape:pageshadow="2"
     inkscape:zoom="22"
     inkscape:cx="-5.6541099"
     inkscape:cy="12.189973"
     inkscape:current-layer="layer1"
     showgrid="false"
     inkscape:document-units="px"
     inkscape:grid-bbox="true"
     showguides="false"
     inkscape:guide-bbox="true"
     objecttolerance="10000"
     guidetolerance="10000"
     inkscape:snap-path-clip="true"
     inkscape:snap-perpendicular="true"
     inkscape:snap-tangential="true"
     inkscape:window-width="1920"
     inkscape:window-height="1056"
     inkscape:window-x="0"
     inkscape:window-y="0"
     inkscape:window-maximized="1">
    <inkscape:grid
       type="xygrid"
       id="grid4764" />
    <sodipodi:guide
       position="0,57"
       orientation="1,0"
       id="guide4768"
       inkscape:locked="false" />
    <sodipodi:guide
       position="17,0"
       orientation="0,1"
       id="guide4772"
       inkscape:locked="false" />
    <sodipodi:guide
       position="40,48"
       orientation="0,1"
       id="guide4150"
       inkscape:locked="false" />
    <sodipodi:guide
       position="3,41"
       orientation="1,0"
       id="guide4154"
       inkscape:locked="false" />
    <sodipodi:guide
       position="7,45"
       orientation="0,1"
       id="guide4156"
       inkscape:locked="false" />
    <sodipodi:guide
       position="24,3"
       orientation="0,1"
       id="guide4160"
       inkscape:locked="false" />
  </sodipodi:namedview>
  <metadata
     id="metadata4221">
    <rdf:RDF>
      <cc:Work
         rdf:about="">
        <dc:format>image/svg+xml</dc:format>
        <dc:type
           rdf:resource="http://purl.org/dc/dcmitype/StillImage" />
        <dc:title />
        <dc:creator>
          <cc:Agent>
            <dc:title>Chris D</dc:title>
          </cc:Agent>
        </dc:creator>
        <dc:description>diazchris.deviantart.com</dc:description>
      </cc:Work>
    </rdf:RDF>
  </metadata>
  <g
     id="layer1"
     inkscape:label="Layer 1"
     inkscape:groupmode="layer"
     transform="translate(0,-40)">
    <path
       style="color:#000000;font-style:normal;font-variant:normal;font-weight:normal;font-stretch:normal;font-size:medium;line-height:normal;font-family:sans-serif;text-indent:0;text-align:start;text-decoration:none;text-decoration-line:none;text-decoration-style:solid;text-decoration-color:#000000;letter-spacing:normal;word-spacing:normal;text-transform:none;writing-mode:lr-tb;direction:ltr;baseline-shift:baseline;text-anchor:start;white-space:normal;clip-rule:nonzero;display:inline;overflow:visible;visibility:visible;opacity:1;isolation:auto;mix-blend-mode:normal;color-interpolation:sRGB;color-interpolation-filters:linearRGB;solid-color:#000000;solid-opacity:1;fill:#c8c8c8;fill-opacity:1;fill-rule:evenodd;stroke:none;stroke-width:2.24260235;stroke-linecap:butt;stroke-linejoin:miter;stroke-miterlimit:4;stroke-dasharray:none;stroke-dashoffset:0;stroke-opacity:1;color-rendering:auto;image-rendering:auto;shape-rendering:auto;text-rendering:auto;enable-background:accumulate"
       d="m 12.049295,45.634637 -0.812792,0.855308 c 0,0 -1.114852,1.297839 -2.1082613,2.563427 C 7.6229416,48.483458 5.9946113,47.947973 5.9946113,47.947973 L 4.8617026,47.63786 4.6066107,48.783275 c 0,0 -0.3716248,2.269664 -0.5451968,4.366574 -0.4261562,0.07414 -1.0778887,0.182566 -1.0778887,0.182566 l -1.1829268,0.230081 0.3151136,1.165423 c 0,0 0.377145,1.402915 1.0103645,2.94106 0.3166097,0.769072 0.6959196,1.577898 1.1554168,2.298329 0.4594972,0.720431 0.9733944,1.387286 1.788145,1.77564 1.4726327,0.701936 3.026734,0.277245 4.2465317,-0.135051 0.974923,-0.329522 1.4503,-0.604938 1.733125,-0.755271 0.283785,0.150297 0.758625,0.427324 1.733125,0.755271 1.220452,0.41072 2.774696,0.83088 4.246533,0.127552 0.814378,-0.389159 1.329581,-1.054799 1.788145,-1.775641 0.458563,-0.720843 0.837386,-1.529053 1.152915,-2.298329 0.631062,-1.538551 1.005362,-2.946062 1.005362,-2.946062 l 0.312614,-1.16042 -1.180426,-0.230083 c 0,0 -0.656296,-0.107695 -1.087891,-0.182566 -0.178142,-2.103926 -0.555202,-4.37908 -0.555202,-4.37908 l -0.260092,-1.145412 -1.132909,0.312613 c 0,0 -1.616314,0.538102 -3.111123,1.107898 -0.988024,-1.256693 -2.098256,-2.548422 -2.098256,-2.548422 z m 0,3.388725 c 0.469787,0.524247 0.869822,0.916074 1.633091,1.985715 l 0.52769,0.737766 0.832801,-0.36263 c 1.192109,-0.519204 1.718891,-0.643138 2.395863,-0.852809 0.166766,0.855748 0.425428,1.922025 0.457664,3.6013 l 0.02,0.950341 0.940339,0.137551 c 0.302523,0.04436 0.298305,0.05061 0.5502,0.09253 -0.157706,0.506187 -0.195086,0.721221 -0.512687,1.495538 -0.283836,0.692003 -0.623547,1.400542 -0.970349,1.945702 -0.346804,0.54516 -0.725774,0.893557 -0.86031,0.957847 -0.425992,0.203563 -1.567084,0.106066 -2.565926,-0.230085 -0.674284,-0.226916 -0.903948,-0.370765 -1.210435,-0.525188 l 0.0024,-0.642733 -0.492679,-0.01 -0.270098,-0.487677 -0.47767,0.277601 -0.480175,-0.277601 -0.270098,0.490179 -0.492677,0.01 0.0025,0.640231 c -0.305753,0.154697 -0.535521,0.299608 -1.2103159,0.527689 -0.9981785,0.337387 -2.1373392,0.43818 -2.5634249,0.235085 C 6.9003783,59.655556 6.5197725,59.30686 6.1721754,58.761874 5.8245785,58.216887 5.4841608,57.508062 5.1993244,56.816172 4.8806258,56.042026 4.8425846,55.826788 4.6841386,55.320631 c 0.2500416,-0.04175 0.2457527,-0.04821 0.5451968,-0.09253 l 0.9403391,-0.14005 0.017506,-0.950343 c 0.028708,-1.676248 0.283264,-2.736541 0.4476616,-3.591295 0.6800149,0.208275 1.21632,0.333271 2.4158716,0.852806 l 0.8327999,0.360136 0.5251904,-0.740267 c 0.765878,-1.074936 1.169185,-1.469502 1.640591,-1.995717 z"
       id="path4170-9"
       inkscape:connector-curvature="0" />
  </g>
</svg>
