<?xml version="1.0" encoding="UTF-8" standalone="no"?>
<svg
   xmlns:dc="http://purl.org/dc/elements/1.1/"
   xmlns:cc="http://creativecommons.org/ns#"
   xmlns:rdf="http://www.w3.org/1999/02/22-rdf-syntax-ns#"
   xmlns:svg="http://www.w3.org/2000/svg"
   xmlns="http://www.w3.org/2000/svg"
   xmlns:sodipodi="http://sodipodi.sourceforge.net/DTD/sodipodi-0.dtd"
   xmlns:inkscape="http://www.inkscape.org/namespaces/inkscape"
   aria-hidden="true"
   focusable="false"
   data-prefix="fab"
   data-icon="bluetooth"
   class="svg-inline--fa fa-bluetooth fa-w-14"
   role="img"
   viewBox="0 0 512 512"
   version="1.1"
   id="svg4"
   sodipodi:docname="bluetooth-brands.svg"
   width="512"
   height="512"
   inkscape:version="1.0.2 (e86c870879, 2021-01-15)">
  <metadata
     id="metadata10">
    <rdf:RDF>
      <cc:Work
         rdf:about="">
        <dc:format>image/svg+xml</dc:format>
        <dc:type
           rdf:resource="http://purl.org/dc/dcmitype/StillImage" />
        <dc:title />
      </cc:Work>
    </rdf:RDF>
  </metadata>
  <defs
     id="defs8" />
  <sodipodi:namedview
     pagecolor="#ffffff"
     bordercolor="#666666"
     borderopacity="1"
     objecttolerance="10"
     gridtolerance="10"
     guidetolerance="10"
     inkscape:pageopacity="0"
     inkscape:pageshadow="2"
     inkscape:window-width="1925"
     inkscape:window-height="1040"
     id="namedview6"
     showgrid="false"
     inkscape:zoom="0.52213493"
     inkscape:cx="-116.24962"
     inkscape:cy="203.24617"
     inkscape:window-x="0"
     inkscape:window-y="0"
     inkscape:window-maximized="0"
     inkscape:current-layer="svg4"
     inkscape:document-rotation="0" />
  <path
     fill="currentColor"
     d="m 313.38368,185.93494 -35.4039,35.4039 -0.24758,-70.97286 35.65148,35.56896 M 277.7322,367.32835 313.30116,331.7594 277.89725,296.3555 Z M 415.22148,258.8059 c 0,169.67465 -59.33661,208.46214 -152.7567,208.46214 -93.42008,0 -164.145363,-38.78749 -164.145363,-208.46214 0,-169.674642 68.827173,-214.073939 162.247253,-214.073939 93.42009,0 154.65481,44.481826 154.65481,214.073939 z m -130.80463,0 65.52611,-73.11854 L 246.70221,74.854162 V 220.84368 l -60.90462,-60.90462 -22.28217,22.19965 76.50213,76.74972 -76.50213,76.74972 22.19965,22.19965 60.90461,-60.90462 1.89811,140.29518 105.13886,-105.22138 z"
     id="path2"
     style="fill:#848e98;fill-opacity:1;stroke-width:0.825266" />
</svg>
