<?xml version="1.0" encoding="UTF-8" standalone="no"?>
<svg
   xmlns:dc="http://purl.org/dc/elements/1.1/"
   xmlns:cc="http://creativecommons.org/ns#"
   xmlns:rdf="http://www.w3.org/1999/02/22-rdf-syntax-ns#"
   xmlns:svg="http://www.w3.org/2000/svg"
   xmlns="http://www.w3.org/2000/svg"
   xmlns:sodipodi="http://sodipodi.sourceforge.net/DTD/sodipodi-0.dtd"
   xmlns:inkscape="http://www.inkscape.org/namespaces/inkscape"
   aria-hidden="true"
   focusable="false"
   data-prefix="fab"
   data-icon="bluetooth"
   class="svg-inline--fa fa-bluetooth fa-w-14"
   role="img"
   viewBox="0 0 512 512"
   version="1.1"
   id="svg4"
   sodipodi:docname="bluetooth-brands.svg"
   width="512"
   height="512"
   inkscape:version="1.0.2 (e86c870879, 2021-01-15)">
  <metadata
     id="metadata10">
    <rdf:RDF>
      <cc:Work
         rdf:about="">
        <dc:format>image/svg+xml</dc:format>
        <dc:type
           rdf:resource="http://purl.org/dc/dcmitype/StillImage" />
        <dc:title></dc:title>
      </cc:Work>
    </rdf:RDF>
  </metadata>
  <defs
     id="defs8" />
  <sodipodi:namedview
     pagecolor="#ffffff"
     bordercolor="#666666"
     borderopacity="1"
     objecttolerance="10"
     gridtolerance="10"
     guidetolerance="10"
     inkscape:pageopacity="0"
     inkscape:pageshadow="2"
     inkscape:window-width="1925"
     inkscape:window-height="1040"
     id="namedview6"
     showgrid="false"
     inkscape:zoom="0.58710103"
     inkscape:cx="-116.24962"
     inkscape:cy="203.24617"
     inkscape:window-x="0"
     inkscape:window-y="0"
     inkscape:window-maximized="0"
     inkscape:current-layer="svg4" />
  <path
     fill="currentColor"
     d="m 325.37045,171.1 -42.9,42.9 -0.3,-86 43.2,43.1 m -43.2,219.8 43.1,-43.1 -42.9,-42.9 z m 166.6,-131.5 c 0,205.6 -71.9,252.6 -185.1,252.6 C 150.47045,512 64.770446,465 64.770446,259.4 64.770446,53.799997 148.17045,0 261.37045,0 c 113.2,0 187.4,53.900001 187.4,259.4 z m -158.5,0 79.4,-88.6 -125.1,-134.3 v 176.9 l -73.8,-73.8 -27,26.9 92.7,93 -92.7,93 26.9,26.9 73.8,-73.8 2.3,170 127.4,-127.5 z"
     id="path2"
     style="fill:#848e98;fill-opacity:1;stroke-width:1" />
</svg>
