<?xml version="1.0" encoding="UTF-8" standalone="no"?>
<svg
   width="80"
   height="80"
   viewBox="0 0 21.166666 21.166667"
   version="1.1"
   id="svg8"
   inkscape:version="1.2.2 (b0a8486541, 2022-12-01)"
   sodipodi:docname="cgdn1.svg"
   xmlns:inkscape="http://www.inkscape.org/namespaces/inkscape"
   xmlns:sodipodi="http://sodipodi.sourceforge.net/DTD/sodipodi-0.dtd"
   xmlns="http://www.w3.org/2000/svg"
   xmlns:svg="http://www.w3.org/2000/svg"
   xmlns:rdf="http://www.w3.org/1999/02/22-rdf-syntax-ns#"
   xmlns:cc="http://creativecommons.org/ns#"
   xmlns:dc="http://purl.org/dc/elements/1.1/">
  <defs
     id="defs2">
    <inkscape:perspective
       sodipodi:type="inkscape:persp3d"
       inkscape:vp_x="0 : 10.583334 : 1"
       inkscape:vp_y="0 : 1000 : 0"
       inkscape:vp_z="21.166666 : 10.583334 : 1"
       inkscape:persp3d-origin="10.583333 : 7.0555557 : 1"
       id="perspective848" />
  </defs>
  <sodipodi:namedview
     id="base"
     pagecolor="#ffffff"
     bordercolor="#ff0101"
     borderopacity="1"
     inkscape:pageopacity="0.0"
     inkscape:pageshadow="2"
     inkscape:zoom="9.4232741"
     inkscape:cx="30.987107"
     inkscape:cy="50.831589"
     inkscape:document-units="mm"
     inkscape:current-layer="rect867-3"
     showgrid="true"
     units="px"
     borderlayer="true"
     inkscape:window-width="1720"
     inkscape:window-height="1355"
     inkscape:window-x="1720"
     inkscape:window-y="0"
     inkscape:window-maximized="0"
     inkscape:snap-object-midpoints="true"
     inkscape:snap-bbox="true"
     inkscape:object-paths="true"
     inkscape:snap-intersection-paths="true"
     inkscape:bbox-nodes="true"
     inkscape:snap-bbox-edge-midpoints="true"
     inkscape:snap-smooth-nodes="true"
     inkscape:snap-midpoints="true"
     inkscape:snap-center="true"
     inkscape:snap-grids="true"
     inkscape:document-rotation="0"
     inkscape:snap-nodes="false"
     inkscape:snap-others="false"
     inkscape:pagecheckerboard="false"
     showguides="true"
     inkscape:guide-bbox="true"
     inkscape:showpageshadow="2"
     inkscape:deskcolor="#d1d1d1">
    <inkscape:grid
       type="xygrid"
       id="grid4518" />
    <sodipodi:guide
       position="20.902083,10.583334"
       orientation="0,-1"
       id="guide11089"
       inkscape:locked="false" />
  </sodipodi:namedview>
  <metadata
     id="metadata5">
    <rdf:RDF>
      <cc:Work
         rdf:about="">
        <dc:format>image/svg+xml</dc:format>
        <dc:type
           rdf:resource="http://purl.org/dc/dcmitype/StillImage" />
        <cc:license
           rdf:resource="http://creativecommons.org/licenses/by-sa/4.0/" />
      </cc:Work>
      <cc:License
         rdf:about="http://creativecommons.org/licenses/by-sa/4.0/">
        <cc:permits
           rdf:resource="http://creativecommons.org/ns#Reproduction" />
        <cc:permits
           rdf:resource="http://creativecommons.org/ns#Distribution" />
        <cc:requires
           rdf:resource="http://creativecommons.org/ns#Notice" />
        <cc:requires
           rdf:resource="http://creativecommons.org/ns#Attribution" />
        <cc:permits
           rdf:resource="http://creativecommons.org/ns#DerivativeWorks" />
        <cc:requires
           rdf:resource="http://creativecommons.org/ns#ShareAlike" />
      </cc:License>
    </rdf:RDF>
  </metadata>
  <g
     id="rect867-3"
     inkscape:label="body"
     style="display:inline;opacity:1;fill-opacity:1;stroke:none;stroke-opacity:1"
     transform="translate(0,-275.83331)">
    <path
       style="color:#000000;display:inline;-inkscape-stroke:none;paint-order:markers fill stroke;opacity:0.33;fill-opacity:1;stroke:none;stroke-opacity:1;fill:#000000"
       d="m 3.7791057,277.61901 c -1.4761056,0 -2.6738282,1.19968 -2.6738282,2.67578 v 12.24414 c 0,1.47611 1.1977226,2.67383 2.6738282,2.67383 H 17.386528 c 1.476105,0 2.673828,-1.19772 2.673828,-2.67383 v -12.24414 c 0,-1.4761 -1.197723,-2.67578 -2.673828,-2.67578 z m 0,0.66016 H 17.386528 c 1.121882,0 2.013672,0.89374 2.013672,2.01562 v 12.24414 c 0,1.12188 -0.89179,2.01367 -2.013672,2.01367 H 3.7791057 c -1.1218821,0 -2.0136719,-0.89179 -2.0136719,-2.01367 v -12.24414 c 0,-1.12188 0.8917898,-2.01562 2.0136719,-2.01562 z"
       id="path975-3" />
    <path
       id="path973"
       style="color:#000000;opacity:0.66;mix-blend-mode:normal;fill-opacity:1;stroke:none;stroke-width:0.647035;-inkscape-stroke:none;paint-order:markers fill stroke;stroke-opacity:1;fill:#000000"
       d="m 3.7790975,278.27916 c -0.035059,0 -0.069797,8.5e-4 -0.1043864,0.003 -6.859e-4,3e-5 -0.00138,-3e-5 -0.00207,0 -1.0712622,0.0545 -1.9068603,0.92719 -1.9068603,2.01331 v 12.24422 c 0,1.12084 0.8898077,2.01166 2.0102132,2.01331 h 0.00362 13.606922 c 1.121874,0 2.01383,-0.89143 2.01383,-2.01331 v -12.24422 c 0,-1.08612 -0.835597,-1.95881 -1.90686,-2.01331 -6.91e-4,-4e-5 -0.0014,3e-5 -0.0021,0 -0.03468,-10e-4 -0.06984,-0.003 -0.104903,-0.003 z m 4.0023397,5.11028 h 2.1549072 c 0.012646,0 0.063406,0.0505 0.1519286,0.15141 0,0.0126 -0.1517632,0.16402 -0.4552693,0.45424 H 8.0852946 c -0.012646,0 -0.1644094,-0.15141 -0.4552694,-0.45424 0,-0.0126 0.050243,-0.0631 0.151412,-0.15141 z m 3.4333818,0 h 2.154908 c 0.01265,0 0.06341,0.0505 0.151928,0.15141 0,0.0126 -0.151762,0.16402 -0.455269,0.45424 h -1.547709 c -0.01265,0 -0.16441,-0.15141 -0.45527,-0.45424 0,-0.0126 0.05024,-0.0631 0.151412,-0.15141 z m -0.974617,0.16691 c 0.01265,0 0.06289,0.0505 0.151412,0.15141 v 2.14974 c 0,0.0126 -0.05024,0.0631 -0.151412,0.15142 -0.01265,0 -0.164409,-0.15141 -0.4552695,-0.45424 v -1.54409 c 0,-0.0126 0.151763,-0.16402 0.4552695,-0.45424 z m 3.433382,0 c 0.01265,0 0.06289,0.0505 0.151412,0.15141 v 2.14974 c 0,0.0126 -0.05024,0.0631 -0.151412,0.15142 -0.01265,0 -0.164412,-0.15141 -0.455269,-0.45424 v -1.54409 c 0,-0.0126 0.151762,-0.16402 0.455269,-0.45424 z m -5.7252319,2.24069 h 1.7911051 c 0.012646,0 0.1136491,0.10094 0.3033408,0.30283 v 0.015 c 0,0.0126 -0.1010034,0.11356 -0.3033408,0.30283 H 7.9483521 c -0.012646,0 -0.1136494,-0.10094 -0.3033407,-0.30283 v -0.015 c 0,-0.0126 0.1010033,-0.11356 0.3033407,-0.30283 z m 3.4333819,0 h 1.791105 c 0.01265,0 0.113651,0.10094 0.303341,0.30283 v 0.015 c 0,0.0126 -0.101003,0.11356 -0.303341,0.30283 h -1.791105 c -0.01265,0 -0.113652,-0.10094 -0.30334,-0.30283 v -0.015 c 0,-0.0126 0.101002,-0.11356 0.30334,-0.30283 z m -3.8886513,0.37879 c 0.012646,0 0.1644092,0.15141 0.4552694,0.45424 v 1.54409 c 0,0.0126 -0.1517633,0.16402 -0.4552694,0.45423 -0.012646,0 -0.062889,-0.0505 -0.151412,-0.15141 v -2.14974 c 0,-0.0126 0.050243,-0.0631 0.151412,-0.15141 z m 3.4333823,0 c 0.01265,0 0.164412,0.15141 0.455269,0.45424 v 1.54409 c 0,0.0126 -0.151762,0.16402 -0.455269,0.45423 -0.01265,0 -0.06289,-0.0505 -0.151412,-0.15141 v -2.14974 c 0,-0.0126 0.05024,-0.0631 0.151412,-0.15141 z m -2.8261842,2.01383 h 1.5477091 c 0.012646,0 0.1644097,0.15141 0.4552691,0.45424 0,0.0126 -0.05024,0.0631 -0.1514117,0.15141 H 7.7969401 c -0.012646,0 -0.063406,-0.0505 -0.1519287,-0.15141 0,-0.0126 0.1517633,-0.16403 0.4552694,-0.45424 z m 3.4333822,0 h 1.547709 c 0.01265,0 0.164413,0.15141 0.455269,0.45424 0,0.0126 -0.05024,0.0631 -0.151412,0.15141 h -2.154907 c -0.01265,0 -0.06341,-0.0505 -0.151928,-0.15141 0,-0.0126 0.151762,-0.16403 0.455269,-0.45424 z m -3.7305217,1.68569 h 0.7338053 c 0.00431,0 0.021533,0.0172 0.051676,0.0517 0,0.004 -0.051677,0.056 -0.1550293,0.15503 H 7.9064941 c -0.00431,0 -0.055984,-0.0517 -0.1550293,-0.15503 0,-0.004 0.017226,-0.0216 0.051677,-0.0517 z m 1.1689209,0 h 0.7338053 c 0.00431,0 0.021533,0.0172 0.051676,0.0517 0,0.004 -0.051677,0.056 -0.1550293,0.15503 H 9.075415 c -0.00431,0 -0.055984,-0.0517 -0.1550293,-0.15503 0,-0.004 0.017225,-0.0216 0.051676,-0.0517 z m 0.9353434,0 h 0.7338054 c 0.0043,0 0.02156,0.0172 0.05168,0.0517 0,0.004 -0.05168,0.056 -0.155029,0.15503 h -0.5271 c -0.0043,0 -0.055983,-0.0517 -0.1550288,-0.15503 0,-0.004 0.017226,-0.0216 0.051676,-0.0517 z m 1.1720214,0 h 0.733805 c 0.0043,0 0.02156,0.0172 0.05168,0.0517 0,0.004 -0.05168,0.056 -0.155029,0.15503 h -0.5271 c -0.0043,0 -0.05601,-0.0517 -0.155029,-0.15503 0,-0.004 0.01722,-0.0216 0.05168,-0.0517 z m 1.555461,0 h 0.733805 c 0.0043,0 0.02156,0.0172 0.05168,0.0517 0,0.004 -0.05168,0.056 -0.155029,0.15503 h -0.527099 c -0.0043,0 -0.05601,-0.0517 -0.15503,-0.15503 0,-0.004 0.01722,-0.0216 0.05168,-0.0517 z m -3.9997562,0.0517 c 0.00431,0 0.021532,0.0172 0.051676,0.0517 v 0.73381 c 0,0.004 -0.017226,0.0215 -0.051676,0.0517 -0.00431,0 -0.055984,-0.0517 -0.1550293,-0.15503 v -0.5271 c 0,-0.004 0.051677,-0.056 0.1550293,-0.15503 z m 1.1689209,0 c 0.00431,0 0.021533,0.0172 0.051677,0.0517 v 0.73381 c 0,0.004 -0.017226,0.0215 -0.051677,0.0517 -0.00431,0 -0.055984,-0.0517 -0.1550293,-0.15503 v -0.5271 c 0,-0.004 0.051677,-0.056 0.1550293,-0.15503 z m 0.9353433,0 c 0.0043,0 0.02156,0.0172 0.05168,0.0517 v 0.73381 c 0,0.004 -0.01722,0.0215 -0.05168,0.0517 -0.0043,0 -0.05601,-0.0517 -0.155029,-0.15503 v -0.5271 c 0,-0.004 0.05168,-0.056 0.155029,-0.15503 z m -3.0396076,0.005 c 0.00431,0 0.055984,0.0517 0.1550293,0.15503 v 0.5271 c 0,0.004 -0.051677,0.056 -0.1550293,0.15503 -0.00431,0 -0.021533,-0.0172 -0.051676,-0.0517 v -0.7338 c 0,-0.004 0.017226,-0.0216 0.051676,-0.0517 z m 1.1689209,0 c 0.00431,0 0.055984,0.0517 0.1550293,0.15503 v 0.5271 c 0,0.004 -0.051677,0.056 -0.1550293,0.15503 -0.00431,0 -0.021533,-0.0172 -0.051676,-0.0517 v -0.7338 c 0,-0.004 0.017226,-0.0216 0.051676,-0.0517 z m 3.0478757,0 c 0.0043,0 0.02156,0.0172 0.05168,0.0517 v 0.7338 c 0,0.004 -0.01722,0.0216 -0.05168,0.0517 -0.0043,0 -0.05601,-0.0517 -0.155029,-0.15503 v -0.5271 c 0,-0.004 0.05168,-0.056 0.155029,-0.15503 z m 0.61495,0 c 0.0043,0 0.05601,0.0517 0.155029,0.15503 v 0.5271 c 0,0.004 -0.05168,0.056 -0.155029,0.15503 -0.0043,0 -0.02156,-0.0172 -0.05168,-0.0517 v -0.7338 c 0,-0.004 0.01722,-0.0216 0.05168,-0.0517 z m -4.6767173,0.75448 h 0.6097819 c 0.00431,0 0.038758,0.0344 0.1033529,0.10335 v 0.005 c 0,0.004 -0.034452,0.0388 -0.1033529,0.10335 H 7.8548177 c -0.00431,0 -0.038758,-0.0345 -0.1033529,-0.10335 v -0.005 c 0,-0.004 0.034452,-0.0388 0.1033529,-0.10335 z m 4.8317463,0 h 0.609782 c 0.0043,0 0.03878,0.0344 0.103353,0.10335 v 0.005 c 0,0.004 -0.03445,0.0388 -0.103353,0.10335 h -0.609782 c -0.0043,0 -0.03878,-0.0345 -0.103353,-0.10335 v -0.005 c 0,-0.004 0.03445,-0.0388 0.103353,-0.10335 z m -1.550293,0.0103 h 0.609782 c 0.0043,0 0.03879,0.0344 0.103353,0.10336 v 0.005 c 0,0.004 -0.03445,0.0388 -0.103353,0.10336 h -0.609782 c -0.0043,0 -0.03878,-0.0345 -0.103353,-0.10336 v -0.005 c 0,-0.004 0.03445,-0.0388 0.103353,-0.10336 z m -3.4364826,0.12403 c 0.00431,0 0.055984,0.0517 0.1550293,0.15502 v 0.58912 c 0,0.004 -0.051677,0.056 -0.1550293,0.15503 -0.00431,0 -0.021533,-0.0172 -0.051676,-0.0517 v -0.79582 c 0,-0.004 0.017226,-0.0215 0.051676,-0.0517 z m 1.2722738,0 c 0.00431,0 0.021532,0.0172 0.051676,0.0517 v 0.79582 c 0,0.004 -0.017226,0.0216 -0.051676,0.0517 -0.00431,0 -0.055984,-0.0517 -0.1550293,-0.15503 v -0.58912 c 0,-0.004 0.051677,-0.056 0.1550293,-0.15502 z m 0.8319905,0 c 0.00431,0 0.021533,0.0172 0.051677,0.0517 v 0.79582 c 0,0.004 -0.017226,0.0216 -0.051677,0.0517 -0.00431,0 -0.055984,-0.0517 -0.1550293,-0.15503 v -0.58912 c 0,-0.004 0.051677,-0.056 0.1550293,-0.15502 z m 0.8319903,0 c 0.0043,0 0.05601,0.0517 0.15503,0.15502 v 0.58912 c 0,0.004 -0.05168,0.056 -0.15503,0.15503 -0.0043,0 -0.02156,-0.0172 -0.05168,-0.0517 v -0.79582 c 0,-0.004 0.01722,-0.0215 0.05168,-0.0517 z m 0.345199,0.005 c 0.0043,0 0.05601,0.0517 0.155029,0.15503 v 0.5271 c 0,0.004 -0.05168,0.056 -0.155029,0.15503 -0.0043,0 -0.02156,-0.0172 -0.05168,-0.0517 v -0.73381 c 0,-0.004 0.01722,-0.0216 0.05168,-0.0517 z m 2.485636,0 c 0.0043,0 0.02156,0.0172 0.05168,0.0517 v 0.73381 c 0,0.004 -0.01722,0.0216 -0.05168,0.0517 -0.0043,0 -0.05601,-0.0517 -0.155029,-0.15503 v -0.5271 c 0,-0.004 0.05168,-0.056 0.155029,-0.15503 z m -1.236617,0.64079 h 0.01034 c 0.0052,0 0.04654,0.0413 0.124023,0.12402 v 0.0103 c 0,0.005 -0.04134,0.0465 -0.124023,0.12402 h -0.01034 c -0.0052,0 -0.04654,-0.0413 -0.124023,-0.12402 v -0.0103 c 0,-0.005 0.04134,-0.0465 0.124023,-0.12402 z m -1.042313,0.0465 h 0.527099 c 0.0043,0 0.05602,0.0517 0.155029,0.15503 0,0.004 -0.01722,0.0216 -0.05168,0.0517 h -0.733805 c -0.0043,0 -0.02156,-0.0172 -0.05168,-0.0517 0,-0.004 0.05168,-0.056 0.15503,-0.15503 z m 1.545125,0 h 0.5271 c 0.0043,0 0.05601,0.0517 0.155029,0.15503 0,0.004 -0.01722,0.0216 -0.05168,0.0517 H 12.62972 c -0.0043,0 -0.02156,-0.0172 -0.05168,-0.0517 0,-0.004 0.05168,-0.056 0.155029,-0.15503 z"
       inkscape:label="path973" />
    <path
       id="rect861-3"
       style="display:inline;stroke-width:1.20443;paint-order:markers fill stroke;fill-opacity:1;stroke:none;opacity:0.66;stroke-opacity:1;fill:#39ff00"
       d="m 8.6442682,3.7340026 h 3.8781298 c 0.08843,0 0.159617,0.071189 0.159617,0.1596175 v 0.15026 c 0,0.088428 -0.07119,0.1596175 -0.159617,0.1596175 H 8.6442682 c -0.088428,0 -0.1596176,-0.071189 -0.1596176,-0.1596175 v -0.15026 c 0,-0.088428 0.071189,-0.1596175 0.1596176,-0.1596175 z"
       transform="translate(0,275.83331)" />
  </g>
  <g
     style="display:inline"
     inkscape:label="indicators"
     id="g860"
     inkscape:groupmode="layer">
    <path
       id="rect1318"
       style="display:inline;opacity:1;fill:#c4c9cf;fill-opacity:1;stroke-width:3;stroke-linecap:square;paint-order:markers fill stroke;stroke:none"
       d="m 15.610417,5.2916666 v 0.396875 0.396875 h 1.5875 V 5.8208332 h 0.199987 V 5.5562499 H 17.197917 V 5.2916666 Z"
       inkscape:label="batt" />
    <g
       id="g1547"
       transform="translate(1.5938341,1.4563414)"
       style="display:inline;opacity:1;fill:#c4c9cf;fill-opacity:1;stroke:none"
       inkscape:label="signal">
      <path
         id="rect1318-6-7"
         style="display:inline;fill:#c4c9cf;fill-opacity:1;stroke-width:1.41421;stroke-linecap:square;paint-order:markers fill stroke;stroke:none"
         d="M 2.5072076,3.5707421 H 2.7717909 V 4.6290752 H 2.5072076 Z" />
      <path
         id="rect1318-6-7-5"
         style="display:inline;fill:#c4c9cf;fill-opacity:1;stroke-width:1.22474;stroke-linecap:square;paint-order:markers fill stroke;stroke:none"
         d="m 2.9040831,3.8353252 h 0.2645831 c 10e-8,0 10e-8,0.1770062 10e-8,0.3968749 0,0.2198687 0,0.3968748 -10e-8,0.3968748 H 2.9040831 c -10e-8,0 -10e-8,-0.1770061 -10e-8,-0.3968748 0,-0.2198687 0,-0.3968749 10e-8,-0.3968749 z" />
      <path
         id="rect1318-6-7-5-3"
         style="display:inline;fill:#c4c9cf;fill-opacity:1;stroke-width:0.999996;stroke-linecap:square;paint-order:markers fill stroke;stroke:none"
         d="m 3.300958,4.0999088 h 0.2645831 c 1e-7,0 1e-7,0.1180041 1e-7,0.2645831 0,0.146579 0,0.2645831 -1e-7,0.2645831 H 3.300958 c 0,0 -1e-7,-0.1180041 -1e-7,-0.2645831 0,-0.146579 1e-7,-0.2645831 1e-7,-0.2645831 z" />
      <path
         id="rect1318-6-7-5-3-5"
         style="display:inline;fill:#c4c9cf;fill-opacity:1;stroke-width:0.707104;stroke-linecap:square;paint-order:markers fill stroke;stroke:none"
         d="M 3.6978329,4.3644919 H 3.962416 c 10e-8,0 10e-8,0.059002 10e-8,0.1322916 0,0.073289 0,0.1322916 -10e-8,0.1322916 H 3.6978329 c 0,0 -10e-8,-0.059002 -10e-8,-0.1322916 0,-0.07329 10e-8,-0.1322916 10e-8,-0.1322916 z" />
    </g>
  </g>
</svg>
