<?xml version="1.0" encoding="UTF-8" standalone="no"?>
<svg
   width="80"
   height="80"
   viewBox="0 0 21.166666 21.166667"
   version="1.1"
   id="svg8"
   inkscape:version="1.2.1 (9c6d41e410, 2022-07-14, custom)"
   sodipodi:docname="cgdn1.svg"
   xmlns:inkscape="http://www.inkscape.org/namespaces/inkscape"
   xmlns:sodipodi="http://sodipodi.sourceforge.net/DTD/sodipodi-0.dtd"
   xmlns="http://www.w3.org/2000/svg"
   xmlns:svg="http://www.w3.org/2000/svg"
   xmlns:rdf="http://www.w3.org/1999/02/22-rdf-syntax-ns#"
   xmlns:cc="http://creativecommons.org/ns#"
   xmlns:dc="http://purl.org/dc/elements/1.1/">
  <defs
     id="defs2">
    <inkscape:perspective
       sodipodi:type="inkscape:persp3d"
       inkscape:vp_x="0 : 10.583334 : 1"
       inkscape:vp_y="0 : 1000 : 0"
       inkscape:vp_z="21.166666 : 10.583334 : 1"
       inkscape:persp3d-origin="10.583333 : 7.0555557 : 1"
       id="perspective848" />
  </defs>
  <sodipodi:namedview
     id="base"
     pagecolor="#ffffff"
     bordercolor="#ff0101"
     borderopacity="1"
     inkscape:pageopacity="0.0"
     inkscape:pageshadow="2"
     inkscape:zoom="17.106009"
     inkscape:cx="35.046165"
     inkscape:cy="40.51208"
     inkscape:document-units="mm"
     inkscape:current-layer="g860"
     showgrid="true"
     units="px"
     borderlayer="true"
     inkscape:window-width="1720"
     inkscape:window-height="1355"
     inkscape:window-x="1720"
     inkscape:window-y="0"
     inkscape:window-maximized="0"
     inkscape:snap-object-midpoints="true"
     inkscape:snap-bbox="true"
     inkscape:object-paths="true"
     inkscape:snap-intersection-paths="true"
     inkscape:bbox-nodes="true"
     inkscape:snap-bbox-edge-midpoints="true"
     inkscape:snap-smooth-nodes="true"
     inkscape:snap-midpoints="true"
     inkscape:snap-center="true"
     inkscape:snap-grids="true"
     inkscape:document-rotation="0"
     inkscape:snap-nodes="false"
     inkscape:snap-others="false"
     inkscape:pagecheckerboard="0"
     showguides="true"
     inkscape:guide-bbox="true"
     inkscape:showpageshadow="2"
     inkscape:deskcolor="#d1d1d1">
    <inkscape:grid
       type="xygrid"
       id="grid4518" />
    <sodipodi:guide
       position="20.902083,10.583334"
       orientation="0,-1"
       id="guide11089"
       inkscape:locked="false" />
  </sodipodi:namedview>
  <metadata
     id="metadata5">
    <rdf:RDF>
      <cc:Work
         rdf:about="">
        <dc:format>image/svg+xml</dc:format>
        <dc:type
           rdf:resource="http://purl.org/dc/dcmitype/StillImage" />
        <cc:license
           rdf:resource="http://creativecommons.org/licenses/by-sa/4.0/" />
      </cc:Work>
      <cc:License
         rdf:about="http://creativecommons.org/licenses/by-sa/4.0/">
        <cc:permits
           rdf:resource="http://creativecommons.org/ns#Reproduction" />
        <cc:permits
           rdf:resource="http://creativecommons.org/ns#Distribution" />
        <cc:requires
           rdf:resource="http://creativecommons.org/ns#Notice" />
        <cc:requires
           rdf:resource="http://creativecommons.org/ns#Attribution" />
        <cc:permits
           rdf:resource="http://creativecommons.org/ns#DerivativeWorks" />
        <cc:requires
           rdf:resource="http://creativecommons.org/ns#ShareAlike" />
      </cc:License>
    </rdf:RDF>
  </metadata>
  <g
     inkscape:label="bg"
     inkscape:groupmode="layer"
     id="layer1"
     transform="translate(0,-275.83332)"
     style="display:inline"
     sodipodi:insensitive="true">
    <rect
       style="display:inline;fill:#84909b;fill-opacity:1;stroke:#c4c9cf;stroke-width:0.288612;stroke-miterlimit:4;stroke-dasharray:none;stroke-opacity:1;paint-order:markers fill stroke"
       id="rect867-3"
       width="18.295782"
       height="16.93335"
       x="1.4353136"
       y="277.94998"
       ry="2.3447566" />
  </g>
  <g
     inkscape:groupmode="layer"
     id="layer2"
     inkscape:label="textes"
     style="display:none"
     transform="translate(0.5355003,0.53029993)"
     sodipodi:insensitive="true">
    <text
       xml:space="preserve"
       style="font-style:normal;font-variant:normal;font-weight:normal;font-stretch:normal;font-size:7.76111px;line-height:1.25;font-family:'Open 24 Display St';-inkscape-font-specification:'Open 24 Display St';letter-spacing:0px;word-spacing:0px;display:inline;fill:#495057;fill-opacity:1;stroke:none;stroke-width:0.273053"
       x="6.7984142"
       y="12.445372"
       id="text4547-7"
       transform="scale(1.0011161,0.99888515)"
       inkscape:label="text4547-7"><tspan
         sodipodi:role="line"
         id="tspan4545-5"
         x="6.7984142"
         y="12.445372"
         style="font-style:normal;font-variant:normal;font-weight:normal;font-stretch:normal;font-size:7.76111px;font-family:'Open 24 Display St';-inkscape-font-specification:'Open 24 Display St';fill:#495057;fill-opacity:1;stroke:none;stroke-width:0.273053;stroke-opacity:1">22</tspan></text>
    <text
       xml:space="preserve"
       style="font-style:normal;font-variant:normal;font-weight:normal;font-stretch:normal;font-size:2.64583px;line-height:1.25;font-family:'Open 24 Display St';-inkscape-font-specification:'Open 24 Display St';letter-spacing:0px;word-spacing:0px;display:inline;fill:#000000;fill-opacity:1;stroke:none;stroke-width:0.264583"
       x="7.1124868"
       y="14.827226"
       id="text1223"><tspan
         sodipodi:role="line"
         id="tspan1221"
         style="font-style:normal;font-variant:normal;font-weight:normal;font-stretch:normal;font-size:2.64583px;font-family:'Open 24 Display St';-inkscape-font-specification:'Open 24 Display St';stroke-width:0.264583"
         x="7.1124868"
         y="14.827226">pm2.5</tspan></text>
  </g>
  <g
     style="display:inline"
     inkscape:label="textes paths"
     id="g860"
     inkscape:groupmode="layer">
    <path
       id="rect1318"
       style="display:inline;opacity:1;fill:#c4c9cf;fill-opacity:1;stroke-width:3;stroke-linecap:square;paint-order:markers fill stroke"
       d="m 14.016583,5.2905334 v 0.396875 0.396875 h 1.5875 V 5.8197 H 15.80407 V 5.5551167 H 15.604083 V 5.2905334 Z"
       transform="translate(0.53550029,0.53029993)"
       inkscape:label="batt" />
    <g
       aria-label="pm2.5"
       id="text1566"
       style="font-size:2.64583px;line-height:1.25;font-family:'Open 24 Display St';-inkscape-font-specification:'Open 24 Display St';letter-spacing:0px;word-spacing:0px;display:inline;fill:#ffffff;fill-opacity:1;stroke-width:0.264583"
       transform="translate(0.53550029,1.0594666)"
       inkscape:label="pm25">
      <path
         d="m 7.2675159,12.982379 h 0.7338044 q 0.00646,0 0.051676,0.05168 0,0.0065 -0.1550291,0.155029 H 7.3708687 q -0.00646,0 -0.1550291,-0.155029 0,-0.0065 0.051676,-0.05168 z m 0.8319895,0.05168 q 0.00646,0 0.051676,0.05168 v 0.733805 q 0,0.0065 -0.051676,0.05168 -0.00646,0 -0.1550291,-0.155029 v -0.527099 q 0,-0.0065 0.1550291,-0.155029 z m -0.9353422,0.0052 q 0.00646,0 0.1550291,0.15503 v 0.527098 q 0,0.0065 -0.1550291,0.15503 -0.00646,0 -0.051676,-0.05168 V 13.0909 q 0,-0.0065 0.051676,-0.05168 z m 0.1550291,0.754475 h 0.6097811 q 0.00646,0 0.1033527,0.103353 v 0.0052 q 0,0.0065 -0.1033527,0.103352 H 7.3191923 q -0.00646,0 -0.1033527,-0.103352 v -0.0052 q 0,-0.0065 0.1033527,-0.103353 z m -0.1550291,0.134359 q 0.00646,0 0.1550291,0.155029 v 0.589111 q 0,0.0065 -0.1550291,0.155029 -0.00646,0 -0.051676,-0.05168 v -0.795816 q 0,-0.0065 0.051676,-0.05168 z"
         id="path1575"
         style="fill:#ffffff;fill-opacity:1" />
      <path
         d="m 8.4366937,12.982379 h 0.7338044 q 0.00646,0 0.051676,0.05168 0,0.0065 -0.1550291,0.155029 H 8.540046 q -0.00646,0 -0.1550291,-0.155029 0,-0.0065 0.051677,-0.05168 z m 0.9353422,0 H 10.10584 q 0.0065,0 0.05168,0.05168 0,0.0065 -0.155029,0.155029 H 9.4753887 q -0.00646,0 -0.1550291,-0.155029 0,-0.0065 0.051676,-0.05168 z m -0.1033527,0.05168 q 0.00646,0 0.051676,0.05168 v 0.733805 q 0,0.0065 -0.051676,0.05168 -0.00646,0 -0.1550291,-0.155029 v -0.527099 q 0,-0.0065 0.1550291,-0.155029 z m 0.9353418,0 q 0.0065,0 0.05168,0.05168 v 0.733805 q 0,0.0065 -0.05168,0.05168 -0.0065,0 -0.155029,-0.155029 v -0.527099 q 0,-0.0065 0.155029,-0.155029 z m -1.870684,0.0052 q 0.00646,0 0.1550291,0.15503 v 0.527098 q 0,0.0065 -0.1550291,0.15503 -0.00646,0 -0.051676,-0.05168 V 13.0909 q 0,-0.0065 0.051676,-0.05168 z m 0.1033527,0.888834 q 0.00646,0 0.051676,0.05168 v 0.795816 q 0,0.0065 -0.051676,0.05168 -0.00646,0 -0.1550291,-0.155029 v -0.589111 q 0,-0.0065 0.1550291,-0.155029 z m 0.8319895,0 q 0.00646,0 0.051676,0.05168 v 0.795816 q 0,0.0065 -0.051676,0.05168 -0.00646,0 -0.1550291,-0.155029 v -0.589111 q 0,-0.0065 0.1550291,-0.155029 z m 0.8319898,0 q 0.0065,0 0.155029,0.155029 v 0.589111 q 0,0.0065 -0.155029,0.155029 -0.0065,0 -0.05168,-0.05168 v -0.795816 q 0,-0.0065 0.05168,-0.05168 z"
         id="path1577"
         style="fill:#ffffff;fill-opacity:1" />
      <path
         d="m 10.543798,12.982379 h 0.733804 q 0.0065,0 0.05168,0.05168 0,0.0065 -0.155029,0.155029 H 10.64715 q -0.0065,0 -0.155029,-0.155029 0,-0.0065 0.05168,-0.05168 z m 0.837157,0.05684 q 0.0065,0 0.05168,0.05168 v 0.733804 q 0,0.0065 -0.05168,0.05168 -0.0065,0 -0.155029,-0.15503 v -0.527098 q 0,-0.0065 0.155029,-0.15503 z m -0.780313,0.764811 h 0.609781 q 0.0065,0 0.103352,0.103352 v 0.0052 q 0,0.0065 -0.103352,0.103353 h -0.609781 q -0.0065,0 -0.103353,-0.103353 v -0.0052 q 0,-0.0065 0.103353,-0.103352 z m -0.155029,0.129191 q 0.0065,0 0.155029,0.155029 v 0.527099 q 0,0.0065 -0.155029,0.155029 -0.0065,0 -0.05168,-0.05168 v -0.733804 q 0,-0.0065 0.05168,-0.05168 z m 0.206705,0.687295 h 0.527099 q 0.0065,0 0.155029,0.155029 0,0.0065 -0.05168,0.05168 h -0.733805 q -0.0065,0 -0.05168,-0.05168 0,-0.0065 0.155029,-0.155029 z"
         id="path1579"
         style="fill:#ffffff;fill-opacity:1" />
      <path
         d="m 11.570866,14.70837 v -0.01033 q 0,-0.0078 0.124023,-0.124024 h 0.01033 q 0.0078,0 0.124023,0.124024 v 0.01033 q 0,0.0078 -0.124023,0.124023 h -0.01033 q -0.0078,0 -0.124023,-0.124023 z"
         id="path1581"
         style="fill:#ffffff;fill-opacity:1" />
      <path
         d="m 12.099256,12.982379 h 0.733805 q 0.0065,0 0.05168,0.05168 0,0.0065 -0.155029,0.155029 h -0.527099 q -0.0065,0 -0.155029,-0.155029 0,-0.0065 0.05168,-0.05168 z m -0.103352,0.05684 q 0.0065,0 0.155029,0.15503 v 0.527098 q 0,0.0065 -0.155029,0.15503 -0.0065,0 -0.05168,-0.05168 V 13.0909 q 0,-0.0065 0.05168,-0.05168 z m 0.155029,0.754475 h 0.609781 q 0.0065,0 0.103353,0.103353 v 0.0052 q 0,0.0065 -0.103353,0.103352 h -0.609781 q -0.0065,0 -0.103353,-0.103352 v -0.0052 q 0,-0.0065 0.103353,-0.103353 z m 0.780313,0.139527 q 0.0065,0 0.05168,0.05168 v 0.733804 q 0,0.0065 -0.05168,0.05168 -0.0065,0 -0.155029,-0.155029 v -0.527099 q 0,-0.0065 0.155029,-0.155029 z m -0.733805,0.687295 h 0.527099 q 0.0065,0 0.155029,0.155029 0,0.0065 -0.05168,0.05168 h -0.733804 q -0.0065,0 -0.05168,-0.05168 0,-0.0065 0.155029,-0.155029 z"
         id="path1583"
         style="fill:#ffffff;fill-opacity:1" />
    </g>
    <g
       aria-label="22"
       transform="matrix(1.0011161,0,0,0.99888516,0.53550029,0.53029993)"
       id="text1562"
       style="display:inline;font-size:7.76111px;line-height:1.25;font-family:'Open 24 Display St';-inkscape-font-specification:'Open 24 Display St';letter-spacing:0px;word-spacing:0px;fill:#ffffff;stroke-width:0.273053;fill-opacity:1"
       inkscape:label="22">
      <path
         d="m 7.2380083,7.0338165 h 2.1524953 q 0.018948,0 0.1515842,0.1515842 0,0.018948 -0.4547525,0.4547525 H 7.5411767 q -0.018948,0 -0.4547525,-0.4547525 0,-0.018948 0.1515841,-0.1515842 z M 9.693672,7.2005591 q 0.018948,0 0.1515842,0.1515842 v 2.1524953 q 0,0.018948 -0.1515842,0.1515842 -0.018948,0 -0.4547525,-0.4547525 V 7.6553117 q 0,-0.018948 0.4547525,-0.4547526 z M 7.4047509,9.4440049 h 1.7886933 q 0.018948,0 0.3031684,0.3031684 v 0.015158 q 0,0.018948 -0.3031684,0.3031683 H 7.4047509 q -0.018948,0 -0.3031683,-0.3031683 v -0.015158 q 0,-0.018948 0.3031683,-0.3031684 z M 6.9499984,9.8229654 q 0.018948,0 0.4547525,0.4547526 v 1.546159 q 0,0.01895 -0.4547525,0.454752 -0.018948,0 -0.1515842,-0.151584 V 9.9745496 q 0,-0.018948 0.1515842,-0.1515842 z m 0.6063367,2.0160696 h 1.5461586 q 0.018948,0 0.4547525,0.454752 0,0.01895 -0.1515841,0.151585 H 7.2531668 q -0.018948,0 -0.1515842,-0.151585 0,-0.01895 0.4547525,-0.454752 z"
         id="path1570"
         style="fill:#ffffff;fill-opacity:1" />
      <path
         d="m 10.6676,7.0338165 h 2.152496 q 0.01895,0 0.151584,0.1515842 0,0.018948 -0.454753,0.4547525 h -1.546158 q -0.01895,0 -0.454753,-0.4547525 0,-0.018948 0.151584,-0.1515842 z m 2.455664,0.1667426 q 0.01895,0 0.151584,0.1515842 v 2.1524953 q 0,0.018948 -0.151584,0.1515842 -0.01895,0 -0.454753,-0.4547525 V 7.6553117 q 0,-0.018948 0.454753,-0.4547526 z m -2.288921,2.2434458 h 1.788693 q 0.01895,0 0.303168,0.3031684 v 0.015158 q 0,0.018948 -0.303168,0.3031683 h -1.788693 q -0.01895,0 -0.303169,-0.3031683 v -0.015158 q 0,-0.018948 0.303169,-0.3031684 z M 10.37959,9.8229654 q 0.01895,0 0.454753,0.4547526 v 1.546159 q 0,0.01895 -0.454753,0.454752 -0.01895,0 -0.151584,-0.151584 V 9.9745496 q 0,-0.018948 0.151584,-0.1515842 z m 0.606337,2.0160696 h 1.546159 q 0.01895,0 0.454752,0.454752 0,0.01895 -0.151584,0.151585 h -2.152495 q -0.01895,0 -0.151585,-0.151585 0,-0.01895 0.454753,-0.454752 z"
         id="path1572"
         style="fill:#ffffff;fill-opacity:1" />
    </g>
    <g
       id="g1547"
       transform="translate(2.6521675,1.9855081)"
       style="display:inline;opacity:1;fill:#c4c9cf;fill-opacity:1"
       inkscape:label="signal">
      <path
         id="rect1318-6-7"
         style="display:inline;fill:#c4c9cf;fill-opacity:1;stroke-width:1.41421;stroke-linecap:square;paint-order:markers fill stroke"
         d="M 2.5072076,3.5707421 H 2.7717909 V 4.6290752 H 2.5072076 Z" />
      <path
         id="rect1318-6-7-5"
         style="display:inline;fill:#c4c9cf;fill-opacity:1;stroke-width:1.22474;stroke-linecap:square;paint-order:markers fill stroke"
         d="m 2.9040831,3.8353252 h 0.2645831 c 10e-8,0 10e-8,0.1770062 10e-8,0.3968749 0,0.2198687 0,0.3968748 -10e-8,0.3968748 H 2.9040831 c -10e-8,0 -10e-8,-0.1770061 -10e-8,-0.3968748 0,-0.2198687 0,-0.3968749 10e-8,-0.3968749 z" />
      <path
         id="rect1318-6-7-5-3"
         style="display:inline;fill:#c4c9cf;fill-opacity:1;stroke-width:0.999996;stroke-linecap:square;paint-order:markers fill stroke"
         d="m 3.300958,4.0999088 h 0.2645831 c 1e-7,0 1e-7,0.1180041 1e-7,0.2645831 0,0.146579 0,0.2645831 -1e-7,0.2645831 H 3.300958 c 0,0 -1e-7,-0.1180041 -1e-7,-0.2645831 0,-0.146579 1e-7,-0.2645831 1e-7,-0.2645831 z" />
      <path
         id="rect1318-6-7-5-3-5"
         style="display:inline;fill:#c4c9cf;fill-opacity:1;stroke-width:0.707104;stroke-linecap:square;paint-order:markers fill stroke"
         d="M 3.6978329,4.3644919 H 3.962416 c 10e-8,0 10e-8,0.059002 10e-8,0.1322916 0,0.073289 0,0.1322916 -10e-8,0.1322916 H 3.6978329 c 0,0 -10e-8,-0.059002 -10e-8,-0.1322916 0,-0.07329 10e-8,-0.1322916 10e-8,-0.1322916 z" />
    </g>
    <rect
       style="display:inline;fill:#c4c9cf;fill-opacity:1;stroke:none;stroke-width:1.35235;stroke-miterlimit:4;stroke-dasharray:none;paint-order:markers fill stroke"
       id="rect861-3"
       width="5.291667"
       height="0.46949506"
       x="7.9375"
       y="3.7340026"
       ry="0.15961754" />
  </g>
</svg>
