<?xml version="1.0" encoding="UTF-8" standalone="no"?>
<svg
   xmlns:dc="http://purl.org/dc/elements/1.1/"
   xmlns:cc="http://creativecommons.org/ns#"
   xmlns:rdf="http://www.w3.org/1999/02/22-rdf-syntax-ns#"
   xmlns:svg="http://www.w3.org/2000/svg"
   xmlns="http://www.w3.org/2000/svg"
   xmlns:sodipodi="http://sodipodi.sourceforge.net/DTD/sodipodi-0.dtd"
   xmlns:inkscape="http://www.inkscape.org/namespaces/inkscape"
   aria-hidden="true"
   focusable="false"
   data-prefix="fas"
   data-icon="cloud-sun"
   class="svg-inline--fa fa-cloud-sun fa-w-20"
   role="img"
   viewBox="0 0 128 128"
   version="1.1"
   id="svg4"
   sodipodi:docname="cloud-sun-solid.svg"
   width="128"
   height="128"
   inkscape:version="1.0.2 (e86c870879, 2021-01-15)">
  <metadata
     id="metadata10">
    <rdf:RDF>
      <cc:Work
         rdf:about="">
        <dc:format>image/svg+xml</dc:format>
        <dc:type
           rdf:resource="http://purl.org/dc/dcmitype/StillImage" />
        <dc:title></dc:title>
      </cc:Work>
    </rdf:RDF>
  </metadata>
  <defs
     id="defs8" />
  <sodipodi:namedview
     pagecolor="#ffffff"
     bordercolor="#666666"
     borderopacity="1"
     objecttolerance="10"
     gridtolerance="10"
     guidetolerance="10"
     inkscape:pageopacity="0"
     inkscape:pageshadow="2"
     inkscape:window-width="1654"
     inkscape:window-height="1203"
     id="namedview6"
     showgrid="false"
     inkscape:snap-page="true"
     inkscape:snap-bbox="true"
     inkscape:bbox-paths="true"
     inkscape:bbox-nodes="true"
     inkscape:zoom="2.7293883"
     inkscape:cx="72.825847"
     inkscape:cy="131.97071"
     inkscape:window-x="1517"
     inkscape:window-y="130"
     inkscape:window-maximized="0"
     inkscape:current-layer="svg4"
     inkscape:document-rotation="0" />
  <path
     fill="currentColor"
     d="m 106.49144,75.944909 c 0.0333,-0.316355 0.13321,-0.616062 0.13321,-0.932417 0,-5.877538 -4.77862,-10.656163 -10.656165,-10.656163 -2.097929,0 -4.029357,0.632713 -5.677736,1.665024 -2.930438,-6.460298 -9.407392,-10.989165 -16.966608,-10.989165 -10.289851,0 -18.648281,8.341775 -18.648281,18.64828 0,0.499514 0.116549,0.965718 0.149851,1.448572 -8.258525,0.616063 -14.802073,7.442668 -14.802073,15.867692 0,8.824641 7.15961,15.984248 15.98424,15.984248 h 45.288692 c 8.82463,0 15.98424,-7.159607 15.98424,-15.984248 0,-7.009753 -4.52887,-12.887291 -10.78937,-15.051823 z M 34.828757,72.181948 c -7.276161,-7.276161 -7.276161,-19.09784 0,-26.357349 7.276164,-7.276161 19.097844,-7.276161 26.374002,0 1.615077,1.615073 2.813891,3.479903 3.713009,5.444631 1.631721,-0.61606 3.346699,-0.999016 5.111624,-1.248769 l 4.961776,-14.802075 c 0.666011,-1.981381 -1.215467,-3.846208 -3.196846,-3.196851 L 57.173396,36.900061 50.263542,23.113653 c -0.915765,-1.864829 -3.579805,-1.864829 -4.51222,0 L 38.858116,36.900061 24.222547,32.021535 c -1.96473,-0.649357 -3.846209,1.232123 -3.196849,3.196851 l 4.878525,14.618922 -13.786411,6.909856 c -1.864827,0.932415 -1.864827,3.579804 0,4.512216 l 13.786411,6.893207 -4.878525,14.618922 c -0.666011,1.981381 1.215468,3.84621 3.196849,3.19685 L 36.89339,81.755842 c 1.015666,-2.06463 2.331033,-3.946109 3.929462,-5.577831 -2.181189,-0.899113 -4.229167,-2.231133 -5.994095,-3.996063 z m -0.79921,-13.187003 c 0,6.793307 4.878524,12.454392 11.305519,13.703161 1.332024,-0.78256 2.713992,-1.465225 4.195868,-1.948078 0.899112,-7.376065 5.161576,-13.736459 11.222269,-17.482768 -2.197836,-4.845226 -7.076358,-8.241872 -12.737445,-8.241872 -7.709067,0 -13.986211,6.260492 -13.986211,13.969557 z"
     id="path2"
     style="fill:#848e98;fill-opacity:1;stroke-width:0.166503" />
</svg>
