<?xml version="1.0" encoding="UTF-8" standalone="no"?>
<!-- Created with Inkscape (http://www.inkscape.org/) -->

<svg
   width="80"
   height="80"
   viewBox="0 0 21.166666 21.166667"
   version="1.1"
   id="svg8"
   inkscape:version="1.2.2 (b0a8486541, 2022-12-01)"
   sodipodi:docname="flowercaremax.svg"
   xmlns:inkscape="http://www.inkscape.org/namespaces/inkscape"
   xmlns:sodipodi="http://sodipodi.sourceforge.net/DTD/sodipodi-0.dtd"
   xmlns="http://www.w3.org/2000/svg"
   xmlns:svg="http://www.w3.org/2000/svg"
   xmlns:rdf="http://www.w3.org/1999/02/22-rdf-syntax-ns#"
   xmlns:cc="http://creativecommons.org/ns#"
   xmlns:dc="http://purl.org/dc/elements/1.1/">
  <defs
     id="defs2" />
  <sodipodi:namedview
     id="base"
     pagecolor="#ffffff"
     bordercolor="#ff0101"
     borderopacity="1"
     inkscape:pageopacity="0.0"
     inkscape:pageshadow="2"
     inkscape:zoom="9.4211432"
     inkscape:cx="43.466063"
     inkscape:cy="49.887789"
     inkscape:document-units="mm"
     inkscape:current-layer="layer1"
     showgrid="true"
     units="px"
     borderlayer="true"
     inkscape:window-width="3440"
     inkscape:window-height="1359"
     inkscape:window-x="0"
     inkscape:window-y="0"
     inkscape:window-maximized="1"
     inkscape:snap-object-midpoints="false"
     inkscape:snap-bbox="true"
     inkscape:snap-intersection-paths="true"
     inkscape:bbox-nodes="true"
     inkscape:snap-smooth-nodes="true"
     inkscape:snap-midpoints="true"
     inkscape:object-paths="true"
     inkscape:snap-nodes="false"
     inkscape:snap-others="false"
     inkscape:snap-grids="true"
     inkscape:pagecheckerboard="0"
     inkscape:showpageshadow="2"
     inkscape:deskcolor="#d1d1d1">
    <inkscape:grid
       type="xygrid"
       id="grid4518" />
  </sodipodi:namedview>
  <metadata
     id="metadata5">
    <rdf:RDF>
      <cc:Work
         rdf:about="">
        <dc:format>image/svg+xml</dc:format>
        <dc:type
           rdf:resource="http://purl.org/dc/dcmitype/StillImage" />
        <cc:license
           rdf:resource="http://creativecommons.org/licenses/by-sa/4.0/" />
      </cc:Work>
      <cc:License
         rdf:about="http://creativecommons.org/licenses/by-sa/4.0/">
        <cc:permits
           rdf:resource="http://creativecommons.org/ns#Reproduction" />
        <cc:permits
           rdf:resource="http://creativecommons.org/ns#Distribution" />
        <cc:requires
           rdf:resource="http://creativecommons.org/ns#Notice" />
        <cc:requires
           rdf:resource="http://creativecommons.org/ns#Attribution" />
        <cc:permits
           rdf:resource="http://creativecommons.org/ns#DerivativeWorks" />
        <cc:requires
           rdf:resource="http://creativecommons.org/ns#ShareAlike" />
      </cc:License>
    </rdf:RDF>
  </metadata>
  <g
     inkscape:label="body"
     inkscape:groupmode="layer"
     id="layer1"
     transform="translate(0,-275.83332)">
    <path
       id="rect828-5-7"
       style="color:#000000;-inkscape-stroke:none;stroke:none;opacity:0.66"
       d="M 13.996963 278.29277 C 13.996964 278.83514 13.7901 279.37749 13.376789 279.79081 L 9.4841296 283.68561 L 7.6150542 285.55468 L 7.2964132 285.23604 L -4.7686397 297.30109 C -5.4165942 297.94905 -6.3297834 298.08004 -6.8157477 297.59407 L -3.729314 294.50764 C -3.5752221 294.35355 -3.5752279 294.10571 -3.729314 293.95162 L -3.965087 293.71585 C -4.1191731 293.56177 -4.3670129 293.56176 -4.5211048 293.71585 L -7.6075386 296.80228 C -8.0935031 296.31632 -7.9625148 295.40313 -7.3145599 294.75517 L 4.7499583 282.69066 L 4.431852 282.37308 L 6.3009274 280.50187 L 10.195191 276.60921 C 10.608497 276.1959 11.150716 275.9885 11.693231 275.9885 C 12.235751 275.9885 12.777964 276.19591 13.191272 276.60921 L 13.376789 276.79473 C 13.790097 277.20804 13.996962 277.7504 13.996963 278.29277 z M 13.435064 278.29277 C 13.435063 277.89682 13.282111 277.50093 12.976349 277.19517 L 12.790832 277.00965 C 12.485069 276.70388 12.089142 276.55094 11.693231 276.55094 C 11.297325 276.55094 10.901394 276.70388 10.595631 277.00965 L 6.7029711 280.90445 L 5.2343354 282.37308 L 7.6134503 284.7538 L 9.0820859 283.28517 L 12.976349 279.39037 C 13.282116 279.0846 13.435065 278.68871 13.435064 278.29277 z M -1.1668202 292.47229 A 1.2928218 1.2928218 0 0 0 -1.5458746 291.55861 A 1.2928218 1.2928218 0 0 0 -3.3737833 291.55861 A 1.2928218 1.2928218 0 0 0 -3.3737833 293.38651 A 1.2928218 1.2928218 0 0 0 -1.5458746 293.38651 A 1.2928218 1.2928218 0 0 0 -1.1668202 292.47229 z M -4.8247761 296.84612 A 0.36632744 0.36632744 0 0 0 -4.9317026 296.58736 A 0.36632744 0.36632744 0 0 0 -5.4497616 296.58736 A 0.36632744 0.36632744 0 0 0 -5.4497616 297.10542 A 0.36632744 0.36632744 0 0 0 -4.9317026 297.10542 A 0.36632744 0.36632744 0 0 0 -4.8247761 296.84612 z M -6.4933643 295.17753 A 0.36632744 0.36632744 0 0 0 -6.6008255 294.91824 A 0.36632744 0.36632744 0 0 0 -7.1188844 294.91824 A 0.36632744 0.36632744 0 0 0 -7.1188844 295.4363 A 0.36632744 0.36632744 0 0 0 -6.6008255 295.43683 A 0.36632744 0.36632744 0 0 0 -6.4933643 295.17753 z "
       transform="matrix(0,-0.96657848,-0.96657848,0,287.93173,289.363)" />
    <path
       id="path991-1-6-3"
       style="stroke-width:0.182607;stroke:none;opacity:0.33"
       d="m 0.75602012,294.12968 a 0.35408422,0.35408422 0 0 0 0,0.50074 0.35408422,0.35408422 0 0 0 0.50074748,10e-6 0.35408422,0.35408422 0 0 0 0,-0.50076 0.35408422,0.35408422 0 0 0 -0.50074748,1e-5 z" />
    <path
       id="path991-0-6"
       style="stroke-width:0.182607;stroke:none;opacity:0.33"
       d="m 2.3690604,295.74272 a 0.35408422,0.35408422 0 0 0 6.8e-6,0.50075 0.35408422,0.35408422 0 0 0 0.5007405,0 0.35408422,0.35408422 0 0 0 6.9e-6,-0.50075 0.35408422,0.35408422 0 0 0 -0.5007542,0 z" />
    <path
       id="path1289-7"
       style="stroke-width:1.04078;stroke-dasharray:2.08157, 1.04078;paint-order:markers fill stroke;stroke:none;opacity:0.8"
       d="m 6.1176574,292.62382 a 1.2496148,1.2496148 0 0 1 -1.7672197,0 1.2496148,1.2496148 0 0 1 0,-1.76722 1.2496148,1.2496148 0 0 1 1.7672197,0 1.2496148,1.2496148 0 0 1 0,1.76722 z" />
    <path
       id="path1289-3"
       style="stroke-width:0.587635;stroke-dasharray:1.17528, 0.587635;paint-order:markers fill stroke;opacity:0.33;stroke:none"
       transform="matrix(0.68347421,0.68347421,-0.68347421,0.68347421,287.93173,289.363)"
       d="m -204.34591,189.12714 a 0.70554334,0.70554334 0 0 1 -0.70554,0.70554 0.70554334,0.70554334 0 0 1 -0.70555,-0.70554 0.70554334,0.70554334 0 0 1 0.70555,-0.70555 0.70554334,0.70554334 0 0 1 0.70554,0.70555 z" />
  </g>
</svg>
