<?xml version="1.0" encoding="UTF-8" standalone="no"?>
<svg
   sodipodi:docname="hygrotemp_alarm.svg"
   inkscape:version="1.2.2 (b0a8486541, 2022-12-01)"
   id="svg8"
   version="1.1"
   viewBox="0 0 21.166666 21.166667"
   height="80"
   width="80"
   xmlns:inkscape="http://www.inkscape.org/namespaces/inkscape"
   xmlns:sodipodi="http://sodipodi.sourceforge.net/DTD/sodipodi-0.dtd"
   xmlns="http://www.w3.org/2000/svg"
   xmlns:svg="http://www.w3.org/2000/svg"
   xmlns:rdf="http://www.w3.org/1999/02/22-rdf-syntax-ns#"
   xmlns:cc="http://creativecommons.org/ns#"
   xmlns:dc="http://purl.org/dc/elements/1.1/">
  <defs
     id="defs2" />
  <sodipodi:namedview
     inkscape:object-nodes="false"
     inkscape:document-rotation="0"
     inkscape:snap-bbox-midpoints="false"
     inkscape:snap-others="true"
     inkscape:snap-page="false"
     inkscape:snap-grids="true"
     inkscape:snap-center="true"
     inkscape:snap-midpoints="false"
     inkscape:snap-smooth-nodes="true"
     inkscape:snap-bbox-edge-midpoints="false"
     inkscape:bbox-nodes="true"
     inkscape:snap-intersection-paths="false"
     inkscape:object-paths="false"
     inkscape:snap-bbox="true"
     inkscape:snap-object-midpoints="true"
     inkscape:window-maximized="0"
     inkscape:window-y="38"
     inkscape:window-x="1017"
     inkscape:window-height="1249"
     inkscape:window-width="2267"
     borderlayer="true"
     units="px"
     showgrid="true"
     inkscape:current-layer="layer1"
     inkscape:document-units="mm"
     inkscape:cy="53.238587"
     inkscape:cx="36.246315"
     inkscape:zoom="8.6215661"
     inkscape:pageshadow="2"
     inkscape:pageopacity="0.0"
     borderopacity="1"
     bordercolor="#ff0101"
     pagecolor="#ffffff"
     id="base"
     inkscape:snap-global="false"
     inkscape:showpageshadow="2"
     inkscape:pagecheckerboard="0"
     inkscape:deskcolor="#d1d1d1">
    <inkscape:grid
       id="grid4518"
       type="xygrid" />
  </sodipodi:namedview>
  <metadata
     id="metadata5">
    <rdf:RDF>
      <cc:Work
         rdf:about="">
        <dc:format>image/svg+xml</dc:format>
        <dc:type
           rdf:resource="http://purl.org/dc/dcmitype/StillImage" />
        <dc:title />
        <cc:license
           rdf:resource="http://creativecommons.org/licenses/by-sa/4.0/" />
      </cc:Work>
      <cc:License
         rdf:about="http://creativecommons.org/licenses/by-sa/4.0/">
        <cc:permits
           rdf:resource="http://creativecommons.org/ns#Reproduction" />
        <cc:permits
           rdf:resource="http://creativecommons.org/ns#Distribution" />
        <cc:requires
           rdf:resource="http://creativecommons.org/ns#Notice" />
        <cc:requires
           rdf:resource="http://creativecommons.org/ns#Attribution" />
        <cc:permits
           rdf:resource="http://creativecommons.org/ns#DerivativeWorks" />
        <cc:requires
           rdf:resource="http://creativecommons.org/ns#ShareAlike" />
      </cc:License>
    </rdf:RDF>
  </metadata>
  <g
     style="display:inline;opacity:1"
     transform="translate(0,-275.83332)"
     id="layer1"
     inkscape:groupmode="layer"
     inkscape:label="body">
    <path
       id="rect29-3-3"
       style="display:inline;opacity:0.25;fill-opacity:1;fill-rule:nonzero;stroke:none;stroke-width:0.807331;stroke-miterlimit:4;stroke-dasharray:none;stroke-dashoffset:15;stroke-opacity:1;paint-order:stroke fill markers"
       d="M 0.79375 280.06665 C 7.9375e-07 280.06665 1.5666465e-16 280.06665 0 280.8604 L 0 291.9729 C 0 292.76665 7.9375e-07 292.76665 0.79375 292.76665 L 20.372917 292.76665 C 21.166666 292.76665 21.166667 292.76665 21.166667 291.9729 L 21.166667 280.8604 C 21.166667 280.06665 21.166666 280.06665 20.372917 280.06665 L 0.79375 280.06665 z M 0.79375 280.33124 L 20.372917 280.33124 C 20.902083 280.33124 20.902083 280.33123 20.902083 280.8604 L 20.902083 291.9729 C 20.902083 292.50207 20.902095 292.50207 20.372917 292.50207 L 0.79375 292.50207 C 0.26458387 292.50207 0.26458333 292.50207 0.26458333 291.9729 L 0.26458333 280.8604 C 0.26458333 280.33124 0.26458387 280.33124 0.79375 280.33124 z " />
    <path
       d="m 0.7937493,280.33124 c -0.5291667,0 -0.5291667,0 -0.5291667,0.52916 v 11.1125 c 0,0.52917 0,0.52917 0.5291667,0.52917 H 20.372916 c 0.529179,0 0.529167,0 0.529167,-0.52917 v -11.1125 c 0,-0.52917 0,-0.52916 -0.529167,-0.52916 z m 1.5875,1.85208 H 18.785416 c 0.264583,0 0.264583,0.26458 0.264583,0.26458 v 7.9375 c 0,0 0,0.26459 -0.264583,0.26459 H 2.3812493 c -0.2645833,0 -0.2645834,-0.26459 -0.2645834,-0.26459 v -7.9375 c 10e-8,0 10e-8,-0.26458 0.2645834,-0.26458 z"
       style="display:inline;fill-opacity:1;fill-rule:nonzero;stroke:none;stroke-width:0.771268;stroke-miterlimit:4;stroke-dasharray:none;stroke-dashoffset:15;stroke-opacity:1;paint-order:stroke fill markers;opacity:0.5"
       id="rect29-3-36"
       sodipodi:nodetypes="sssssssssssccssccs" />
  </g>
  <g
     inkscape:groupmode="layer"
     id="layer2"
     inkscape:label="content"
     style="display:inline">
    <g
       id="g864"
       transform="matrix(0.07411467,0,0,0.07411467,15.639103,12.39364)"
       style="display:inline;opacity:1;stroke:none">
      <path
         d="M 15,1 H 9 v 2 h 6 z m -4,13 h 2 V 8 h -2 z"
         id="path4"
         inkscape:connector-curvature="0"
         sodipodi:nodetypes="cccccccccc"
         style="stroke:none" />
      <path
         inkscape:connector-curvature="0"
         d="m 19.03,7.3900002 1.42,-1.42 c -0.43,-0.51 -0.9,-0.99 -1.41,-1.41 l -1.42,1.42 c -1.55,-1.24 -3.5,-1.98 -5.62,-1.98 -4.97,0 -8.9999996,4.03 -8.9999996,8.9999998 0,4.97 4.0199996,9 8.9999996,9 4.98,0 9,-4.03 9,-9 0,-2.12 -0.74,-4.0699998 -1.97,-5.6099998 z M 12,20 C 8.13,20 5,16.87 5,13 5,9.1300002 8.13,6.0000002 12,6.0000002 c 3.87,0 7,3.13 7,6.9999998 0,3.87 -3.13,7 -7,7 z"
         id="path4-3"
         sodipodi:nodetypes="ccccsssscsssss"
         style="opacity:0.66;stroke:none" />
    </g>
    <g
       id="g882"
       transform="matrix(0.82349573,0,0,0.82349573,1.5693258,-224.78936)"
       style="display:inline;opacity:0.8;stroke:none">
      <path
         inkscape:connector-curvature="0"
         id="path926"
         style="font-style:normal;font-variant:normal;font-weight:600;font-stretch:normal;font-size:1.76389px;line-height:1.25;font-family:'URW Gothic';-inkscape-font-specification:'URW Gothic Semi-Bold';letter-spacing:0px;word-spacing:0px;fill-opacity:1;stroke:none;stroke-width:0.264583"
         d="m 7.2691793,289.223 0.2081389,0.0564 c 0.058208,-0.0723 0.1075972,-0.0988 0.1816806,-0.0988 0.1217083,0 0.2116666,0.10054 0.2116666,0.23283 0,0.14111 -0.088194,0.23989 -0.2151944,0.23989 -0.1128889,0 -0.1869722,-0.0706 -0.2116667,-0.19756 H 7.2092071 c 0.012347,0.2346 0.2099028,0.41275 0.4533194,0.41275 0.254,0 0.4427361,-0.19579 0.4427361,-0.45861 0,-0.25576 -0.174625,-0.4445 -0.4127499,-0.4445 -0.059972,0 -0.098778,0.009 -0.1675695,0.037 l 0.042333,-0.23989 h 0.41275 v -0.22037 H 7.3908877 Z" />
      <path
         inkscape:connector-curvature="0"
         id="path928"
         style="font-style:normal;font-variant:normal;font-weight:600;font-stretch:normal;font-size:1.76389px;line-height:1.25;font-family:'URW Gothic';-inkscape-font-specification:'URW Gothic Semi-Bold';letter-spacing:0px;word-spacing:0px;fill-opacity:1;stroke:none;stroke-width:0.264583"
         d="m 9.1028244,288.95489 c 0,-0.26459 -0.1710972,-0.43568 -0.4356805,-0.43568 -0.2681111,0 -0.4374444,0.17286 -0.4374444,0.44626 v 0.4445 c 0,0.12524 0.024694,0.21343 0.082903,0.29281 0.081139,0.10759 0.206375,0.1658 0.365125,0.1658 0.1499306,0 0.2663472,-0.0547 0.3421945,-0.15875 0.058208,-0.0829 0.082903,-0.16933 0.082903,-0.29986 z m -0.6385277,0.0106 c 0,-0.14287 0.077611,-0.23107 0.2046111,-0.23107 0.127,0 0.1993194,0.0829 0.1993194,0.23107 v 0.44274 c 0,0.16404 -0.065264,0.24518 -0.1975555,0.24518 -0.1340556,0 -0.206375,-0.0882 -0.206375,-0.25047 z" />
      <path
         inkscape:connector-curvature="0"
         id="path930"
         style="font-style:normal;font-variant:normal;font-weight:600;font-stretch:normal;font-size:1.76389px;line-height:1.25;font-family:'URW Gothic';-inkscape-font-specification:'URW Gothic Semi-Bold';letter-spacing:0px;word-spacing:0px;fill-opacity:1;stroke:none;stroke-width:0.264583"
         d="m 10.096858,288.54214 -0.537986,1.30351 h 0.1799167 l 0.5397503,-1.30351 z m 0.224014,0.68968 c -0.179916,0 -0.3210273,0.13935 -0.3210273,0.3175 0,0.17639 0.1428753,0.31926 0.3192633,0.31926 0.176389,0 0.319264,-0.14287 0.319264,-0.31926 0,-0.17286 -0.144639,-0.3175 -0.3175,-0.3175 z m -0.0018,0.18697 c 0.07056,0 0.130528,0.06 0.130528,0.13053 0,0.0723 -0.05821,0.13053 -0.130528,0.13053 -0.07055,0 -0.128763,-0.0582 -0.128763,-0.13053 0,-0.0723 0.05644,-0.13053 0.128763,-0.13053 z m -0.795513,-0.89958 c -0.179917,0 -0.321028,0.13934 -0.321028,0.31926 0,0.17463 0.142875,0.3175 0.319264,0.3175 0.1763887,0 0.3192637,-0.14287 0.3192637,-0.31926 0,-0.17286 -0.144639,-0.3175 -0.3174997,-0.3175 z m -0.0018,0.18697 c 0.07232,0 0.130527,0.06 0.130527,0.13053 0,0.0723 -0.05821,0.13052 -0.130527,0.13052 -0.07056,0 -0.128764,-0.0582 -0.128764,-0.13052 0,-0.0723 0.05644,-0.13053 0.128764,-0.13053 z" />
      <path
         inkscape:connector-curvature="0"
         id="path932"
         style="font-style:normal;font-variant:normal;font-weight:600;font-stretch:normal;font-size:1.76389px;line-height:1.25;font-family:'URW Gothic';-inkscape-font-specification:'URW Gothic Semi-Bold';letter-spacing:0px;word-spacing:0px;fill-opacity:1;stroke:none;stroke-width:0.264583"
         d="m 11.735456,289.84565 h 0.843139 v -0.22048 h -0.513292 l 0.266347,-0.24166 c 0.1905,-0.17109 0.252237,-0.28046 0.252237,-0.44097 0,-0.24165 -0.181681,-0.42333 -0.425098,-0.42333 -0.151694,0 -0.289277,0.0723 -0.363361,0.1905 -0.04939,0.0776 -0.06879,0.15698 -0.06879,0.28222 h 0.231069 c 0,-0.15522 0.08114,-0.25753 0.202847,-0.25753 0.107597,0 0.188736,0.0882 0.188736,0.20461 0,0.0847 -0.04233,0.16052 -0.14993,0.26106 l -0.463903,0.43921 z" />
      <path
         inkscape:connector-curvature="0"
         id="path934"
         style="font-style:normal;font-variant:normal;font-weight:600;font-stretch:normal;font-size:1.76389px;line-height:1.25;font-family:'URW Gothic';-inkscape-font-specification:'URW Gothic Semi-Bold';letter-spacing:0px;word-spacing:0px;fill-opacity:1;stroke:none;stroke-width:0.264583"
         d="m 13.039934,289.21771 h 0.03881 c 0.156986,0 0.255764,0.0864 0.255764,0.21872 0,0.12524 -0.08643,0.21696 -0.204611,0.21696 -0.114653,0 -0.195792,-0.0794 -0.211667,-0.20285 h -0.236361 c 0.01411,0.24518 0.199319,0.41804 0.449792,0.41804 0.252236,0 0.437444,-0.18521 0.437444,-0.43744 0,-0.16404 -0.06703,-0.27517 -0.202847,-0.33691 0.07585,-0.0547 0.109361,-0.12347 0.109361,-0.22401 0,-0.20108 -0.149931,-0.35101 -0.351014,-0.35101 -0.102305,0 -0.195792,0.0406 -0.261055,0.11112 -0.05468,0.06 -0.07585,0.11642 -0.08467,0.22225 h 0.238125 c 0.01058,-0.0829 0.0441,-0.11818 0.109361,-0.11818 0.06703,0 0.114653,0.0512 0.114653,0.12347 0,0.0564 -0.02646,0.097 -0.07585,0.11642 -0.02999,0.0123 -0.06174,0.0159 -0.125237,0.0176 z" />
      <path
         inkscape:connector-curvature="0"
         id="path936"
         style="font-style:normal;font-variant:normal;font-weight:600;font-stretch:normal;font-size:1.76389px;line-height:1.25;font-family:'URW Gothic';-inkscape-font-specification:'URW Gothic Semi-Bold';letter-spacing:0px;word-spacing:0px;fill-opacity:1;stroke:none;stroke-width:0.264583"
         d="m 13.771149,289.84565 h 0.234597 v -0.22578 h -0.234597 z" />
      <path
         inkscape:connector-curvature="0"
         id="path938"
         style="font-style:normal;font-variant:normal;font-weight:600;font-stretch:normal;font-size:1.76389px;line-height:1.25;font-family:'URW Gothic';-inkscape-font-specification:'URW Gothic Semi-Bold';letter-spacing:0px;word-spacing:0px;fill-opacity:1;stroke:none;stroke-width:0.264583"
         d="m 14.217937,289.223 0.208138,0.0564 c 0.05821,-0.0723 0.107598,-0.0988 0.181681,-0.0988 0.121708,0 0.211667,0.10054 0.211667,0.23283 0,0.14111 -0.08819,0.23989 -0.215195,0.23989 -0.112889,0 -0.186972,-0.0706 -0.211667,-0.19756 h -0.234597 c 0.01235,0.2346 0.209903,0.41275 0.45332,0.41275 0.254,0 0.442736,-0.19579 0.442736,-0.45861 0,-0.25576 -0.174625,-0.4445 -0.41275,-0.4445 -0.05997,0 -0.09878,0.009 -0.16757,0.037 l 0.04233,-0.23989 h 0.41275 v -0.22048 h -0.589139 z" />
    </g>
    <g
       id="text4547-7-6"
       style="font-style:normal;font-weight:normal;font-size:11.5775px;line-height:1.25;font-family:sans-serif;letter-spacing:0px;word-spacing:0px;display:inline;opacity:0.8;fill-opacity:1;stroke:none;stroke-width:0.264583"
       transform="matrix(0.93256343,0,0,0.94797922,0.38369134,-258.73044)"
       aria-label="12:30">
      <path
         inkscape:connector-curvature="0"
         id="path915"
         style="font-style:normal;font-variant:normal;font-weight:600;font-stretch:normal;font-size:6.17466px;font-family:'URW Gothic';-inkscape-font-specification:'URW Gothic Semi-Bold';fill-opacity:1;stroke:none;stroke-width:0.264583;stroke-opacity:1"
         d="m 4.3089004,285.31015 h 0.8212304 v -4.56308 H 3.7346566 v 0.77184 h 0.5742438 z" />
      <path
         inkscape:connector-curvature="0"
         id="path917"
         style="font-style:normal;font-variant:normal;font-weight:600;font-stretch:normal;font-size:6.17466px;font-family:'URW Gothic';-inkscape-font-specification:'URW Gothic Semi-Bold';fill-opacity:1;stroke:none;stroke-width:0.264583;stroke-opacity:1"
         d="m 6.4919337,285.31015 h 2.9514896 v -0.77183 H 7.6465959 l 0.9323744,-0.84593 c 0.6668637,-0.59894 0.882977,-0.98177 0.882977,-1.54367 0,-0.84593 -0.6359904,-1.48192 -1.4880941,-1.48192 -0.5310212,0 -1.012645,0.25316 -1.2719809,0.66687 -0.1728906,0.27168 -0.2408119,0.54954 -0.2408119,0.98794 h 0.808881 c 0,-0.54337 0.2840346,-0.9015 0.7100864,-0.9015 0.3766546,0 0.6606891,0.30873 0.6606891,0.71626 0,0.29639 -0.1481919,0.5619 -0.5248465,0.91385 l -1.6239367,1.53749 z" />
      <path
         inkscape:connector-curvature="0"
         id="path919"
         style="font-style:normal;font-variant:normal;font-weight:600;font-stretch:normal;font-size:6.17466px;font-family:'URW Gothic';-inkscape-font-specification:'URW Gothic Semi-Bold';fill-opacity:1;stroke:none;stroke-width:0.264583;stroke-opacity:1"
         d="m 10.156886,285.31015 h 0.821231 v -0.79036 h -0.821231 z m 0,-2.27845 h 0.821231 v -0.82123 h -0.821231 z" />
      <path
         inkscape:connector-curvature="0"
         id="path921"
         style="font-style:normal;font-variant:normal;font-weight:600;font-stretch:normal;font-size:6.17466px;font-family:'URW Gothic';-inkscape-font-specification:'URW Gothic Semi-Bold';fill-opacity:1;stroke:none;stroke-width:0.264583;stroke-opacity:1"
         d="m 12.782952,283.11197 h 0.135843 c 0.549545,0 0.895326,0.30256 0.895326,0.76566 0,0.4384 -0.302559,0.75948 -0.716261,0.75948 -0.401353,0 -0.685388,-0.27786 -0.74096,-0.71008 h -0.827405 c 0.0494,0.85827 0.697737,1.46339 1.57454,1.46339 0.882977,0 1.531316,-0.64834 1.531316,-1.53132 0,-0.57424 -0.234637,-0.96324 -0.710086,-1.17936 0.26551,-0.19141 0.382829,-0.43222 0.382829,-0.78418 0,-0.70391 -0.524846,-1.22876 -1.228758,-1.22876 -0.358131,0 -0.685388,0.14202 -0.91385,0.38901 -0.191415,0.20993 -0.265511,0.40752 -0.296384,0.778 h 0.833579 c 0.03705,-0.29021 0.154367,-0.4137 0.38283,-0.4137 0.234637,0 0.401353,0.17907 0.401353,0.43223 0,0.19759 -0.09262,0.3396 -0.265511,0.40753 -0.104969,0.0432 -0.216113,0.0556 -0.438401,0.0617 z" />
      <path
         inkscape:connector-curvature="0"
         id="path923"
         style="font-style:normal;font-variant:normal;font-weight:600;font-stretch:normal;font-size:6.17466px;font-family:'URW Gothic';-inkscape-font-specification:'URW Gothic Semi-Bold';fill-opacity:1;stroke:none;stroke-width:0.264583;stroke-opacity:1"
         d="m 18.139763,282.19194 c 0,-0.9262 -0.598942,-1.52514 -1.525142,-1.52514 -0.938549,0 -1.531317,0.60512 -1.531317,1.56219 v 1.55602 c 0,0.4384 0.08645,0.74713 0.29021,1.02499 0.284034,0.37666 0.722435,0.58042 1.278155,0.58042 0.524847,0 0.932374,-0.19141 1.197885,-0.55572 0.203764,-0.29021 0.290209,-0.59277 0.290209,-1.04969 z m -2.235228,0.0371 c 0,-0.50015 0.271685,-0.80888 0.716261,-0.80888 0.444576,0 0.697737,0.29021 0.697737,0.80888 v 1.54984 c 0,0.57425 -0.228463,0.85828 -0.691563,0.85828 -0.469274,0 -0.722435,-0.30873 -0.722435,-0.8768 z" />
    </g>
    <path
       inkscape:connector-curvature="0"
       id="path940"
       style="font-style:normal;font-variant:normal;font-weight:600;font-stretch:normal;font-size:1.76389px;line-height:1.25;font-family:'URW Gothic';-inkscape-font-specification:'URW Gothic Semi-Bold';letter-spacing:0px;word-spacing:0px;display:inline;opacity:0.66;fill-opacity:1;stroke:none;stroke-width:0.264583"
       d="m 4.2927837,288.7688 v 0.23459 h 0.22578 v -0.23459 z m 0.65087,0 v 0.23459 h 0.2346 v -0.23459 z"
       transform="translate(0,-275.83331)" />
    <path
       inkscape:connector-curvature="0"
       id="path942"
       style="font-style:normal;font-variant:normal;font-weight:600;font-stretch:normal;font-size:1.76389px;line-height:1.25;font-family:'URW Gothic';-inkscape-font-specification:'URW Gothic Semi-Bold';letter-spacing:0px;word-spacing:0px;display:inline;opacity:0.66;fill-opacity:1;stroke:none;stroke-width:0.264583"
       d="m 5.27932,289.34912 c -0.0935,0.14463 -0.30868,0.24694 -0.51506,0.24694 -0.21343,0 -0.39687,-0.0864 -0.52034,-0.24694 h -0.254 c 0.0388,0.0935 0.0723,0.1464 0.13229,0.21343 0.15169,0.16933 0.39334,0.27163 0.64205,0.27163 0.22049,0 0.43568,-0.0829 0.5962,-0.22577 0.0917,-0.0847 0.13758,-0.1517 0.17462,-0.25929 z"
       transform="translate(0,-275.83331)" />
  </g>
</svg>
