<?xml version="1.0" encoding="UTF-8" standalone="no"?>
<svg
   width="80"
   height="80"
   viewBox="0 0 21.166666 21.166667"
   version="1.1"
   id="svg8"
   inkscape:version="1.2.2 (b0a8486541, 2022-12-01)"
   sodipodi:docname="hygrotemp_cgd1.svg"
   xml:space="preserve"
   xmlns:inkscape="http://www.inkscape.org/namespaces/inkscape"
   xmlns:sodipodi="http://sodipodi.sourceforge.net/DTD/sodipodi-0.dtd"
   xmlns="http://www.w3.org/2000/svg"
   xmlns:svg="http://www.w3.org/2000/svg"
   xmlns:rdf="http://www.w3.org/1999/02/22-rdf-syntax-ns#"
   xmlns:cc="http://creativecommons.org/ns#"
   xmlns:dc="http://purl.org/dc/elements/1.1/"><defs
     id="defs2"><inkscape:perspective
       sodipodi:type="inkscape:persp3d"
       inkscape:vp_x="0 : 10.583334 : 1"
       inkscape:vp_y="0 : 1000 : 0"
       inkscape:vp_z="21.166666 : 10.583334 : 1"
       inkscape:persp3d-origin="10.583333 : 7.0555557 : 1"
       id="perspective848" /></defs><sodipodi:namedview
     id="base"
     pagecolor="#ffffff"
     bordercolor="#ff0101"
     borderopacity="1"
     inkscape:pageopacity="0.0"
     inkscape:pageshadow="2"
     inkscape:zoom="8.411671"
     inkscape:cx="30.731112"
     inkscape:cy="49.573979"
     inkscape:document-units="mm"
     inkscape:current-layer="layer2"
     showgrid="true"
     units="px"
     borderlayer="true"
     inkscape:window-width="2188"
     inkscape:window-height="1355"
     inkscape:window-x="1252"
     inkscape:window-y="0"
     inkscape:window-maximized="0"
     inkscape:snap-object-midpoints="false"
     inkscape:snap-bbox="false"
     inkscape:object-paths="true"
     inkscape:snap-intersection-paths="true"
     inkscape:bbox-nodes="true"
     inkscape:snap-bbox-edge-midpoints="false"
     inkscape:snap-smooth-nodes="true"
     inkscape:snap-midpoints="false"
     inkscape:snap-center="true"
     inkscape:snap-grids="true"
     inkscape:document-rotation="0"
     inkscape:snap-nodes="true"
     inkscape:snap-others="true"
     inkscape:snap-global="true"
     inkscape:pagecheckerboard="0"
     inkscape:object-nodes="true"
     showguides="true"
     inkscape:guide-bbox="true"
     inkscape:showpageshadow="2"
     inkscape:deskcolor="#d1d1d1"><inkscape:grid
       type="xygrid"
       id="grid4518" /><sodipodi:guide
       position="8.4666664,15.08125"
       orientation="0,-1"
       id="guide696"
       inkscape:locked="false" /></sodipodi:namedview><metadata
     id="metadata5"><rdf:RDF><cc:Work
         rdf:about=""><dc:format>image/svg+xml</dc:format><dc:type
           rdf:resource="http://purl.org/dc/dcmitype/StillImage" /><cc:license
           rdf:resource="http://creativecommons.org/licenses/by-sa/4.0/" /></cc:Work><cc:License
         rdf:about="http://creativecommons.org/licenses/by-sa/4.0/"><cc:permits
           rdf:resource="http://creativecommons.org/ns#Reproduction" /><cc:permits
           rdf:resource="http://creativecommons.org/ns#Distribution" /><cc:requires
           rdf:resource="http://creativecommons.org/ns#Notice" /><cc:requires
           rdf:resource="http://creativecommons.org/ns#Attribution" /><cc:permits
           rdf:resource="http://creativecommons.org/ns#DerivativeWorks" /><cc:requires
           rdf:resource="http://creativecommons.org/ns#ShareAlike" /></cc:License></rdf:RDF></metadata><g
     inkscape:label="indicators"
     inkscape:groupmode="layer"
     id="layer1"
     transform="translate(0,-275.83332)"
     style="display:inline;opacity:1"><path
       style="color:#000000;-inkscape-stroke:none;stroke:none;opacity:0.5"
       d="m 3.96875,290.28516 v 0.20117 h 13.228516 v -0.20117 z"
       id="path1091-3" /><path
       style="color:#000000;-inkscape-stroke:none;stroke:none;opacity:0.6"
       d="m 3.96875,282.34766 v 0.20117 h 13.228516 v -0.20117 z"
       id="path1091" /><g
       id="text4547-7-6"
       style="font-style:normal;font-weight:normal;font-size:11.5775px;line-height:1.25;font-family:sans-serif;letter-spacing:0px;word-spacing:0px;display:inline;fill-opacity:1;stroke:none;stroke-width:0.264583;opacity:0.8"
       transform="matrix(0.71844963,0,0,0.730326,2.8424941,79.576537)"
       aria-label="12:30"
       inkscape:label="middle"><path
         inkscape:connector-curvature="0"
         id="path915"
         style="font-style:normal;font-variant:normal;font-weight:600;font-stretch:normal;font-size:6.17466px;font-family:'URW Gothic';-inkscape-font-specification:'URW Gothic Semi-Bold';fill-opacity:1;stroke:none;stroke-width:0.264583;stroke-opacity:1"
         d="m 4.3089004,285.31015 h 0.8212304 v -4.56308 H 3.7346566 v 0.77184 h 0.5742438 z" /><path
         inkscape:connector-curvature="0"
         id="path917"
         style="font-style:normal;font-variant:normal;font-weight:600;font-stretch:normal;font-size:6.17466px;font-family:'URW Gothic';-inkscape-font-specification:'URW Gothic Semi-Bold';fill-opacity:1;stroke:none;stroke-width:0.264583;stroke-opacity:1"
         d="m 6.4919337,285.31015 h 2.9514896 v -0.77183 H 7.6465959 l 0.9323744,-0.84593 c 0.6668637,-0.59894 0.882977,-0.98177 0.882977,-1.54367 0,-0.84593 -0.6359904,-1.48192 -1.4880941,-1.48192 -0.5310212,0 -1.012645,0.25316 -1.2719809,0.66687 -0.1728906,0.27168 -0.2408119,0.54954 -0.2408119,0.98794 h 0.808881 c 0,-0.54337 0.2840346,-0.9015 0.7100864,-0.9015 0.3766546,0 0.6606891,0.30873 0.6606891,0.71626 0,0.29639 -0.1481919,0.5619 -0.5248465,0.91385 l -1.6239367,1.53749 z" /><path
         inkscape:connector-curvature="0"
         id="path919"
         style="font-style:normal;font-variant:normal;font-weight:600;font-stretch:normal;font-size:6.17466px;font-family:'URW Gothic';-inkscape-font-specification:'URW Gothic Semi-Bold';fill-opacity:1;stroke:none;stroke-width:0.264583;stroke-opacity:1"
         d="m 10.156886,285.31015 h 0.821231 v -0.79036 h -0.821231 z m 0,-2.27845 h 0.821231 v -0.82123 h -0.821231 z" /><path
         inkscape:connector-curvature="0"
         id="path921"
         style="font-style:normal;font-variant:normal;font-weight:600;font-stretch:normal;font-size:6.17466px;font-family:'URW Gothic';-inkscape-font-specification:'URW Gothic Semi-Bold';fill-opacity:1;stroke:none;stroke-width:0.264583;stroke-opacity:1"
         d="m 12.782952,283.11197 h 0.135843 c 0.549545,0 0.895326,0.30256 0.895326,0.76566 0,0.4384 -0.302559,0.75948 -0.716261,0.75948 -0.401353,0 -0.685388,-0.27786 -0.74096,-0.71008 h -0.827405 c 0.0494,0.85827 0.697737,1.46339 1.57454,1.46339 0.882977,0 1.531316,-0.64834 1.531316,-1.53132 0,-0.57424 -0.234637,-0.96324 -0.710086,-1.17936 0.26551,-0.19141 0.382829,-0.43222 0.382829,-0.78418 0,-0.70391 -0.524846,-1.22876 -1.228758,-1.22876 -0.358131,0 -0.685388,0.14202 -0.91385,0.38901 -0.191415,0.20993 -0.265511,0.40752 -0.296384,0.778 h 0.833579 c 0.03705,-0.29021 0.154367,-0.4137 0.38283,-0.4137 0.234637,0 0.401353,0.17907 0.401353,0.43223 0,0.19759 -0.09262,0.3396 -0.265511,0.40753 -0.104969,0.0432 -0.216113,0.0556 -0.438401,0.0617 z" /><path
         inkscape:connector-curvature="0"
         id="path923"
         style="font-style:normal;font-variant:normal;font-weight:600;font-stretch:normal;font-size:6.17466px;font-family:'URW Gothic';-inkscape-font-specification:'URW Gothic Semi-Bold';fill-opacity:1;stroke:none;stroke-width:0.264583;stroke-opacity:1"
         d="m 18.139763,282.19194 c 0,-0.9262 -0.598942,-1.52514 -1.525142,-1.52514 -0.938549,0 -1.531317,0.60512 -1.531317,1.56219 v 1.55602 c 0,0.4384 0.08645,0.74713 0.29021,1.02499 0.284034,0.37666 0.722435,0.58042 1.278155,0.58042 0.524847,0 0.932374,-0.19141 1.197885,-0.55572 0.203764,-0.29021 0.290209,-0.59277 0.290209,-1.04969 z m -2.235228,0.0371 c 0,-0.50015 0.271685,-0.80888 0.716261,-0.80888 0.444576,0 0.697737,0.29021 0.697737,0.80888 v 1.54984 c 0,0.57425 -0.228463,0.85828 -0.691563,0.85828 -0.469274,0 -0.722435,-0.30873 -0.722435,-0.8768 z" /></g><g
       transform="translate(-2.5191374,2.68755)"
       id="text4557-3-5"
       style="font-style:normal;font-weight:normal;font-size:10.5833px;line-height:1.25;font-family:sans-serif;letter-spacing:0px;word-spacing:0px;display:inline;fill-opacity:1;stroke:none;stroke-width:0.264583"
       aria-label="50%  23.5  :)"
       inkscape:label="down"><path
         inkscape:connector-curvature="0"
         id="path926"
         style="font-style:normal;font-variant:normal;font-weight:600;font-stretch:normal;font-size:1.76389px;font-family:'URW Gothic';-inkscape-font-specification:'URW Gothic Semi-Bold';fill-opacity:1;stroke-width:0.264583;stroke:none;opacity:0.8"
         d="m 8.1070273,289.25656 0.2081389,0.0564 c 0.058208,-0.0723 0.1075972,-0.0988 0.1816806,-0.0988 0.1217083,0 0.2116666,0.10054 0.2116666,0.23283 0,0.14111 -0.088194,0.23989 -0.2151944,0.23989 -0.1128889,0 -0.1869722,-0.0706 -0.2116667,-0.19756 H 8.0470551 c 0.012347,0.2346 0.2099028,0.41275 0.4533194,0.41275 0.254,0 0.4427361,-0.19579 0.4427361,-0.45861 0,-0.25576 -0.174625,-0.4445 -0.4127499,-0.4445 -0.059972,0 -0.098778,0.009 -0.1675695,0.037 l 0.042333,-0.23989 h 0.41275 V 288.5757 H 8.2287357 Z" /><path
         inkscape:connector-curvature="0"
         id="path928"
         style="font-style:normal;font-variant:normal;font-weight:600;font-stretch:normal;font-size:1.76389px;font-family:'URW Gothic';-inkscape-font-specification:'URW Gothic Semi-Bold';fill-opacity:1;stroke-width:0.264583;stroke:none;opacity:0.8"
         d="m 9.9406724,288.98845 c 0,-0.26459 -0.1710972,-0.43568 -0.4356805,-0.43568 -0.2681111,0 -0.4374444,0.17286 -0.4374444,0.44626 v 0.4445 c 0,0.12524 0.024694,0.21343 0.082903,0.29281 0.081139,0.10759 0.206375,0.1658 0.365125,0.1658 0.1499306,0 0.2663472,-0.0547 0.3421945,-0.15875 0.058208,-0.0829 0.082903,-0.16933 0.082903,-0.29986 z m -0.6385277,0.0106 c 0,-0.14287 0.077611,-0.23107 0.2046111,-0.23107 0.127,0 0.1993194,0.0829 0.1993194,0.23107 v 0.44274 c 0,0.16404 -0.065264,0.24518 -0.1975555,0.24518 -0.1340556,0 -0.206375,-0.0882 -0.206375,-0.25047 z" /><path
         inkscape:connector-curvature="0"
         id="path930"
         style="font-style:normal;font-variant:normal;font-weight:600;font-stretch:normal;font-size:1.76389px;font-family:'URW Gothic';-inkscape-font-specification:'URW Gothic Semi-Bold';fill-opacity:1;stroke-width:0.264583;stroke:none;opacity:0.66"
         d="m 10.934706,288.5757 -0.537986,1.30351 h 0.179917 l 0.53975,-1.30351 z m 0.224014,0.68968 c -0.179916,0 -0.321027,0.13935 -0.321027,0.3175 0,0.17639 0.142875,0.31926 0.319263,0.31926 0.176389,0 0.319264,-0.14287 0.319264,-0.31926 0,-0.17286 -0.144639,-0.3175 -0.3175,-0.3175 z m -0.0018,0.18697 c 0.07056,0 0.130528,0.06 0.130528,0.13053 0,0.0723 -0.05821,0.13053 -0.130528,0.13053 -0.07055,0 -0.128763,-0.0582 -0.128763,-0.13053 0,-0.0723 0.05644,-0.13053 0.128763,-0.13053 z m -0.795513,-0.89958 c -0.179917,0 -0.321028,0.13934 -0.321028,0.31926 0,0.17463 0.142875,0.3175 0.319264,0.3175 0.176389,0 0.319264,-0.14287 0.319264,-0.31926 0,-0.17286 -0.144639,-0.3175 -0.3175,-0.3175 z m -0.0018,0.18697 c 0.07232,0 0.130527,0.06 0.130527,0.13053 0,0.0723 -0.05821,0.13052 -0.130527,0.13052 -0.07056,0 -0.128764,-0.0582 -0.128764,-0.13052 0,-0.0723 0.05644,-0.13053 0.128764,-0.13053 z" /><path
         inkscape:connector-curvature="0"
         id="path932"
         style="font-style:normal;font-variant:normal;font-weight:600;font-stretch:normal;font-size:1.76389px;font-family:'URW Gothic';-inkscape-font-specification:'URW Gothic Semi-Bold';fill-opacity:1;stroke-width:0.264583;stroke:none;opacity:0.8"
         d="m 12.573304,289.87921 h 0.843139 v -0.22048 h -0.513292 l 0.266347,-0.24166 c 0.1905,-0.17109 0.252237,-0.28046 0.252237,-0.44097 0,-0.24165 -0.181681,-0.42333 -0.425098,-0.42333 -0.151694,0 -0.289277,0.0723 -0.363361,0.1905 -0.04939,0.0776 -0.06879,0.15698 -0.06879,0.28222 h 0.231069 c 0,-0.15522 0.08114,-0.25753 0.202847,-0.25753 0.107597,0 0.188736,0.0882 0.188736,0.20461 0,0.0847 -0.04233,0.16052 -0.14993,0.26106 l -0.463903,0.43921 z" /><path
         inkscape:connector-curvature="0"
         id="path934"
         style="font-style:normal;font-variant:normal;font-weight:600;font-stretch:normal;font-size:1.76389px;font-family:'URW Gothic';-inkscape-font-specification:'URW Gothic Semi-Bold';fill-opacity:1;stroke-width:0.264583;stroke:none;opacity:0.8"
         d="m 13.877782,289.25127 h 0.03881 c 0.156986,0 0.255764,0.0864 0.255764,0.21872 0,0.12524 -0.08643,0.21696 -0.204611,0.21696 -0.114653,0 -0.195792,-0.0794 -0.211667,-0.20285 h -0.236361 c 0.01411,0.24518 0.199319,0.41804 0.449792,0.41804 0.252236,0 0.437444,-0.18521 0.437444,-0.43744 0,-0.16404 -0.06703,-0.27517 -0.202847,-0.33691 0.07585,-0.0547 0.109361,-0.12347 0.109361,-0.22401 0,-0.20108 -0.149931,-0.35101 -0.351014,-0.35101 -0.102305,0 -0.195792,0.0406 -0.261055,0.11112 -0.05468,0.06 -0.07585,0.11642 -0.08467,0.22225 h 0.238125 c 0.01058,-0.0829 0.0441,-0.11818 0.109361,-0.11818 0.06703,0 0.114653,0.0512 0.114653,0.12347 0,0.0564 -0.02646,0.097 -0.07585,0.11642 -0.02999,0.0123 -0.06174,0.0159 -0.125237,0.0176 z" /><path
         inkscape:connector-curvature="0"
         id="path936"
         style="font-style:normal;font-variant:normal;font-weight:600;font-stretch:normal;font-size:1.76389px;font-family:'URW Gothic';-inkscape-font-specification:'URW Gothic Semi-Bold';fill-opacity:1;stroke-width:0.264583;stroke:none;opacity:0.8"
         d="m 14.608997,289.87921 h 0.234597 v -0.22578 h -0.234597 z" /><path
         inkscape:connector-curvature="0"
         id="path938"
         style="font-style:normal;font-variant:normal;font-weight:600;font-stretch:normal;font-size:1.76389px;font-family:'URW Gothic';-inkscape-font-specification:'URW Gothic Semi-Bold';fill-opacity:1;stroke-width:0.264583;stroke:none;opacity:0.8"
         d="m 15.055785,289.25656 0.208138,0.0564 c 0.05821,-0.0723 0.107598,-0.0988 0.181681,-0.0988 0.121708,0 0.211667,0.10054 0.211667,0.23283 0,0.14111 -0.08819,0.23989 -0.215195,0.23989 -0.112889,0 -0.186972,-0.0706 -0.211667,-0.19756 h -0.234597 c 0.01235,0.2346 0.209903,0.41275 0.45332,0.41275 0.254,0 0.442736,-0.19579 0.442736,-0.45861 0,-0.25576 -0.174625,-0.4445 -0.41275,-0.4445 -0.05997,0 -0.09878,0.009 -0.16757,0.037 l 0.04233,-0.23989 h 0.41275 v -0.22048 h -0.589139 z" /><path
         inkscape:connector-curvature="0"
         id="path940"
         style="font-style:normal;font-variant:normal;font-weight:600;font-stretch:normal;font-size:1.76389px;font-family:'URW Gothic';-inkscape-font-specification:'URW Gothic Semi-Bold';fill-opacity:1;stroke-width:0.264583;stroke:none;opacity:0.66"
         d="m 17.075686,289.87921 h 0.234597 v -0.22578 h -0.234597 z m 0,-0.65087 h 0.234597 v -0.2346 h -0.234597 z" /><path
         inkscape:connector-curvature="0"
         id="path942"
         style="font-style:normal;font-variant:normal;font-weight:600;font-stretch:normal;font-size:1.76389px;font-family:'URW Gothic';-inkscape-font-specification:'URW Gothic Semi-Bold';fill-opacity:1;stroke-width:0.264583;stroke:none;opacity:0.66"
         d="m 17.506598,288.83146 c 0.144639,0.0935 0.246944,0.30868 0.246944,0.51506 0,0.21343 -0.08643,0.39687 -0.246944,0.52034 v 0.254 c 0.09349,-0.0388 0.146402,-0.0723 0.21343,-0.13229 0.169334,-0.15169 0.271639,-0.39334 0.271639,-0.64205 0,-0.22049 -0.0829,-0.43568 -0.225778,-0.5962 -0.08467,-0.0917 -0.151694,-0.13758 -0.259291,-0.17462 z" /></g><g
       transform="matrix(0.67744784,0,0,0.67744784,1.5504774,85.000274)"
       id="text4557-3-5-9"
       style="font-style:normal;font-weight:normal;font-size:10.5833px;line-height:1.25;font-family:sans-serif;letter-spacing:0px;word-spacing:0px;display:inline;fill-opacity:1;stroke:none;stroke-width:0.264583;opacity:0.8"
       aria-label="50%  23.5  :)"
       inkscape:label="up"><path
         inkscape:connector-curvature="0"
         id="path928-2"
         style="font-style:normal;font-variant:normal;font-weight:600;font-stretch:normal;font-size:1.76389px;font-family:'URW Gothic';-inkscape-font-specification:'URW Gothic Semi-Bold';fill-opacity:1;stroke-width:0.264583;stroke:none"
         d="m 10.855277,289.12074 c 0,-0.26459 -0.171097,-0.43568 -0.43568,-0.43568 -0.268112,0 -0.4374453,0.17286 -0.4374453,0.44626 v 0.4445 c 0,0.12524 0.02469,0.21343 0.0829,0.29281 0.08114,0.10759 0.206375,0.1658 0.365125,0.1658 0.149931,0 0.266347,-0.0547 0.342195,-0.15875 0.05821,-0.0829 0.0829,-0.16933 0.0829,-0.29986 z m -0.638528,0.0106 c 0,-0.14287 0.07761,-0.23107 0.204611,-0.23107 0.127,0 0.19932,0.0829 0.19932,0.23107 v 0.44274 c 0,0.16404 -0.06526,0.24518 -0.197556,0.24518 -0.134056,0 -0.206375,-0.0882 -0.206375,-0.25047 z" /><path
         inkscape:connector-curvature="0"
         id="path928-2-7"
         style="font-style:normal;font-variant:normal;font-weight:600;font-stretch:normal;font-size:1.76389px;line-height:1.25;font-family:'URW Gothic';-inkscape-font-specification:'URW Gothic Semi-Bold';letter-spacing:0px;word-spacing:0px;display:inline;fill-opacity:1;stroke:none;stroke-width:0.264583"
         d="m 12.971943,289.12074 c 0,-0.26459 -0.171097,-0.43568 -0.43568,-0.43568 -0.268112,0 -0.437445,0.17286 -0.437445,0.44626 v 0.4445 c 0,0.12524 0.02469,0.21343 0.0829,0.29281 0.08114,0.10759 0.206375,0.1658 0.365125,0.1658 0.149931,0 0.266347,-0.0547 0.342195,-0.15875 0.05821,-0.0829 0.0829,-0.16933 0.0829,-0.29986 z m -0.638528,0.0106 c 0,-0.14287 0.07761,-0.23107 0.204611,-0.23107 0.127,0 0.19932,0.0829 0.19932,0.23107 v 0.44274 c 0,0.16404 -0.06526,0.24518 -0.197556,0.24518 -0.134056,0 -0.206375,-0.0882 -0.206375,-0.25047 z" /><path
         inkscape:connector-curvature="0"
         id="path928-2-7-5"
         style="font-style:normal;font-variant:normal;font-weight:600;font-stretch:normal;font-size:1.76389px;line-height:1.25;font-family:'URW Gothic';-inkscape-font-specification:'URW Gothic Semi-Bold';letter-spacing:0px;word-spacing:0px;display:inline;fill-opacity:1;stroke:none;stroke-width:0.264583"
         d="m 14.824027,289.12074 c 0,-0.26459 -0.171097,-0.43568 -0.43568,-0.43568 -0.268112,0 -0.437445,0.17286 -0.437445,0.44626 v 0.4445 c 0,0.12524 0.02469,0.21343 0.0829,0.29281 0.08114,0.10759 0.206375,0.1658 0.365125,0.1658 0.149931,0 0.266347,-0.0547 0.342195,-0.15875 0.05821,-0.0829 0.0829,-0.16933 0.0829,-0.29986 z m -0.638528,0.0106 c 0,-0.14287 0.07761,-0.23107 0.204611,-0.23107 0.127,0 0.19932,0.0829 0.19932,0.23107 v 0.44274 c 0,0.16404 -0.06526,0.24518 -0.197556,0.24518 -0.134056,0 -0.206375,-0.0882 -0.206375,-0.25047 z" /><path
         inkscape:connector-curvature="0"
         id="path928-2-7-5-5"
         style="font-style:normal;font-variant:normal;font-weight:600;font-stretch:normal;font-size:1.76389px;line-height:1.25;font-family:'URW Gothic';-inkscape-font-specification:'URW Gothic Semi-Bold';letter-spacing:0px;word-spacing:0px;display:inline;fill-opacity:1;stroke:none;stroke-width:0.264583"
         d="m 17.734443,289.12074 c 0,-0.26459 -0.171097,-0.43568 -0.43568,-0.43568 -0.268112,0 -0.437445,0.17286 -0.437445,0.44626 v 0.4445 c 0,0.12524 0.02469,0.21343 0.0829,0.29281 0.08114,0.10759 0.206375,0.1658 0.365125,0.1658 0.149931,0 0.266347,-0.0547 0.342195,-0.15875 0.05821,-0.0829 0.0829,-0.16933 0.0829,-0.29986 z m -0.638528,0.0106 c 0,-0.14287 0.07761,-0.23107 0.204611,-0.23107 0.127,0 0.19932,0.0829 0.19932,0.23107 v 0.44274 c 0,0.16404 -0.06526,0.24518 -0.197556,0.24518 -0.134056,0 -0.206375,-0.0882 -0.206375,-0.25047 z" /><path
         inkscape:connector-curvature="0"
         id="path932-0"
         style="font-style:normal;font-variant:normal;font-weight:600;font-stretch:normal;font-size:1.76389px;font-family:'URW Gothic';-inkscape-font-specification:'URW Gothic Semi-Bold';fill-opacity:1;stroke-width:0.264583;stroke:none"
         d="m 11.049303,290.03443 h 0.843139 v -0.22048 H 11.37915 l 0.266347,-0.24166 c 0.1905,-0.17109 0.252237,-0.28046 0.252237,-0.44097 0,-0.24165 -0.181681,-0.42333 -0.425098,-0.42333 -0.151694,0 -0.289277,0.0723 -0.363361,0.1905 -0.04939,0.0776 -0.06879,0.15698 -0.06879,0.28222 h 0.231069 c 0,-0.15522 0.08114,-0.25753 0.202847,-0.25753 0.107597,0 0.188736,0.0882 0.188736,0.20461 0,0.0847 -0.04233,0.16052 -0.14993,0.26106 l -0.463903,0.43921 z" /><path
         inkscape:connector-curvature="0"
         id="path932-0-6"
         style="font-style:normal;font-variant:normal;font-weight:600;font-stretch:normal;font-size:1.76389px;line-height:1.25;font-family:'URW Gothic';-inkscape-font-specification:'URW Gothic Semi-Bold';letter-spacing:0px;word-spacing:0px;display:inline;fill-opacity:1;stroke:none;stroke-width:0.264583"
         d="m 8.8691374,290.03443 h 0.843139 v -0.22048 h -0.513292 l 0.266347,-0.24166 c 0.1905,-0.17109 0.252237,-0.28046 0.252237,-0.44097 0,-0.24165 -0.181681,-0.42333 -0.425098,-0.42333 -0.151694,0 -0.289277,0.0723 -0.363361,0.1905 -0.04939,0.0776 -0.06879,0.15698 -0.06879,0.28222 h 0.231069 c 0,-0.15522 0.08114,-0.25753 0.202847,-0.25753 0.107597,0 0.188736,0.0882 0.188736,0.20461 0,0.0847 -0.04233,0.16052 -0.14993,0.26106 l -0.463903,0.43921 z" /><path
         inkscape:connector-curvature="0"
         id="path934-9"
         style="font-style:normal;font-variant:normal;font-weight:600;font-stretch:normal;font-size:1.76389px;font-family:'URW Gothic';-inkscape-font-specification:'URW Gothic Semi-Bold';fill-opacity:1;stroke-width:0.264583;stroke:none"
         d="m 18.277717,289.38356 h 0.03881 c 0.156986,0 0.255764,0.0864 0.255764,0.21872 0,0.12524 -0.08643,0.21696 -0.204611,0.21696 -0.114653,0 -0.195792,-0.0794 -0.211667,-0.20285 h -0.236361 c 0.01411,0.24518 0.199319,0.41804 0.449792,0.41804 0.252236,0 0.437444,-0.18521 0.437444,-0.43744 0,-0.16404 -0.06703,-0.27517 -0.202847,-0.33691 0.07585,-0.0547 0.109361,-0.12347 0.109361,-0.22401 0,-0.20108 -0.149931,-0.35101 -0.351014,-0.35101 -0.102305,0 -0.195792,0.0406 -0.261055,0.11112 -0.05468,0.06 -0.07585,0.11642 -0.08467,0.22225 h 0.238125 c 0.01058,-0.0829 0.0441,-0.11818 0.109361,-0.11818 0.06703,0 0.114653,0.0512 0.114653,0.12347 0,0.0564 -0.02646,0.097 -0.07585,0.11642 -0.02999,0.0123 -0.06174,0.0159 -0.125237,0.0176 z" /><path
         inkscape:connector-curvature="0"
         id="path936-3"
         style="font-style:normal;font-variant:normal;font-weight:600;font-stretch:normal;font-size:1.76389px;font-family:'URW Gothic';-inkscape-font-specification:'URW Gothic Semi-Bold';fill-opacity:1;stroke-width:0.397372;stroke:none"
         d="m 13.157152,289.61815 h 0.529166 v -0.22578 h -0.529166 z" /><path
         inkscape:connector-curvature="0"
         id="path936-3-3"
         style="font-style:normal;font-variant:normal;font-weight:600;font-stretch:normal;font-size:1.76389px;line-height:1.25;font-family:'URW Gothic';-inkscape-font-specification:'URW Gothic Semi-Bold';letter-spacing:0px;word-spacing:0px;display:inline;fill-opacity:1;stroke:none;stroke-width:0.397372"
         d="m 16.067568,289.61815 h 0.529166 v -0.22578 h -0.529166 z" /><path
         inkscape:connector-curvature="0"
         id="path938-6"
         style="font-style:normal;font-variant:normal;font-weight:600;font-stretch:normal;font-size:1.76389px;font-family:'URW Gothic';-inkscape-font-specification:'URW Gothic Semi-Bold';fill-opacity:1;stroke-width:0.264583;stroke:none"
         d="m 15.069208,289.38892 0.208138,0.0564 c 0.05821,-0.0723 0.107598,-0.0988 0.181681,-0.0988 0.121708,0 0.211667,0.10054 0.211667,0.23283 0,0.14111 -0.08819,0.23989 -0.215195,0.23989 -0.112889,0 -0.186972,-0.0706 -0.211667,-0.19756 h -0.234597 c 0.01235,0.2346 0.209903,0.41275 0.45332,0.41275 0.254,0 0.442736,-0.19579 0.442736,-0.45861 0,-0.25576 -0.174625,-0.4445 -0.41275,-0.4445 -0.05997,0 -0.09878,0.009 -0.16757,0.037 l 0.04233,-0.23989 h 0.41275 v -0.22048 h -0.589139 z" /></g><g
       id="g667"
       transform="matrix(0.08350693,0,0,0.08350693,4.0250003,279.98315)"
       style="stroke:none;opacity:0.66"><path
         d="M 11.831599,2.1683566 H 5.8315987 v 2 H 11.831599 Z M 7.8315987,15.168357 h 2 V 9.1683566 h -2 z"
         id="path4"
         style="fill-opacity:1;stroke:none" /><path
         d="m 15.861599,8.5583568 1.42,-1.42 c -0.43,-0.51 -0.9,-0.99 -1.41,-1.41 l -1.42,1.42 c -1.55,-1.24 -3.5,-1.98 -5.6200003,-1.98 -4.97,0 -8.99999966,4.03 -8.99999966,9.0000002 0,4.97 4.01999966,9 8.99999966,9 4.9800003,0 9.0000003,-4.03 9.0000003,-9 0,-2.12 -0.74,-4.07 -1.97,-5.6100002 z M 8.8315987,21.168357 c -3.87,0 -7.0000001,-3.13 -7.0000001,-7 0,-3.87 3.1300001,-7.0000002 7.0000001,-7.0000002 3.8700003,0 7.0000003,3.1300002 7.0000003,7.0000002 0,3.87 -3.13,7 -7.0000003,7 z"
         id="path4-3"
         style="opacity:1;fill-opacity:1;stroke:none" /><path
         d="M 11.470189,27.549037 9.1525836,25.231431 H 8.7466982 v 3.08067 l -1.8630137,-1.863014 -0.5722983,0.572299 2.2688991,2.268899 -2.2688991,2.268899 0.5722983,0.572298 1.8630137,-1.863014 v 3.08067 H 9.1525836 L 11.470189,31.031533 9.7248819,29.290285 Z m -1.9117201,-0.763065 0.7630641,0.763065 -0.7630641,0.763064 z m 0.7630641,4.245561 -0.7630641,0.763064 v -1.526129 z"
         id="path1377"
         style="display:inline;opacity:1;stroke:none;fill-opacity:1;stroke-width:0.405885"
         transform="matrix(2.5171451,0,0,2.5171451,126.38916,-61.01739)" /></g></g><g
     inkscape:groupmode="layer"
     id="layer2"
     inkscape:label="body"><path
       id="rect2529-3-2"
       style="display:inline;opacity:0.5;stroke-width:2.21063;stroke-linecap:square;paint-order:markers fill stroke;stroke:none"
       d="m 9.4219427,277.40193 c -3.1245218,0 -5.6421821,-10e-6 -6.7761102,1.13392 -1.133929,1.13393 -1.1339281,3.65157 -1.1339281,6.77611 v 2.32279 c 0,3.12454 -9e-7,5.64218 1.1339281,6.77611 1.1339281,1.13393 3.6515687,1.13392 6.7761102,1.13392 h 2.3227803 c 3.124543,0 5.642182,10e-6 6.77611,-1.13392 1.133929,-1.13393 1.133929,-3.65157 1.133929,-6.77611 v -2.32279 c 0,-3.12454 0,-5.64218 -1.133929,-6.77611 -1.133928,-1.13393 -3.651588,-1.13392 -6.77611,-1.13392 z m -2.1292168,2.00519 c 0.9797478,0.004 2.1051765,0.0359 3.2906071,0.0359 3.16115,0 5.896429,-0.2268 6.576786,0.45356 0.680357,0.68036 0.453572,3.41565 0.453572,6.57679 0,3.16115 0.226785,5.89643 -0.453572,6.57679 -0.680357,0.68036 -3.415636,0.45357 -6.576786,0.45357 -3.1611494,0 -5.8964288,0.22679 -6.5767861,-0.45357 -0.6803572,-0.68036 -0.4535709,-3.41564 -0.4535709,-6.57679 0,-3.16114 -0.2267863,-5.89643 0.4535709,-6.57679 0.4252235,-0.42522 1.6532651,-0.49609 3.286179,-0.48944 z"
       transform="translate(0,-275.83331)" /><path
       id="rect4536-6"
       style="display:inline;opacity:0.25;fill-opacity:1;stroke-width:0.358233;stroke-linecap:square;paint-order:markers fill stroke;stroke:none"
       d="m 3.2774659,294.86443 0.3889022,1.36071 H 17.500298 l 0.388901,-1.36071 c -1.305812,0.68022 -3.50931,0.68035 -6.144476,0.68035 H 9.4219428 c -2.6351663,0 -4.8386641,-1.3e-4 -6.1444769,-0.68035 z"
       transform="translate(0,-275.83331)" /></g></svg>
