<?xml version="1.0" encoding="UTF-8" standalone="no"?>
<svg
   width="80"
   height="80"
   viewBox="0 0 21.166666 21.166667"
   version="1.1"
   id="svg8"
   inkscape:version="1.2 (dc2aedaf03, 2022-05-15)"
   sodipodi:docname="hygrotemp_cgp1w.svg"
   xmlns:inkscape="http://www.inkscape.org/namespaces/inkscape"
   xmlns:sodipodi="http://sodipodi.sourceforge.net/DTD/sodipodi-0.dtd"
   xmlns="http://www.w3.org/2000/svg"
   xmlns:svg="http://www.w3.org/2000/svg"
   xmlns:rdf="http://www.w3.org/1999/02/22-rdf-syntax-ns#"
   xmlns:cc="http://creativecommons.org/ns#"
   xmlns:dc="http://purl.org/dc/elements/1.1/">
  <defs
     id="defs2">
    <inkscape:perspective
       sodipodi:type="inkscape:persp3d"
       inkscape:vp_x="0 : 10.583334 : 1"
       inkscape:vp_y="0 : 1000 : 0"
       inkscape:vp_z="21.166666 : 10.583334 : 1"
       inkscape:persp3d-origin="10.583333 : 7.0555557 : 1"
       id="perspective848" />
  </defs>
  <sodipodi:namedview
     id="base"
     pagecolor="#ffffff"
     bordercolor="#ff0101"
     borderopacity="1"
     inkscape:pageopacity="0.0"
     inkscape:pageshadow="2"
     inkscape:zoom="31.485052"
     inkscape:cx="47.069956"
     inkscape:cy="15.658224"
     inkscape:document-units="mm"
     inkscape:current-layer="g8416"
     showgrid="true"
     units="px"
     borderlayer="true"
     inkscape:window-width="1720"
     inkscape:window-height="1355"
     inkscape:window-x="1720"
     inkscape:window-y="0"
     inkscape:window-maximized="0"
     inkscape:snap-object-midpoints="true"
     inkscape:snap-bbox="true"
     inkscape:object-paths="true"
     inkscape:snap-intersection-paths="true"
     inkscape:bbox-nodes="true"
     inkscape:snap-bbox-edge-midpoints="true"
     inkscape:snap-smooth-nodes="true"
     inkscape:snap-midpoints="true"
     inkscape:snap-center="true"
     inkscape:snap-grids="true"
     inkscape:document-rotation="0"
     inkscape:snap-nodes="false"
     inkscape:snap-others="false"
     inkscape:pagecheckerboard="0"
     inkscape:showpageshadow="2"
     inkscape:deskcolor="#d1d1d1">
    <inkscape:grid
       type="xygrid"
       id="grid4518" />
  </sodipodi:namedview>
  <metadata
     id="metadata5">
    <rdf:RDF>
      <cc:Work
         rdf:about="">
        <dc:format>image/svg+xml</dc:format>
        <dc:type
           rdf:resource="http://purl.org/dc/dcmitype/StillImage" />
        <cc:license
           rdf:resource="http://creativecommons.org/licenses/by-sa/4.0/" />
      </cc:Work>
      <cc:License
         rdf:about="http://creativecommons.org/licenses/by-sa/4.0/">
        <cc:permits
           rdf:resource="http://creativecommons.org/ns#Reproduction" />
        <cc:permits
           rdf:resource="http://creativecommons.org/ns#Distribution" />
        <cc:requires
           rdf:resource="http://creativecommons.org/ns#Notice" />
        <cc:requires
           rdf:resource="http://creativecommons.org/ns#Attribution" />
        <cc:permits
           rdf:resource="http://creativecommons.org/ns#DerivativeWorks" />
        <cc:requires
           rdf:resource="http://creativecommons.org/ns#ShareAlike" />
      </cc:License>
    </rdf:RDF>
  </metadata>
  <g
     inkscape:label="bg"
     inkscape:groupmode="layer"
     id="layer1"
     transform="translate(0,-275.83332)"
     style="display:inline">
    <rect
       style="display:inline;opacity:0.799905;fill:#c4c9cf;stroke:none;stroke-width:0.69282;stroke-linecap:square;stroke-opacity:1;paint-order:markers fill stroke"
       id="rect1755"
       width="14.816668"
       height="2.1166661"
       x="3.1749995"
       y="15.875"
       rx="0"
       ry="0"
       transform="translate(0,275.83332)" />
    <rect
       style="opacity:1;fill:none;stroke:#b9bec3;stroke-width:2.00426;stroke-miterlimit:4;stroke-dasharray:none;stroke-opacity:1;paint-order:markers fill stroke"
       id="rect867"
       width="16.516575"
       height="16.516579"
       x="2.3250458"
       y="278.15836"
       ry="1.9328184"
       rx="2.3089252" />
  </g>
  <g
     inkscape:groupmode="layer"
     id="g8416"
     inkscape:label="textes_paths"
     style="display:inline">
    <g
       aria-label="22.8 "
       transform="matrix(1.2717031,0,0,1.268869,-1.4096485,-1.394576)"
       id="text8394"
       style="font-size:10.708px;line-height:1.25;letter-spacing:0px;word-spacing:0px;display:inline;fill:#495057;stroke-width:0.362628">
      <path
         d="m 5.8690496,5.9504626 h 1.7146548 q 0.015094,0 0.1207503,0.1207504 0,0.015094 -0.362251,0.3622509 H 6.1105502 q -0.015094,0 -0.3622509,-0.3622509 0,-0.015094 0.1207503,-0.1207504 z M 7.825205,6.083288 q 0.015093,0 0.1207504,0.1207503 v 1.7146548 q 0,0.015094 -0.1207504,0.1207503 -0.015094,0 -0.3622509,-0.3622509 V 6.445539 q 0,-0.015094 0.3622509,-0.362251 z m -1.82333,1.787105 h 1.4248539 q 0.015093,0 0.2415007,0.2415006 v 0.012075 q 0,0.015094 -0.2415007,0.2415007 H 6.001875 q -0.015094,0 -0.2415007,-0.2415007 v -0.012075 q 0,-0.015093 0.2415007,-0.2415006 z M 5.639624,8.1722688 q 0.015093,0 0.362251,0.362251 v 1.2316535 q 0,0.015094 -0.362251,0.3622507 -0.015094,0 -0.1207504,-0.12075 V 8.2930192 q 0,-0.015094 0.1207504,-0.1207504 z m 0.4830013,1.6059795 h 1.2316535 q 0.015093,0 0.362251,0.3622507 0,0.0151 -0.1207504,0.12075 H 5.8811246 q -0.015094,0 -0.1207503,-0.12075 0,-0.01509 0.362251,-0.3622507 z"
         style="font-weight:bold;font-size:7.05556px;font-family:'Open 24 Display St';-inkscape-font-specification:'Open 24 Display St Bold';stroke-width:0.317752"
         id="path8418" />
      <path
         d="m 8.6010259,5.9504626 h 1.7146551 q 0.01509,0 0.12075,0.1207504 0,0.015094 -0.362251,0.3622509 H 8.8425265 q -0.015093,0 -0.362251,-0.3622509 0,-0.015094 0.1207504,-0.1207504 z M 10.557181,6.083288 q 0.0151,0 0.12075,0.1207503 v 1.7146548 q 0,0.015094 -0.12075,0.1207503 -0.0151,0 -0.36225,-0.3622509 V 6.445539 q 0,-0.015094 0.36225,-0.362251 z M 8.7338512,7.870393 h 1.4248548 q 0.01509,0 0.2415,0.2415006 v 0.012075 q 0,0.015094 -0.2415,0.2415007 H 8.7338512 q -0.015094,0 -0.2415006,-0.2415007 v -0.012075 q 0,-0.015093 0.2415006,-0.2415006 z m -0.362251,0.3018758 q 0.015094,0 0.362251,0.362251 v 1.2316535 q 0,0.015094 -0.362251,0.3622507 -0.015094,0 -0.1207503,-0.12075 V 8.2930192 q 0,-0.015094 0.1207503,-0.1207504 z m 0.4830014,1.6059795 h 1.2316534 q 0.0151,0 0.362251,0.3622507 0,0.0151 -0.12075,0.12075 H 8.6131009 q -0.015093,0 -0.1207503,-0.12075 0,-0.01509 0.362251,-0.3622507 z"
         style="font-weight:bold;font-size:7.05556px;font-family:'Open 24 Display St';-inkscape-font-specification:'Open 24 Display St Bold';stroke-width:0.317752"
         id="path8420" />
      <path
         d="m 11.131874,9.9782867 v -0.013675 q 0,-0.010256 0.164102,-0.1641027 h 0.01368 q 0.01026,0 0.164102,0.1641027 v 0.013675 q 0,0.010256 -0.164102,0.1641033 h -0.01368 q -0.01025,0 -0.164102,-0.1641033 z"
         style="font-weight:bold;font-size:7.05556px;font-family:'Open 24 Display St';-inkscape-font-specification:'Open 24 Display St Bold';stroke-width:0.17993"
         id="path8422" />
      <path
         d="m 12.333821,7.9643506 h 0.835704 q 0.0074,0 0.05885,0.058853 0,0.00736 -0.176558,0.1765572 h -0.600295 q -0.0074,0 -0.176557,-0.1765572 0,-0.00736 0.05885,-0.058853 z m 0.947524,0.058852 q 0.0074,0 0.05885,0.058853 V 8.91776 q 0,0.00736 -0.05885,0.058853 -0.0074,0 -0.176557,-0.1765573 V 8.1997603 q 0,-0.00736 0.176557,-0.1765577 z m -1.065229,0.00589 q 0.0074,0 0.176557,0.1765572 v 0.6002947 q 0,0.00736 -0.176557,0.1765573 -0.0074,0 -0.05885,-0.058853 v -0.835704 q 0,-0.00736 0.05885,-0.058852 z m 0.176557,0.8592453 h 0.694459 q 0.0074,0 0.117705,0.1177048 v 0.00589 q 0,0.00736 -0.117705,0.1177048 h -0.694459 q -0.0074,0 -0.117704,-0.1177048 v -0.00589 q 0,-0.00736 0.117704,-0.1177048 z m -0.176557,0.153016 q 0.0074,0 0.176557,0.1765573 v 0.6002949 q 0,0.0074 -0.176557,0.176557 -0.0074,0 -0.05885,-0.05885 v -0.835706 q 0,-0.00736 0.05885,-0.058853 z m 1.065229,0.00589 q 0.0074,0 0.05885,0.058852 v 0.8356942 q 0,0.0074 -0.05885,0.05885 -0.0074,0 -0.176557,-0.1765561 v -0.600291 q 0,-0.00736 0.176557,-0.1765577 z m -0.835704,0.7827372 h 0.600295 q 0.0074,0 0.176556,0.1765569 0,0.0074 -0.05885,0.05885 h -0.835704 q -0.0074,0 -0.05885,-0.05885 0,-0.0074 0.176557,-0.1765569 z"
         style="font-weight:bold;font-size:7.05556px;font-family:'Open 24 Display St';-inkscape-font-specification:'Open 24 Display St Bold';stroke-width:0.154869"
         id="path8424" />
    </g>
    <path
       d="m 5.5416059,14.623013 h 0.050895 c 0.2058871,0 0.3354343,0.113343 0.3354343,0.286828 0,0.164232 -0.1133543,0.284515 -0.2683474,0.284515 -0.1503666,0 -0.2567797,-0.104091 -0.2775998,-0.26601 H 5.072 c 0.018497,0.321524 0.2614062,0.548211 0.5899007,0.548211 0.3308077,0 0.5737078,-0.242878 0.5737078,-0.573656 0,-0.21512 -0.087908,-0.360847 -0.2660342,-0.441807 0.099473,-0.07171 0.1434275,-0.161919 0.1434275,-0.293767 0,-0.263697 -0.196634,-0.460312 -0.4603549,-0.460312 -0.134173,0 -0.2567804,0.0532 -0.342374,0.145727 -0.071713,0.07865 -0.099473,0.152666 -0.1110397,0.291453 h 0.3123009 c 0.013881,-0.108716 0.057832,-0.154979 0.1434268,-0.154979 0.087906,0 0.1503659,0.06708 0.1503659,0.161919 0,0.07402 -0.034706,0.127222 -0.099472,0.152666 -0.039328,0.01619 -0.080967,0.02082 -0.1642482,0.02313 z"
       style="font-weight:600;font-size:3.52778px;line-height:1.25;font-family:'URW Gothic';-inkscape-font-specification:'URW Gothic Semi-Bold';letter-spacing:0px;word-spacing:0px;fill:#495057;stroke-width:0.173491"
       id="path8427" />
    <path
       d="m 6.9966939,13.737085 -0.4464733,0.670807 c -0.1249199,0.185051 -0.1688734,0.312273 -0.1688734,0.478818 0,0.337716 0.2544658,0.589847 0.5991538,0.589847 0.3423734,0 0.5852741,-0.254444 0.5852741,-0.612979 0,-0.314585 -0.1989459,-0.541272 -0.4719199,-0.541272 -0.055517,0 -0.085594,0.0047 -0.1388009,0.02313 l 0.409461,-0.608353 z m -0.020812,0.853544 c 0.1619336,0 0.2822257,0.127222 0.2822257,0.30302 0,0.178111 -0.1133529,0.300707 -0.2752872,0.300707 -0.171186,0 -0.2937927,-0.12491 -0.2937927,-0.300707 0,-0.180424 0.1156669,-0.30302 0.2868542,-0.30302 z"
       style="font-weight:600;font-size:3.52778px;line-height:1.25;font-family:'URW Gothic';-inkscape-font-specification:'URW Gothic Semi-Bold';letter-spacing:0px;word-spacing:0px;fill:#495057;stroke-width:0.173491"
       id="path8429" />
    <g
       id="text4547-7-6"
       style="font-style:normal;font-weight:normal;font-size:11.5775px;line-height:1.25;font-family:sans-serif;letter-spacing:0px;word-spacing:0px;display:inline;fill:#495057;fill-opacity:1;stroke:none;stroke-width:0.264583"
       transform="matrix(0.34838699,0,0,0.35414604,11.818204,-85.016045)"
       aria-label="12:30">
      <path
         inkscape:connector-curvature="0"
         id="path915"
         style="font-style:normal;font-variant:normal;font-weight:600;font-stretch:normal;font-size:6.17466px;font-family:'URW Gothic';-inkscape-font-specification:'URW Gothic Semi-Bold';fill:#495057;fill-opacity:1;stroke:none;stroke-width:0.264583;stroke-opacity:1"
         d="m 3.3367164,283.37584 h 0.8212304 v -4.56308 H 2.7624726 v 0.77184 h 0.5742438 z" />
      <path
         inkscape:connector-curvature="0"
         id="path923"
         style="font-style:normal;font-variant:normal;font-weight:600;font-stretch:normal;font-size:6.17466px;font-family:'URW Gothic';-inkscape-font-specification:'URW Gothic Semi-Bold';fill:#495057;fill-opacity:1;stroke:none;stroke-width:0.264583;stroke-opacity:1"
         d="m 11.706288,280.3379 c 0,-0.9262 -0.598942,-1.52514 -1.525142,-1.52514 -0.9385494,0 -1.5313178,0.60512 -1.5313178,1.56219 v 1.55602 c 0,0.4384 0.08645,0.74713 0.2902104,1.02499 0.284034,0.37666 0.722435,0.58042 1.2781554,0.58042 0.524847,0 0.932374,-0.19141 1.197885,-0.55572 0.203764,-0.29021 0.290209,-0.59277 0.290209,-1.04969 z m -2.2352284,0.0371 c 0,-0.50015 0.271685,-0.80888 0.7162614,-0.80888 0.444576,0 0.697737,0.29021 0.697737,0.80888 v 1.54984 c 0,0.57425 -0.228463,0.85828 -0.691563,0.85828 -0.4692744,0 -0.7224354,-0.30873 -0.7224354,-0.8768 z" />
      <path
         inkscape:connector-curvature="0"
         id="path923-3"
         style="font-style:normal;font-variant:normal;font-weight:600;font-stretch:normal;font-size:6.17466px;line-height:1.25;font-family:'URW Gothic';-inkscape-font-specification:'URW Gothic Semi-Bold';letter-spacing:0px;word-spacing:0px;display:inline;fill:#495057;fill-opacity:1;stroke:none;stroke-width:0.264583;stroke-opacity:1"
         d="m 8.1127821,280.3379 c 0,-0.9262 -0.598942,-1.52514 -1.525142,-1.52514 -0.938549,0 -1.531317,0.60512 -1.531317,1.56219 v 1.55602 c 0,0.4384 0.08645,0.74713 0.29021,1.02499 0.284034,0.37666 0.722435,0.58042 1.278155,0.58042 0.524847,0 0.932374,-0.19141 1.197885,-0.55572 0.203764,-0.29021 0.290209,-0.59277 0.290209,-1.04969 z m -2.235228,0.0371 c 0,-0.50015 0.271685,-0.80888 0.716261,-0.80888 0.444576,0 0.697737,0.29021 0.697737,0.80888 v 1.54984 c 0,0.57425 -0.228463,0.85828 -0.691563,0.85828 -0.469274,0 -0.722435,-0.30873 -0.722435,-0.8768 z" />
    </g>
    <g
       aria-label="C"
       id="text8410"
       style="font-size:10.5833px;line-height:1.25;letter-spacing:0px;word-spacing:0px;stroke-width:0.264583"
       transform="matrix(1.1130844,0,0,1.1130844,-3.0475683,-3.3935336)">
      <path
         d="m 16.306802,9.8710739 c -0.129117,0.1333501 -0.237067,0.1841501 -0.387351,0.1841501 -0.289984,0 -0.524934,-0.2413002 -0.524934,-0.5334006 0,-0.1270002 0.04868,-0.2624671 0.129117,-0.3556005 0.09525,-0.1121836 0.230717,-0.1714503 0.389467,-0.1714503 0.182034,0 0.304801,0.059267 0.410634,0.1968503 h 0.323851 C 16.586202,9.056156 16.531169,8.9820726 16.425335,8.8952891 16.281402,8.7788723 16.097252,8.7153722 15.906751,8.7153722 c -0.442384,0 -0.804334,0.3619505 -0.804334,0.8043345 0,0.4529674 0.366184,0.8149183 0.823384,0.8149183 0.321734,0 0.599018,-0.177801 0.721785,-0.4635511 z"
         style="font-weight:600;font-size:2.11667px;font-family:'URW Gothic';-inkscape-font-specification:'URW Gothic Semi-Bold';fill:#495057"
         id="path8443" />
    </g>
    <g
       aria-label="%"
       id="text8414"
       style="font-size:10.5833px;line-height:1.25;letter-spacing:0px;word-spacing:0px;fill:#495057;stroke-width:0.264583"
       transform="matrix(0.65574844,0,0,0.65568928,-2.3561187,3.9918094)">
      <path
         d="m 16.280693,14.824429 -0.430388,1.04281 h 0.143933 l 0.4318,-1.04281 z m 0.179211,0.551744 c -0.143933,0 -0.256822,0.111477 -0.256822,0.254 0,0.141111 0.1143,0.25541 0.255411,0.25541 0.141111,0 0.255411,-0.114299 0.255411,-0.25541 0,-0.138289 -0.115711,-0.254 -0.254,-0.254 z m -0.0014,0.149577 c 0.05645,0 0.104422,0.04798 0.104422,0.104423 0,0.05785 -0.04657,0.104422 -0.104422,0.104422 -0.05644,0 -0.103011,-0.04657 -0.103011,-0.104422 0,-0.05786 0.04516,-0.104423 0.103011,-0.104423 z m -0.63641,-0.719666 c -0.143934,0 -0.256822,0.111478 -0.256822,0.255411 0,0.1397 0.1143,0.254 0.255411,0.254 0.141111,0 0.255411,-0.1143 0.255411,-0.255411 0,-0.138289 -0.115712,-0.254 -0.254,-0.254 z m -0.0014,0.149578 c 0.05785,0 0.104422,0.04798 0.104422,0.104422 0,0.05786 -0.04657,0.104422 -0.104422,0.104422 -0.05645,0 -0.103011,-0.04657 -0.103011,-0.104422 0,-0.05785 0.04516,-0.104422 0.103011,-0.104422 z"
         style="font-weight:600;font-size:1.41111px;font-family:'URW Gothic';-inkscape-font-specification:'URW Gothic Semi-Bold'"
         id="path8446" />
    </g>
    <path
       style="fill:none;stroke:#c4c9cf;stroke-width:0.2;stroke-linecap:butt;stroke-linejoin:miter;stroke-opacity:1;stroke-dasharray:none"
       d="M 3.96875,5.2916666 H 17.197917"
       id="path1091" />
    <path
       style="display:inline;fill:none;stroke:#c4c9cf;stroke-width:0.183302;stroke-linecap:butt;stroke-linejoin:miter;stroke-dasharray:none;stroke-opacity:1"
       d="M 5.0270833,13.229167 H 16.139583"
       id="path1091-6" />
    <rect
       style="opacity:1;fill:#495057;fill-opacity:1;stroke:none;stroke-width:3;stroke-linecap:square;stroke-dasharray:none;paint-order:markers fill stroke"
       id="rect1318"
       width="1.5874996"
       height="0.79375029"
       x="15.08125"
       y="4.1329999"
       rx="0"
       ry="0.79375029" />
    <rect
       style="display:inline;fill:#495057;fill-opacity:1;stroke:none;stroke-width:0.614779;stroke-linecap:square;stroke-dasharray:none;paint-order:markers fill stroke"
       id="rect1318-6"
       width="0.2"
       height="0.26458335"
       x="-16.868752"
       y="4.397583"
       rx="0"
       ry="0.26458335"
       transform="scale(-1,1)" />
    <rect
       style="display:inline;fill:#495057;fill-opacity:1;stroke:none;stroke-width:1.41421;stroke-linecap:square;stroke-dasharray:none;paint-order:markers fill stroke"
       id="rect1318-6-7"
       width="0.26458329"
       height="1.058333"
       x="4.3656249"
       y="3.96875"
       rx="0"
       ry="1.058333" />
    <rect
       style="display:inline;fill:#495057;fill-opacity:1;stroke:none;stroke-width:1.22474;stroke-linecap:square;stroke-dasharray:none;paint-order:markers fill stroke"
       id="rect1318-6-7-5"
       width="0.26458329"
       height="0.79374969"
       x="4.7625003"
       y="4.2333331"
       rx="0"
       ry="0.79374969" />
    <rect
       style="display:inline;fill:#495057;fill-opacity:1;stroke:none;stroke-width:0.999996;stroke-linecap:square;stroke-dasharray:none;paint-order:markers fill stroke"
       id="rect1318-6-7-5-3"
       width="0.26458329"
       height="0.52916616"
       x="5.1593752"
       y="4.4979167"
       rx="9.5367433e-08"
       ry="0.52916616" />
    <rect
       style="display:inline;fill:#495057;fill-opacity:1;stroke:none;stroke-width:0.707104;stroke-linecap:square;stroke-dasharray:none;paint-order:markers fill stroke"
       id="rect1318-6-7-5-3-5"
       width="0.26458329"
       height="0.26458311"
       x="5.5562501"
       y="4.7624998"
       rx="9.5367433e-08"
       ry="0.26458311" />
  </g>
</svg>
