<?xml version="1.0" encoding="UTF-8" standalone="no"?>
<svg
   sodipodi:docname="hygrotemp_cgg1.svg"
   inkscape:version="1.2.2 (b0a8486541, 2022-12-01)"
   id="svg8"
   version="1.1"
   viewBox="0 0 21.166666 21.166667"
   height="80"
   width="80"
   xmlns:inkscape="http://www.inkscape.org/namespaces/inkscape"
   xmlns:sodipodi="http://sodipodi.sourceforge.net/DTD/sodipodi-0.dtd"
   xmlns="http://www.w3.org/2000/svg"
   xmlns:svg="http://www.w3.org/2000/svg"
   xmlns:rdf="http://www.w3.org/1999/02/22-rdf-syntax-ns#"
   xmlns:cc="http://creativecommons.org/ns#"
   xmlns:dc="http://purl.org/dc/elements/1.1/">
  <defs
     id="defs2" />
  <sodipodi:namedview
     inkscape:document-rotation="0"
     inkscape:snap-grids="true"
     inkscape:snap-center="true"
     inkscape:snap-midpoints="true"
     inkscape:snap-smooth-nodes="true"
     inkscape:snap-bbox-edge-midpoints="true"
     inkscape:bbox-nodes="true"
     inkscape:snap-intersection-paths="true"
     inkscape:object-paths="true"
     inkscape:snap-bbox="true"
     inkscape:snap-object-midpoints="true"
     inkscape:window-maximized="0"
     inkscape:window-y="0"
     inkscape:window-x="1720"
     inkscape:window-height="1355"
     inkscape:window-width="1720"
     borderlayer="true"
     units="px"
     showgrid="true"
     inkscape:current-layer="layer1"
     inkscape:document-units="mm"
     inkscape:cy="37.062263"
     inkscape:cx="31.22524"
     inkscape:zoom="8.8229907"
     inkscape:pageshadow="2"
     inkscape:pageopacity="0.0"
     borderopacity="1"
     bordercolor="#ff0101"
     pagecolor="#ffffff"
     id="base"
     inkscape:pagecheckerboard="0"
     inkscape:snap-page="true"
     inkscape:snap-nodes="false"
     inkscape:snap-to-guides="false"
     inkscape:showpageshadow="2"
     inkscape:deskcolor="#d1d1d1">
    <inkscape:grid
       id="grid4518"
       type="xygrid" />
  </sodipodi:namedview>
  <metadata
     id="metadata5">
    <rdf:RDF>
      <cc:Work
         rdf:about="">
        <dc:format>image/svg+xml</dc:format>
        <dc:type
           rdf:resource="http://purl.org/dc/dcmitype/StillImage" />
        <cc:license
           rdf:resource="http://creativecommons.org/licenses/by-sa/4.0/" />
      </cc:Work>
      <cc:License
         rdf:about="http://creativecommons.org/licenses/by-sa/4.0/">
        <cc:permits
           rdf:resource="http://creativecommons.org/ns#Reproduction" />
        <cc:permits
           rdf:resource="http://creativecommons.org/ns#Distribution" />
        <cc:requires
           rdf:resource="http://creativecommons.org/ns#Notice" />
        <cc:requires
           rdf:resource="http://creativecommons.org/ns#Attribution" />
        <cc:permits
           rdf:resource="http://creativecommons.org/ns#DerivativeWorks" />
        <cc:requires
           rdf:resource="http://creativecommons.org/ns#ShareAlike" />
      </cc:License>
    </rdf:RDF>
  </metadata>
  <g
     style="display:inline"
     transform="translate(0,-275.83332)"
     id="layer1"
     inkscape:groupmode="layer"
     inkscape:label="body">
    <path
       style="color:#000000;-inkscape-stroke:none;opacity:0.33;stroke:none"
       d="m 10.585938,277.15625 c -5.1122359,0 -9.2636724,4.14926 -9.2636724,9.25977 0,5.1105 4.1514365,9.26171 9.2636724,9.26171 5.112235,0 9.263671,-4.15121 9.263671,-9.26171 0,-5.11051 -4.151436,-9.25977 -9.263671,-9.25977 z m 0,0.66602 c 4.752365,0 8.597656,3.84339 8.597656,8.59375 0,4.75036 -3.845291,8.5957 -8.597656,8.5957 -4.752366,0 -8.5976568,-3.84534 -8.5976568,-8.5957 10e-8,-4.75036 3.8452908,-8.59375 8.5976568,-8.59375 z"
       id="path4539" />
    <path
       style="color:#000000;-inkscape-stroke:none;opacity:0.5;stroke:none"
       d="m 10.583984,279.00781 c -4.088251,0 -7.4082028,3.31995 -7.4082027,7.40821 0,4.08825 3.3199517,7.4082 7.4082027,7.4082 4.088252,0 7.408203,-3.31995 7.408203,-7.4082 0,-4.08826 -3.319951,-7.40821 -7.408203,-7.40821 z m 0,0.55078 c 3.791328,0 6.857422,3.0661 6.857422,6.85743 0,3.79132 -3.066094,6.85937 -6.857422,6.85937 -3.7913271,0 -6.8593746,-3.06805 -6.8593746,-6.85937 0,-3.79133 3.0680475,-6.85743 6.8593746,-6.85743 z"
       id="path4543" />
    <path
       style="color:#000000;-inkscape-stroke:none;stroke:none;opacity:0.5"
       d="m 4.2324219,286.80664 v 0.2793 H 16.933594 v -0.2793 z"
       id="path4551" />
  </g>
  <g
     inkscape:groupmode="layer"
     id="layer2"
     inkscape:label="texts">
    <g
       transform="matrix(0.79103916,0,0,0.79073862,2.1110246,-215.31672)"
       id="text4557"
       style="display:inline;font-style:normal;font-weight:normal;font-size:10.5833px;line-height:1.25;font-family:sans-serif;letter-spacing:0px;word-spacing:0px;fill-opacity:1;stroke:none;stroke-width:0.333634;stroke-opacity:1;opacity:0.8"
       aria-label="50%">
      <path
         inkscape:connector-curvature="0"
         id="path933"
         style="font-style:normal;font-variant:normal;font-weight:600;font-stretch:normal;font-size:4.93889px;font-family:'URW Gothic';-inkscape-font-specification:'URW Gothic Semi-Bold';fill-opacity:1;stroke:none;stroke-width:0.333634;stroke-opacity:1"
         d="m 6.7567266,290.13499 0.5827889,0.15804 c 0.1629833,-0.20249 0.3012722,-0.27657 0.5087055,-0.27657 0.3407834,0 0.5926667,0.28151 0.5926667,0.65193 0,0.39511 -0.2469444,0.67169 -0.6025444,0.67169 -0.3160889,0 -0.5235223,-0.19756 -0.5926667,-0.55316 H 6.5888043 c 0.034572,0.65688 0.5877278,1.1557 1.2692945,1.1557 0.7112,0 1.2396612,-0.54821 1.2396612,-1.28411 0,-0.71614 -0.48895,-1.2446 -1.1557001,-1.2446 -0.1679222,0 -0.2765777,0.0247 -0.4691944,0.10372 l 0.1185333,-0.67169 h 1.1557001 v -0.61736 h -1.649589 z" />
      <path
         inkscape:connector-curvature="0"
         id="path935"
         style="font-style:normal;font-variant:normal;font-weight:600;font-stretch:normal;font-size:4.93889px;font-family:'URW Gothic';-inkscape-font-specification:'URW Gothic Semi-Bold';fill-opacity:1;stroke:none;stroke-width:0.333634;stroke-opacity:1"
         d="m 11.890933,289.38428 c 0,-0.74083 -0.479072,-1.21991 -1.219905,-1.21991 -0.7507114,0 -1.2248448,0.48401 -1.2248448,1.24954 v 1.2446 c 0,0.35066 0.069145,0.59761 0.2321278,0.81986 0.2271889,0.30127 0.57785,0.46425 1.02235,0.46425 0.419806,0 0.745772,-0.1531 0.958145,-0.4445 0.162983,-0.23212 0.232127,-0.47413 0.232127,-0.83961 z m -1.787878,0.0296 c 0,-0.40005 0.217312,-0.64699 0.572912,-0.64699 0.3556,0 0.558094,0.23213 0.558094,0.64699 v 1.23966 c 0,0.45932 -0.182739,0.68651 -0.553156,0.68651 -0.375355,0 -0.57785,-0.24695 -0.57785,-0.70132 z" />
      <path
         sodipodi:nodetypes="ccccccssssssssssssssssssss"
         inkscape:connector-curvature="0"
         id="path937"
         style="font-style:normal;font-variant:normal;font-weight:600;font-stretch:normal;font-size:65%;font-family:'URW Gothic';-inkscape-font-specification:'URW Gothic Semi-Bold';baseline-shift:super;fill-opacity:1;stroke:none;stroke-width:0.333634;stroke-opacity:1"
         d="m 13.995383,287.94808 -0.979135,2.37239 h 0.327449 l 0.185105,-0.44703 0.79724,-1.92536 z m 0.407705,1.25522 c -0.327448,0 -0.58427,0.25361 -0.58427,0.57785 0,0.32102 0.260032,0.58106 0.58106,0.58106 0.321028,0 0.58106,-0.26004 0.58106,-0.58106 0,-0.31461 -0.263242,-0.57785 -0.57785,-0.57785 z m -0.0032,0.34029 c 0.128411,0 0.237561,0.10914 0.237561,0.23756 0,0.13162 -0.10594,0.23756 -0.237561,0.23756 -0.128411,0 -0.23435,-0.10594 -0.23435,-0.23756 0,-0.13163 0.102729,-0.23756 0.23435,-0.23756 z m -1.447835,-1.63725 c -0.327449,0 -0.584271,0.25362 -0.584271,0.58106 0,0.31782 0.260033,0.57785 0.581061,0.57785 0.321027,0 0.58106,-0.26003 0.58106,-0.58106 0,-0.3146 -0.263243,-0.57785 -0.57785,-0.57785 z m -0.0032,0.34029 c 0.131621,0 0.23756,0.10915 0.23756,0.23756 0,0.13162 -0.105939,0.23756 -0.23756,0.23756 -0.128412,0 -0.234351,-0.10594 -0.234351,-0.23756 0,-0.13162 0.102729,-0.23756 0.234351,-0.23756 z" />
    </g>
    <g
       transform="matrix(0.7355106,0,0,0.73523118,2.804814,-200.52931)"
       id="text4547"
       style="display:inline;font-style:normal;font-weight:normal;font-size:10.5833px;line-height:1.25;font-family:sans-serif;letter-spacing:0px;word-spacing:0px;fill-opacity:1;stroke:none;stroke-width:0.358822;opacity:0.8"
       aria-label="24. ">
      <path
         inkscape:connector-curvature="0"
         id="path940"
         style="font-style:normal;font-variant:normal;font-weight:600;font-stretch:normal;font-size:7.76111px;font-family:'URW Gothic';-inkscape-font-specification:'URW Gothic Semi-Bold';fill-opacity:1;stroke:none;stroke-width:0.358822;stroke-opacity:1"
         d="m 5.7438607,286.40686 h 3.7098112 v -0.97014 H 7.1951885 l 1.1719278,-1.06327 c 0.8382,-0.75283 1.1098389,-1.23402 1.1098389,-1.94028 0,-1.06327 -0.7993944,-1.86267 -1.8704278,-1.86267 -0.6674556,0 -1.2728222,0.31821 -1.5987889,0.8382 -0.2173111,0.34149 -0.3026833,0.69074 -0.3026833,1.24178 h 1.0167055 c 0,-0.68298 0.3570111,-1.13312 0.8925278,-1.13312 0.4734278,0 0.8304389,0.38806 0.8304389,0.90029 0,0.37253 -0.1862666,0.70626 -0.6596944,1.14864 l -2.0411723,1.93252 z" />
      <path
         sodipodi:nodetypes="cccccccccccccccc"
         inkscape:connector-curvature="0"
         id="path942"
         style="font-style:normal;font-variant:normal;font-weight:600;font-stretch:normal;font-size:7.76111px;font-family:'URW Gothic';-inkscape-font-specification:'URW Gothic Semi-Bold';fill-opacity:1;stroke:none;stroke-width:0.358822;stroke-opacity:1"
         d="m 9.7916441,284.70718 v 0.8382 h 2.4757949 v 0.86148 h 1.032227 v -0.86148 h 0.605367 v -0.92358 h -0.605367 v -3.9504 h -0.869244 z m 2.4757949,-0.0854 h -1.428045 l 1.428045,-2.21191 z" />
      <path
         inkscape:connector-curvature="0"
         id="path944"
         style="font-style:normal;font-variant:normal;font-weight:600;font-stretch:normal;font-size:7.76111px;font-family:'URW Gothic';-inkscape-font-specification:'URW Gothic Semi-Bold';fill-opacity:1;stroke:none;stroke-width:0.358822;stroke-opacity:1"
         d="m 14.700911,286.40686 h 1.032228 v -0.99342 h -1.032228 z" />
    </g>
  </g>
</svg>
