<?xml version="1.0" encoding="UTF-8" standalone="no"?>
<svg
   sodipodi:docname="hygrotemp_mhoc401.svg"
   inkscape:version="1.2.2 (b0a8486541, 2022-12-01)"
   id="svg8"
   version="1.1"
   viewBox="0 0 21.166666 21.166667"
   height="80"
   width="80"
   xmlns:inkscape="http://www.inkscape.org/namespaces/inkscape"
   xmlns:sodipodi="http://sodipodi.sourceforge.net/DTD/sodipodi-0.dtd"
   xmlns="http://www.w3.org/2000/svg"
   xmlns:svg="http://www.w3.org/2000/svg"
   xmlns:rdf="http://www.w3.org/1999/02/22-rdf-syntax-ns#"
   xmlns:cc="http://creativecommons.org/ns#"
   xmlns:dc="http://purl.org/dc/elements/1.1/">
  <defs
     id="defs2">
    <inkscape:perspective
       id="perspective848"
       inkscape:persp3d-origin="10.583333 : 7.0555557 : 1"
       inkscape:vp_z="21.166666 : 10.583334 : 1"
       inkscape:vp_y="0 : 1000 : 0"
       inkscape:vp_x="0 : 10.583334 : 1"
       sodipodi:type="inkscape:persp3d" />
  </defs>
  <sodipodi:namedview
     inkscape:bbox-paths="true"
     inkscape:snap-nodes="true"
     inkscape:snap-others="true"
     inkscape:snap-global="false"
     inkscape:document-rotation="0"
     inkscape:snap-grids="true"
     inkscape:snap-center="true"
     inkscape:snap-midpoints="false"
     inkscape:snap-smooth-nodes="true"
     inkscape:snap-bbox-edge-midpoints="false"
     inkscape:bbox-nodes="true"
     inkscape:snap-intersection-paths="true"
     inkscape:object-paths="false"
     inkscape:snap-bbox="true"
     inkscape:snap-object-midpoints="true"
     inkscape:window-maximized="0"
     inkscape:window-y="0"
     inkscape:window-x="1346"
     inkscape:window-height="1355"
     inkscape:window-width="1720"
     borderlayer="true"
     units="px"
     showgrid="true"
     inkscape:current-layer="layer1"
     inkscape:document-units="mm"
     inkscape:cy="27.606945"
     inkscape:cx="39.817709"
     inkscape:zoom="10.359712"
     inkscape:pageshadow="2"
     inkscape:pageopacity="0.0"
     borderopacity="1"
     bordercolor="#ff0101"
     pagecolor="#ffffff"
     id="base"
     showguides="false"
     inkscape:showpageshadow="2"
     inkscape:pagecheckerboard="0"
     inkscape:deskcolor="#d1d1d1">
    <inkscape:grid
       id="grid4518"
       type="xygrid" />
  </sodipodi:namedview>
  <metadata
     id="metadata5">
    <rdf:RDF>
      <cc:Work
         rdf:about="">
        <dc:format>image/svg+xml</dc:format>
        <dc:type
           rdf:resource="http://purl.org/dc/dcmitype/StillImage" />
        <dc:title />
        <cc:license
           rdf:resource="http://creativecommons.org/licenses/by-sa/4.0/" />
      </cc:Work>
      <cc:License
         rdf:about="http://creativecommons.org/licenses/by-sa/4.0/">
        <cc:permits
           rdf:resource="http://creativecommons.org/ns#Reproduction" />
        <cc:permits
           rdf:resource="http://creativecommons.org/ns#Distribution" />
        <cc:requires
           rdf:resource="http://creativecommons.org/ns#Notice" />
        <cc:requires
           rdf:resource="http://creativecommons.org/ns#Attribution" />
        <cc:permits
           rdf:resource="http://creativecommons.org/ns#DerivativeWorks" />
        <cc:requires
           rdf:resource="http://creativecommons.org/ns#ShareAlike" />
      </cc:License>
    </rdf:RDF>
  </metadata>
  <g
     style="display:inline"
     transform="translate(0,-275.83332)"
     id="layer1"
     inkscape:groupmode="layer"
     inkscape:label="body">
    <path
       id="rect866-3"
       style="display:inline;opacity:0.25;fill-opacity:1;fill-rule:nonzero;stroke:none;stroke-width:1.30049;stroke-miterlimit:4;stroke-dasharray:none;stroke-opacity:1"
       d="M 3.96875 277.15624 C 2.1166686 277.15624 1.3229167 277.94999 1.3229167 279.80207 L 1.3229167 293.03124 C 1.3229167 294.88331 2.1166686 295.67707 3.96875 295.67707 L 17.197917 295.67707 C 19.049998 295.67707 19.84375 294.88331 19.84375 293.03124 L 19.84375 279.80207 C 19.84375 277.94999 19.049998 277.15624 17.197917 277.15624 L 3.96875 277.15624 z M 4.3465047 277.6854 L 16.820162 277.6854 C 18.566409 277.6854 19.314583 278.43358 19.314583 280.17982 L 19.314583 292.65348 C 19.314583 294.39974 18.566409 295.1479 16.820162 295.1479 L 4.3465047 295.1479 C 2.6002567 295.1479 1.8520833 294.39974 1.8520833 292.65348 L 1.8520833 280.17982 C 1.8520833 278.43358 2.6002567 277.6854 4.3465047 277.6854 z " />
    <path
       inkscape:connector-curvature="0"
       id="rect866-3-6-6"
       d="m 4.3469468,277.6854 c -1.7462501,0 -2.494643,0.7484 -2.494643,2.49465 v 12.4732 c 0,1.74626 0.7483929,2.49465 2.494643,2.49465 H 16.820162 c 1.746249,0 2.494642,-0.74839 2.494642,-2.49465 v -12.4732 c 0,-1.74625 -0.748393,-2.49465 -2.494642,-2.49465 z m 0.415774,2.11667 H 16.404388 c 0.529166,0 0.79375,0.26458 0.79375,0.79375 v 11.64167 c 0,0.52916 -0.264584,0.79375 -0.79375,0.79375 H 4.7627208 c -0.529167,0 -0.79375,-0.26459 -0.79375,-0.79375 v -11.64167 c 0,-0.52917 0.264583,-0.79375 0.79375,-0.79375 z"
       style="display:inline;fill-opacity:1;fill-rule:nonzero;stroke:none;stroke-width:1.22617;stroke-miterlimit:4;stroke-dasharray:none;stroke-opacity:1;opacity:0.5"
       sodipodi:nodetypes="ssssssssssssssssss" />
  </g>
  <g
     style="display:inline"
     inkscape:label="textes_path"
     id="g927"
     inkscape:groupmode="layer">
    <g
       aria-label="(^_^)"
       style="font-style:normal;font-weight:normal;font-size:8.85094px;line-height:1.25;font-family:sans-serif;letter-spacing:0px;word-spacing:0px;display:inline;fill-opacity:1;stroke:none;stroke-width:0.264583;opacity:0.66"
       id="g903"
       transform="matrix(0.51749393,0,0,0.51749393,10.572653,4.3750556)">
      <path
         d="M 5.707247,15.356416 C 5.4758248,15.206838 5.3121359,14.862527 5.3121359,14.529505 c 0,-0.338667 0.1382889,-0.632178 0.3951111,-0.829733 v -0.4064 c -0.1495777,0.06209 -0.2314222,0.112889 -0.3414889,0.211666 -0.2709333,0.242712 -0.4346222,0.626534 -0.4346222,1.027289 0,0.352778 0.1326445,0.697089 0.3612445,0.953911 0.1354666,0.146756 0.2427111,0.220134 0.4148666,0.2794 z"
         style="font-style:normal;font-variant:normal;font-weight:600;font-stretch:normal;font-size:2.82222px;line-height:1;font-family:'URW Gothic';-inkscape-font-specification:'URW Gothic Semi-Bold';letter-spacing:-0.264583px;fill-opacity:1;stroke-width:0.264583"
         id="path893"
         inkscape:connector-curvature="0" />
      <path
         d="M 6.0014613,14.492816 6.3852835,13.716705 6.7691057,14.495638 7.0626168,14.354527 6.5574391,13.293372 H 6.213128 l -0.5051778,1.061155 z"
         style="font-style:normal;font-variant:normal;font-weight:600;font-stretch:normal;font-size:2.82222px;line-height:1;font-family:'URW Gothic';-inkscape-font-specification:'URW Gothic Semi-Bold';letter-spacing:-0.264583px;fill-opacity:1;stroke-width:0.264583"
         id="path895"
         inkscape:connector-curvature="0" />
      <path
         d="m 6.9588959,15.556794 v 0.254 H 8.370007 v -0.254 z"
         style="font-style:normal;font-variant:normal;font-weight:600;font-stretch:normal;font-size:2.82222px;line-height:1;font-family:'URW Gothic';-inkscape-font-specification:'URW Gothic Semi-Bold';letter-spacing:-0.264583px;fill-opacity:1;stroke-width:0.264583"
         id="path897"
         inkscape:connector-curvature="0" />
      <path
         d="M 8.5767293,14.492816 8.9605515,13.716705 9.3443738,14.495638 9.6378849,14.354527 9.1327071,13.293372 H 8.788396 l -0.5051778,1.061155 z"
         style="font-style:normal;font-variant:normal;font-weight:600;font-stretch:normal;font-size:2.82222px;line-height:1;font-family:'URW Gothic';-inkscape-font-specification:'URW Gothic Semi-Bold';letter-spacing:-0.264583px;fill-opacity:1;stroke-width:0.264583"
         id="path899"
         inkscape:connector-curvature="0" />
      <path
         d="m 9.6385862,13.702594 c 0.2314222,0.149578 0.3951108,0.493889 0.3951108,0.824089 0,0.341489 -0.1382886,0.635 -0.3951108,0.832555 v 0.4064 c 0.1495778,-0.06209 0.2342444,-0.115711 0.3414889,-0.211666 0.2709329,-0.242711 0.4346219,-0.629356 0.4346219,-1.027289 0,-0.352778 -0.132644,-0.697089 -0.361244,-0.953911 -0.1354668,-0.146756 -0.2427113,-0.220134 -0.4148668,-0.2794 z"
         style="font-style:normal;font-variant:normal;font-weight:600;font-stretch:normal;font-size:2.82222px;line-height:1;font-family:'URW Gothic';-inkscape-font-specification:'URW Gothic Semi-Bold';letter-spacing:-0.264583px;fill-opacity:1;stroke-width:0.264583"
         id="path901"
         inkscape:connector-curvature="0" />
    </g>
    <g
       aria-label="25 "
       id="text909"
       style="font-style:normal;font-weight:normal;font-size:6.35px;line-height:1.25;font-family:sans-serif;letter-spacing:0px;word-spacing:0px;display:inline;opacity:0.8;fill-opacity:1;stroke:none;stroke-width:0.264583">
      <path
         d="M 8.2985563,9.8531609 H 5.3405973 V 9.4407829 L 6.9032926,7.7044548 Q 7.2505582,7.3106804 7.3807829,7.0657341 7.514108,6.8176873 7.514108,6.5541375 q 0,-0.3534668 -0.2139404,-0.5798096 -0.2139404,-0.2263428 -0.5705078,-0.2263428 -0.4278808,0 -0.6666259,0.2449463 Q 5.8273893,6.2347771 5.8273893,6.6688591 H 5.2537809 q 0,-0.6232177 0.3999756,-1.0076904 0.4030762,-0.3844726 1.0759033,-0.3844726 0.629419,0 0.9952881,0.3317627 0.3658691,0.3286621 0.3658691,0.8774658 0,0.6666259 -0.8495605,1.5875 L 6.032028,9.3849724 h 2.2665283 z"
         style="font-style:normal;font-variant:normal;font-weight:normal;font-stretch:normal;font-size:6.35px;font-family:Roboto;-inkscape-font-specification:Roboto;fill-opacity:1;stroke-width:0.264583"
         id="path939" />
      <path
         d="M 9.169821,7.5897332 9.3992643,5.3387078 H 11.712301 V 5.868908 H 9.8860563 L 9.7496305,7.0998406 q 0.3317625,-0.1953369 0.7534425,-0.1953369 0.617016,0 0.979785,0.4092773 0.362769,0.4061768 0.362769,1.100708 0,0.6976318 -0.378272,1.100708 -0.375171,0.3999756 -1.051099,0.3999756 -0.5984126,0 -0.9766841,-0.3317627 Q 9.0613005,9.2516472 9.0085905,8.6656365 H 9.551193 q 0.05271,0.3875732 0.2759522,0.5860107 0.2232418,0.1953369 0.5891108,0.1953369 0.399976,0 0.626319,-0.2728516 0.229443,-0.2728515 0.229443,-0.7534423 0,-0.4526856 -0.248047,-0.7255371 -0.244946,-0.2759522 -0.654223,-0.2759522 -0.3751712,0 -0.5891116,0.1643311 L 9.6287077,7.7075554 Z"
         style="font-style:normal;font-variant:normal;font-weight:normal;font-stretch:normal;font-size:6.35px;font-family:Roboto;-inkscape-font-specification:Roboto;fill-opacity:1;stroke-width:0.264583"
         id="path941" />
      <path
         d="m 15.360508,8.0294329 q 0,0.1877578 -0.09991,0.3341745 -0.09819,0.1464166 -0.266995,0.229099 0.19637,0.084405 0.310059,0.2463245 0.11541,0.1619196 0.11541,0.3669029 0,0.3255617 -0.220486,0.5184872 -0.218764,0.1929254 -0.577054,0.1929254 -0.361735,0 -0.580499,-0.1929254 -0.217041,-0.194648 -0.217041,-0.5184872 0,-0.2032608 0.110243,-0.3669029 0.111966,-0.1636422 0.308336,-0.2480471 -0.167087,-0.082682 -0.263549,-0.229099 -0.09646,-0.1464166 -0.09646,-0.3324519 0,-0.316949 0.203261,-0.5029843 0.20326,-0.1860352 0.535712,-0.1860352 0.33073,0 0.53399,0.1860352 0.204984,0.1860353 0.204984,0.5029843 z m -0.260105,1.1696107 q 0,-0.210151 -0.134359,-0.3427872 -0.132636,-0.1326363 -0.347955,-0.1326363 -0.215318,0 -0.346232,0.1309137 -0.129191,0.1309137 -0.129191,0.3445098 0,0.213596 0.125746,0.335897 0.127468,0.122301 0.353122,0.122301 0.223932,0 0.3514,-0.122301 0.127469,-0.1240235 0.127469,-0.335897 z M 14.621534,7.6022408 q -0.187758,0 -0.304891,0.1171333 -0.115411,0.1154108 -0.115411,0.3152264 0,0.191203 0.113689,0.3100588 0.11541,0.1171334 0.306613,0.1171334 0.191203,0 0.304891,-0.1171334 0.115411,-0.1188558 0.115411,-0.3100588 0,-0.1912029 -0.118856,-0.3117813 -0.118856,-0.1205784 -0.301446,-0.1205784 z"
         style="font-style:normal;font-variant:normal;font-weight:normal;font-stretch:normal;font-size:3.52778px;line-height:1.25;font-family:Roboto;-inkscape-font-specification:Roboto;letter-spacing:0px;word-spacing:0px;display:inline;opacity:1;fill-opacity:1;stroke:none;stroke-width:0.264583"
         id="path931" />
      <path
         d="m 12.950662,9.7158082 q 0,-0.082682 0.04823,-0.1378039 0.04995,-0.055122 0.148139,-0.055122 0.09819,0 0.14814,0.055122 0.05168,0.055122 0.05168,0.1378039 0,0.079237 -0.05168,0.1326363 -0.04995,0.053399 -0.14814,0.053399 -0.09818,0 -0.148139,-0.053399 -0.04823,-0.053399 -0.04823,-0.1326363 z"
         style="font-style:normal;font-variant:normal;font-weight:normal;font-stretch:normal;font-size:3.52778px;line-height:1.25;font-family:Roboto;-inkscape-font-specification:Roboto;letter-spacing:0px;word-spacing:0px;display:inline;opacity:1;fill-opacity:1;stroke:none;stroke-width:0.264583"
         id="path929" />
    </g>
    <g
       aria-label="°C"
       id="text913"
       style="font-style:normal;font-weight:normal;font-size:2.11667px;line-height:1.25;font-family:sans-serif;letter-spacing:0px;word-spacing:0px;fill-opacity:1;stroke:none;stroke-width:0.264583;opacity:0.66">
      <path
         d="m 13.258161,5.5653508 q 0,-0.1074872 0.07648,-0.1881025 0.07752,-0.080615 0.187069,-0.080615 0.107487,0 0.182935,0.080615 0.07648,0.079582 0.07648,0.1881025 0,0.1095542 -0.07648,0.1870689 -0.07545,0.077515 -0.182935,0.077515 -0.10852,0 -0.186035,-0.077515 -0.07752,-0.077515 -0.07752,-0.1870689 z m 0.26355,0.1322918 q 0.05581,0 0.09405,-0.036174 0.03824,-0.037207 0.03824,-0.096118 0,-0.059945 -0.03824,-0.098185 -0.03824,-0.039274 -0.09405,-0.039274 -0.05684,0 -0.09612,0.041341 -0.03824,0.040308 -0.03824,0.096118 0,0.055811 0.03824,0.094051 0.03927,0.038241 0.09612,0.038241 z"
         style="font-style:normal;font-variant:normal;font-weight:normal;font-stretch:normal;font-size:2.11667px;font-family:Roboto;-inkscape-font-specification:Roboto;fill-opacity:1;stroke-width:0.264583"
         id="path934" />
      <path
         d="m 15.19603,6.3446326 q -0.02791,0.2387454 -0.176733,0.3689703 -0.147795,0.1291912 -0.393775,0.1291912 -0.266651,0 -0.427882,-0.1912031 Q 14.037443,6.460388 14.037443,6.1399936 V 5.9952994 q 0,-0.2098067 0.07441,-0.3689703 0.07545,-0.1591637 0.212907,-0.2439132 0.13746,-0.085783 0.318328,-0.085783 0.239779,0 0.384473,0.1343589 0.144694,0.1333254 0.168465,0.3700039 H 14.996555 Q 14.970715,5.6211614 14.8839,5.5405461 q -0.08578,-0.080615 -0.240812,-0.080615 -0.19017,0 -0.298691,0.1405601 -0.107487,0.1405601 -0.107487,0.3999762 v 0.1457278 q 0,0.2449466 0.10232,0.3896409 0.102319,0.1446942 0.286288,0.1446942 0.165364,0 0.253214,-0.074414 0.08888,-0.075448 0.117823,-0.2614831 z"
         style="font-style:normal;font-variant:normal;font-weight:normal;font-stretch:normal;font-size:2.11667px;font-family:Roboto;-inkscape-font-specification:Roboto;fill-opacity:1;stroke-width:0.264583"
         id="path936" />
    </g>
    <g
       transform="matrix(0.88825678,0,0,0.88825678,0.95877363,1.5121056)"
       aria-label="36"
       id="text921"
       style="font-style:normal;font-weight:normal;font-size:6.35px;line-height:1.25;font-family:sans-serif;letter-spacing:0px;word-spacing:0px;fill-opacity:1;stroke:none;stroke-width:0.264583;opacity:0.8">
      <path
         d="m 6.2299061,13.252915 h 0.4309814 q 0.4061768,-0.0062 0.6387207,-0.213941 0.2325439,-0.207739 0.2325439,-0.561206 0,-0.79375 -0.7906494,-0.79375 -0.3720703,0 -0.5953125,0.213941 -0.2201416,0.21084 -0.2201416,0.561206 H 5.3524403 q 0,-0.536401 0.3906738,-0.889868 0.3937744,-0.356568 0.9983886,-0.356568 0.6387207,0 1.0014893,0.337964 0.3627685,0.337964 0.3627685,0.939478 0,0.294555 -0.1922363,0.570508 -0.1891357,0.275952 -0.5177978,0.412377 0.3720703,0.117823 0.5736083,0.390674 0.2046387,0.272852 0.2046387,0.666626 0,0.607715 -0.396875,0.964282 -0.396875,0.356568 -1.0324951,0.356568 -0.6356201,0 -1.0355957,-0.344165 -0.396875,-0.344165 -0.396875,-0.908472 h 0.576709 q 0,0.356568 0.232544,0.570508 0.2325439,0.21394 0.6232177,0.21394 0.4154785,0 0.6356201,-0.217041 0.2201416,-0.217041 0.2201416,-0.623217 0,-0.393775 -0.2418457,-0.604615 -0.2418457,-0.21084 -0.6976318,-0.217041 H 6.2299061 Z"
         style="font-style:normal;font-variant:normal;font-weight:normal;font-stretch:normal;font-size:6.35px;font-family:roboto;-inkscape-font-specification:roboto;fill-opacity:1;stroke-width:0.264583"
         id="path944" />
      <path
         d="m 11.212548,11.27164 v 0.486792 h -0.10542 q -0.669727,0.0124 -1.066602,0.396875 -0.3968748,0.384473 -0.4588865,1.082105 0.3565673,-0.409277 0.9735835,-0.409277 0.589112,0 0.939478,0.415478 0.353467,0.415479 0.353467,1.072803 0,0.697632 -0.381372,1.116211 -0.378272,0.418579 -1.016992,0.418579 -0.6480229,0 -1.0510991,-0.496094 Q 8.9956287,14.855918 8.9956287,14.07147 v -0.220142 q 0,-1.246436 0.5302002,-1.90376 0.5333011,-0.660425 1.5843991,-0.675928 z m -0.753443,2.033985 q -0.294555,0 -0.5426023,0.176733 -0.2480468,0.176734 -0.344165,0.443384 v 0.21084 q 0,0.558105 0.2511475,0.89917 0.2511478,0.341064 0.6263188,0.341064 0.387573,0 0.607714,-0.285254 0.223243,-0.285254 0.223243,-0.747241 0,-0.465088 -0.226343,-0.750342 -0.223242,-0.288354 -0.595313,-0.288354 z"
         style="font-style:normal;font-variant:normal;font-weight:normal;font-stretch:normal;font-size:6.35px;font-family:roboto;-inkscape-font-specification:roboto;fill-opacity:1;stroke-width:0.264583"
         id="path946" />
    </g>
    <g
       aria-label="%"
       id="text925"
       style="font-style:normal;font-weight:normal;font-size:4.23333px;line-height:1.25;font-family:sans-serif;letter-spacing:0px;word-spacing:0px;fill-opacity:1;stroke:none;stroke-width:0.264583;opacity:0.66"
       transform="matrix(0.88264461,0,0,0.88264461,1.7123723,1.683915)">
      <path
         d="m 13.241552,13.422811 q 0,-0.270784 0.171566,-0.446484 0.173632,-0.1757 0.444417,-0.1757 0.274918,0 0.444417,0.177767 0.171565,0.1757 0.171565,0.456819 v 0.146761 q 0,0.272851 -0.173632,0.446484 -0.171566,0.171566 -0.438216,0.171566 -0.268717,0 -0.444417,-0.171566 -0.1757,-0.173633 -0.1757,-0.460953 z m 0.285254,0.159163 q 0,0.16123 0.09095,0.26665 0.09095,0.103353 0.243913,0.103353 0.146761,0 0.235644,-0.101286 0.09095,-0.101285 0.09095,-0.276985 v -0.150895 q 0,-0.16123 -0.08888,-0.26665 -0.08888,-0.10542 -0.241845,-0.10542 -0.152962,0 -0.241846,0.10542 -0.08888,0.10542 -0.08888,0.274918 z m 1.180289,1.533755 q 0,-0.270784 0.171565,-0.444417 0.173633,-0.175699 0.444417,-0.175699 0.270784,0 0.444417,0.173632 0.173633,0.173633 0.173633,0.460954 v 0.146761 q 0,0.270784 -0.173633,0.446484 -0.171566,0.173632 -0.440283,0.173632 -0.268717,0 -0.444417,-0.171565 -0.175699,-0.173633 -0.175699,-0.460954 z m 0.285253,0.161231 q 0,0.163297 0.09095,0.268717 0.09095,0.103353 0.243912,0.103353 0.148828,0 0.237712,-0.101286 0.08888,-0.103353 0.08888,-0.279053 v -0.152962 q 0,-0.163297 -0.09095,-0.26665 -0.08888,-0.103353 -0.239779,-0.103353 -0.146761,0 -0.239778,0.103353 -0.09095,0.101286 -0.09095,0.274919 z m -1.043863,0.349332 -0.217041,-0.136426 1.469677,-2.352309 0.217041,0.136426 z"
         style="font-style:normal;font-variant:normal;font-weight:normal;font-stretch:normal;font-size:4.23333px;font-family:roboto;-inkscape-font-specification:roboto;fill-opacity:1;stroke-width:0.264583"
         id="path949" />
    </g>
  </g>
</svg>
