<?xml version="1.0" encoding="UTF-8" standalone="no"?>
<svg
   sodipodi:docname="hygrotemp_mjwsd05mmc.svg"
   inkscape:version="1.2.2 (b0a8486541, 2022-12-01)"
   id="svg8"
   version="1.1"
   viewBox="0 0 21.166666 21.166667"
   height="80"
   width="80"
   xmlns:inkscape="http://www.inkscape.org/namespaces/inkscape"
   xmlns:sodipodi="http://sodipodi.sourceforge.net/DTD/sodipodi-0.dtd"
   xmlns="http://www.w3.org/2000/svg"
   xmlns:svg="http://www.w3.org/2000/svg"
   xmlns:rdf="http://www.w3.org/1999/02/22-rdf-syntax-ns#"
   xmlns:cc="http://creativecommons.org/ns#"
   xmlns:dc="http://purl.org/dc/elements/1.1/">
  <defs
     id="defs2">
    <inkscape:perspective
       id="perspective848"
       inkscape:persp3d-origin="10.583333 : 7.0555557 : 1"
       inkscape:vp_z="21.166666 : 10.583334 : 1"
       inkscape:vp_y="0 : 1000 : 0"
       inkscape:vp_x="0 : 10.583334 : 1"
       sodipodi:type="inkscape:persp3d" />
  </defs>
  <sodipodi:namedview
     inkscape:bbox-paths="true"
     inkscape:snap-nodes="true"
     inkscape:snap-others="true"
     inkscape:snap-global="false"
     inkscape:document-rotation="0"
     inkscape:snap-grids="true"
     inkscape:snap-center="true"
     inkscape:snap-midpoints="false"
     inkscape:snap-smooth-nodes="true"
     inkscape:snap-bbox-edge-midpoints="false"
     inkscape:bbox-nodes="true"
     inkscape:snap-intersection-paths="true"
     inkscape:object-paths="false"
     inkscape:snap-bbox="true"
     inkscape:snap-object-midpoints="true"
     inkscape:window-maximized="0"
     inkscape:window-y="0"
     inkscape:window-x="1346"
     inkscape:window-height="1355"
     inkscape:window-width="1720"
     borderlayer="true"
     units="px"
     showgrid="true"
     inkscape:current-layer="layer1"
     inkscape:document-units="mm"
     inkscape:cy="43.431896"
     inkscape:cx="41.69462"
     inkscape:zoom="13.239118"
     inkscape:pageshadow="2"
     inkscape:pageopacity="0.0"
     borderopacity="1"
     bordercolor="#ff0101"
     pagecolor="#ffffff"
     id="base"
     showguides="false"
     inkscape:showpageshadow="2"
     inkscape:pagecheckerboard="0"
     inkscape:deskcolor="#d1d1d1">
    <inkscape:grid
       id="grid4518"
       type="xygrid" />
  </sodipodi:namedview>
  <metadata
     id="metadata5">
    <rdf:RDF>
      <cc:Work
         rdf:about="">
        <dc:format>image/svg+xml</dc:format>
        <dc:type
           rdf:resource="http://purl.org/dc/dcmitype/StillImage" />
        <dc:title />
        <cc:license
           rdf:resource="http://creativecommons.org/licenses/by-sa/4.0/" />
      </cc:Work>
      <cc:License
         rdf:about="http://creativecommons.org/licenses/by-sa/4.0/">
        <cc:permits
           rdf:resource="http://creativecommons.org/ns#Reproduction" />
        <cc:permits
           rdf:resource="http://creativecommons.org/ns#Distribution" />
        <cc:requires
           rdf:resource="http://creativecommons.org/ns#Notice" />
        <cc:requires
           rdf:resource="http://creativecommons.org/ns#Attribution" />
        <cc:permits
           rdf:resource="http://creativecommons.org/ns#DerivativeWorks" />
        <cc:requires
           rdf:resource="http://creativecommons.org/ns#ShareAlike" />
      </cc:License>
    </rdf:RDF>
  </metadata>
  <g
     style="display:inline"
     transform="translate(0,-275.83332)"
     id="layer1"
     inkscape:groupmode="layer"
     inkscape:label="body"
     sodipodi:insensitive="true">
    <path
       id="rect460"
       style="opacity:0.5;fill:#242424;stroke-width:1.42345;paint-order:markers fill stroke"
       d="m 2.5285278,277.94999 c -0.6680242,0 -1.2056111,0.53758 -1.2056111,1.20561 v 14.52211 c 0,0.66802 0.5375869,1.20561 1.2056111,1.20561 H 18.638139 c 0.668024,0 1.205611,-0.53759 1.205611,-1.20561 V 279.1556 c 0,-0.66803 -0.537587,-1.20561 -1.205611,-1.20561 z m 1.361674,1.5875 H 17.276465 c 0.542766,0 0.979785,0.43702 0.979785,0.97978 v 11.79876 c 0,0.54277 -0.437019,0.97979 -0.979785,0.97979 H 3.8902018 c -0.5427662,0 -0.9797851,-0.43702 -0.9797851,-0.97979 v -11.79876 c 0,-0.54276 0.4370189,-0.97978 0.9797851,-0.97978 z" />
    <path
       id="rect460-6-2"
       style="display:inline;opacity:0.33;fill:#242424;stroke-width:1.16793;paint-order:markers fill stroke"
       d="m 3.8902021,279.53749 c -0.5427668,0 -0.9797851,0.43702 -0.9797851,0.97978 v 11.79876 c 0,0.54277 0.4370183,0.97979 0.9797851,0.97979 H 17.276465 c 0.542767,0 0.979785,-0.43702 0.979785,-0.97979 v -11.79876 c 0,-0.54276 -0.437018,-0.97978 -0.979785,-0.97978 z m 0.2268596,0.26458 H 17.049605 c 0.521893,0 0.942062,0.42017 0.942062,0.94206 v 11.34505 c 0,0.52189 -0.420169,0.94206 -0.942062,0.94206 H 4.1170617 c -0.5218924,0 -0.9420614,-0.42017 -0.9420614,-0.94206 v -11.34505 c 0,-0.52189 0.420169,-0.94206 0.9420614,-0.94206 z" />
  </g>
  <g
     style="display:inline"
     inkscape:label="textes_path"
     id="g927"
     inkscape:groupmode="layer">
    <g
       aria-label="22.8 "
       transform="matrix(1.2757857,0,0,1.2729426,-3.07215,0.36290267)"
       id="text8394"
       style="font-size:10.708px;line-height:1.25;letter-spacing:0px;word-spacing:0px;display:inline;opacity:1;stroke:none;stroke-width:0.362628"
       inkscape:label="bottom">
      <g
         aria-label="36"
         id="text8398"
         style="display:inline;font-size:8.85094px;line-height:1.25;letter-spacing:0px;word-spacing:0px;opacity:0.8;stroke:none;stroke-width:0.264583"
         transform="matrix(0.46107655,0,0,0.46210636,8.1838244,5.4614053)"
         inkscape:label="humi">
        <path
           d="m 12.043834,14.599707 h 0.07761 c 0.313972,0 0.511528,0.172861 0.511528,0.437445 0,0.250472 -0.172862,0.433917 -0.409223,0.433917 -0.229306,0 -0.391583,-0.158751 -0.423333,-0.405695 h -0.472723 c 0.02822,0.490361 0.398639,0.836084 0.899584,0.836084 0.504473,0 0.874889,-0.370417 0.874889,-0.87489 0,-0.328083 -0.134055,-0.550333 -0.405694,-0.673806 0.151694,-0.109361 0.218722,-0.246944 0.218722,-0.448028 0,-0.402167 -0.299861,-0.702028 -0.702028,-0.702028 -0.204611,0 -0.391584,0.08114 -0.522112,0.22225 -0.109361,0.119945 -0.151694,0.232834 -0.169333,0.4445 h 0.47625 c 0.02117,-0.165805 0.0882,-0.236361 0.218723,-0.236361 0.134055,0 0.229305,0.102306 0.229305,0.246945 0,0.112889 -0.05292,0.194028 -0.151694,0.232833 -0.05997,0.02469 -0.123472,0.03175 -0.250473,0.03528 z"
           style="font-weight:600;font-size:3.52778px;font-family:'URW Gothic';-inkscape-font-specification:'URW Gothic Semi-Bold';stroke:none"
           id="path8427" />
        <path
           d="m 14.262806,13.248567 -0.680861,1.023056 c -0.1905,0.282223 -0.257528,0.476251 -0.257528,0.730251 0,0.515056 0.388055,0.899584 0.913695,0.899584 0.522111,0 0.892528,-0.388056 0.892528,-0.934862 0,-0.479778 -0.303389,-0.825501 -0.719667,-0.825501 -0.08467,0 -0.130528,0.0071 -0.211667,0.03528 l 0.624417,-0.927806 z m -0.03175,1.301751 c 0.246945,0 0.430389,0.194028 0.430389,0.462139 0,0.271639 -0.172861,0.458612 -0.419805,0.458612 -0.261056,0 -0.448029,-0.190501 -0.448029,-0.458612 0,-0.275167 0.176389,-0.462139 0.437445,-0.462139 z"
           style="font-weight:600;font-size:3.52778px;font-family:'URW Gothic';-inkscape-font-specification:'URW Gothic Semi-Bold';stroke:none"
           id="path8429" />
        <path
           d="m 16.280693,14.824429 -0.430388,1.04281 h 0.143933 l 0.4318,-1.04281 z m 0.179211,0.551744 c -0.143933,0 -0.256822,0.111477 -0.256822,0.254 0,0.141111 0.1143,0.25541 0.255411,0.25541 0.141111,0 0.255411,-0.114299 0.255411,-0.25541 0,-0.138289 -0.115711,-0.254 -0.254,-0.254 z m -0.0014,0.149577 c 0.05645,0 0.104422,0.04798 0.104422,0.104423 0,0.05785 -0.04657,0.104422 -0.104422,0.104422 -0.05644,0 -0.103011,-0.04657 -0.103011,-0.104422 0,-0.05786 0.04516,-0.104423 0.103011,-0.104423 z m -0.63641,-0.719666 c -0.143934,0 -0.256822,0.111478 -0.256822,0.255411 0,0.1397 0.1143,0.254 0.255411,0.254 0.141111,0 0.255411,-0.1143 0.255411,-0.255411 0,-0.138289 -0.115712,-0.254 -0.254,-0.254 z m -0.0014,0.149578 c 0.05785,0 0.104422,0.04798 0.104422,0.104422 0,0.05786 -0.04657,0.104422 -0.104422,0.104422 -0.05645,0 -0.103011,-0.04657 -0.103011,-0.104422 0,-0.05785 0.04516,-0.104422 0.103011,-0.104422 z"
           style="display:inline;font-size:1.41111px;line-height:1.25;letter-spacing:0px;word-spacing:0px;opacity:0.66;stroke:none;stroke-width:0.264583;font-weight:600;font-family:'URW Gothic';-inkscape-font-specification:'URW Gothic Semi-Bold'"
           id="path8446"
           transform="matrix(1.489622,0,0,1.489622,-7.7378508,-7.762055)" />
      </g>
      <g
         id="text4547-7-6"
         style="display:inline;font-style:normal;font-weight:normal;font-size:11.5775px;line-height:1.25;font-family:sans-serif;letter-spacing:0px;word-spacing:0px;opacity:0.8;fill-opacity:1;stroke:none;stroke-width:0.264583"
         transform="matrix(0.56314288,0,0,0.5737305,2.4488929,-143.10268)"
         aria-label="12:30"
         inkscape:label="hour">
        <path
           inkscape:connector-curvature="0"
           id="path917"
           style="font-style:normal;font-variant:normal;font-weight:600;font-stretch:normal;font-size:6.17466px;font-family:'URW Gothic';-inkscape-font-specification:'URW Gothic Semi-Bold';fill-opacity:1;stroke:none;stroke-width:0.121754;stroke-opacity:1"
           d="m 12.244392,271.71477 h 1.358198 v -0.35517 h -0.826853 l 0.429054,-0.38928 c 0.306873,-0.27562 0.406323,-0.45178 0.406323,-0.71036 0,-0.38927 -0.292666,-0.68194 -0.684782,-0.68194 -0.244362,0 -0.465992,0.1165 -0.585332,0.30688 -0.07956,0.12502 -0.110815,0.25288 -0.110815,0.45462 h 0.372226 c 0,-0.25004 0.130705,-0.41484 0.326763,-0.41484 0.173326,0 0.304031,0.14207 0.304031,0.3296 0,0.13639 -0.06819,0.25857 -0.24152,0.42053 l -0.747293,0.70751 z" />
        <path
           inkscape:connector-curvature="0"
           id="path919"
           style="font-style:normal;font-variant:normal;font-weight:600;font-stretch:normal;font-size:6.17466px;font-family:'URW Gothic';-inkscape-font-specification:'URW Gothic Semi-Bold';fill-opacity:1;stroke:none;stroke-width:0.121754;stroke-opacity:1;opacity:0.66"
           d="m 13.930907,271.71477 h 0.377908 v -0.3637 h -0.377908 z m 0,-1.04848 h 0.377908 v -0.37791 h -0.377908 z" />
        <path
           inkscape:connector-curvature="0"
           id="path921"
           style="font-style:normal;font-variant:normal;font-weight:600;font-stretch:normal;font-size:6.17466px;font-family:'URW Gothic';-inkscape-font-specification:'URW Gothic Semi-Bold';fill-opacity:1;stroke:none;stroke-width:0.121754;stroke-opacity:1"
           d="m 15.139353,270.70323 h 0.06251 c 0.252886,0 0.412005,0.13923 0.412005,0.35233 0,0.20174 -0.13923,0.3495 -0.329604,0.3495 -0.184693,0 -0.315398,-0.12787 -0.340971,-0.32676 h -0.38075 c 0.02273,0.39495 0.32108,0.67341 0.724562,0.67341 0.406323,0 0.704672,-0.29835 0.704672,-0.70467 0,-0.26425 -0.107974,-0.44326 -0.326763,-0.54271 0.12218,-0.0881 0.176167,-0.1989 0.176167,-0.36086 0,-0.32392 -0.24152,-0.56545 -0.565442,-0.56545 -0.164802,0 -0.315397,0.0654 -0.420529,0.17902 -0.08808,0.0966 -0.122182,0.18753 -0.136389,0.35801 h 0.383592 c 0.01705,-0.13355 0.07103,-0.19037 0.176168,-0.19037 0.107974,0 0.184692,0.0824 0.184692,0.1989 0,0.0909 -0.04262,0.15627 -0.122181,0.18753 -0.0483,0.0199 -0.09945,0.0256 -0.201741,0.0284 z" />
        <path
           inkscape:connector-curvature="0"
           id="path923"
           style="font-style:normal;font-variant:normal;font-weight:600;font-stretch:normal;font-size:6.17466px;font-family:'URW Gothic';-inkscape-font-specification:'URW Gothic Semi-Bold';fill-opacity:1;stroke:none;stroke-width:0.121754;stroke-opacity:1"
           d="m 17.604417,270.27985 c 0,-0.42621 -0.275617,-0.70183 -0.70183,-0.70183 -0.431896,0 -0.704672,0.27846 -0.704672,0.71888 v 0.71604 c 0,0.20174 0.03978,0.34381 0.133547,0.47168 0.130705,0.17332 0.332445,0.26709 0.588173,0.26709 0.241521,0 0.429054,-0.0881 0.551235,-0.25573 0.09377,-0.13354 0.133547,-0.27277 0.133547,-0.48304 z m -1.028593,0.0171 c 0,-0.23016 0.125022,-0.37223 0.329604,-0.37223 0.204582,0 0.321081,0.13355 0.321081,0.37223 v 0.71319 c 0,0.26426 -0.105133,0.39496 -0.31824,0.39496 -0.215947,0 -0.332445,-0.14207 -0.332445,-0.40348 z" />
      </g>
      <g
         transform="matrix(0.89686402,0,0,0.89886715,-8.0301308,-247.89286)"
         id="text4557-3-5-9"
         style="display:inline;font-style:normal;font-weight:normal;font-size:10.5833px;line-height:1.25;font-family:sans-serif;letter-spacing:0px;word-spacing:0px;opacity:0.8;fill-opacity:1;stroke:none;stroke-width:0.264583"
         aria-label="50%  23.5  :)"
         inkscape:label="date">
        <path
           inkscape:connector-curvature="0"
           id="path928-2-7-5-5"
           style="font-style:normal;font-variant:normal;font-weight:600;font-stretch:normal;font-size:1.76389px;line-height:1.25;font-family:'URW Gothic';-inkscape-font-specification:'URW Gothic Semi-Bold';letter-spacing:0px;word-spacing:0px;display:inline;fill-opacity:1;stroke:none;stroke-width:0.264583"
           d="m 17.426309,289.12075 c 0,-0.26459 -0.171097,-0.43568 -0.43568,-0.43568 -0.268112,0 -0.437445,0.17286 -0.437445,0.44626 v 0.4445 c 0,0.12524 0.02469,0.21343 0.0829,0.29281 0.08114,0.10759 0.206375,0.1658 0.365125,0.1658 0.149931,0 0.266347,-0.0547 0.342195,-0.15875 0.05821,-0.0829 0.0829,-0.16933 0.0829,-0.29986 z m -0.638528,0.0106 c 0,-0.14287 0.07761,-0.23107 0.204611,-0.23107 0.127,0 0.19932,0.0829 0.19932,0.23107 v 0.44274 c 0,0.16404 -0.06526,0.24518 -0.197556,0.24518 -0.134056,0 -0.206375,-0.0882 -0.206375,-0.25047 z" />
        <path
           inkscape:connector-curvature="0"
           id="path934-9"
           style="font-style:normal;font-variant:normal;font-weight:600;font-stretch:normal;font-size:1.76389px;font-family:'URW Gothic';-inkscape-font-specification:'URW Gothic Semi-Bold';fill-opacity:1;stroke:none;stroke-width:0.264583"
           d="m 17.882228,289.38357 h 0.03881 c 0.156986,0 0.255764,0.0864 0.255764,0.21872 0,0.12524 -0.08643,0.21696 -0.204611,0.21696 -0.114653,0 -0.195792,-0.0794 -0.211667,-0.20285 h -0.236361 c 0.01411,0.24518 0.199319,0.41804 0.449792,0.41804 0.252236,0 0.437444,-0.18521 0.437444,-0.43744 0,-0.16404 -0.06703,-0.27517 -0.202847,-0.33691 0.07585,-0.0547 0.109361,-0.12347 0.109361,-0.22401 0,-0.20108 -0.149931,-0.35101 -0.351014,-0.35101 -0.102305,0 -0.195792,0.0406 -0.261055,0.11112 -0.05468,0.06 -0.07585,0.11642 -0.08467,0.22225 h 0.238125 c 0.01058,-0.0829 0.0441,-0.11818 0.109361,-0.11818 0.06703,0 0.114653,0.0512 0.114653,0.12347 0,0.0564 -0.02646,0.097 -0.07585,0.11642 -0.02999,0.0123 -0.06174,0.0159 -0.125237,0.0176 z" />
        <path
           inkscape:connector-curvature="0"
           id="path938-6"
           style="font-style:normal;font-variant:normal;font-weight:600;font-stretch:normal;font-size:1.76389px;font-family:'URW Gothic';-inkscape-font-specification:'URW Gothic Semi-Bold';fill-opacity:1;stroke:none;stroke-width:0.264583"
           d="m 14.935824,289.38893 0.208138,0.0564 c 0.05821,-0.0723 0.107598,-0.0988 0.181681,-0.0988 0.121708,0 0.211667,0.10054 0.211667,0.23283 0,0.14111 -0.08819,0.23989 -0.215195,0.23989 -0.112889,0 -0.186972,-0.0706 -0.211667,-0.19756 h -0.234597 c 0.01235,0.2346 0.209903,0.41275 0.45332,0.41275 0.254,0 0.442736,-0.19579 0.442736,-0.45861 0,-0.25576 -0.174625,-0.4445 -0.41275,-0.4445 -0.05997,0 -0.09878,0.009 -0.16757,0.037 l 0.04233,-0.23989 h 0.41275 v -0.22048 h -0.589139 z" />
        <path
           d="m 16.29761,13.936922 -0.430388,1.04281 h 0.143933 l 0.4318,-1.04281 z"
           style="display:inline;font-size:1.41111px;line-height:1.25;letter-spacing:0px;word-spacing:0px;opacity:0.66;stroke:none;stroke-width:0.264583;font-weight:600;font-family:'URW Gothic';-inkscape-font-specification:'URW Gothic Semi-Bold'"
           id="path8446-6"
           sodipodi:nodetypes="ccccc"
           transform="matrix(1.2934539,0,0,1.2934539,-4.7315629,270.65885)" />
      </g>
    </g>
    <g
       aria-label="(^_^)"
       id="text8402"
       style="font-size:8.85094px;line-height:1.25;letter-spacing:0px;word-spacing:0px;display:inline;opacity:0.66;stroke:none;stroke-width:0.264583"
       transform="matrix(0.87624755,0,0,0.87624755,8.3366359,-7.1503689)"
       inkscape:label="top">
      <path
         d="m 5.7072463,15.356416 c -0.2314221,-0.149577 -0.3951108,-0.493888 -0.3951108,-0.82691 0,-0.338667 0.1382888,-0.632178 0.3951108,-0.829733 v -0.4064 c -0.1495777,0.06209 -0.2314221,0.112889 -0.3414887,0.211667 -0.2709331,0.242711 -0.4346218,0.626533 -0.4346218,1.027288 0,0.352777 0.1326443,0.697088 0.3612441,0.95391 0.1354666,0.146756 0.242711,0.220134 0.4148664,0.2794 z"
         style="font-weight:600;font-size:2.82222px;line-height:1;font-family:'URW Gothic';-inkscape-font-specification:'URW Gothic Semi-Bold';letter-spacing:-0.264583px;stroke:none"
         id="path8432" />
      <path
         d="M 6.0014605,14.492817 6.3852824,13.716706 6.7691043,14.495639 7.0626152,14.354528 6.5574378,13.293373 H 6.213127 l -0.5051774,1.061155 z"
         style="font-weight:600;font-size:2.82222px;line-height:1;font-family:'URW Gothic';-inkscape-font-specification:'URW Gothic Semi-Bold';letter-spacing:-0.264583px;stroke:none"
         id="path8434" />
      <path
         d="m 6.9589,15.556794 v 0.254 h 1.41111 v -0.254 z"
         style="font-weight:600;font-size:2.82222px;line-height:1;font-family:'URW Gothic';-inkscape-font-specification:'URW Gothic Semi-Bold';letter-spacing:-0.264583px;stroke:none"
         id="path8436" />
      <path
         d="m 8.5767375,14.492817 0.383822,-0.776111 0.3838219,0.778933 0.2935109,-0.141111 -0.5051774,-1.061155 H 8.788404 l -0.5051773,1.061155 z"
         style="font-weight:600;font-size:2.82222px;line-height:1;font-family:'URW Gothic';-inkscape-font-specification:'URW Gothic Semi-Bold';letter-spacing:-0.264583px;stroke:none"
         id="path8438" />
      <path
         d="m 9.6385994,13.702595 c 0.2314221,0.149578 0.3951106,0.493889 0.3951106,0.824089 0,0.341488 -0.1382885,0.634999 -0.3951106,0.832554 v 0.4064 c 0.1495777,-0.06209 0.2342443,-0.115711 0.3414887,-0.211666 0.2709329,-0.242711 0.4346219,-0.629355 0.4346219,-1.027288 0,-0.352778 -0.132644,-0.697089 -0.361244,-0.953911 -0.1354668,-0.146755 -0.2427111,-0.220133 -0.4148666,-0.2794 z"
         style="font-weight:600;font-size:2.82222px;line-height:1;font-family:'URW Gothic';-inkscape-font-specification:'URW Gothic Semi-Bold';letter-spacing:-0.264583px;stroke:none"
         id="path8440" />
    </g>
    <g
       id="g3633"
       inkscape:label="middle">
      <path
         d="m 16.306802,9.8710739 c -0.129117,0.1333501 -0.237067,0.1841501 -0.387351,0.1841501 -0.289984,0 -0.524934,-0.2413002 -0.524934,-0.5334006 0,-0.1270002 0.04868,-0.2624671 0.129117,-0.3556005 0.09525,-0.1121836 0.230717,-0.1714503 0.389467,-0.1714503 0.182034,0 0.304801,0.059267 0.410634,0.1968503 h 0.323851 C 16.586202,9.056156 16.531169,8.9820726 16.425335,8.8952891 16.281402,8.7788723 16.097252,8.7153722 15.906751,8.7153722 c -0.442384,0 -0.804334,0.3619505 -0.804334,0.8043345 0,0.4529674 0.366184,0.8149183 0.823384,0.8149183 0.321734,0 0.599018,-0.177801 0.721785,-0.4635511 z"
         style="font-weight:600;font-size:2.11667px;line-height:1.25;font-family:'URW Gothic';-inkscape-font-specification:'URW Gothic Semi-Bold';letter-spacing:0px;word-spacing:0px;display:inline;opacity:0.66;stroke:none;stroke-width:0.264583"
         id="path8443"
         transform="matrix(1.1166578,0,0,1.1166578,-1.2538151,-1.7945883)" />
      <path
         d="m 5.8690496,5.9504626 h 1.7146548 q 0.015094,0 0.1207503,0.1207504 0,0.015094 -0.362251,0.3622509 H 6.1105502 q -0.015094,0 -0.3622509,-0.3622509 0,-0.015094 0.1207503,-0.1207504 z M 7.825205,6.083288 q 0.015093,0 0.1207504,0.1207503 v 1.7146548 q 0,0.015094 -0.1207504,0.1207503 -0.015094,0 -0.3622509,-0.3622509 V 6.445539 q 0,-0.015094 0.3622509,-0.362251 z m -1.82333,1.787105 h 1.4248539 q 0.015093,0 0.2415007,0.2415006 v 0.012075 q 0,0.015094 -0.2415007,0.2415007 H 6.001875 q -0.015094,0 -0.2415007,-0.2415007 v -0.012075 q 0,-0.015093 0.2415007,-0.2415006 z M 5.639624,8.1722688 q 0.015093,0 0.362251,0.362251 v 1.2316535 q 0,0.015094 -0.362251,0.3622507 -0.015094,0 -0.1207504,-0.12075 V 8.2930192 q 0,-0.015094 0.1207504,-0.1207504 z m 0.4830013,1.6059795 h 1.2316535 q 0.015093,0 0.362251,0.3622507 0,0.0151 -0.1207504,0.12075 H 5.8811246 q -0.015094,0 -0.1207503,-0.12075 0,-0.01509 0.362251,-0.3622507 z"
         style="font-weight:bold;font-size:7.05556px;line-height:1.25;font-family:'Open 24 Display St';-inkscape-font-specification:'Open 24 Display St Bold';letter-spacing:0px;word-spacing:0px;display:inline;opacity:0.8;stroke:none;stroke-width:0.317752"
         id="path8418"
         transform="matrix(1.2757857,0,0,1.2729426,-3.0721501,0.36290266)" />
      <path
         d="m 8.6010259,5.9504626 h 1.7146551 q 0.01509,0 0.12075,0.1207504 0,0.015094 -0.362251,0.3622509 H 8.8425265 q -0.015093,0 -0.362251,-0.3622509 0,-0.015094 0.1207504,-0.1207504 z M 10.557181,6.083288 q 0.0151,0 0.12075,0.1207503 v 1.7146548 q 0,0.015094 -0.12075,0.1207503 -0.0151,0 -0.36225,-0.3622509 V 6.445539 q 0,-0.015094 0.36225,-0.362251 z M 8.7338512,7.870393 h 1.4248548 q 0.01509,0 0.2415,0.2415006 v 0.012075 q 0,0.015094 -0.2415,0.2415007 H 8.7338512 q -0.015094,0 -0.2415006,-0.2415007 v -0.012075 q 0,-0.015093 0.2415006,-0.2415006 z m -0.362251,0.3018758 q 0.015094,0 0.362251,0.362251 v 1.2316535 q 0,0.015094 -0.362251,0.3622507 -0.015094,0 -0.1207503,-0.12075 V 8.2930192 q 0,-0.015094 0.1207503,-0.1207504 z m 0.4830014,1.6059795 h 1.2316534 q 0.0151,0 0.362251,0.3622507 0,0.0151 -0.12075,0.12075 H 8.6131009 q -0.015093,0 -0.1207503,-0.12075 0,-0.01509 0.362251,-0.3622507 z"
         style="font-weight:bold;font-size:7.05556px;line-height:1.25;font-family:'Open 24 Display St';-inkscape-font-specification:'Open 24 Display St Bold';letter-spacing:0px;word-spacing:0px;display:inline;opacity:0.8;stroke:none;stroke-width:0.317752"
         id="path8420"
         transform="matrix(1.2757857,0,0,1.2729426,-3.0721501,0.36290266)" />
      <path
         d="m 11.000939,9.9835237 v -0.024149 q 0,-0.018112 0.2898,-0.2898005 h 0.02415 q 0.01811,0 0.2898,0.2898005 v 0.024149 q 0,0.018112 -0.2898,0.2898013 h -0.02415 q -0.01811,0 -0.2898,-0.2898013 z"
         style="font-weight:bold;font-size:7.05556px;line-height:1.25;font-family:'Open 24 Display St';-inkscape-font-specification:'Open 24 Display St Bold';letter-spacing:0px;word-spacing:0px;display:inline;opacity:0.8;stroke:none;stroke-width:0.317752"
         id="path8422"
         transform="matrix(1.2757857,0,0,1.2729426,-3.0721501,0.36290266)" />
      <path
         d="m 12.23561,5.9504626 h 1.714656 q 0.01509,0 0.12075,0.1207504 0,0.015094 -0.362251,0.3622509 h -1.231654 q -0.01509,0 -0.36225,-0.3622509 0,-0.015094 0.120749,-0.1207504 z m 1.944081,0.1207504 q 0.0151,0 0.12075,0.1207503 v 1.7146548 q 0,0.015094 -0.12075,0.1207503 -0.01509,0 -0.362251,-0.362251 V 6.4334639 q 0,-0.015094 0.362251,-0.3622509 z M 11.99411,6.083288 q 0.01509,0 0.362251,0.362251 v 1.2316535 q 0,0.015093 -0.362251,0.362251 -0.0151,0 -0.12075,-0.1207503 V 6.2040383 q 0,-0.015093 0.12075,-0.1207503 z m 0.362251,1.7629549 h 1.424854 q 0.0151,0 0.241501,0.2415007 v 0.012075 q 0,0.015094 -0.241501,0.2415007 h -1.424854 q -0.01509,0 -0.2415,-0.2415007 v -0.012075 q 0,-0.015093 0.2415,-0.2415007 z M 11.99411,8.1601934 q 0.01509,0 0.362251,0.362251 v 1.2316535 q 0,0.015094 -0.362251,0.3622511 -0.0151,0 -0.12075,-0.1207501 V 8.2809441 q 0,-0.015094 0.12075,-0.1207507 z m 2.185581,0.012075 q 0.0151,0 0.12075,0.1207503 v 1.7146543 q 0,0.01509 -0.12075,0.120751 -0.01509,0 -0.362251,-0.3622511 V 8.5345198 q 0,-0.015094 0.362251,-0.3622514 z m -1.714654,1.6059795 h 1.231653 q 0.01509,0 0.36225,0.3622501 0,0.0151 -0.120749,0.120751 h -1.714655 q -0.01509,0 -0.120751,-0.120751 0,-0.01509 0.362252,-0.3622501 z"
         style="font-weight:bold;font-size:7.05556px;line-height:1.25;font-family:'Open 24 Display St';-inkscape-font-specification:'Open 24 Display St Bold';letter-spacing:0px;word-spacing:0px;display:inline;opacity:0.8;stroke:none;stroke-width:0.317752"
         id="path8424"
         transform="matrix(1.2757857,0,0,1.2729426,-3.0721501,0.36290266)" />
    </g>
  </g>
</svg>
