<?xml version="1.0" encoding="UTF-8" standalone="no"?>
<svg
   width="80"
   height="80"
   viewBox="0 0 21.166666 21.166667"
   version="1.1"
   id="svg8"
   inkscape:version="1.2.2 (b0a8486541, 2022-12-01)"
   sodipodi:docname="hygrotemp_cgdk2.svg"
   xmlns:inkscape="http://www.inkscape.org/namespaces/inkscape"
   xmlns:sodipodi="http://sodipodi.sourceforge.net/DTD/sodipodi-0.dtd"
   xmlns="http://www.w3.org/2000/svg"
   xmlns:svg="http://www.w3.org/2000/svg"
   xmlns:rdf="http://www.w3.org/1999/02/22-rdf-syntax-ns#"
   xmlns:cc="http://creativecommons.org/ns#"
   xmlns:dc="http://purl.org/dc/elements/1.1/">
  <defs
     id="defs2" />
  <sodipodi:namedview
     id="base"
     pagecolor="#ffffff"
     bordercolor="#ff0101"
     borderopacity="1"
     inkscape:pageopacity="0.0"
     inkscape:pageshadow="2"
     inkscape:zoom="8.7566235"
     inkscape:cx="28.264319"
     inkscape:cy="15.873698"
     inkscape:document-units="mm"
     inkscape:current-layer="layer1"
     showgrid="true"
     units="px"
     borderlayer="true"
     inkscape:window-width="1720"
     inkscape:window-height="1355"
     inkscape:window-x="1720"
     inkscape:window-y="0"
     inkscape:window-maximized="0"
     inkscape:snap-object-midpoints="true"
     inkscape:snap-bbox="true"
     inkscape:object-paths="true"
     inkscape:snap-intersection-paths="true"
     inkscape:bbox-nodes="true"
     inkscape:snap-bbox-edge-midpoints="true"
     inkscape:snap-smooth-nodes="true"
     inkscape:snap-midpoints="true"
     inkscape:snap-center="true"
     inkscape:snap-grids="true"
     inkscape:document-rotation="0"
     inkscape:snap-nodes="true"
     inkscape:snap-others="false"
     inkscape:bbox-paths="true"
     inkscape:showpageshadow="2"
     inkscape:pagecheckerboard="0"
     inkscape:deskcolor="#d1d1d1">
    <inkscape:grid
       type="xygrid"
       id="grid4518" />
  </sodipodi:namedview>
  <metadata
     id="metadata5">
    <rdf:RDF>
      <cc:Work
         rdf:about="">
        <dc:format>image/svg+xml</dc:format>
        <dc:type
           rdf:resource="http://purl.org/dc/dcmitype/StillImage" />
        <dc:title />
        <cc:license
           rdf:resource="http://creativecommons.org/licenses/by-sa/4.0/" />
      </cc:Work>
      <cc:License
         rdf:about="http://creativecommons.org/licenses/by-sa/4.0/">
        <cc:permits
           rdf:resource="http://creativecommons.org/ns#Reproduction" />
        <cc:permits
           rdf:resource="http://creativecommons.org/ns#Distribution" />
        <cc:requires
           rdf:resource="http://creativecommons.org/ns#Notice" />
        <cc:requires
           rdf:resource="http://creativecommons.org/ns#Attribution" />
        <cc:permits
           rdf:resource="http://creativecommons.org/ns#DerivativeWorks" />
        <cc:requires
           rdf:resource="http://creativecommons.org/ns#ShareAlike" />
      </cc:License>
    </rdf:RDF>
  </metadata>
  <g
     inkscape:label="body"
     inkscape:groupmode="layer"
     id="layer1"
     transform="translate(0,-275.83332)"
     style="display:inline;opacity:1">
    <path
       style="color:#000000;opacity:0.5;stroke-width:0.990415;-inkscape-stroke:none;fill-opacity:1;stroke:none"
       d="m 3.1859386,287.0293 v 0.19922 H 17.980234 v -0.19922 z"
       id="path4551" />
    <path
       style="color:#000000;-inkscape-stroke:none;opacity:0.4;fill-opacity:1;stroke:none"
       d="m 10.583984,277.15625 c -5.1114241,0 -9.2617184,4.14834 -9.2617184,9.25977 0,5.11142 4.1502943,9.26171 9.2617184,9.26171 5.111425,0 9.259766,-4.15029 9.259766,-9.26171 0,-5.11143 -4.148341,-9.25977 -9.259766,-9.25977 z m 0,0.5 c 4.84152,0 8.759766,3.91824 8.759766,8.75977 0,4.84152 -3.918246,8.76171 -8.759766,8.76171 -4.8415193,0 -8.7617184,-3.92019 -8.7617184,-8.76171 0,-4.84153 3.9201991,-8.75977 8.7617184,-8.75977 z"
       id="path4539" />
    <path
       id="path4543"
       style="color:#000000;-inkscape-stroke:none;opacity:0.5;fill-opacity:1;stroke:none"
       d="m 10.58385,278.47864 c -4.3807523,0 -7.9374999,3.55674 -7.9374999,7.9375 0,4.38074 3.5567476,7.9375 7.9374999,7.9375 4.380754,0 7.9375,-3.55676 7.9375,-7.9375 0,-4.38076 -3.556746,-7.9375 -7.9375,-7.9375 z m 0,0.50746 c 4.107097,0 7.430038,3.32294 7.430038,7.43004 0,2.69594 -1.431645,5.05461 -3.577043,6.35723 H 6.7308553 c -2.1459762,-1.30262 -3.578593,-3.66129 -3.5785929,-6.35723 0,-4.1071 3.3244919,-7.43004 7.4315876,-7.43004 z"
       sodipodi:nodetypes="sssssssccss" />
  </g>
  <g
     inkscape:groupmode="layer"
     id="layer2"
     inkscape:label="textes"
     style="display:inline">
    <g
       aria-label="50%"
       style="font-style:normal;font-weight:normal;font-size:10.5833px;line-height:1.25;font-family:sans-serif;letter-spacing:0px;word-spacing:0px;display:inline;fill-opacity:1;stroke:none;stroke-width:0.333634;stroke-opacity:1;opacity:0.8"
       id="text4557"
       transform="matrix(0.83756175,0,0,0.87724906,2.2114428,-240.16324)">
      <path
         d="m 6.7567266,290.13499 0.5827889,0.15804 c 0.1629833,-0.20249 0.3012722,-0.27657 0.5087055,-0.27657 0.3407834,0 0.5926667,0.28151 0.5926667,0.65193 0,0.39511 -0.2469444,0.67169 -0.6025444,0.67169 -0.3160889,0 -0.5235223,-0.19756 -0.5926667,-0.55316 H 6.5888043 c 0.034572,0.65688 0.5877278,1.1557 1.2692945,1.1557 0.7112,0 1.2396612,-0.54821 1.2396612,-1.28411 0,-0.71614 -0.48895,-1.2446 -1.1557001,-1.2446 -0.1679222,0 -0.2765777,0.0247 -0.4691944,0.10372 l 0.1185333,-0.67169 h 1.1557001 v -0.61736 h -1.649589 z"
         style="font-style:normal;font-variant:normal;font-weight:600;font-stretch:normal;font-size:4.93889px;font-family:'URW Gothic';-inkscape-font-specification:'URW Gothic Semi-Bold';fill-opacity:1;stroke:none;stroke-width:0.333634;stroke-opacity:1"
         id="path933"
         inkscape:connector-curvature="0" />
      <path
         d="m 11.890933,289.38428 c 0,-0.74083 -0.479072,-1.21991 -1.219905,-1.21991 -0.7507114,0 -1.2248448,0.48401 -1.2248448,1.24954 v 1.2446 c 0,0.35066 0.069145,0.59761 0.2321278,0.81986 0.2271889,0.30127 0.57785,0.46425 1.02235,0.46425 0.419806,0 0.745772,-0.1531 0.958145,-0.4445 0.162983,-0.23212 0.232127,-0.47413 0.232127,-0.83961 z m -1.787878,0.0296 c 0,-0.40005 0.217312,-0.64699 0.572912,-0.64699 0.3556,0 0.558094,0.23213 0.558094,0.64699 v 1.23966 c 0,0.45932 -0.182739,0.68651 -0.553156,0.68651 -0.375355,0 -0.57785,-0.24695 -0.57785,-0.70132 z"
         style="font-style:normal;font-variant:normal;font-weight:600;font-stretch:normal;font-size:4.93889px;font-family:'URW Gothic';-inkscape-font-specification:'URW Gothic Semi-Bold';fill-opacity:1;stroke:none;stroke-width:0.333634;stroke-opacity:1"
         id="path935"
         inkscape:connector-curvature="0" />
      <path
         d="m 13.995383,287.94808 -0.979135,2.37239 h 0.327449 l 0.185105,-0.44703 0.79724,-1.92536 z m 0.407705,1.25522 c -0.327448,0 -0.58427,0.25361 -0.58427,0.57785 0,0.32102 0.260032,0.58106 0.58106,0.58106 0.321028,0 0.58106,-0.26004 0.58106,-0.58106 0,-0.31461 -0.263242,-0.57785 -0.57785,-0.57785 z m -0.0032,0.34029 c 0.128411,0 0.237561,0.10914 0.237561,0.23756 0,0.13162 -0.10594,0.23756 -0.237561,0.23756 -0.128411,0 -0.23435,-0.10594 -0.23435,-0.23756 0,-0.13163 0.102729,-0.23756 0.23435,-0.23756 z m -1.447835,-1.63725 c -0.327449,0 -0.584271,0.25362 -0.584271,0.58106 0,0.31782 0.260033,0.57785 0.581061,0.57785 0.321027,0 0.58106,-0.26003 0.58106,-0.58106 0,-0.3146 -0.263243,-0.57785 -0.57785,-0.57785 z m -0.0032,0.34029 c 0.131621,0 0.23756,0.10915 0.23756,0.23756 0,0.13162 -0.105939,0.23756 -0.23756,0.23756 -0.128412,0 -0.234351,-0.10594 -0.234351,-0.23756 0,-0.13162 0.102729,-0.23756 0.234351,-0.23756 z"
         style="font-style:normal;font-variant:normal;font-weight:600;font-stretch:normal;font-size:65%;font-family:'URW Gothic';-inkscape-font-specification:'URW Gothic Semi-Bold';baseline-shift:super;fill-opacity:1;stroke:none;stroke-width:0.333634;stroke-opacity:1"
         id="path937"
         inkscape:connector-curvature="0"
         sodipodi:nodetypes="ccccccssssssssssssssssssss" />
    </g>
    <g
       aria-label="24. "
       style="font-style:normal;font-weight:normal;font-size:10.5833px;line-height:1.25;font-family:sans-serif;letter-spacing:0px;word-spacing:0px;display:inline;fill-opacity:1;stroke:none;stroke-width:0.358822;opacity:0.8"
       id="text4547"
       transform="matrix(0.8854749,0,0,0.88513849,1.4145336,-243.40436)">
      <path
         d="m 5.7438607,286.40686 h 3.7098112 v -0.97014 H 7.1951885 l 1.1719278,-1.06327 c 0.8382,-0.75283 1.1098389,-1.23402 1.1098389,-1.94028 0,-1.06327 -0.7993944,-1.86267 -1.8704278,-1.86267 -0.6674556,0 -1.2728222,0.31821 -1.5987889,0.8382 -0.2173111,0.34149 -0.3026833,0.69074 -0.3026833,1.24178 h 1.0167055 c 0,-0.68298 0.3570111,-1.13312 0.8925278,-1.13312 0.4734278,0 0.8304389,0.38806 0.8304389,0.90029 0,0.37253 -0.1862666,0.70626 -0.6596944,1.14864 l -2.0411723,1.93252 z"
         style="font-style:normal;font-variant:normal;font-weight:600;font-stretch:normal;font-size:7.76111px;font-family:'URW Gothic';-inkscape-font-specification:'URW Gothic Semi-Bold';fill-opacity:1;stroke:none;stroke-width:0.358822;stroke-opacity:1"
         id="path940"
         inkscape:connector-curvature="0" />
      <path
         d="m 9.7916441,284.70718 v 0.8382 h 2.4757949 v 0.86148 h 1.032227 v -0.86148 h 0.605367 v -0.92358 h -0.605367 v -3.9504 h -0.869244 z m 2.4757949,-0.0854 h -1.428045 l 1.428045,-2.21191 z"
         style="font-style:normal;font-variant:normal;font-weight:600;font-stretch:normal;font-size:7.76111px;font-family:'URW Gothic';-inkscape-font-specification:'URW Gothic Semi-Bold';fill-opacity:1;stroke:none;stroke-width:0.358822;stroke-opacity:1"
         id="path942"
         inkscape:connector-curvature="0"
         sodipodi:nodetypes="cccccccccccccccc" />
      <path
         d="m 14.700911,286.40686 h 1.032228 v -0.99342 h -1.032228 z"
         style="font-style:normal;font-variant:normal;font-weight:600;font-stretch:normal;font-size:7.76111px;font-family:'URW Gothic';-inkscape-font-specification:'URW Gothic Semi-Bold';fill-opacity:1;stroke:none;stroke-width:0.358822;stroke-opacity:1"
         id="path944"
         inkscape:connector-curvature="0" />
    </g>
  </g>
</svg>
