<?xml version="1.0" encoding="UTF-8" standalone="no"?>
<svg
   width="80"
   height="80"
   viewBox="0 0 21.166666 21.166667"
   version="1.1"
   id="svg8"
   inkscape:version="1.2.2 (b0a8486541, 2022-12-01)"
   sodipodi:docname="jqjcy01ym.svg"
   xmlns:inkscape="http://www.inkscape.org/namespaces/inkscape"
   xmlns:sodipodi="http://sodipodi.sourceforge.net/DTD/sodipodi-0.dtd"
   xmlns="http://www.w3.org/2000/svg"
   xmlns:svg="http://www.w3.org/2000/svg"
   xmlns:rdf="http://www.w3.org/1999/02/22-rdf-syntax-ns#"
   xmlns:cc="http://creativecommons.org/ns#"
   xmlns:dc="http://purl.org/dc/elements/1.1/">
  <defs
     id="defs2">
    <inkscape:perspective
       sodipodi:type="inkscape:persp3d"
       inkscape:vp_x="0 : 10.583334 : 1"
       inkscape:vp_y="0 : 1000 : 0"
       inkscape:vp_z="21.166666 : 10.583334 : 1"
       inkscape:persp3d-origin="10.583333 : 7.0555557 : 1"
       id="perspective848" />
  </defs>
  <sodipodi:namedview
     id="base"
     pagecolor="#ffffff"
     bordercolor="#ff0101"
     borderopacity="1"
     inkscape:pageopacity="0.0"
     inkscape:pageshadow="2"
     inkscape:zoom="10.359712"
     inkscape:cx="40.44514"
     inkscape:cy="37.452779"
     inkscape:document-units="mm"
     inkscape:current-layer="layer1"
     showgrid="true"
     units="px"
     borderlayer="true"
     inkscape:window-width="1720"
     inkscape:window-height="1355"
     inkscape:window-x="1720"
     inkscape:window-y="0"
     inkscape:window-maximized="0"
     inkscape:snap-object-midpoints="true"
     inkscape:snap-bbox="true"
     inkscape:object-paths="true"
     inkscape:snap-intersection-paths="true"
     inkscape:bbox-nodes="true"
     inkscape:snap-bbox-edge-midpoints="true"
     inkscape:snap-smooth-nodes="true"
     inkscape:snap-midpoints="true"
     inkscape:snap-center="true"
     inkscape:snap-grids="true"
     inkscape:document-rotation="0"
     inkscape:snap-nodes="false"
     inkscape:snap-others="false"
     inkscape:pagecheckerboard="0"
     showguides="false"
     inkscape:guide-bbox="true"
     inkscape:showpageshadow="2"
     inkscape:deskcolor="#d1d1d1">
    <inkscape:grid
       type="xygrid"
       id="grid4518" />
    <sodipodi:guide
       position="20.902083,10.583334"
       orientation="0,-1"
       id="guide11089"
       inkscape:locked="false" />
  </sodipodi:namedview>
  <metadata
     id="metadata5">
    <rdf:RDF>
      <cc:Work
         rdf:about="">
        <dc:format>image/svg+xml</dc:format>
        <dc:type
           rdf:resource="http://purl.org/dc/dcmitype/StillImage" />
        <cc:license
           rdf:resource="http://creativecommons.org/licenses/by-sa/4.0/" />
      </cc:Work>
      <cc:License
         rdf:about="http://creativecommons.org/licenses/by-sa/4.0/">
        <cc:permits
           rdf:resource="http://creativecommons.org/ns#Reproduction" />
        <cc:permits
           rdf:resource="http://creativecommons.org/ns#Distribution" />
        <cc:requires
           rdf:resource="http://creativecommons.org/ns#Notice" />
        <cc:requires
           rdf:resource="http://creativecommons.org/ns#Attribution" />
        <cc:permits
           rdf:resource="http://creativecommons.org/ns#DerivativeWorks" />
        <cc:requires
           rdf:resource="http://creativecommons.org/ns#ShareAlike" />
      </cc:License>
    </rdf:RDF>
  </metadata>
  <g
     inkscape:label="body"
     inkscape:groupmode="layer"
     id="layer1"
     transform="translate(0,-275.83332)"
     style="display:inline">
    <path
       id="path860"
       style="display:inline;color:#000000;stroke-width:0.490259;-inkscape-stroke:none;paint-order:markers fill stroke;stroke:none;opacity:0.6;fill-rule:nonzero"
       d="M 6.0099691 277.51952 C 3.6101403 277.51952 1.6856852 279.4419 1.6856852 281.84174 L 1.6856852 290.99002 C 1.6856852 293.38987 3.6101403 295.3143 6.0099691 295.3143 L 15.156181 295.3143 C 17.556007 295.3143 19.480465 293.38987 19.480465 290.99002 L 19.480465 281.84174 C 19.480465 279.4419 17.556007 277.51952 15.156181 277.51952 L 6.0099691 277.51952 z M 6.8362752 284.3744 L 8.4310099 284.3744 C 8.4403697 284.3744 8.4776277 284.41242 8.5431478 284.48861 C 8.5431478 284.49813 8.4308573 284.61218 8.2062174 284.83122 L 7.0605509 284.83122 C 7.0511913 284.83122 6.9389006 284.71717 6.7236206 284.48861 C 6.7236206 284.47908 6.7613953 284.44107 6.8362752 284.3744 z M 10.205579 284.3744 L 11.80083 284.3744 C 11.810187 284.3744 11.847445 284.41242 11.912968 284.48861 C 11.912968 284.49813 11.800674 284.61218 11.576038 284.83122 L 10.430371 284.83122 C 10.421007 284.83122 10.308717 284.71717 10.093441 284.48861 C 10.093441 284.47908 10.130699 284.44107 10.205579 284.3744 z M 12.735657 284.3744 L 14.330391 284.3744 C 14.339748 284.3744 14.377523 284.41242 14.443046 284.48861 C 14.443046 284.49813 14.330754 284.61218 14.106116 284.83122 L 12.960449 284.83122 C 12.951092 284.83122 12.838802 284.71717 12.623519 284.48861 C 12.623519 284.47908 12.660776 284.44107 12.735657 284.3744 z M 8.6444336 284.48861 C 8.6537934 284.48861 8.6910512 284.52662 8.7565715 284.60281 L 8.7565715 286.22545 C 8.7565715 286.23497 8.7193135 286.27299 8.6444336 286.33966 C 8.6350738 286.33966 8.5227832 286.22561 8.3075033 285.99704 L 8.3075033 284.83122 C 8.3075033 284.8217 8.4197938 284.70765 8.6444336 284.48861 z M 12.014254 284.48861 C 12.023618 284.48861 12.060875 284.52662 12.126392 284.60281 L 12.126392 286.22545 C 12.126392 286.23497 12.089134 286.27299 12.014254 286.33966 C 12.004897 286.33966 11.892087 286.22561 11.676807 285.99704 L 11.676807 284.83122 C 11.676807 284.8217 11.789614 284.70765 12.014254 284.48861 z M 6.6114827 284.49997 C 6.6208425 284.49997 6.7331331 284.61402 6.9484131 284.84259 L 6.9484131 286.00841 C 6.9484131 286.01793 6.8361226 286.13249 6.6114827 286.35154 C 6.6021231 286.35154 6.564865 286.31301 6.4993449 286.23682 L 6.4993449 284.61418 C 6.4993449 284.60466 6.5366028 284.56664 6.6114827 284.49997 z M 9.9807861 284.49997 C 9.990143 284.49997 10.102951 284.61402 10.318233 284.84259 L 10.318233 286.00841 C 10.318233 286.01793 10.205425 286.13249 9.9807861 286.35154 C 9.9714293 286.35154 9.9341716 286.31301 9.8686483 286.23682 L 9.8686483 284.61418 C 9.8686483 284.60466 9.9059059 284.56664 9.9807861 284.49997 z M 14.555184 284.49997 C 14.564548 284.49997 14.601805 284.53799 14.667322 284.61418 L 14.667322 286.23682 C 14.667322 286.24634 14.630064 286.28487 14.555184 286.35154 C 14.545827 286.35154 14.433535 286.23698 14.218254 286.00841 L 14.218254 284.84259 C 14.218254 284.83307 14.330544 284.71902 14.555184 284.49997 z M 7.9369832 285.39139 C 7.9594472 285.41996 8.0228374 285.56828 8.1276693 285.83684 C 7.8206616 286.63873 7.6599874 287.04669 7.6450114 287.06002 C 7.3829317 287.18193 7.2328665 287.24296 7.1954264 287.24296 C 7.1654745 287.15915 7.1504679 287.10187 7.1504679 287.07139 C 7.5697956 286.00284 7.7871319 285.46157 7.8021077 285.44824 C 7.8769878 285.41014 7.9220073 285.39139 7.9369832 285.39139 z M 11.306287 285.39139 C 11.328753 285.41996 11.392663 285.56828 11.497489 285.83684 C 11.190484 286.63873 11.029291 287.04669 11.014315 287.06002 C 10.752235 287.18193 10.602686 287.24296 10.565247 287.24296 C 10.535296 287.15915 10.520288 287.10187 10.520288 287.07139 C 10.939616 286.00284 11.156435 285.46157 11.171411 285.44824 C 11.246291 285.41014 11.291311 285.39139 11.306287 285.39139 z M 12.859163 286.19134 L 14.184664 286.19134 C 14.194021 286.19134 14.269055 286.26738 14.409456 286.41975 L 14.409456 286.43112 C 14.409456 286.44064 14.334424 286.51719 14.184664 286.66005 L 12.859163 286.66005 C 12.849807 286.66005 12.774774 286.5835 12.634371 286.43112 L 12.634371 286.41975 C 12.634371 286.41023 12.709406 286.33419 12.859163 286.19134 z M 6.6114827 286.46575 C 6.6208425 286.46575 6.7331331 286.57979 6.9484131 286.80836 L 6.9484131 287.97418 C 6.9484131 287.9837 6.8361226 288.09775 6.6114827 288.3168 C 6.6021231 288.3168 6.564865 288.27878 6.4993449 288.20259 L 6.4993449 286.57995 C 6.4993449 286.57042 6.5366028 286.53241 6.6114827 286.46575 z M 9.9807861 286.46575 C 9.990143 286.46575 10.102951 286.57979 10.318233 286.80836 L 10.318233 287.97418 C 10.318233 287.9837 10.205425 288.09775 9.9807861 288.3168 C 9.9714293 288.3168 9.9341716 288.27878 9.8686483 288.20259 L 9.8686483 286.57995 C 9.8686483 286.57042 9.9059059 286.53241 9.9807861 286.46575 z M 8.6444336 286.47711 C 8.6537934 286.47711 8.6910512 286.51513 8.7565715 286.59132 L 8.7565715 288.21396 C 8.7565715 288.22348 8.7193135 288.2615 8.6444336 288.32816 C 8.6350738 288.32816 8.5227832 288.21412 8.3075033 287.98555 L 8.3075033 286.81973 C 8.3075033 286.81021 8.4197938 286.69616 8.6444336 286.47711 z M 12.014254 286.47711 C 12.023618 286.47711 12.060875 286.51513 12.126392 286.59132 L 12.126392 288.21396 C 12.126392 288.22348 12.089134 288.2615 12.014254 288.32816 C 12.004897 288.32816 11.892087 288.21412 11.676807 287.98555 L 11.676807 286.81973 C 11.676807 286.81021 11.789614 286.69616 12.014254 286.47711 z M 12.522233 286.47711 C 12.53159 286.47711 12.643883 286.59116 12.859163 286.81973 L 12.859163 287.98555 C 12.859163 287.99508 12.746872 288.10913 12.522233 288.32816 C 12.512869 288.32816 12.475612 288.29015 12.410095 288.21396 L 12.410095 286.59132 C 12.410095 286.5818 12.447353 286.54378 12.522233 286.47711 z M 9.3265625 287.89408 L 9.3493001 287.89408 C 9.360532 287.89408 9.4500542 287.98563 9.6185343 288.16848 L 9.6185343 288.19122 C 9.6185343 288.20265 9.5290121 288.2942 9.3493001 288.46562 L 9.3265625 288.46562 C 9.3153306 288.46562 9.2258084 288.37408 9.0573283 288.19122 L 9.0573283 288.16848 C 9.0573283 288.15706 9.1468505 288.06551 9.3265625 287.89408 z M 7.0496989 287.99692 L 8.1953654 287.99692 C 8.2047252 287.99692 8.3170158 288.11148 8.5322957 288.34005 C 8.5322957 288.34957 8.494521 288.38759 8.4196411 288.45426 L 6.8249064 288.45426 C 6.8155466 288.45426 6.7777719 288.41624 6.7122518 288.34005 C 6.7122518 288.33053 6.8250591 288.21596 7.0496989 287.99692 z M 10.419002 287.99692 L 11.564669 287.99692 C 11.574026 287.99692 11.686316 288.11148 11.901599 288.34005 C 11.901599 288.34957 11.864341 288.38759 11.789461 288.45426 L 10.19421 288.45426 C 10.184853 288.45426 10.147596 288.41624 10.082072 288.34005 C 10.082072 288.33053 10.194365 288.21596 10.419002 287.99692 z M 12.971301 287.99692 L 14.116968 287.99692 C 14.126325 287.99692 14.239132 288.11148 14.454415 288.34005 C 14.454415 288.34957 14.41664 288.38759 14.34176 288.45426 L 12.747026 288.45426 C 12.737669 288.45426 12.699894 288.41624 12.634371 288.34005 C 12.634371 288.33053 12.746661 288.21596 12.971301 287.99692 z "
       transform="translate(0)" />
    <path
       style="color:#000000;display:inline;-inkscape-stroke:none;paint-order:markers fill stroke;stroke:none;opacity:0.4"
       d="m 6.0096976,277.01952 c -2.6681919,0 -4.8242187,2.15407 -4.8242187,4.82227 v 9.14843 c 0,2.6682 2.1560268,4.82422 4.8242187,4.82422 h 9.1464834 c 2.668192,0 4.824219,-2.15602 4.824219,-4.82422 v -9.14843 c 0,-2.6682 -2.156027,-4.82227 -4.824219,-4.82227 z m 0,0.5 h 9.1464834 c 2.399841,0 4.324219,1.92243 4.324219,4.32227 v 9.14843 c 0,2.39985 -1.924378,4.32422 -4.324219,4.32422 H 6.0096976 c -2.3998408,0 -4.3242187,-1.92437 -4.3242187,-4.32422 v -9.14843 c 0,-2.39984 1.9243779,-4.32227 4.3242187,-4.32227 z"
       id="path862-3"
       inkscape:label="body" />
    <path
       id="rect861-3"
       style="display:inline;stroke:none;stroke-width:0.956256;paint-order:markers fill stroke;opacity:0.6;fill:#39ff00;fill-opacity:1"
       d="m 9.4200345,279.80207 h 2.3265975 c 0.08843,0 0.159618,0.0712 0.159618,0.15962 v 0.15026 c 0,0.0884 -0.07119,0.15962 -0.159618,0.15962 H 9.4200345 c -0.088428,0 -0.1596175,-0.0712 -0.1596175,-0.15962 v -0.15026 c 0,-0.0884 0.071189,-0.15962 0.1596175,-0.15962 z" />
    <path
       id="rect861"
       style="display:inline;stroke-width:2.27008;paint-order:markers fill stroke;stroke:none;opacity:0.6"
       transform="translate(0,275.83332)"
       d="m 8.3872616,15.875 h 4.3921434 c 0.249168,0 0.449762,0.200594 0.449762,0.449762 v 0.423394 c 0,0.249168 -0.200594,0.449762 -0.449762,0.449762 H 8.3872616 C 8.1380937,17.197918 7.9375,16.997324 7.9375,16.748156 V 16.324762 C 7.9375,16.075594 8.1380937,15.875 8.3872616,15.875 Z" />
  </g>
</svg>
