<?xml version="1.0" encoding="UTF-8" standalone="no"?>
<svg
   width="80"
   height="80"
   viewBox="0 0 21.166666 21.166667"
   version="1.1"
   id="svg8"
   inkscape:version="1.2.1 (9c6d41e410, 2022-07-14, custom)"
   sodipodi:docname="jqjcy01ym.svg"
   xmlns:inkscape="http://www.inkscape.org/namespaces/inkscape"
   xmlns:sodipodi="http://sodipodi.sourceforge.net/DTD/sodipodi-0.dtd"
   xmlns="http://www.w3.org/2000/svg"
   xmlns:svg="http://www.w3.org/2000/svg"
   xmlns:rdf="http://www.w3.org/1999/02/22-rdf-syntax-ns#"
   xmlns:cc="http://creativecommons.org/ns#"
   xmlns:dc="http://purl.org/dc/elements/1.1/">
  <defs
     id="defs2">
    <inkscape:perspective
       sodipodi:type="inkscape:persp3d"
       inkscape:vp_x="0 : 10.583334 : 1"
       inkscape:vp_y="0 : 1000 : 0"
       inkscape:vp_z="21.166666 : 10.583334 : 1"
       inkscape:persp3d-origin="10.583333 : 7.0555557 : 1"
       id="perspective848" />
  </defs>
  <sodipodi:namedview
     id="base"
     pagecolor="#ffffff"
     bordercolor="#ff0101"
     borderopacity="1"
     inkscape:pageopacity="0.0"
     inkscape:pageshadow="2"
     inkscape:zoom="10.359712"
     inkscape:cx="29.103126"
     inkscape:cy="50.194446"
     inkscape:document-units="mm"
     inkscape:current-layer="g860"
     showgrid="true"
     units="px"
     borderlayer="true"
     inkscape:window-width="1720"
     inkscape:window-height="1355"
     inkscape:window-x="1720"
     inkscape:window-y="0"
     inkscape:window-maximized="0"
     inkscape:snap-object-midpoints="true"
     inkscape:snap-bbox="true"
     inkscape:object-paths="true"
     inkscape:snap-intersection-paths="true"
     inkscape:bbox-nodes="true"
     inkscape:snap-bbox-edge-midpoints="true"
     inkscape:snap-smooth-nodes="true"
     inkscape:snap-midpoints="true"
     inkscape:snap-center="true"
     inkscape:snap-grids="true"
     inkscape:document-rotation="0"
     inkscape:snap-nodes="false"
     inkscape:snap-others="false"
     inkscape:pagecheckerboard="0"
     showguides="true"
     inkscape:guide-bbox="true"
     inkscape:showpageshadow="2"
     inkscape:deskcolor="#d1d1d1">
    <inkscape:grid
       type="xygrid"
       id="grid4518" />
    <sodipodi:guide
       position="20.902083,10.583334"
       orientation="0,-1"
       id="guide11089"
       inkscape:locked="false" />
  </sodipodi:namedview>
  <metadata
     id="metadata5">
    <rdf:RDF>
      <cc:Work
         rdf:about="">
        <dc:format>image/svg+xml</dc:format>
        <dc:type
           rdf:resource="http://purl.org/dc/dcmitype/StillImage" />
        <cc:license
           rdf:resource="http://creativecommons.org/licenses/by-sa/4.0/" />
      </cc:Work>
      <cc:License
         rdf:about="http://creativecommons.org/licenses/by-sa/4.0/">
        <cc:permits
           rdf:resource="http://creativecommons.org/ns#Reproduction" />
        <cc:permits
           rdf:resource="http://creativecommons.org/ns#Distribution" />
        <cc:requires
           rdf:resource="http://creativecommons.org/ns#Notice" />
        <cc:requires
           rdf:resource="http://creativecommons.org/ns#Attribution" />
        <cc:permits
           rdf:resource="http://creativecommons.org/ns#DerivativeWorks" />
        <cc:requires
           rdf:resource="http://creativecommons.org/ns#ShareAlike" />
      </cc:License>
    </rdf:RDF>
  </metadata>
  <g
     inkscape:label="bg"
     inkscape:groupmode="layer"
     id="layer1"
     transform="translate(0,-275.83332)"
     style="display:inline"
     sodipodi:insensitive="true">
    <rect
       style="display:inline;fill:#84909b;fill-opacity:1;stroke:#c4c9cf;stroke-width:0.3;stroke-miterlimit:4;stroke-dasharray:none;stroke-opacity:1;paint-order:markers fill stroke"
       id="rect867-3"
       width="18.295782"
       height="18.296085"
       x="1.4353136"
       y="277.26862"
       ry="4.5740414" />
  </g>
  <g
     inkscape:groupmode="layer"
     id="layer2"
     inkscape:label="textes"
     style="display:none"
     sodipodi:insensitive="true">
    <text
       xml:space="preserve"
       style="font-style:normal;font-weight:normal;font-size:8.06294px;line-height:1.25;font-family:sans-serif;letter-spacing:0px;word-spacing:0px;display:inline;fill:#495057;fill-opacity:1;stroke:none;stroke-width:0.273053"
       x="6.7984142"
       y="12.445372"
       id="text4547-7"
       transform="scale(1.0011161,0.99888515)"><tspan
         sodipodi:role="line"
         id="tspan4545-5"
         x="6.7984142"
         y="12.445372"
         style="font-style:normal;font-variant:normal;font-weight:bold;font-stretch:normal;font-size:5.31272px;font-family:'Open 24 Display St';-inkscape-font-specification:'Open 24 Display St Bold';fill:#495057;fill-opacity:1;stroke:none;stroke-width:0.273053;stroke-opacity:1">0.02</tspan></text>
  </g>
  <g
     style="display:inline"
     inkscape:label="textes paths"
     id="g860"
     inkscape:groupmode="layer">
    <g
       aria-label=" "
       style="font-style:normal;font-weight:normal;font-size:10.5833px;line-height:1.25;font-family:sans-serif;letter-spacing:0px;word-spacing:0px;fill:#000000;fill-opacity:1;stroke:none;stroke-width:0.264583"
       id="text850" />
    <rect
       style="fill:#576069;fill-opacity:1;stroke:none;stroke-width:2.27008;stroke-miterlimit:4;stroke-dasharray:none;paint-order:markers fill stroke"
       id="rect861"
       width="5.2916665"
       height="1.3229176"
       x="7.9375"
       y="15.875"
       ry="0.44976157" />
    <rect
       style="display:inline;fill:#c4c9cf;fill-opacity:1;stroke:none;stroke-width:0.956256;stroke-miterlimit:4;stroke-dasharray:none;paint-order:markers fill stroke"
       id="rect861-3"
       width="2.645833"
       height="0.46949506"
       x="9.260417"
       y="3.96875"
       ry="0.15961754" />
    <g
       aria-label="0.02"
       transform="scale(0.99137318,1.0087019)"
       id="text4547-7-6"
       style="font-size:7.98447px;line-height:1.25;letter-spacing:0px;word-spacing:0px;display:inline;fill:#fbfcfc;stroke-width:0.270396"
       inkscape:label="002">
      <path
         d="m 7.2472912,8.6559236 h 1.459111 q 0.012844,0 0.1027543,0.1027543 0,0.012844 -0.3082629,0.3082629 H 7.4527998 q -0.012844,0 -0.3082629,-0.3082629 0,-0.012844 0.1027543,-0.1027543 z m 1.6543442,0.1027543 q 0.012844,0 0.1027543,0.1027543 v 1.4591108 q 0,0.01284 -0.1027543,0.102755 -0.012844,0 -0.3082629,-0.308263 V 9.0669408 q 0,-0.012844 0.3082629,-0.3082629 z m -1.8598528,0.010275 q 0.012844,0 0.3082629,0.3082629 V 10.12531 q 0,0.01284 -0.3082629,0.308263 -0.012844,0 -0.1027543,-0.102754 V 8.8717076 q 0,-0.012844 0.1027543,-0.1027543 z M 8.2542833,9.5704369 Q 8.2851096,9.6089697 8.4289656,9.9711786 8.007673,11.052668 7.9871221,11.07065 7.6274821,11.235057 7.5761049,11.235057 7.5350032,11.122027 7.5350032,11.080925 8.1104273,9.639796 8.1309781,9.621814 8.2337324,9.5704369 8.2542833,9.5704369 Z M 7.0417826,10.536327 q 0.012844,0 0.3082629,0.308263 v 1.048094 q 0,0.01284 -0.3082629,0.308263 -0.012844,0 -0.1027543,-0.102754 v -1.459111 q 0,-0.01285 0.1027543,-0.102755 z m 1.8598528,0.01028 q 0.012844,0 0.1027543,0.102754 v 1.459111 q 0,0.01284 -0.1027543,0.102754 -0.012844,0 -0.3082629,-0.308263 v -1.048093 q 0,-0.01284 0.3082629,-0.308263 z m -1.4591111,1.366632 h 1.0480939 q 0.012844,0 0.3082629,0.308263 0,0.01284 -0.1027543,0.102754 H 7.2370157 q -0.012844,0 -0.1027543,-0.102754 0,-0.01284 0.3082629,-0.308263 z"
         style="font-weight:bold;font-size:5.26102px;font-family:'Open 24 Display St';-inkscape-font-specification:'Open 24 Display St Bold'"
         id="path12212" />
      <path
         d="m 9.2792574,12.087917 v -0.02055 q 0,-0.01541 0.2466103,-0.24661 h 0.020551 q 0.015413,0 0.2466103,0.24661 v 0.02055 q 0,0.01541 -0.2466103,0.246611 h -0.020551 q -0.015413,0 -0.2466103,-0.246611 z"
         style="font-weight:bold;font-size:5.26102px;font-family:'Open 24 Display St';-inkscape-font-specification:'Open 24 Display St Bold'"
         id="path12214" />
      <path
         d="m 10.32992,8.6559236 h 1.459111 q 0.01284,0 0.102754,0.1027543 0,0.012844 -0.308262,0.3082629 h -1.048094 q -0.01285,0 -0.308263,-0.3082629 0,-0.012844 0.102754,-0.1027543 z m 1.654344,0.1027543 q 0.01285,0 0.102755,0.1027543 v 1.4591108 q 0,0.01284 -0.102755,0.102755 -0.01284,0 -0.308263,-0.308263 V 9.0669408 q 0,-0.012844 0.308263,-0.3082629 z m -1.859852,0.010275 q 0.01284,0 0.308262,0.3082629 V 10.12531 q 0,0.01284 -0.308262,0.308263 -0.01284,0 -0.102755,-0.102754 V 8.8717076 q 0,-0.012844 0.102755,-0.1027543 z m 1.2125,0.8014836 q 0.03083,0.038533 0.174683,0.4007417 -0.421293,1.0814894 -0.441844,1.0994714 -0.35964,0.164407 -0.411017,0.164407 -0.0411,-0.11303 -0.0411,-0.154132 0.575424,-1.441129 0.595975,-1.459111 0.102754,-0.051377 0.123305,-0.051377 z m -1.2125,0.9658901 q 0.01284,0 0.308262,0.308263 v 1.048094 q 0,0.01284 -0.308262,0.308263 -0.01284,0 -0.102755,-0.102754 v -1.459111 q 0,-0.01285 0.102755,-0.102755 z m 1.859852,0.01028 q 0.01285,0 0.102755,0.102754 v 1.459111 q 0,0.01284 -0.102755,0.102754 -0.01284,0 -0.308263,-0.308263 v -1.048093 q 0,-0.01284 0.308263,-0.308263 z m -1.459111,1.366632 h 1.048094 q 0.01284,0 0.308263,0.308263 0,0.01284 -0.102754,0.102754 h -1.459111 q -0.01284,0 -0.102755,-0.102754 0,-0.01284 0.308263,-0.308263 z"
         style="font-weight:bold;font-size:5.26102px;font-family:'Open 24 Display St';-inkscape-font-specification:'Open 24 Display St Bold'"
         id="path12216" />
      <path
         d="m 12.644461,8.6559236 h 1.459111 q 0.01284,0 0.102754,0.1027543 0,0.012844 -0.308263,0.3082629 h -1.048094 q -0.01284,0 -0.308263,-0.3082629 0,-0.012844 0.102755,-0.1027543 z m 1.664619,0.1130297 q 0.01285,0 0.102755,0.1027543 v 1.4591114 q 0,0.01284 -0.102755,0.102754 -0.01284,0 -0.308263,-0.308263 V 9.0772162 q 0,-0.012844 0.308263,-0.3082629 z m -1.55159,1.5207637 h 1.212501 q 0.01284,0 0.205509,0.205509 v 0.01028 q 0,0.01284 -0.205509,0.205509 H 12.75749 q -0.01284,0 -0.205508,-0.205509 v -0.01028 q 0,-0.01285 0.205508,-0.205509 z m -0.308262,0.256886 q 0.01284,0 0.308262,0.308263 v 1.048093 q 0,0.01285 -0.308262,0.308263 -0.01285,0 -0.102755,-0.102754 v -1.459111 q 0,-0.01284 0.102755,-0.102754 z m 0.411017,1.366632 h 1.048094 q 0.01284,0 0.308262,0.308263 0,0.01284 -0.102754,0.102754 h -1.459111 q -0.01284,0 -0.102754,-0.102754 0,-0.01284 0.308263,-0.308263 z"
         style="font-weight:bold;font-size:5.26102px;font-family:'Open 24 Display St';-inkscape-font-specification:'Open 24 Display St Bold'"
         id="path12218" />
    </g>
  </g>
</svg>
