<?xml version="1.0" encoding="UTF-8" standalone="no"?>
<svg
   xmlns:dc="http://purl.org/dc/elements/1.1/"
   xmlns:cc="http://creativecommons.org/ns#"
   xmlns:rdf="http://www.w3.org/1999/02/22-rdf-syntax-ns#"
   xmlns:svg="http://www.w3.org/2000/svg"
   xmlns="http://www.w3.org/2000/svg"
   xmlns:sodipodi="http://sodipodi.sourceforge.net/DTD/sodipodi-0.dtd"
   xmlns:inkscape="http://www.inkscape.org/namespaces/inkscape"
   inkscape:version="1.0.2 (e86c870879, 2021-01-15)"
   sodipodi:docname="lungs-solid.svg"
   id="svg4"
   version="1.1"
   viewBox="0 0 128 128"
   role="img"
   class="svg-inline--fa fa-lungs fa-w-20"
   data-icon="lungs"
   data-prefix="fas"
   focusable="false"
   aria-hidden="true"
   width="128"
   height="128">
  <metadata
     id="metadata10">
    <rdf:RDF>
      <cc:Work
         rdf:about="">
        <dc:format>image/svg+xml</dc:format>
        <dc:type
           rdf:resource="http://purl.org/dc/dcmitype/StillImage" />
        <dc:title />
      </cc:Work>
    </rdf:RDF>
  </metadata>
  <defs
     id="defs8" />
  <sodipodi:namedview
     inkscape:current-layer="svg4"
     inkscape:window-maximized="0"
     inkscape:window-y="123"
     inkscape:window-x="1024"
     inkscape:cy="65.927673"
     inkscape:cx="46.370915"
     inkscape:zoom="4.8350832"
     showgrid="false"
     id="namedview6"
     inkscape:window-height="1052"
     inkscape:window-width="1955"
     inkscape:pageshadow="2"
     inkscape:pageopacity="0"
     guidetolerance="10"
     gridtolerance="10"
     objecttolerance="10"
     borderopacity="1"
     bordercolor="#666666"
     pagecolor="#ffffff"
     inkscape:document-rotation="0"
     inkscape:snap-bbox="true"
     inkscape:bbox-paths="true"
     inkscape:snap-page="true"
     inkscape:snap-grids="false"
     inkscape:bbox-nodes="true"
     inkscape:snap-bbox-edge-midpoints="true" />
  <path
     style="fill:#848e98;fill-opacity:1;stroke-width:0.166325"
     id="path2"
     d="M 116.57689,85.512478 C 112.97264,71.990282 107.25606,59.041904 99.610113,47.088151 95.931003,41.338307 93.61078,36.588076 86.295819,36.588076 c -6.435101,0 -11.651044,4.89327 -11.651044,10.929193 v 9.997776 L 69.176021,53.869209 A 2.6605293,2.6605293 0 0 1 67.991789,51.655426 V 23.282101 c 0,-1.47031 -1.190885,-2.661194 -2.661195,-2.661194 H 62.6694 c -1.47031,0 -2.661196,1.190884 -2.661196,2.661194 v 28.373325 c 0,0.889837 -0.444086,1.719798 -1.184231,2.213783 l -5.468755,3.645836 v -9.997776 c 0,-6.035923 -5.215941,-10.929193 -11.651043,-10.929193 -7.314959,0 -9.635187,4.750231 -13.314289,10.500075 -7.645945,11.953753 -13.362524,24.902131 -16.96678,38.424327 -0.430781,1.611684 -0.647003,3.266615 -0.647003,4.928199 0,10.184063 10.391966,17.537273 20.830501,14.739693 l 9.896319,-2.65288 c 7.015574,-1.87947 11.852295,-7.895429 11.852295,-14.739692 V 73.236052 L 39.07791,82.754813 A 1.3292667,1.3292667 0 0 1 37.233368,82.385574 L 35.756405,80.171792 A 1.3292667,1.3292667 0 0 1 36.125646,78.32725 L 63.999997,59.745458 91.874348,78.32725 a 1.3295995,1.3295995 0 0 1 0.369241,1.844542 l -1.476963,2.213782 a 1.3295995,1.3295995 0 0 1 -1.844541,0.369239 l -14.27731,-9.518761 v 14.551746 c 0,6.844263 4.836722,12.858562 11.852297,14.739692 l 9.896314,2.65288 c 10.438544,2.79758 20.830514,-4.55563 20.830514,-14.739693 0,-1.661584 -0.21623,-3.316515 -0.64701,-4.928199 z"
     fill="currentColor" />
</svg>
