<?xml version="1.0" encoding="UTF-8" standalone="no"?>
<svg
   xmlns:dc="http://purl.org/dc/elements/1.1/"
   xmlns:cc="http://creativecommons.org/ns#"
   xmlns:rdf="http://www.w3.org/1999/02/22-rdf-syntax-ns#"
   xmlns:svg="http://www.w3.org/2000/svg"
   xmlns="http://www.w3.org/2000/svg"
   xmlns:sodipodi="http://sodipodi.sourceforge.net/DTD/sodipodi-0.dtd"
   xmlns:inkscape="http://www.inkscape.org/namespaces/inkscape"
   inkscape:version="1.0.2 (e86c870879, 2021-01-15)"
   sodipodi:docname="radiation-alt-solid.svg"
   id="svg4"
   version="1.1"
   viewBox="0 0 128 128"
   role="img"
   class="svg-inline--fa fa-radiation-alt fa-w-16"
   data-icon="radiation-alt"
   data-prefix="fas"
   focusable="false"
   aria-hidden="true"
   width="128"
   height="128">
  <metadata
     id="metadata10">
    <rdf:RDF>
      <cc:Work
         rdf:about="">
        <dc:format>image/svg+xml</dc:format>
        <dc:type
           rdf:resource="http://purl.org/dc/dcmitype/StillImage" />
        <dc:title />
      </cc:Work>
    </rdf:RDF>
  </metadata>
  <defs
     id="defs8" />
  <sodipodi:namedview
     inkscape:current-layer="svg4"
     inkscape:window-maximized="0"
     inkscape:window-y="236"
     inkscape:window-x="810"
     inkscape:cy="15.980567"
     inkscape:cx="-130.73866"
     inkscape:zoom="2.2488057"
     showgrid="false"
     id="namedview6"
     inkscape:window-height="1056"
     inkscape:window-width="2389"
     inkscape:pageshadow="2"
     inkscape:pageopacity="0"
     guidetolerance="10"
     gridtolerance="10"
     objecttolerance="10"
     borderopacity="1"
     bordercolor="#666666"
     pagecolor="#ffffff"
     inkscape:document-rotation="0"
     inkscape:snap-page="true"
     inkscape:snap-grids="false"
     inkscape:snap-bbox="true"
     inkscape:bbox-paths="true"
     inkscape:snap-bbox-edge-midpoints="true"
     inkscape:bbox-nodes="true" />
  <path
     style="fill:#848e98;fill-opacity:1;stroke-width:0.197029"
     id="path2"
     d="m 76.609906,63.999998 h 15.585053 c 1.812679,0 3.329803,-1.517129 3.152475,-3.3101 -0.906332,-8.590498 -5.3198,-16.117036 -11.723268,-21.23981 -1.497427,-1.201882 -3.70416,-0.886634 -4.728715,0.748713 L 70.679309,53.36039 c 3.546536,2.206733 5.930597,6.147329 5.930597,10.639608 z M 57.340393,74.659309 49.104549,87.840601 c -0.965446,1.536832 -0.472871,3.625348 1.142773,4.433173 4.157328,2.049109 8.807231,3.250988 13.752678,3.250988 4.945447,0 9.59535,-1.201879 13.772382,-3.250988 1.615644,-0.807825 2.088515,-2.896341 1.142772,-4.433173 L 70.679309,74.659309 c -1.930891,1.221585 -4.216437,1.950594 -6.659606,1.950594 -2.44317,0 -4.748417,-0.729009 -6.67931,-1.950594 z M 35.805039,63.999998 h 15.585055 c 0,-4.492279 2.384061,-8.432875 5.950299,-10.659311 L 49.124252,40.179098 c -1.024555,-1.635347 -3.231288,-1.950595 -4.728715,-0.748713 -6.423171,5.122774 -10.816934,12.649311 -11.723272,21.23981 -0.216732,1.812674 1.3201,3.329803 3.132774,3.329803 z M 64,112.86338 c 26.99308,0 48.86338,-21.870303 48.86338,-48.863382 0,-26.993079 -21.8703,-48.863383 -48.86338,-48.863383 -26.99308,0 -48.863385,21.870304 -48.863385,48.863383 0,26.993079 21.870305,48.863382 48.863385,48.863382 z m 0,-85.116859 c 19.998522,0 36.25348,16.254955 36.25348,36.253477 0,19.998523 -16.254958,36.253482 -36.25348,36.253482 -19.998522,0 -36.253479,-16.254959 -36.253479,-36.253482 0,-19.998522 16.254957,-36.253477 36.253479,-36.253477 z m 0,42.55843 c 3.487427,0 6.304953,-2.817526 6.304953,-6.304953 0,-3.487427 -2.817526,-6.304953 -6.304953,-6.304953 -3.487427,0 -6.304953,2.817526 -6.304953,6.304953 0,3.487427 2.817526,6.304953 6.304953,6.304953 z"
     fill="currentColor" />
</svg>
