<?xml version="1.0" encoding="UTF-8" standalone="no"?>
<svg
   sodipodi:docname="ropot.svg"
   inkscape:version="1.2.2 (b0a8486541, 2022-12-01)"
   id="svg8"
   version="1.1"
   viewBox="0 0 21.166666 21.166667"
   height="80"
   width="80"
   xmlns:inkscape="http://www.inkscape.org/namespaces/inkscape"
   xmlns:sodipodi="http://sodipodi.sourceforge.net/DTD/sodipodi-0.dtd"
   xmlns="http://www.w3.org/2000/svg"
   xmlns:svg="http://www.w3.org/2000/svg"
   xmlns:rdf="http://www.w3.org/1999/02/22-rdf-syntax-ns#"
   xmlns:cc="http://creativecommons.org/ns#"
   xmlns:dc="http://purl.org/dc/elements/1.1/">
  <defs
     id="defs2" />
  <sodipodi:namedview
     inkscape:document-rotation="0"
     inkscape:guide-bbox="true"
     showguides="true"
     inkscape:snap-grids="true"
     inkscape:snap-others="false"
     inkscape:snap-nodes="false"
     inkscape:object-paths="false"
     inkscape:snap-midpoints="true"
     inkscape:snap-smooth-nodes="true"
     inkscape:bbox-nodes="true"
     inkscape:snap-intersection-paths="true"
     inkscape:snap-bbox="true"
     inkscape:snap-object-midpoints="false"
     inkscape:window-maximized="1"
     inkscape:window-y="0"
     inkscape:window-x="0"
     inkscape:window-height="1355"
     inkscape:window-width="3440"
     borderlayer="true"
     units="px"
     showgrid="true"
     inkscape:current-layer="layer1"
     inkscape:document-units="mm"
     inkscape:cy="31.2767"
     inkscape:cx="34.669635"
     inkscape:zoom="16.21015"
     inkscape:pageshadow="2"
     inkscape:pageopacity="0.0"
     borderopacity="1"
     bordercolor="#ff0101"
     pagecolor="#ffffff"
     id="base"
     inkscape:showpageshadow="2"
     inkscape:pagecheckerboard="0"
     inkscape:deskcolor="#d1d1d1">
    <inkscape:grid
       id="grid4518"
       type="xygrid" />
    <sodipodi:guide
       inkscape:locked="false"
       id="guide911"
       orientation="0,1"
       position="15.610417,2.1166666" />
    <sodipodi:guide
       inkscape:locked="false"
       id="guide942"
       orientation="1,0"
       position="10.583333,19.84375" />
  </sodipodi:namedview>
  <metadata
     id="metadata5">
    <rdf:RDF>
      <cc:Work
         rdf:about="">
        <dc:format>image/svg+xml</dc:format>
        <dc:type
           rdf:resource="http://purl.org/dc/dcmitype/StillImage" />
        <dc:title />
        <cc:license
           rdf:resource="http://creativecommons.org/licenses/by-sa/4.0/" />
      </cc:Work>
      <cc:License
         rdf:about="http://creativecommons.org/licenses/by-sa/4.0/">
        <cc:permits
           rdf:resource="http://creativecommons.org/ns#Reproduction" />
        <cc:permits
           rdf:resource="http://creativecommons.org/ns#Distribution" />
        <cc:requires
           rdf:resource="http://creativecommons.org/ns#Notice" />
        <cc:requires
           rdf:resource="http://creativecommons.org/ns#Attribution" />
        <cc:permits
           rdf:resource="http://creativecommons.org/ns#DerivativeWorks" />
        <cc:requires
           rdf:resource="http://creativecommons.org/ns#ShareAlike" />
      </cc:License>
    </rdf:RDF>
  </metadata>
  <g
     transform="translate(0,-275.83332)"
     id="layer1"
     inkscape:groupmode="layer"
     inkscape:label="body">
    <path
       style="color:#000000;opacity:0.4;stroke-width:0.964764;-inkscape-stroke:none"
       d="m 3.8329932,282.67509 v 0.39006 H 17.318968 v -0.39006 z"
       id="path919-9" />
    <path
       style="color:#000000;opacity:0.4;stroke-width:0.985582;-inkscape-stroke:none"
       d="m 3.1146354,281.54102 v 0.40625 H 18.05138 v -0.40625 z"
       id="path919" />
    <path
       id="path938"
       style="opacity:0.4;stroke-width:0.202495"
       d="m 11.515286,280.16772 a 0.93195379,0.90074193 0 0 1 -0.931954,0.90075 0.93195379,0.90074193 0 0 1 -0.9319537,-0.90075 0.93195379,0.90074193 0 0 1 0.9319537,-0.90074 0.93195379,0.90074193 0 0 1 0.931954,0.90074 z" />
    <path
       id="rect822"
       style="color:#000000;-inkscape-stroke:none;opacity:0.66"
       d="M 2.661853 277.94947 C 2.5146079 277.94947 2.3834397 278.03315 2.3104533 278.11742 C 2.2374664 278.20162 2.1992352 278.28817 2.1719604 278.37322 C 2.1174105 278.5433 2.103522 278.7047 2.129069 278.86518 L 2.5957072 281.7911 C 2.6256082 281.97894 2.6897489 282.03034 2.7615885 282.13888 C 2.8334275 282.24742 2.9195725 282.36762 3.003951 282.48459 C 3.0883289 282.60157 3.1699304 282.71566 3.2266764 282.80447 C 3.2550494 282.84887 3.2779859 282.88774 3.2892049 282.91041 C 3.2921571 282.91638 3.2918416 282.91743 3.2928223 282.92126 L 3.9677165 293.15061 L 3.7305216 293.15061 C 3.5621319 293.15061 3.4059937 293.29346 3.4059937 293.47255 L 3.4059937 294.56034 C 3.4059937 294.73942 3.5621319 294.8828 3.7305216 294.8828 L 17.437695 294.8828 C 17.606085 294.8828 17.759639 294.73942 17.759639 294.56034 L 17.759639 293.47255 C 17.759639 293.29346 17.606085 293.15061 17.437695 293.15061 L 17.198433 293.15061 L 17.876945 282.90214 C 17.866845 282.99364 17.887098 282.89424 17.943608 282.80654 C 18.001408 282.71674 18.081804 282.6019 18.165816 282.48459 C 18.249826 282.36729 18.337069 282.24755 18.408179 282.13888 C 18.479289 282.03021 18.542988 281.9765 18.57251 281.7911 L 19.037081 278.86518 C 19.062631 278.7047 19.048739 278.5433 18.994189 278.37322 C 18.966919 278.28822 18.930236 278.20164 18.857247 278.11742 C 18.784257 278.03322 18.653093 277.94947 18.505847 277.94947 L 2.661853 277.94947 z M 2.7502197 278.55667 L 18.41593 278.55667 C 18.416333 278.55767 18.415536 278.55747 18.41593 278.55874 C 18.43683 278.62393 18.441534 278.74512 18.437634 278.76957 L 17.972546 281.69756 C 17.987346 281.60466 17.958019 281.71381 17.898649 281.80453 C 17.839289 281.89523 17.756165 282.01125 17.67179 282.12906 C 17.58741 282.24687 17.502151 282.36703 17.431494 282.47684 C 17.360834 282.58665 17.29387 282.63967 17.271297 282.83599 L 17.26923 282.84219 L 16.589685 293.15061 L 4.5759481 293.15061 L 3.896403 282.84943 C 3.889463 282.74429 3.8610715 282.69568 3.8338745 282.64066 C 3.8066775 282.58566 3.7757731 282.53384 3.7403402 282.47839 C 3.6694742 282.36748 3.5810516 282.24709 3.4959106 282.12906 C 3.4107697 282.01102 3.3275504 281.89525 3.2675008 281.80453 C 3.2074509 281.71383 3.1799738 281.60167 3.1951538 281.69704 L 2.7285156 278.76957 C 2.7246256 278.74507 2.7293227 278.62389 2.7502197 278.55874 C 2.7506018 278.55774 2.7498285 278.55787 2.7502197 278.55667 z M 4.0137085 293.75781 L 17.152441 293.75781 L 17.152441 294.27561 L 4.0137085 294.27561 L 4.0137085 293.75781 z " />
  </g>
</svg>
