<?xml version="1.0" encoding="UTF-8" standalone="no"?>
<svg
   sodipodi:docname="thermobeacon_round.svg"
   inkscape:version="1.2.2 (b0a8486541, 2022-12-01)"
   id="svg8"
   version="1.1"
   viewBox="0 0 21.166666 21.166667"
   height="80"
   width="80"
   xmlns:inkscape="http://www.inkscape.org/namespaces/inkscape"
   xmlns:sodipodi="http://sodipodi.sourceforge.net/DTD/sodipodi-0.dtd"
   xmlns="http://www.w3.org/2000/svg"
   xmlns:svg="http://www.w3.org/2000/svg"
   xmlns:rdf="http://www.w3.org/1999/02/22-rdf-syntax-ns#"
   xmlns:cc="http://creativecommons.org/ns#"
   xmlns:dc="http://purl.org/dc/elements/1.1/">
  <defs
     id="defs2" />
  <sodipodi:namedview
     inkscape:document-rotation="0"
     inkscape:snap-grids="false"
     inkscape:snap-center="true"
     inkscape:snap-midpoints="true"
     inkscape:snap-smooth-nodes="true"
     inkscape:snap-bbox-edge-midpoints="true"
     inkscape:bbox-nodes="true"
     inkscape:snap-intersection-paths="true"
     inkscape:object-paths="true"
     inkscape:snap-bbox="false"
     inkscape:snap-object-midpoints="true"
     inkscape:window-maximized="0"
     inkscape:window-y="0"
     inkscape:window-x="1495"
     inkscape:window-height="1355"
     inkscape:window-width="1945"
     borderlayer="true"
     units="px"
     showgrid="true"
     inkscape:current-layer="layer1"
     inkscape:document-units="mm"
     inkscape:cy="40.89771"
     inkscape:cx="34.070431"
     inkscape:zoom="15.159773"
     inkscape:pageshadow="2"
     inkscape:pageopacity="0.0"
     borderopacity="1"
     bordercolor="#ff0101"
     pagecolor="#ffffff"
     id="base"
     inkscape:showpageshadow="2"
     inkscape:pagecheckerboard="0"
     inkscape:deskcolor="#d1d1d1">
    <inkscape:grid
       id="grid4518"
       type="xygrid" />
  </sodipodi:namedview>
  <metadata
     id="metadata5">
    <rdf:RDF>
      <cc:Work
         rdf:about="">
        <dc:format>image/svg+xml</dc:format>
        <dc:type
           rdf:resource="http://purl.org/dc/dcmitype/StillImage" />
        <dc:title />
        <cc:license
           rdf:resource="http://creativecommons.org/licenses/by-sa/4.0/" />
      </cc:Work>
      <cc:License
         rdf:about="http://creativecommons.org/licenses/by-sa/4.0/">
        <cc:permits
           rdf:resource="http://creativecommons.org/ns#Reproduction" />
        <cc:permits
           rdf:resource="http://creativecommons.org/ns#Distribution" />
        <cc:requires
           rdf:resource="http://creativecommons.org/ns#Notice" />
        <cc:requires
           rdf:resource="http://creativecommons.org/ns#Attribution" />
        <cc:permits
           rdf:resource="http://creativecommons.org/ns#DerivativeWorks" />
        <cc:requires
           rdf:resource="http://creativecommons.org/ns#ShareAlike" />
      </cc:License>
    </rdf:RDF>
  </metadata>
  <g
     style="display:inline"
     transform="translate(0,-275.83332)"
     id="layer1"
     inkscape:groupmode="layer"
     inkscape:label="body">
    <path
       id="rect867"
       style="opacity:0.66;stroke-width:0.333223;paint-order:markers fill stroke;stroke:none"
       d="m 8.9313105,277.19077 c -0.2040298,0 -0.3683576,0.16432 -0.3683576,0.36836 v 2.3904 c 0,0.0655 0.017379,0.12704 0.047158,0.18024 0.6302048,-0.16643 1.2912867,-0.2557 1.9733071,-0.2557 0.682595,0 1.344632,0.0895 1.975402,0.25623 0.02993,-0.0533 0.04716,-0.11507 0.04716,-0.18077 v -2.3904 c 0,-0.20404 -0.164327,-0.36836 -0.368358,-0.36836 z" />
    <path
       style="color:#000000;display:inline;opacity:0.4;-inkscape-stroke:none;stroke:none"
       d="m 10.58349,279.85782 c -4.2033072,0 -7.6191411,3.41521 -7.6191411,7.61719 0,4.20198 3.4158339,7.61719 7.6191411,7.61719 4.203307,0 7.621094,-3.41521 7.621094,-7.61719 0,-4.20198 -3.417787,-7.61719 -7.621094,-7.61719 z m 0,0.875 c 3.730264,0 6.746094,3.01361 6.746094,6.74219 0,3.72858 -3.01583,6.74219 -6.746094,6.74219 -3.7302641,0 -6.7441411,-3.01361 -6.7441411,-6.74219 0,-3.72858 3.013877,-6.74219 6.7441411,-6.74219 z"
       id="path4543-3" />
    <g
       id="g877"
       transform="matrix(0.26458333,0,0,0.26458333,8.1408022,283.005)"
       style="opacity:0.66;fill-opacity:1;stroke:none"
       inkscape:label="img">
      <path
         id="path4"
         d="m 9.2358956,1.4706891 c -2.5603545,0 -4.6271467,2.0667922 -4.6271467,4.6271467 V 18.436893 c -1.8662825,1.403568 -3.0847645,3.655446 -3.0847645,6.169529 0,4.256975 3.4549362,7.711911 7.7119112,7.711911 4.2569754,0 7.7119114,-3.454936 7.7119114,-7.711911 0,-2.514083 -1.218482,-4.765961 -3.084764,-6.169529 V 6.0978358 c 0,-2.5603545 -2.066792,-4.6271467 -4.6271474,-4.6271467 z m 0,3.0847644 c 0.8483104,0 1.5423824,0.694072 1.5423824,1.5423823 H 9.2358956 V 7.640218 h 1.5423824 v 3.084764 H 9.2358956 v 1.542383 h 1.5423824 v 3.084764 H 9.2358956 v 1.542382 h 1.5423824 v 3.533622 c 1.749853,0.64575 2.912302,2.313088 2.913054,4.178289 -1.08e-4,2.460624 -1.994812,4.455329 -4.4554364,4.455437 -2.4606241,-1.08e-4 -4.4553281,-1.994813 -4.4554362,-4.455437 7.52e-4,-1.865201 1.1632011,-3.532539 2.9130542,-4.178289 V 6.0978358 c 0,-0.8483103 0.694072,-1.5423823 1.542382,-1.5423823 z"
         sodipodi:nodetypes="sscssscssscccccccccccccccccss"
         style="fill-opacity:1;stroke-width:1.54238;stroke:none" />
    </g>
  </g>
</svg>
