<?xml version="1.0" encoding="UTF-8" standalone="no"?>
<svg
   width="80"
   height="80"
   viewBox="0 0 21.166666 21.166667"
   version="1.1"
   id="svg8"
   inkscape:version="1.2.2 (b0a8486541, 2022-12-01)"
   sodipodi:docname="wp6003.svg"
   xmlns:inkscape="http://www.inkscape.org/namespaces/inkscape"
   xmlns:sodipodi="http://sodipodi.sourceforge.net/DTD/sodipodi-0.dtd"
   xmlns="http://www.w3.org/2000/svg"
   xmlns:svg="http://www.w3.org/2000/svg"
   xmlns:rdf="http://www.w3.org/1999/02/22-rdf-syntax-ns#"
   xmlns:cc="http://creativecommons.org/ns#"
   xmlns:dc="http://purl.org/dc/elements/1.1/">
  <defs
     id="defs2">
    <inkscape:perspective
       sodipodi:type="inkscape:persp3d"
       inkscape:vp_x="0 : 10.583334 : 1"
       inkscape:vp_y="0 : 1000 : 0"
       inkscape:vp_z="21.166666 : 10.583334 : 1"
       inkscape:persp3d-origin="10.583333 : 7.0555557 : 1"
       id="perspective848" />
  </defs>
  <sodipodi:namedview
     id="base"
     pagecolor="#ffffff"
     bordercolor="#ff0101"
     borderopacity="1"
     inkscape:pageopacity="0.0"
     inkscape:pageshadow="2"
     inkscape:zoom="10.787404"
     inkscape:cx="29.617877"
     inkscape:cy="35.040868"
     inkscape:document-units="mm"
     inkscape:current-layer="layer1"
     showgrid="true"
     units="px"
     borderlayer="true"
     inkscape:window-width="2188"
     inkscape:window-height="1355"
     inkscape:window-x="1252"
     inkscape:window-y="0"
     inkscape:window-maximized="0"
     inkscape:snap-object-midpoints="true"
     inkscape:snap-bbox="true"
     inkscape:object-paths="true"
     inkscape:snap-intersection-paths="true"
     inkscape:bbox-nodes="true"
     inkscape:snap-bbox-edge-midpoints="true"
     inkscape:snap-smooth-nodes="true"
     inkscape:snap-midpoints="true"
     inkscape:snap-center="true"
     inkscape:snap-grids="true"
     inkscape:document-rotation="0"
     inkscape:snap-nodes="false"
     inkscape:snap-others="true"
     inkscape:snap-global="true"
     inkscape:showpageshadow="2"
     inkscape:pagecheckerboard="0"
     inkscape:deskcolor="#d1d1d1">
    <inkscape:grid
       type="xygrid"
       id="grid4518" />
  </sodipodi:namedview>
  <metadata
     id="metadata5">
    <rdf:RDF>
      <cc:Work
         rdf:about="">
        <dc:format>image/svg+xml</dc:format>
        <dc:type
           rdf:resource="http://purl.org/dc/dcmitype/StillImage" />
        <dc:title />
        <cc:license
           rdf:resource="http://creativecommons.org/licenses/by-sa/4.0/" />
      </cc:Work>
      <cc:License
         rdf:about="http://creativecommons.org/licenses/by-sa/4.0/">
        <cc:permits
           rdf:resource="http://creativecommons.org/ns#Reproduction" />
        <cc:permits
           rdf:resource="http://creativecommons.org/ns#Distribution" />
        <cc:requires
           rdf:resource="http://creativecommons.org/ns#Notice" />
        <cc:requires
           rdf:resource="http://creativecommons.org/ns#Attribution" />
        <cc:permits
           rdf:resource="http://creativecommons.org/ns#DerivativeWorks" />
        <cc:requires
           rdf:resource="http://creativecommons.org/ns#ShareAlike" />
      </cc:License>
    </rdf:RDF>
  </metadata>
  <g
     inkscape:label="body"
     inkscape:groupmode="layer"
     id="layer1"
     transform="translate(0,-275.83332)"
     style="display:inline">
    <path
       id="rect867-3"
       style="display:inline;stroke-width:2.33848;paint-order:markers fill stroke;opacity:0.15;stroke:none"
       d="m 8.3114882,278.66812 h 4.5436898 c 3.452866,0 6.232611,3.16154 6.232611,7.08866 v 2.83161 c 0,3.92712 -2.779745,7.08866 -6.232611,7.08866 H 8.3114882 c -3.4528664,0 -6.2326108,-3.16154 -6.2326108,-7.08866 v -2.83161 c 0,-3.92712 2.7797444,-7.08866 6.2326108,-7.08866 z" />
    <path
       id="path924"
       style="opacity:0.4;stroke-width:3.43146;paint-order:markers fill stroke;stroke:none"
       d="m 10.866807,284.90472 a 0.28347728,0.28348336 0 0 1 -0.283477,0.28349 0.28347728,0.28348336 0 0 1 -0.283477,-0.28349 0.28347728,0.28348336 0 0 1 0.283477,-0.28348 0.28347728,0.28348336 0 0 1 0.283477,0.28348 z" />
    <path
       style="color:#000000;-inkscape-stroke:none;paint-order:markers fill stroke;opacity:0.15;stroke:none"
       d="m 10.583984,280.07617 c -3.8968883,0 -7.0957039,3.19882 -7.0957027,7.0957 -1.2e-6,3.89689 3.1988144,7.09571 7.0957027,7.09571 3.896889,0 7.095705,-3.19882 7.095703,-7.09571 2e-6,-3.89688 -3.198814,-7.0957 -7.095703,-7.0957 z m 0,3.72461 c 1.884135,0 3.371095,1.48696 3.371094,3.37109 10e-7,1.88414 -1.486959,3.37305 -3.371094,3.37305 -1.8841343,0 -3.3730471,-1.48891 -3.3730465,-3.37305 -6e-7,-1.88413 1.4889122,-3.37109 3.3730465,-3.37109 z"
       id="path882" />
  </g>
  <g
     style="display:inline"
     inkscape:label="cable"
     id="g860"
     inkscape:groupmode="layer">
    <path
       id="rect861"
       style="opacity:0.4;fill-opacity:1;stroke:none;stroke-width:0.856664;stroke-miterlimit:4;stroke-dasharray:none;paint-order:markers fill stroke"
       d="m 10.44019,0 v 1.4174845 h -0.296623 v 1.133781 H 9.7327393 V 2.8349691 H 11.433927 V 2.5512655 H 11.0231 V 1.4174845 H 10.723893 V 0 Z" />
  </g>
</svg>
